<svg xmlns="http://www.w3.org/2000/svg" id="Calque_1" data-name="Calque 1" viewBox="0 0 600 700">
  <defs>
    <style>
      @font-face {
          font-family: 'Affogato-Bold';
          src: url('../../fonts/webfont/Affogato-Bold.eot');
          src: url('../../fonts/webfont/Affogato-Bold.eot?#iefix') format('embedded-opentype'),
              url('../../fonts/webfont/Affogato-Bold.woff') format('woff'),
              url('../../fonts/webfont/Affogato-Bold.woff2') format('woff2'),
              url('../../fonts/webfont/Affogato-Bold.ttf')  format('truetype'),
              url('../../fonts/webfont/Affogato-Bold.svg') format('svg');
          font-weight: normal;
          font-style: normal;
      }
      @font-face {
          font-family: 'Affogato-Medium';
          src: url('../../fonts/webfont/Affogato-Medium.eot');
          src: url('../../fonts/webfont/Affogato-Medium.eot?#iefix') format('embedded-opentype'),
              url('../../fonts/webfont/Affogato-Medium.woff') format('woff'),
              url('../../fonts/webfont/Affogato-Medium.woff2') format('woff2'),
              url('../../fonts/webfont/Affogato-Medium.ttf')  format('truetype'),
              url('../../fonts/webfont/Affogato-Medium.svg') format('svg');
          font-weight: normal;
          font-style: normal;
      }
      .cls-1{
        fill:#43a372;
      }
      .cls-2{fill:#62b132;}.cls-19,.cls-3,.cls-41{font-size:23.41px;}.cls-3,.cls-7{fill:#fdfdfd;}.cls-19,.cls-3,.cls-43,.cls-61{font-family:Affogato-Bold, Affogato;font-weight:700;}.cls-4{letter-spacing:-0.01em;}.cls-5{letter-spacing:0em;}.cls-6{letter-spacing:0em;}.cls-23,.cls-43,.cls-7{font-size:26.54px;}.cls-23,.cls-41,.cls-7{font-family:Affogato-Medium, Affogato;}.cls-8{fill:#2291d0;}.cls-23,.cls-41,.cls-51,.cls-9{fill:#fff;}.cls-10{letter-spacing:-0.02em;}.cls-11{letter-spacing:0em;}.cls-12{letter-spacing:0em;}.cls-13{fill:#464756;}.cls-14{fill:#bfc9dc;}.cls-15{fill:#aebad0;}.cls-16{fill:#96a4ba;}.cls-17{fill:#e3eaf7;}.cls-18{fill:#ea646d;}.cls-19,.cls-61{fill:#fbfcfd;}.cls-20{letter-spacing:0em;}.cls-21{letter-spacing:0em;}.cls-22{letter-spacing:0em;}.cls-24{letter-spacing:0.03em;}.cls-25{letter-spacing:-0.01em;}.cls-26{letter-spacing:-0.01em;}.cls-27{fill:#1f92d1;}.cls-28,.cls-57{fill:#010101;}.cls-28{opacity:0.1;}.cls-29{fill:#473436;}.cls-30{fill:#ecf0f1;}.cls-31{fill:#304449;}.cls-32{opacity:0.5;}.cls-33{fill:#4c6169;}.cls-34{fill:#fcd5bb;}.cls-35{fill:#ba774f;}.cls-36{fill:#793a3c;}.cls-37{fill:#e6a984;}.cls-38{fill:#4a5d64;}.cls-39{fill:#3b97d3;}.cls-40{fill:#c2e6fb;}.cls-42{letter-spacing:-0.02em;}.cls-43{fill:#f8f9fa;}.cls-44{letter-spacing:-0.02em;}.cls-45{fill:#eda677;}.cls-46,.cls-50{fill:#1b384b;}.cls-46,.cls-47,.cls-48,.cls-57{fill-rule:evenodd;}.cls-47{fill:#dddbdb;}.cls-48{fill:#e9eaf1;}.cls-49{fill:#0e2a30;}.cls-51{opacity:0.2;}.cls-52{fill:#e3ac92;}.cls-53{fill:#f8d1a4;}.cls-54{fill:#edbda9;}.cls-55{fill:#171e22;}.cls-56{fill:#e4e1e1;}.cls-58{fill:#e84c3d;}.cls-59{fill:#5bb24d;}.cls-60{fill:#2e2e2e;}.cls-61{font-size:29px;}.cls-62{letter-spacing:-0.02em;}.cls-63{letter-spacing:-0.01em;}.cls-64{letter-spacing:0em;}.cls-65{letter-spacing:0em;}.cls-66{font-size:20.04px;}.cls-67{fill:#f298a5;}.cls-68{fill:#ec6b7c;}.cls-69{fill:#f9b70a;}.cls-70{fill:#dc0744;}.cls-71{fill:#ffd13d;}
    </style>
  </defs>
  <path d="M0 0h300v350H0zm300 350h300v350H300z" class="cls-1"/>
  <path d="M300 0h300v350H300zM0 350h300v350H0z" class="cls-2"/>
  <text class="cls-3" transform="matrix(1.1 0 0 1 72.8 216.4)">
    In<tspan x="20.22" y="0" class="cls-4">f</tspan><tspan x="27.96" y="0">or</tspan><tspan x="49.07" y="0" class="cls-5">m</tspan><tspan x="68.09" y="0" class="cls-6">ez-vous</tspan>
  </text>
  <text class="cls-7" transform="matrix(1.1 0 0 1 129.9 244.6)">
    sur<tspan x="36.55" y="0" class="cls-8"> </tspan><tspan class="cls-9"><tspan x="-54.22" y="31.84">Be </tspan><tspan x="-16.16" y="31.84" class="cls-10">M</tspan><tspan x="4.43" y="31.84" class="cls-11">o</tspan><tspan x="19.12" y="31.84">ov</tspan><tspan x="46.77" y="31.84" class="cls-12">ee</tspan><tspan x="76.2" y="31.84">d</tspan></tspan>
  </text>
  <path d="M210.63 65.42H99.88a4.22 4.22 0 0 0-4.1 4.33V139h119V69.75a4.22 4.22 0 0 0-4.1-4.33zm-2.05 67.1H101.93v-60.6h106.65zm0 0" class="cls-13"/>
  <path d="M142.95 99a1.05 1.05 0 0 1 1 1.08h3.08v-3.27h-4.1a1.08 1.08 0 0 1 0-2.16h4.1V80.58h-18.44v19.48h13.33a1.06 1.06 0 0 1 1-1.08zm0 0" class="cls-9"/>
  <path d="M101.93 132.53h106.65V71.92H101.93zm45.12-5.41h-4.1a1.08 1.08 0 0 1 0-2.16h4.1a1.08 1.08 0 0 1 0 2.16zm-4.1-10.82a1.05 1.05 0 0 1 1 1.08v4.33a1 1 0 1 1-2.05 0v-4.33a1.06 1.06 0 0 1 1-1.08zm-1-3.25v-4.33a1 1 0 1 1 2.05 0V113a1 1 0 1 1-2.05 0zm13.33 14.07h-4.1a1.08 1.08 0 0 1 0-2.16h4.1a1.08 1.08 0 0 1 0 2.16zm17.43-5.41a1 1 0 1 1-2.05 0v-4.33a1 1 0 1 1 2.05 0zm0-8.66a1 1 0 1 1-2.05 0v-4.33a1 1 0 1 1 2.05 0zm0-8.66a1 1 0 1 1-2.05 0v-4.33a1 1 0 1 1 2.05 0zm9.23 2.16V78.41a2.11 2.11 0 0 1 2.06-2.16h18.46a2.11 2.11 0 0 1 2.05 2.16V126a2.11 2.11 0 0 1-2.05 2.16H184a2.11 2.11 0 0 1-2.05-2.16zm-14.36-11.9h4.1a1.08 1.08 0 0 1 0 2.16h-4.1a1.08 1.08 0 0 1 0-2.16zm0 30.3h4.1a1.08 1.08 0 0 1 0 2.16h-4.1a1.08 1.08 0 0 1 0-2.16zm-8.2-30.3h4.1a1.08 1.08 0 0 1 0 2.16h-4.1a1.08 1.08 0 0 1 0-2.16zm0 30.3h4.1a1.08 1.08 0 0 1 0 2.16h-4.1a1.08 1.08 0 0 1 0-2.16zm-34.89-46.54a2.11 2.11 0 0 1 2.05-2.16h22.56a2.11 2.11 0 0 1 2.05 2.16v16.24h4.1a1.08 1.08 0 0 1 0 2.16h-4.1v5.41a2.25 2.25 0 0 1-.1.67l5.38 5.09a.89.89 0 0 1-.22 1.44l-2 .94 1.82 4.38a1.11 1.11 0 0 1-.53 1.43 1 1 0 0 1-.41.09 1 1 0 0 1-.94-.65l-1.82-4.38-2 .94a.83.83 0 0 1-1.15-.81l.09-7H144a1 1 0 1 1-2.05 0h-15.41a2.11 2.11 0 0 1-2.05-2.16zm-18.46 0a2.11 2.11 0 0 1 2.05-2.16h6.15a2.11 2.11 0 0 1 2.05 2.16V126a2.11 2.11 0 0 1-2.05 2.16h-6.15A2.11 2.11 0 0 1 106 126zm0 0" class="cls-9"/>
  <path d="M95.78 147.68a4.22 4.22 0 0 0 4.1 4.33h110.75a4.22 4.22 0 0 0 4.1-4.33V139h-119zm59.48-5.41a3.25 3.25 0 1 1-3.08 3.25 3.17 3.17 0 0 1 3.08-3.25zm0 0" class="cls-14"/>
  <path d="M137.05 167.16h36.4l-1.28-10.82h-33.83zm0 0" class="cls-15"/>
  <path d="M136.8 167.16a2.17 2.17 0 0 0 0 4.33h36.92a2.17 2.17 0 0 0 0-4.33zm0 0" class="cls-14"/>
  <path d="M138.34 156.34h33.84l-.51-4.33h-32.82zm19.99-10.83a3.08 3.08 0 1 1-3.08-3.25 3.17 3.17 0 0 1 3.08 3.25zm0 0" class="cls-16"/>
  <path d="M108.08 128.2h6.15a2.11 2.11 0 0 0 2.05-2.16V78.41a2.11 2.11 0 0 0-2.05-2.16h-6.15a2.11 2.11 0 0 0-2.08 2.16V126a2.11 2.11 0 0 0 2.05 2.16zm2.05-47.62h2.05a2.17 2.17 0 0 1 0 4.33h-2.05a2.17 2.17 0 0 1 0-4.33zm0 6.49h2.05a2.17 2.17 0 0 1 0 4.33h-2.05a2.17 2.17 0 0 1 0-4.33zm0 6.49h2.05a2.17 2.17 0 0 1 0 4.33h-2.05a2.17 2.17 0 0 1 0-4.33zm0 6.49h2.05a2.17 2.17 0 0 1 0 4.33h-2.05a2.17 2.17 0 0 1 0-4.33zm0 6.49h2.05a2.17 2.17 0 0 1 0 4.33h-2.05a2.17 2.17 0 0 1 0-4.33zm-2.05 10.82a2.11 2.11 0 0 1 2.05-2.16h2.05a2.11 2.11 0 0 1 2.05 2.16v4.33a2.11 2.11 0 0 1-2.05 2.16h-2.05a2.11 2.11 0 0 1-2.05-2.16zm0 0" class="cls-14"/>
  <path d="M110.14 84.91h2.05a2.17 2.17 0 0 0 0-4.33h-2.05a2.17 2.17 0 0 0 0 4.33zm0 0" class="cls-17"/>
  <path d="M110.14 91.4h2.05a2.17 2.17 0 0 0 0-4.33h-2.05a2.17 2.17 0 0 0 0 4.33zm0 0" class="cls-16"/>
  <path d="M110.14 97.89h2.05a2.17 2.17 0 0 0 0-4.33h-2.05a2.17 2.17 0 0 0 0 4.33zm0 6.5h2.05a2.17 2.17 0 0 0 0-4.33h-2.05a2.17 2.17 0 0 0 0 4.33zm0 6.49h2.05a2.17 2.17 0 0 0 0-4.33h-2.05a2.17 2.17 0 0 0 0 4.33zm0 0" class="cls-17"/>
  <path d="M110.14 123.87h2.05a2.11 2.11 0 0 0 2.05-2.16v-4.33a2.11 2.11 0 0 0-2.05-2.16h-2.05a2.11 2.11 0 0 0-2.05 2.16v4.33a2.11 2.11 0 0 0 2.05 2.16zm0 0" class="cls-16"/>
  <path d="M204.48 78.41a2.11 2.11 0 0 0-2.05-2.16H184a2.11 2.11 0 0 0-2.05 2.16v13h22.56zm-3.08 10.82H185a1.08 1.08 0 0 1 0-2.16h16.4a1.08 1.08 0 0 1 0 2.16zm0-4.33H185a1.08 1.08 0 0 1 0-2.16h16.4a1.08 1.08 0 0 1 0 2.16zm0-4.33H185a1.08 1.08 0 0 1 0-2.16h16.4a1.08 1.08 0 0 1 0 2.16zM184 128.2h18.46a2.11 2.11 0 0 0 2.05-2.16v-19.49h-22.59V126a2.11 2.11 0 0 0 2.08 2.2zm9.23-19.48h8.2a1.08 1.08 0 0 1 0 2.16h-8.2a1.08 1.08 0 0 1 0-2.16zm0 4.33h8.2a1.08 1.08 0 0 1 0 2.16h-8.2a1.08 1.08 0 0 1 0-2.16zm0 4.33h8.2a1.08 1.08 0 0 1 0 2.16h-8.2a1.08 1.08 0 0 1 0-2.16zm0 4.33h8.2a1.08 1.08 0 0 1 0 2.16h-8.2a1.08 1.08 0 0 1 0-2.16zm-4.1-13a1.08 1.08 0 1 1-1 1.08 1.06 1.06 0 0 1 1-1.08zm0 4.33a1.08 1.08 0 1 1-1 1.08 1.05 1.05 0 0 1 1-1.08zm0 4.33a1.08 1.08 0 1 1-1 1.08 1.06 1.06 0 0 1 1-1.08zm0 4.33a1.08 1.08 0 1 1-1 1.08 1.06 1.06 0 0 1 1-1.08zm-4.1-13a1.08 1.08 0 1 1-1 1.08 1.05 1.05 0 0 1 1-1.08zm0 4.33a1.08 1.08 0 1 1-1 1.08 1.05 1.05 0 0 1 1-1.08zm0 4.33a1.08 1.08 0 1 1-1 1.08 1.05 1.05 0 0 1 1-1.08zm0 4.33a1.08 1.08 0 1 1-1 1.08 1.05 1.05 0 0 1 1-1.08zm0 0" class="cls-14"/>
  <path d="M204.48 91.4h-22.56v15.15h22.56zm-17.43 13H185a1.08 1.08 0 0 1 0-2.16h2a1.08 1.08 0 0 1 0 2.16zm0-4.33H185a1.08 1.08 0 0 1 0-2.16h2a1.08 1.08 0 0 1 0 2.16zm0-4.33H185a1.08 1.08 0 0 1 0-2.16h2a1.08 1.08 0 0 1 0 2.16zm14.36 8.66h-10.26a1.08 1.08 0 0 1 0-2.16h10.25a1.08 1.08 0 0 1 0 2.16zm0-4.33h-10.26a1.08 1.08 0 0 1 0-2.16h10.25a1.08 1.08 0 0 1 0 2.16zm0-4.33h-10.26a1.08 1.08 0 0 1 0-2.16h10.25a1.08 1.08 0 0 1 0 2.16zm-.01-17.33h-12.3a1.08 1.08 0 0 1 0 2.16h12.3a1.08 1.08 0 0 0 0-2.16zM186 79.49a1.06 1.06 0 0 1 1-1.08h-2a1.08 1.08 0 0 0 0 2.16h2a1.05 1.05 0 0 1-1-1.08zm15.4 7.58h-8.2a1.08 1.08 0 0 1 0 2.16h8.2a1.08 1.08 0 0 0 0-2.16zm-11.28 1.08a1.06 1.06 0 0 1 1-1.08H185a1.08 1.08 0 0 0 0 2.16h6.15a1.06 1.06 0 0 1-1-1.08zm0 0" class="cls-16"/>
  <path d="M201.4 93.56h-10.25a1.08 1.08 0 0 0 0 2.16h10.25a1.08 1.08 0 0 0 0-2.16zm0 0" class="cls-14"/>
  <path d="M196.27 83.82a1.05 1.05 0 0 1 1-1.08H185a1.08 1.08 0 0 0 0 2.16h12.3a1.05 1.05 0 0 1-1-1.08zm5.13-1.08h-2.05a1.08 1.08 0 0 1 0 2.16h2.05a1.08 1.08 0 0 0 0-2.16zm0 0" class="cls-16"/>
  <path d="M190.12 79.49a1.06 1.06 0 0 0-1-1.08H187a1.08 1.08 0 0 0 0 2.16h2.05a1.05 1.05 0 0 0 1-1.08zm4.1 8.66a1.06 1.06 0 0 0-1-1.08h-2.05a1.08 1.08 0 0 0 0 2.16h2.05a1.06 1.06 0 0 0 1-1.08zM187 93.56h-2a1.08 1.08 0 0 0 0 2.16h2a1.08 1.08 0 0 0 0-2.16zm0 0" class="cls-17"/>
  <path d="M201.4 97.89h-10.25a1.08 1.08 0 0 0 0 2.16h10.25a1.08 1.08 0 0 0 0-2.16zm0 0" class="cls-14"/>
  <path d="M187 97.89h-2a1.08 1.08 0 0 0 0 2.16h2a1.08 1.08 0 0 0 0-2.16zm0 0" class="cls-17"/>
  <path d="M201.4 102.22h-10.25a1.08 1.08 0 0 0 0 2.16h10.25a1.08 1.08 0 0 0 0-2.16zm0 0" class="cls-14"/>
  <path d="M187 102.22h-2a1.08 1.08 0 0 0 0 2.16h2a1.08 1.08 0 0 0 0-2.16zm-2 12.99a1.08 1.08 0 1 0-1-1.08 1.05 1.05 0 0 0 1 1.08zm0-4.33a1.08 1.08 0 1 0-1-1.08 1.05 1.05 0 0 0 1 1.08zm0 12.99a1.08 1.08 0 1 0-1-1.08 1.05 1.05 0 0 0 1 1.08zm0-4.33a1.08 1.08 0 1 0-1-1.08 1.05 1.05 0 0 0 1 1.08zm0 0" class="cls-17"/>
  <path d="M189.09 115.21a1.08 1.08 0 1 0-1-1.08 1.06 1.06 0 0 0 1 1.08zm0-4.33a1.08 1.08 0 1 0-1-1.08 1.06 1.06 0 0 0 1 1.08zm0 12.99a1.08 1.08 0 1 0-1-1.08 1.06 1.06 0 0 0 1 1.08zm0-4.33a1.08 1.08 0 1 0-1-1.08 1.05 1.05 0 0 0 1 1.08zm4.11-4.33h8.2a1.08 1.08 0 0 0 0-2.16h-8.2a1.08 1.08 0 0 0 0 2.16zm0-4.33h8.2a1.08 1.08 0 0 0 0-2.16h-8.2a1.08 1.08 0 0 0 0 2.16zm0 12.99h8.2a1.08 1.08 0 0 0 0-2.16h-8.2a1.08 1.08 0 0 0 0 2.16zm0-4.33h8.2a1.08 1.08 0 0 0 0-2.16h-8.2a1.08 1.08 0 0 0 0 2.16zm0 0" class="cls-16"/>
  <path d="M200.37 83.82a1.05 1.05 0 0 0-1-1.08h-2.07a1.08 1.08 0 0 0 0 2.16h2.05a1.05 1.05 0 0 0 1-1.08zm0 0" class="cls-17"/>
  <path d="M126.54 104.39h15.38v-4.33h-13.33V80.58h18.46v14.07a1.08 1.08 0 0 1 0 2.16v3.25H144v4.33h5.21v-1.3a.82.82 0 0 1 1.37-.64l.47.45a2.26 2.26 0 0 0 .1-.67v-5.42a1.08 1.08 0 0 1 0-2.16V78.41a2.11 2.11 0 0 0-2.05-2.16h-22.56a2.11 2.11 0 0 0-2.05 2.16v23.81a2.11 2.11 0 0 0 2.05 2.16zm0 0" class="cls-18"/>
  <path d="M142.95 114.13a1.05 1.05 0 0 0 1-1.08v-4.33a1 1 0 1 0-2.05 0V113a1.06 1.06 0 0 0 1 1.08zm24.61 12.99h4.1a1.08 1.08 0 0 0 0-2.16h-4.1a1.08 1.08 0 0 0 0 2.16zm4.1-10.83a1.05 1.05 0 0 0-1 1.08v4.33a1 1 0 1 0 2.05 0v-4.33a1.06 1.06 0 0 0-1-1.08zm-4.1-19.48h4.1a1.08 1.08 0 0 0 0-2.16h-4.1a1.08 1.08 0 0 0 0 2.16zm4.1 2.19a1.05 1.05 0 0 0-1 1.08v4.33a1 1 0 1 0 2.05 0v-4.33a1.06 1.06 0 0 0-1-1.08zm-16.4 26h-4.1a1.08 1.08 0 0 0 0 2.16h4.1a1.08 1.08 0 0 0 0-2.16zm-12.31-26a1.05 1.05 0 0 0-1 1.08v4.33a1 1 0 1 0 2.05 0v-4.33a1.05 1.05 0 0 0-1-1.08zm4.1 26h-4.1a1.08 1.08 0 0 0 0 2.16h4.1a1.08 1.08 0 0 0 0-2.16zm-5.13-3.3a1 1 0 1 0 2.05 0v-4.33a1 1 0 1 0-2.05 0zm29.74-14.07a1.05 1.05 0 0 0-1 1.08V113a1 1 0 1 0 2.05 0v-4.33a1.05 1.05 0 0 0-1-1.08zm-12.3-10.82h4.1a1.08 1.08 0 0 0 0-2.16h-4.1a1.08 1.08 0 0 0 0 2.16zm-17.44-1.08a1.05 1.05 0 0 0 1 1.08h4.1a1.08 1.08 0 0 0 0-2.16h-4.1a1.06 1.06 0 0 0-1 1.08zm17.44 31.39h4.1a1.08 1.08 0 0 0 0-2.16h-4.1a1.08 1.08 0 0 0 0 2.16zm-9.23-31.39a1.05 1.05 0 0 0 1 1.08h4.1a1.08 1.08 0 0 0 0-2.16h-4.1a1.06 1.06 0 0 0-1 1.08zm0 0" class="cls-16"/>
  <path d="M149.2 103.08v1.3l-.09 7a.83.83 0 0 0 1.15.81l2-.95 1.82 4.38a1 1 0 0 0 .94.65 1 1 0 0 0 .41-.09 1.11 1.11 0 0 0 .53-1.43l-1.82-4.38 2-.94a.89.89 0 0 0 .22-1.44l-5.38-5.09-.47-.45a.82.82 0 0 0-1.37.64zm0 0" class="cls-13"/>
  <text class="cls-19" transform="matrix(1.1 0 0 1 394.5 223.8)">
    R<tspan x="13.43" y="0" class="cls-20">e</tspan><tspan x="26.04" y="0">c</tspan><tspan x="37.69" y="0" class="cls-21">h</tspan><tspan x="50.62" y="0">erc</tspan><tspan x="83.33" y="0" class="cls-22">h</tspan><tspan x="96.26" y="0">er</tspan>
  </text>
  <text class="cls-23" transform="matrix(1.1 0 0 1 335.1 278.3)">
    Se<tspan x="28.62" y="0" class="cls-24">r</tspan><tspan x="38.54" y="0">vi</tspan><tspan x="58.68" y="0" class="cls-25">c</tspan><tspan x="71.89" y="0" class="cls-12">e</tspan><tspan x="86.6" y="0">s / B</tspan><tspan x="139.1" y="0" class="cls-12">es</tspan><tspan x="166.24" y="0">oi</tspan><tspan x="187.92" y="0" class="cls-26">n</tspan><tspan x="202.94" y="0">s</tspan>
  </text>
  <path d="M366.66 199c8.39 3.82 33.87-29 38.39-15.65 2 5.92 1.56 13.16-1.74 25.31l11.31-4.25c2.39-17.46 3.27-28.87-3-35.39-10.45-10.92-40.8 16.32-40.8 16.32s-7.54 12.15-4.16 13.66z" class="cls-27"/>
  <path d="M385.7 174.14a130.55 130.55 0 0 0-14.85 11.23s-7.57 12.12-4.19 13.66c4.21 1.92 12.71-5.37 20.71-11.44-.7-4.46-1.31-8.94-1.67-13.45zm19.23 27.93c-.43 2-1 4.23-1.61 6.62l11.31-4.25c.2-1.46.39-2.86.56-4.24q-5.19.8-10.26 1.87z" class="cls-28"/>
  <path d="M423.14 208.26a4.5 4.5 0 0 1-5.37 3.94l-13.09-1.91a3.18 3.18 0 0 1-2.41-3.48 3.09 3.09 0 0 1 2.79-3.12l8.3-.05h4.9a4.63 4.63 0 0 1 4.87 4.65z" class="cls-29"/>
  <path d="M382.38 188.48c-4.12-7.93-4-19.79-3.54-29.95.24-5.45.43-7.3 2-12.09.86-2.58-.81-12.05-7.08-12.44l-8.08-3c-8.52 8.19-14.24 20.66-14.87 34.88-.5 11.28 3 28 8 36.41 6.66-2.47 19.19-9.87 23.57-13.81z" class="cls-27"/>
  <path d="M368.15 155.89c.92-9.43 5.28-14.19 6.35-21.8a6 6 0 0 1 3 1.51c-2.51 5.86-4.4 14.69-5.07 21.67-.35 3.66-.3 6 .32 13.38-.01-.01-5.75-2.88-4.6-14.76z" class="cls-30"/>
  <path d="M366.19 145.08a36.64 36.64 0 0 0 2.49 21.15c-1-12.77 1-18.13 1-18.13z" class="cls-28"/>
  <path d="M375.85 138.34s-12.33 19.93-4.66 37.57l4.39 5.9-1.75-7.51s-7.25-16 2.81-35.73z" class="cls-31"/>
  <path d="M372.37 165.74l3.37-14.37-2.3-1s-1.66 9.27-1.07 15.37z" class="cls-28"/>
  <path d="M367.22 184.49c.3 1 0 1.92-.59 2.16l-7.09 2.66c-.62.23-1.37-.35-1.67-1.31-.3-1 0-1.92.59-2.16l7.09-2.66c.62-.23 1.37.35 1.67 1.31z" class="cls-32 cls-33"/>
  <path d="M360.22 255.68c5.74-12.35 8.79-26.42 12.09-46 1.86-11 2.29-22.69-.08-31.6l-16.86 1.64a117.27 117.27 0 0 1 3.72 29.89c0 17.1-.66 34.47-6.13 45.91 0 0 .51.94 3.72 1.09s3.54-.93 3.54-.93z" class="cls-27"/>
  <path d="M373.83 194.5l-15 7.78a75.26 75.26 0 0 1 .2 10.75s7.77-9 14.38-12a39.84 39.84 0 0 0 .42-6.53z" class="cls-28"/>
  <path d="M372.05 258a4.59 4.59 0 0 1-5 4.43l-13.19-.68a3.12 3.12 0 0 1-2.67-3.24 3.15 3.15 0 0 1 2.54-3.37l8.27-.83 4.88-.49a4.54 4.54 0 0 1 5.22 4.18z" class="cls-29"/>
  <path d="M425.44 120.63c-4.06 24.84-35.5 22.31-45.41 14.14l-.57 10.31a24.52 24.52 0 0 0 5.41 4.28c20.48 11.92 49.22-3.55 51.15-28.9 0 0-1.48-1.9-5.16-1.56-4.51.44-5.42 1.73-5.42 1.73z" class="cls-27"/>
  <path d="M435.9 119.52c-.41 2.55-2 3.4-5.25 3.4-2.67 0-6.09-2.42-6.09-5.6-.33-6.76 2.66-6.53 5.95-6.53 3.28 0 4.78-2.78 5.45 1.94a45.8 45.8 0 0 1-.06 6.79z" class="cls-34"/>
  <path d="M426.46 114.22c.21.84 0 3.64-.76 3.86-.77.23-.79 1.19-1 .35l-2.63-9.84a1.61 1.61 0 0 1 1-1.94 1.43 1.43 0 0 1 1.77 1.11zm2.97-1.87a1.6 1.6 0 0 1-1 1.94 1.43 1.43 0 0 1-1.77-1.11l-1.6-6.46a1.61 1.61 0 0 1 1-1.94 1.43 1.43 0 0 1 1.77 1.11z" class="cls-34"/>
  <path d="M432.33 111.78a1.56 1.56 0 0 1-1.24 1.78 1.47 1.47 0 0 1-1.62-1.36l-.82-6.63a1.56 1.56 0 0 1 1.24-1.78 1.47 1.47 0 0 1 1.62 1.36zm3.67.86a1.56 1.56 0 0 1-1.24 1.78 1.47 1.47 0 0 1-1.62-1.36l-.82-6.63a1.56 1.56 0 0 1 1.24-1.78 1.47 1.47 0 0 1 1.62 1.36zm-20.79 6.22c.68.45 2.3 2.62 1.89 3.37-.41.75.19 1.46-.5 1l-8.11-5.09A1.67 1.67 0 0 1 408 116a1.37 1.37 0 0 1 2-.55zm-47.02 1.59a4.27 4.27 0 0 1-4.47 4.14 4.43 4.43 0 0 1-3.77-4.91 4.27 4.27 0 0 1 4.47-4.14 4.43 4.43 0 0 1 3.77 4.91z" class="cls-34"/>
  <path d="M390.5 124.31c1.23 7.56-3.36 14.78-10.25 16.12-6.89 1.35-13.47-3.69-14.7-11.25L363.08 114c-1.23-7.56 3.36-14.78 10.25-16.13 6.89-1.35 13.47 3.69 14.7 11.25z" class="cls-34"/>
  <path d="M371.72 128.64c.51.87.9 1.68 1.29 2.44a9.87 9.87 0 0 0 1.23 2 3.69 3.69 0 0 0 .76.64 2 2 0 0 0 .86.31 4.1 4.1 0 0 0 2.34-.68 3 3 0 0 1-2.2 2.15 3 3 0 0 1-1.81-.14 4 4 0 0 1-1.44-1 5.26 5.26 0 0 1-1.32-2.84 5.84 5.84 0 0 1 .29-2.88z" class="cls-35"/>
  <path d="M369.79 106.09s26.55 14.09 24.7-15.7c0 0-4.3 7.83-12.57 4-10-4.58-19.71 1.91-18.11 7.37 0 0-3.58 7.08.27 18.26a33.38 33.38 0 0 0 5.71-13.93zm15.89 11.34a1.62 1.62 0 0 1-1.3 1.83 1.53 1.53 0 0 1-1.67-1.43l-.31-2.83a1.62 1.62 0 0 1 1.3-1.83 1.53 1.53 0 0 1 1.67 1.43z" class="cls-36"/>
  <path d="M375.74 117a3.75 3.75 0 0 1-1.63.35 6 6 0 0 1-1.6-.22 6.2 6.2 0 0 1-1.52-.64 4.46 4.46 0 0 1-1.34-1.19 4.53 4.53 0 0 1 1.71-.34 5.4 5.4 0 0 1 1.53.21 6 6 0 0 1 1.45.63 5.74 5.74 0 0 1 1.4 1.2z" class="cls-35"/>
  <path d="M375.74 117a5.12 5.12 0 0 1-2.26.68 5.06 5.06 0 0 1-2.34-.31 5.06 5.06 0 0 1 2.26-.68 5.12 5.12 0 0 1 2.34.31z" class="cls-35"/>
  <path d="M375.74 117a3.91 3.91 0 0 1-.89 1.35 4.77 4.77 0 0 1-1.15.85 4.69 4.69 0 0 1-1.35.46 3.86 3.86 0 0 1-1.62 0 3.87 3.87 0 0 1 .89-1.35 4.69 4.69 0 0 1 1.16-.84 4.77 4.77 0 0 1 1.35-.46 3.91 3.91 0 0 1 1.61-.01z" class="cls-35"/>
  <path d="M379.2 115.27c.6-.06 3.72 10 3.72 10 .29.9.59 1.93-.23 2.25-.82.32-3.87.51-4.16-.39.01-.01-.18-11.76.67-11.86z" class="cls-37"/>
  <path d="M458.66 105.72c-.45-4.42-1.93-7.86-3.3-7.69h-.16l-70 14.81c-.86.12-1.41 1.54-1.22 3.17s1 2.85 1.9 2.73L457 114h.07c1.34-.37 2.03-4 1.59-8.28z" class="cls-38"/>
  <path d="M458.18 105.72c.41 4-.15 7.34-1.25 7.47s-2.32-3-2.73-7 .15-7.34 1.25-7.47 2.32 3.01 2.73 7z" class="cls-39"/>
  <ellipse cx="455.58" cy="102.8" class="cls-40" rx="3.52" ry=".97" transform="rotate(-89.4 455.6 102.8)"/>
  <path d="M384 116c.19 1.63 1 2.85 1.9 2.73L457 114h.07c1.3-.36 2-4 1.55-8.27z" class="cls-28"/>
  <path d="M422.75 119.52c-1.12 6-2.05 4.33-5.34 4.33-2.17-.12-6-3.35-6-6.53h.05c-.33-6.76 2.66-6.53 5.95-6.53 3.28 0 4.78-2.78 5.45 1.94a38.88 38.88 0 0 1-.11 6.79z" class="cls-34"/>
  <path d="M413.32 114.22c.21.84 0 3.64-.76 3.86-.77.23-.79 1.19-1 .35l-2.63-9.84a1.61 1.61 0 0 1 1-1.94 1.43 1.43 0 0 1 1.77 1.11zm2.97-1.87a1.6 1.6 0 0 1-1 1.94 1.43 1.43 0 0 1-1.77-1.11l-1.6-6.46a1.61 1.61 0 0 1 1-1.94 1.43 1.43 0 0 1 1.77 1.11z" class="cls-34"/>
  <path d="M419.18 111.78a1.56 1.56 0 0 1-1.24 1.78 1.47 1.47 0 0 1-1.62-1.36l-.82-6.63a1.56 1.56 0 0 1 1.24-1.78 1.47 1.47 0 0 1 1.62 1.36zm3.68.86a1.56 1.56 0 0 1-1.24 1.78 1.47 1.47 0 0 1-1.62-1.36l-.82-6.63a1.56 1.56 0 0 1 1.24-1.78A1.47 1.47 0 0 1 422 106z" class="cls-34"/>
  <path d="M412.17 120.63c-4.06 24.84-35.5 22.31-45.41 14.14l-.57 10.31a24.52 24.52 0 0 0 5.41 4.28c20.48 11.92 49.22-3.55 51.15-28.9 0 0-1.48-1.9-5.16-1.56-4.5.44-5.42 1.73-5.42 1.73z" class="cls-27"/>
  <path d="M427.22 116.75l-1.63-5.75a1.42 1.42 0 0 0-1.81-1 1.62 1.62 0 0 0-.95 2l1.59 5.26a4.25 4.25 0 0 1 2.8-.51z" class="cls-34"/>
  <text class="cls-41" transform="matrix(1.1 0 0 1 100.7 603.9)">
    E<tspan x="12.48" y="0" class="cls-42">n</tspan><tspan x="25.32" y="0">trez en</tspan>
  </text>
  <text class="cls-43" transform="matrix(1.1 0 0 1 100.1 633.6)">
    Co<tspan x="30.61" y="0" class="cls-44">n</tspan><tspan x="44.72" y="0">tact</tspan><tspan x="92.48" y="0" class="cls-8"></tspan>
  </text>
  <path d="M157.53 520.2c-1.9-3.24-7.21-3.94-4.4-6-.08.06 1.07-1 1.35-1.27l.27-.3.16-.29c.12-.21.57-1.35.43-.87a10.39 10.39 0 0 0 .31-1.14l.08-.42c0-.22 0-.45.06-.67 0-.6.06-1.2.07-1.81v-4a6 6 0 0 1 1.48-4.13c-1.64-1.06-3.42-1.2-4.06-.29l-.23.32-1 1.42-.06.08-.75-.53 1-1.4 1-1.43.81-1.15c.67-1-.16-2.7-1.85-3.89s-3.62-1.39-4.29-.44l-.81 1.15-1 1.43-1 1.4-.75-.53 4.52-6.41.11-.15 5.95-8.43a3.78 3.78 0 0 0-6.14-4.33l-5.95 8.43-.1.16-13.1 18.59-3.46 6.77-1-18.74c.52-2.21.85-4.35-1-5.64a4 4 0 0 0-5.63 1l-1.07 15.69s-1.81 4.29-.55 11l2.95 5.93c-14.42 29.79-9.55 22.27-11.53 25l27.35 7.93c.71-2.83 9.43-21.56 9.43-21.56a40.28 40.28 0 0 0 5.29-1.93 10.18 10.18 0 0 0 3.17-2.76c2.52-3.41 4.56-4.73 3.94-5.79z" class="cls-45"/>
  <path d="M167.19 469.45a3.6 3.6 0 0 0-5 .62l-5.95 8.43-.1.16L143 497.21h-.06v.22c.44 2.74.64 5.93 1.6 8.58 0-.12.17 0 .26.14h.21q.54.18 1.09.32h.08c.4-.55.8-1.1 1.2-1.66 2.44-3.47 4.69-7.06 6.82-10.72a6 6 0 0 1 4.36-3 7 7 0 0 1 0-1.49l-.19.27-.75-.53 1.85-2.63a6 6 0 0 1 .65-.92l2-2.86.11-.15 5.95-8.43a3.6 3.6 0 0 0-.99-4.9z" class="cls-45"/>
  <path d="M163.86 519.48a2.21 2.21 0 0 1-2.22 2.18H127a2.21 2.21 0 0 1-2.22-2.18V450a2.21 2.21 0 0 1 2.22-2.18h34.6a2.21 2.21 0 0 1 2.22 2.18z" class="cls-46"/>
  <path d="M160.3 455.98h-33.69v7.88l-.01-.01v2.12l.01.01v12.94h-.01v1.75h.01v17.58h-.01v1.59h.01l-.01 8.13v7.41h35.47v-59.4h-1.77z" class="cls-47"/>
  <path d="M126.6 455.1v.03h.01v.82h-.01v.11h.01v1.1h-.01v1.17h35.47v-3.23H126.6z" class="cls-48"/>
  <path d="M131.72 574.94l16.61-35.02-36.29-17.22-24.78 52.24h44.46z" class="cls-9"/>
  <circle cx="139.43" cy="540.98" r="1.83" class="cls-49" transform="rotate(-61.4 139.5 541)"/>
  <path d="M133.59 574.94l12.37-26.06-40.05-19-21.38 45.06h49.06z" class="cls-50"/>
  <circle cx="144.34" cy="518.63" r="1.96" class="cls-51"/>
  <path d="M127.93 456h9.97v1.09h-9.97zm12.87 0h4.67v1.09h-4.67z" class="cls-50"/>
  <path d="M137.77 522.83c.14-.55.26-1.11.35-1.66-.1-.3.21-6.19-6.67-11-3.18-2.23-6.94-1.73-8.66-1.57v14.24z" class="cls-45"/>
  <path d="M140.93 460.6a7.82 7.82 0 0 0-2.9 3.89c-.23.95.39 5.65.43 6.67 0 .53.55-.2.89.15-.06-.61 4.43-4.67 5.33-4.88.62-.15 5 2.93 5 3.6 0 .47.11.81.07 1.28h.1c.12-.32.76-.39.84-.72a22.13 22.13 0 0 0-.09-4.93c-.35-3.81-2.41-4.26-4.51-4.35-5.27-.18-4.47-1.23-5.16-.71z"/>
  <path d="M139.21 480.55l9 1.93c-.62-.41 1.07-2.3.49-3.21-.32-.51.2-2.17.41-2.74a5.12 5.12 0 0 1-8.65-.12l.06.12c.35.73 1 2.22.45 3-.14.13-1.42.6-1.76 1.02z" class="cls-52"/>
  <path d="M144.35 466.59a3.85 3.85 0 0 1-3.42.13c-.31-.14-.63-.26-1.05-.44l-.63 4.72a2.4 2.4 0 0 0-.34-.58 1 1 0 0 0-.6-.31c-.13 0-.34.26-.38.44a3.16 3.16 0 0 0 .42 2.6c.1.15.87.57.93.69.26.51.37 1 .62 1.5l.52 1.08a5.16 5.16 0 0 0 4.27 2.43v-12.43z" class="cls-53"/>
  <path d="M151.44 470.64c-.07-.23-.28-.56-.47-.59s-.47.22-.63.42a4.42 4.42 0 0 0-.43.84v-.42c-.18-1.54-.36-3.09-.53-4.63a.69.69 0 0 0-.67-.7 9.09 9.09 0 0 0-1.54 0 6.94 6.94 0 0 0-2.46.91v12.43h.1a5.15 5.15 0 0 0 4.29-2.32 7.93 7.93 0 0 0 1-2.74c0-.11.35-.19.44-.27s.51-.35.63-.59a3 3 0 0 0 .27-2.34z" class="cls-54"/>
  <path d="M160.51 495.74l-2.19-13.04-9.66-3.56-4.06 1.96-3.42-1.96-10.77 3.28-2.03 13.32h32.13z" class="cls-55"/>
  <path d="M148.25 495.74l1.83-15.97-1.05-.56-4.36 1.87-4.36-1.71-.94.39 2.09 15.98h6.79z" class="cls-9"/>
  <path d="M141.06 479.02l3.61 2.06-1.98 2.83-3.11-4.26 1.48-.63zm7.52-.1l-3.89 2.16 2.01 2.7 3.18-4.19-1.3-.67z" class="cls-56"/>
  <path d="M151.29 495.74l2.12-5.32-2.78-2.29 3.39-1.96-3.02-6.16-1.17-.44-1.98 16.17h3.44zm-15.3-5.44l2.16 5.44h3.43l-1.74-16.2-1.12.35-3.35 6.15 3.39 1.96-2.77 2.3z" class="cls-57"/>
  <path d="M142.77 495.74h3.79l-1.13-10.53.91-1.86-1.66-2.35-1.62 2.35.91 1.88-1.2 10.51z" class="cls-58"/>
  <path d="M167.23 504.41a3.15 3.15 0 0 1-2.17 3.89l-7.58 2a3.15 3.15 0 0 1-3.81-2.3 3.15 3.15 0 0 1 2.17-3.89l7.58-2a3.15 3.15 0 0 1 3.81 2.3zm-.6-17.19a3.24 3.24 0 0 1-1.3 4.39l-7 3.29a3.24 3.24 0 0 1-4.21-1.79 3.25 3.25 0 0 1 1.3-4.39l7-3.29a3.25 3.25 0 0 1 4.21 1.79z" class="cls-45"/>
  <path d="M154.73 501.77a4.21 4.21 0 0 1-4.21 4.21h-12.15a4.21 4.21 0 0 1-4.21-4.21 4.21 4.21 0 0 1 4.21-4.21h12.15a4.21 4.21 0 0 1 4.21 4.21z" class="cls-59"/>
  <path d="M177.73 507.75c-1.77 1.09-2.7 2.77-2.1 3.76l.31.51-.78.48-.05-.09-.91-1.48-.21-.34c-.61-1-2.54-.92-4.3.17s-2.71 2.77-2.1 3.76l.21.34.91 1.48.05.09-.78.48-.9-1.46-.91-1.49-.74-1.2c-.61-1-2.54-.92-4.3.17s-2.71 2.77-2.1 3.76l.74 1.2.91 1.49.9 1.46-.78.48-4.1-6.68-.09-.16-4.85-7.86a3.77 3.77 0 0 0-6.4 3.93l4.85 7.86.11.15 11.88 19.33-1 .63-3.2-5.07a4 4 0 1 0-6.88 4.23l7.21 10.18s2.08 2.08 3.55 2.12l11.12 3.13 4.64 7.7L200 548.56c-4-6.45-7.43-12.14-7.43-12.14a76.11 76.11 0 0 0 .31-7.62c-.16-2-3.52-9-7.19-15.12l-1-1.85-1-1.68-.3-.48-.72-1.16-.58-.95c-.66-.98-2.59-.9-4.36.19z" class="cls-45"/>
  <path d="M224.41 574.94l-21.95-35.73-34.19 21.02 9.04 14.71h47.1z" class="cls-9"/>
  <circle cx="198.5" cy="547.24" r="1.83" class="cls-49" transform="rotate(-28.3 198.4 547.2)"/>
  <path d="M226.41 574.94l-17.74-28.86-37.73 23.19 3.48 5.67h51.99z" class="cls-50"/>
  <path d="M140.31 502.28l1 .06a1.51 1.51 0 0 1-.5 1 1.72 1.72 0 0 1-2.26-.13 1.93 1.93 0 0 1-.46-1.37 2.13 2.13 0 0 1 .44-1.4 1.71 1.71 0 0 1 2.34-.13 1.67 1.67 0 0 1 .44 1.07l-1.05.06a.81.81 0 0 0-.14-.53.43.43 0 0 0-.33-.16q-.53 0-.53 1.07a1.65 1.65 0 0 0 .14.82.44.44 0 0 0 .39.22q.47.03.52-.58zm3.41 1.41l-.21-.72h-1l-.22.72h-.92l1.14-3.68h1.19l1.15 3.68zm-1-1.53h.6l-.3-1.07zm5.08.63v.9h-2.58V500h1.13v2.78zm2.97 0v.9h-2.58V500h1.13v2.78z" class="cls-9"/>
  <path d="M167.07 497.14a3.21 3.21 0 0 1-2.21 4l-7.61 1.86a3.21 3.21 0 0 1-3.79-2.48 3.21 3.21 0 0 1 2.2-4l7.61-1.88a3.21 3.21 0 0 1 3.79 2.48z" class="cls-45"/>
  <path d="M144.16 476.59a.67.67 0 0 0-.59.36c-3.78-.69-4.12-3-4.12-3.13a.26.26 0 0 0-.21.26c0 .08 0 2.66 4.3 3.42a.67.67 0 1 0 .62-.92z" class="cls-60"/>
  <text class="cls-61" transform="matrix(1.1 0 0 1 371.3 616.4)">
    <tspan class="cls-62">E</tspan><tspan x="15.22" y="0" class="cls-63">c</tspan><tspan x="29.26" y="0">o</tspan><tspan x="44.92" y="0" class="cls-64">n</tspan><tspan x="60.93" y="0">omi</tspan><tspan x="108.16" y="0" class="cls-65">s</tspan><tspan x="121.7" y="0">ez</tspan><tspan x="151.13" y="0" class="cls-66"></tspan>
  </text>
  <path d="M495.67 519.03h16.93v7.65h-16.93v-7.65z" class="cls-67"/>
  <path d="M402.33 511a35.18 35.18 0 0 1 15.94-17.9v-14.38a14.31 14.31 0 0 1 13.89 9.94 39.19 39.19 0 0 1 4.52-.26h27.82c20.21 0 36.59 15.43 36.59 34.46 0 16.43-12.22 30.18-28.57 33.62v13H457.9v-12.16h-14.61v12.17h-14.63v-13a36 36 0 0 1-26.34-21.74h-10.08V511z" class="cls-68"/>
  <path d="M450.59 488.4h-13.9a39.19 39.19 0 0 0-4.52.26 14.31 14.31 0 0 0-13.89-9.94v14.35A35.18 35.18 0 0 0 402.33 511h-10.1v23.77h10.09a36 36 0 0 0 26.34 21.74v13h14.62v-12.19h7.31V488.4z" class="cls-67"/>
  <path d="M450.59 450.55c8.26 0 15 6.31 15 14.09s-6.7 14.09-15 14.09-15-6.31-15-14.09 6.7-14.09 15-14.09z" class="cls-69"/>
  <path d="M418.28 507a4 4 0 1 1-4.24 4 4.12 4.12 0 0 1 4.24-4zm16.31-13.03h32.01v7.23h-32.01v-7.23z" class="cls-70"/>
  <path d="M434.59 493.97h16v7.23h-16v-7.23z" class="cls-68"/>
  <path d="M450.59 450.55c-8.26 0-15 6.31-15 14.09s6.7 14.09 15 14.09v-28.18z" class="cls-71"/>
  <text class="cls-23" transform="matrix(1.1 0 0 1 436.2 249.9)">
    v<tspan x="13.06" y="0" class="cls-12">o</tspan><tspan x="27.74" y="0">s</tspan>
  </text>
</svg>
