<svg xmlns="http://www.w3.org/2000/svg" id="Calque_1" xmlns:xlink="http://www.w3.org/1999/xlink" viewBox="0 0 1280 800">
  <style>
    .st0{opacity:0.4;fill:url(#SVGID_1_);} .st1{opacity:0.4;fill:url(#SVGID_2_);} .st2{fill:#FFFF00;} .st3{fill-rule:evenodd;clip-rule:evenodd;fill:#CC3300;stroke:#FF6633;stroke-width:0.2;stroke-miterlimit:10;} .st4{fill-rule:evenodd;clip-rule:evenodd;fill:#FF6633;stroke:#FF6633;stroke-width:0.2;stroke-miterlimit:10;} .st5{fill-rule:evenodd;clip-rule:evenodd;fill:#FA794D;stroke:#FF6633;stroke-width:0.2;stroke-miterlimit:10;} .st6{fill-rule:evenodd;clip-rule:evenodd;fill:#CC3300;} .st7{fill-rule:evenodd;clip-rule:evenodd;fill:#0E3759;} .st8{opacity:0.4;fill-rule:evenodd;clip-rule:evenodd;fill:#FFFFFF;} .st9{fill-rule:evenodd;clip-rule:evenodd;fill:#FF9933;} .st10{fill-rule:evenodd;clip-rule:evenodd;fill:#00A79D;} .st11{opacity:0.1;fill-rule:evenodd;clip-rule:evenodd;} .st12{fill:#FFFFFF;} .st13{fill:#CCCCCC;} .st14{fill-rule:evenodd;clip-rule:evenodd;fill:#FF6633;} .st15{fill:#29D3B2;} .st16{fill:#F7BF6D;} .st17{opacity:0.1;} .st18{fill:#303030;} .st19{fill:#35E7FF;} .st20{fill:#414042;} .st21{opacity:0.2;} .st22{fill:#444444;} .st23{fill:#2AC0D1;} .st24{fill:#4FC5F2;} .st25{fill:#79DBF2;} .st26{fill:#0EA34A;} .st27{fill:#39B54A;} .st28{opacity:0.2;fill:#F1F2F2;} .st29{fill:#603913;} .st30{fill-rule:evenodd;clip-rule:evenodd;fill:#002B42;} .st31{fill-rule:evenodd;clip-rule:evenodd;} .st32{fill-rule:evenodd;clip-rule:evenodd;fill:#333333;} .st33{fill-rule:evenodd;clip-rule:evenodd;fill:#A3A3A3;} .st34{fill-rule:evenodd;clip-rule:evenodd;fill:#004359;} .st35{fill-rule:evenodd;clip-rule:evenodd;fill:#999999;} .st36{fill-rule:evenodd;clip-rule:evenodd;fill:#003333;} .st37{fill-rule:evenodd;clip-rule:evenodd;fill:#FF3E4D;} .st38{fill-rule:evenodd;clip-rule:evenodd;fill:#DDDCDB;} .st39{fill-rule:evenodd;clip-rule:evenodd;fill:#C6C6C6;} .st40{fill-rule:evenodd;clip-rule:evenodd;fill:#002C34;} .st41{fill-rule:evenodd;clip-rule:evenodd;fill:#E6E6E6;} .st42{fill-rule:evenodd;clip-rule:evenodd;fill:#2D2D2D;} .st43{fill-rule:evenodd;clip-rule:evenodd;fill:#3F3F3F;} .st44{fill-rule:evenodd;clip-rule:evenodd;fill:#666666;} .st45{fill:#1C0800;} .st46{fill-rule:evenodd;clip-rule:evenodd;fill:#808080;} .st47{fill:#00AEEF;} .st48{opacity:0.1;fill:#265380;} .st49{fill-rule:evenodd;clip-rule:evenodd;fill:#F26522;} .st50{fill-rule:evenodd;clip-rule:evenodd;fill:#414042;} .st51{fill-rule:evenodd;clip-rule:evenodd;fill:#231F20;} .st52{fill-rule:evenodd;clip-rule:evenodd;fill:#FFFFFF;} .st53{opacity:0.2;fill:#231F20;} .st54{fill-rule:evenodd;clip-rule:evenodd;fill:#FBB040;} .st55{fill:#CC3300;} .st56{fill-rule:evenodd;clip-rule:evenodd;fill:#1A1A1A;} .st57{fill:#DCF128;} .st58{fill:#E6E7E8;} .st59{opacity:0.1;fill:#231F20;} .st60{fill:#F15A29;} .st61{fill:#F4AA5B;} .st62{fill:#EF3C56;} .st63{fill:#917289;} .st64{fill:#857086;} .st65{fill:#FFF5D8;} .st66{fill:#E7E1D3;} .st67{fill:#28839C;} .st68{fill:#226D80;} .st69{fill:#232C3B;} .st70{fill:#BF4F3A;} .st71{fill:#C3BEB2;} .st72{fill:#D6D1C8;} .st73{fill:#E1DED7;} .st74{fill:#F3EDE3;} .st75{fill:#FDF7E3;} .st76{fill:#F37C20;} .st77{fill:#CC6B28;} .st78{fill:#1D4D69;} .st79{fill:#D6C17C;} .st80{fill:#544B58;} .st81{fill:#423A47;} .st82{fill:#1D3A38;} .st83{fill:#2B514D;} .st84{fill:#977F54;} .st85{fill:#886F4B;} .st86{fill:#BE8A35;} .st87{fill:#CD993A;} .st88{fill:#67522F;} .st89{fill:#5C4629;} .st90{clip-path:url(#SVGID_4_);fill-rule:evenodd;clip-rule:evenodd;fill:#C79369;} .st91{fill-rule:evenodd;clip-rule:evenodd;fill:#E7B791;} .st92{fill-rule:evenodd;clip-rule:evenodd;fill:#C79369;} .st93{fill-rule:evenodd;clip-rule:evenodd;fill:#FF0808;} .st94{fill-rule:evenodd;clip-rule:evenodd;fill:#F5F0F0;} .st95{fill-rule:evenodd;clip-rule:evenodd;fill:#323232;} .st96{clip-path:url(#SVGID_6_);fill-rule:evenodd;clip-rule:evenodd;fill:#F5F0F0;} .st97{clip-path:url(#SVGID_6_);fill-rule:evenodd;clip-rule:evenodd;fill:#E7B791;} .st98{fill-rule:evenodd;clip-rule:evenodd;fill:#5E3A1D;} .st99{clip-path:url(#SVGID_8_);fill:#EA6248;} .st100{clip-path:url(#SVGID_10_);fill:#EA6248;} .st101{fill:#242D3C;} .st102{fill:#3E4959;} .st103{fill:#21D8DE;} .st104{fill:#FFD55C;} .st105{fill:#D9D8D7;} .st106{fill:#F6C358;} .st107{fill:#FCD462;} .st108{fill:#DC8744;} .st109{fill:#E56353;} .st110{fill:#27A2DB;} .st111{fill:#64798A;} .st112{fill:#CE412D;} .st113{fill:#EBF0F3;} .st114{fill:#B1E9F1;} .st115{fill:#FFD600;} .st116{fill:#9F877E;} .st117{fill:#8F7A71;} .st118{fill:#ADB32A;} .st119{fill:#7CB142;} .st120{fill:#32681E;} .st121{fill:#54892E;} .st122{fill:#785448;} .st123{fill:#388D3C;} .st124{fill:#484A49;} .st125{fill:#65696A;} .st126{fill:#9D9B24;} .st127{fill:#DFF5F9;} .st128{fill:#EABD96;} .st129{fill:#5EAFE1;} .st130{fill:#FFD462;} .st131{fill:#231F20;} .st132{fill:#2E7C32;} .st133{fill:#82BB3A;} .st134{fill:#5F524F;} .st135{fill:none;} .st136{fill:#FDDABE;} .st137{opacity:0.5;fill:#F8B47F;} .st138{fill:#A0647B;} .st139{fill:#AD6933;} .st140{fill:#D7975C;} .st141{fill:#F9C095;} .st142{fill:#F29395;} .st143{fill:#C1941D;} .st144{fill:#854D60;} .st145{fill:#3D463D;} .st146{fill:#96AA88;} .st147{opacity:0.3;fill:#3D463D;} .st148{fill:#E3B126;} .st149{fill:#60463F;} .st150{opacity:0.2;fill:#EDBDB0;} .st151{opacity:0.4;fill:#FFFFFF;} .st152{fill:#E73D57;} .st153{fill:#E6E7E7;} .st154{opacity:0.1;fill:#221E20;} .st155{fill:#E7AA70;} .st156{fill:#613714;} .st157{opacity:0.2;fill:#221E20;} .st158{fill:#E73C56;} .st159{fill:#F39322;} .st160{fill:#CFD1D3;} .st161{fill:#754C29;} .st162{fill:#F9C280;} .st163{fill:#ACE0F4;} .st164{fill:#27AAE1;} .st165{opacity:0.3;fill:#231F20;} .st166{opacity:0.3;fill-rule:evenodd;clip-rule:evenodd;fill:#FFCC00;} .st167{fill-rule:evenodd;clip-rule:evenodd;fill:#8DC63F;} .st168{opacity:0.3;fill-rule:evenodd;clip-rule:evenodd;fill:#231F20;} .st169{fill-rule:evenodd;clip-rule:evenodd;fill:#6CC17C;} .st170{fill-rule:evenodd;clip-rule:evenodd;fill:#FFCC00;} .st171{fill-rule:evenodd;clip-rule:evenodd;fill:url(#XMLID_5_);} .st172{fill-rule:evenodd;clip-rule:evenodd;fill:url(#XMLID_6_);} .st173{fill-rule:evenodd;clip-rule:evenodd;fill:url(#SVGID_11_);} .st174{fill-rule:evenodd;clip-rule:evenodd;fill:url(#XMLID_7_);} .st175{fill-rule:evenodd;clip-rule:evenodd;fill:url(#SVGID_12_);} .st176{fill-rule:evenodd;clip-rule:evenodd;fill:#FAD1C0;} .st177{fill-rule:evenodd;clip-rule:evenodd;fill:url(#SVGID_13_);} .st178{fill-rule:evenodd;clip-rule:evenodd;fill:url(#SVGID_14_);} .st179{fill-rule:evenodd;clip-rule:evenodd;fill:#451312;} .st180{fill-rule:evenodd;clip-rule:evenodd;fill:url(#SVGID_15_);} .st181{fill-rule:evenodd;clip-rule:evenodd;fill:#D1A794;} .st182{fill-rule:evenodd;clip-rule:evenodd;fill:#43261B;} .st183{fill-rule:evenodd;clip-rule:evenodd;fill:url(#SVGID_16_);} .st184{fill-rule:evenodd;clip-rule:evenodd;fill:url(#SVGID_17_);} .st185{fill-rule:evenodd;clip-rule:evenodd;fill:#F0F1F1;} .st186{fill-rule:evenodd;clip-rule:evenodd;fill:url(#SVGID_18_);} .st187{fill-rule:evenodd;clip-rule:evenodd;fill:url(#SVGID_19_);} .st188{fill:#6D6E71;} .st189{fill:#FCB39A;} .st190{fill:#ED1C24;} .st191{fill:#1A92D0;} .st192{fill:#F1F2F2;} .st193{fill:#D1D3D4;} .st194{fill:#232323;} .st195{fill:#020203;} .st196{fill:#AAA9A9;} .st197{fill:#F0EDE6;}
  </style>
  <linearGradient id="SVGID_1_" x1="-802.5066" x2="-799.2446" y1="-519.1544" y2="-519.1544" gradientUnits="userSpaceOnUse" gradientTransform="matrix(0.9994 -1.504958e-02 -1.419321e-02 1.0791 127.0409 22.7697)">
    <stop offset="0"/>
    <stop offset="1" stop-color="#FFF"/>
  </linearGradient>
  <path d="M-666.6-522.9c.8-1.5 1.5-2.7 2.3-3.8-.4-.4-.8-.8-1.1-1.2-.7.9-1.3 1.7-1.9 3 0 .1-.2.3-.2.3" class="st0"/>
  <linearGradient id="SVGID_2_" x1="-851.9599" x2="-848.6979" y1="-519.3962" y2="-519.3962" gradientUnits="userSpaceOnUse" gradientTransform="matrix(0.9994 -1.504958e-02 -1.419321e-02 1.0791 127.0409 22.7697)">
    <stop offset="0"/>
    <stop offset="1" stop-color="#FFF"/>
  </linearGradient>
  <path d="M-716.1-522.4c.8-1.5 1.5-2.7 2.3-3.8-.4-.4-.8-.8-1.1-1.2-.7.9-1.3 1.7-1.9 3 0 .1-.2.3-.2.3" class="st1"/>
  <g id="Basketball_1_">
    <g id="Background_29_">
      <circle id="Background_2_29_" cx="120.2" cy="706.8" r="66.4" class="st2"/>
    </g>
    <g id="Basketball_2_">
      <g id="Basketball">
        <path d="M94.8 757.3c6.7 0 12.1-5.4 12.1-12.1 0-6.7-5.4-12.1-12.1-12.1-6.7 0-12.1 5.4-12.1 12.1 0 6.7 5.4 12.1 12.1 12.1z" class="st3"/>
        <path d="M94.8 756.7c6.3 0 11.5-5.2 11.5-11.5s-5.2-11.5-11.5-11.5-11.5 5.2-11.5 11.5 5.2 11.5 11.5 11.5z" class="st4"/>
        <path d="M94.9 755.3c5.8 0 10.6-4.8 10.6-10.6s-4.8-10.6-10.6-10.6-10.6 4.8-10.6 10.6 4.7 10.6 10.6 10.6z" class="st5"/>
        <path d="M98.9 734.3c.1 0 .1 0 .2.1l.1.1c-9.3 4.2-11.8 19.6-11.8 19.6h-.1l-.1-.1c.2-1.2 2.8-15.5 11.7-19.7z" class="st6"/>
        <path d="M105.1 750.7c0 .1-.1.2-.2.3-6.7-9.6-14.7-12.8-18.6-13.8.1-.1.1-.2.2-.2 4 1.1 11.9 4.3 18.6 13.7zm-9.7 6H95c-.9-1.3-1.2-3.1-1.9-5.9-.2-1.1-.5-2.3-.8-3.7-1.5-6.2-6.1-4.4-9-2.5v-.4c3.1-2 7.7-3.7 9.2 2.8.3 1.4.6 2.7.8 3.8.8 2.8 1.2 4.6 2.1 5.9zm-.5-22.9h.3c-.8 1.5-.9 3.3 3.3 3.7 2.1.2 3.7.2 4.8.1.1.1.1.2.2.2-1.2.1-2.8.2-5.1 0-4.4-.4-4.3-2.5-3.5-4z" class="st6"/>
      </g>
      <g id="Basketball_Hoop">
        <path d="M79.8 666.1H163v53.8H79.8z" class="st7"/>
        <path d="M121.8 670.5h34.3v45.1h-34.3z" class="st6"/>
        <path d="M83.5 668.5h75.7v49H83.5z" class="st8"/>
        <path d="M121.8 670.5h34.3v45.1h-34.3z" class="st9"/>
        <path d="M86.5 670.5h69.6v45.1H86.5z" class="st10"/>
        <path d="M106.4 691.5h30v19.4h-30v-19.4zm3.5 2.3h22.9v14.8h-22.9v-14.8z" class="st8"/>
        <path d="M121.8 666.1h41.1v53.8h-41.1z" class="st11"/>
        <path d="M115.2 707.4s-.3 12.3 16.1 18l-.2.4c-16.7-5.8-16.3-18.4-16.3-18.4h.4z" class="st12"/>
        <path d="M127.8 707s1.1 13.2-16.2 19l-.1-.4c17-5.7 15.9-18.5 15.9-18.5l.4-.1z" class="st12"/>
        <path d="M107.6 713.5s10.9 13.6 23 17.5l-.1.4c-12.2-3.9-23.2-17.6-23.2-17.6l.3-.3z" class="st12"/>
        <path d="M135.2 713.9s-15.1 15.6-23 17.3l-.1-.4c7.8-1.6 22.7-17.1 22.8-17.2l.3.3zm-23 21.9s13.4-4.8 18.8-10.4l.3.3c-5.5 5.6-18.9 10.4-19 10.5l-.1-.4z" class="st12"/>
        <path d="M111.7 725.6s9.8 7.6 18.3 10.1l-.1.4c-8.6-2.5-18.4-10.1-18.5-10.1l.3-.4z" class="st12"/>
        <path d="M112.2 730.8l8.6 5.6 9.6-5.4.2.4-9.7 5.4-.1.1-.1-.1-8.7-5.7z" class="st12"/>
        <path d="M104.7 706.9s7.9 15.3 7.7 29.4h-1.9c.2-13.6-7.5-28.4-7.5-28.5l1.7-.9zm27.1 29.7c.3-14.4 8.1-29.5 8.1-29.6l-1.9-.9s-8.1 15.6-8.3 30.5h2.1z" class="st13"/>
        <path d="M103.4 705.8h36.2c.7 0 1.3.6 1.3 1.3 0 .7-.6 1.2-1.3 1.2h-36.2c-.7 0-1.3-.6-1.3-1.2.1-.7.6-1.3 1.3-1.3z" class="st14"/>
      </g>
    </g>
  </g>
  <g id="Swimming_1_">
    <g id="Swim">
      <circle cx="361.2" cy="584" r="64.4" class="st15"/>
      <path d="M380 598.6l42.8 4.3 1.7-7-43.7-4.7z" class="st16"/>
      <path d="M375.8 582.4s-2.7-.3-8-.8c-5.4-.5-17.5-14.2-17.5-14.2l17-20.3s8.7.7 12.4.6c3.7 0 4.9-4.5 5.8-6.4.9-1.8-8.6-2.4-16.5-.7-8 1.8-28.1 28.5-28.1 28.5s14.8 12.8 16.6 18.5c1.8 5.7-42.4 16.3-42.4 16.3l10 25.1s28.1-7.7 44.4-14c16.2-6.2 18.9-23.6 18.9-23.6l-12.6-9z" class="st16"/>
      <path d="M367.8 581.5c1.2.1 2.2.2 3.1.3-1.4.9-3.3 1.4-5.8.9-6.1-1.3-14.7-15.4-14.7-15.4s12 13.7 17.4 14.2z" class="st17"/>
      <path d="M397.9 571s2.6 20.7-12.8 21.1c-6.8.2-16.4-11.9-16.4-11.9l-1.5-3.8s-7.5-4.3-4.3-7.7c3.2-3.4 3.8.3 3.8.3s-2-12.4 2.6-16.6c4.6-4.2 17.4-8.4 22.7-3.4 5.3 5 7.3 14.2 6.2 16.8-1.2 2.5-.3 5.2-.3 5.2z" class="st16"/>
      <path d="M394.5 569.3s-2.1 1.7-5.7.4c-3.6-1.3-.1 1.6-.1 1.6l-.2.5s5.4-1.6 6.4-.5-.4-2-.4-2z" class="st18"/>
      <path d="M388.9 586.7c2.6-2.6 6.3-1.2 6.4-1.2l.4-1c-.2-.1-4.4-1.6-7.5 1.4l.7.8z" class="st17"/>
      <path d="M366.6 569l-.1-.5c.1.3.1.5.1.5z" class="st19"/>
      <path d="M370.6 563.8c-3.8 1.6-4 5.2-4 5.2s-1.2-7.4.4-12.7c.7-2.6 1.2-3 2.5-4.2 4.9-4.1 17.2-8 22.3-3.1 4 3.8 6.1 9.9 6.4 13.8-.1.1-.2.2-.3.2-3.1.9-7.7-2.2-7.7-2.2-5.5-1.6-15.8 1.4-19.6 3z" class="st20"/>
      <ellipse cx="397.3" cy="570" transform="matrix(1 -8.895430e-03 8.895430e-03 1 -5.0543 3.5568)" class="st18" rx="3" ry="3.6"/>
      <path d="M388.7 571.3s-3.4-2.9.1-1.6c.6.2 1.1.3 1.5.4-.2.3-.5.6-.2.7.5.2 1.5 0 1.4.3-1.6.3-3.1.7-3.1.7l.3-.5z" class="st21"/>
      <ellipse cx="384.1" cy="570.4" transform="matrix(1 -8.843182e-03 8.843182e-03 1 -5.0293 3.4189)" class="st18" rx="5.2" ry="3.4"/>
      <ellipse cx="384.9" cy="570.4" transform="matrix(1 -8.791495e-03 8.791495e-03 1 -4.9999 3.4057)" class="st22" rx="4.4" ry="3.4"/>
      <path d="M397.4 573.5c-2.4-2.2-1.4-5.6-.8-7 .2-.1.5-.1.7-.1 1.7 0 3 1.6 3 3.6 0 1.9-1.3 3.5-2.9 3.5z" class="st22"/>
      <path d="M366.3 566.6c2.5.8 10.2 3 12.4 2.5 0 0 1.1.1 1 .3-.1.2-.9 0-.9 0l-.1.7s.6 0 .7.1c0 .1.3.2-.9.1-1.2-.2-11.4-1.4-11.8-1.5-.2-.4-.3-1.2-.4-2.2zm-.2 1.3c.2.3.3.7.4.9l-.4-.9z" class="st18"/>
      <path d="M361.2 648.5c26.8 0 49.8-16.3 59.5-39.6-11.2-.4-24.1-10.6-30.6-12.8-8.1-2.7-9.8 4.2-16.9 9.7-7.1 5.5-18.5-7.6-23.2-9.5-4.6-1.9-10.2 9.6-30.3 9.5-9.5 0-16.2-2.1-20.6-4.4 7.6 27.2 32.5 47.1 62.1 47.1z" class="st23"/>
      <path d="M303.8 613.3c10.7 20.9 32.4 35.2 57.4 35.2 30.3 0 55.7-20.9 62.6-49.1-2-.2-4.5 0-7.5 1.1-7.9 2.8-31.9 6.3-34.5 6.3s-12-6.3-17.4-5.1c-5.4 1.2-9.4 9.1-17 9.8-7.6.7-19.1-17.6-26.5-14.4-6 2.6-13.8 12.3-17.1 16.2z" class="st24"/>
    </g>
  </g>
  <g id="Cycling">
    <g id="Background_6_">
      <circle id="Background_2_6_" cx="116.7" cy="415.7" r="68.7" class="st25"/>
    </g>
    <g id="Cycling_2_">
      <g id="Three">
        <path d="M166.9 439.6h-11.1v-.1c0-4.1-3.3-7.3-7.4-7.3h-37.9c-2.3 0-4.3 1-5.6 2.6H64.6c-2.2 0-3.9 1.7-3.9 3.9s1.7 3.9 3.9 3.9h15.3c-1.1 1.2-1.7 2.8-1.7 4.5 0 3.7 3 6.7 6.7 6.7h45c.7.2 1.5.4 2.2.4h34.8c4 0 7.2-3.2 7.2-7.2.1-4.1-3.2-7.4-7.2-7.4z" class="st26"/>
        <ellipse cx="74.7" cy="383.6" class="st27" rx="14.6" ry="17.2"/>
        <ellipse cx="74.7" cy="385.3" class="st28" rx="13.2" ry="15.5"/>
        <path d="M74 389.6h1.4v44.9H74z" class="st29"/>
        <ellipse cx="82.8" cy="392.9" class="st27" rx="7.8" ry="9.2"/>
        <ellipse cx="161.3" cy="410.5" class="st27" rx="8.2" ry="9.7"/>
        <ellipse cx="161.3" cy="411.4" class="st28" rx="7.4" ry="8.8"/>
        <path d="M160.9 413.8h.8v25.3h-.8z" class="st29"/>
        <ellipse cx="165.9" cy="415.7" class="st27" rx="4.4" ry="5.2"/>
        <path d="M76.9 404.7c-1 0-1.8-.2-1.8-.2l.1-.4s3.1.8 5.4-1c1.8-1.3 2.6-3.8 2.6-7.3h.4c0 3.6-.9 6.2-2.8 7.6-1.3 1-2.8 1.3-3.9 1.3z" class="st29"/>
      </g>
      <g id="Bicycle">
        <path d="M93.3 414.7c8.1 0 14.6 6.6 14.6 14.7s-6.6 14.7-14.6 14.7c-8.1 0-14.6-6.6-14.6-14.7s6.5-14.7 14.6-14.7zm0 .9c7.6 0 13.7 6.2 13.7 13.8 0 7.6-6.2 13.8-13.7 13.8-7.6 0-13.7-6.2-13.7-13.8 0-7.6 6.1-13.8 13.7-13.8z" class="st30"/>
        <path d="M93.1 429.5h.3v12.9h-.3z" class="st31"/>
        <path d="M93.05163 429.56791l.28887-.08091 3.47913 12.42141-.28887.08091z" class="st31"/>
        <path d="M93.4 429.4l-.2.2 6.4 11.2.3-.2z" class="st31"/>
        <path d="M93.4 429.4l-.2.2 9.1 9.1.2-.2z" class="st31"/>
        <path d="M93.4 429.4l-.1.2 11.1 6.5.2-.3z" class="st31"/>
        <path d="M93.4 429.3l-.1.3 12.4 3.4.1-.3z" class="st31"/>
        <path d="M93.4 429.3h12.8v.3H93.4z" class="st31"/>
        <path d="M93.4 429.3v.3l12.4-3.4v-.2z" class="st31"/>
        <path d="M93.3 429.3l.2.2 11.1-6.4-.1-.3z" class="st31"/>
        <path d="M93.3 429.3l.2.2 9.1-9.1-.2-.2z" class="st31"/>
        <path d="M93.3 429.3l.2.2 6.4-11.2-.2-.2z" class="st31"/>
        <path d="M93.17482 429.28066l3.47913-12.42141.28887.08091-3.47913 12.42141z" class="st31"/>
        <path d="M93.2 416.4h.3v12.9h-.3z" class="st31"/>
        <path d="M89.8601 416.85043l.29004-.07665 3.29595 12.47172-.29004.07665z" class="st31"/>
        <path d="M93.2 429.4l.2-.1-6.4-11.2-.2.1z" class="st31"/>
        <path d="M93.2 429.4l.2-.2-9.1-9.1-.2.2z" class="st31"/>
        <path d="M93.2 429.5l.1-.3-11.1-6.4-.1.2z" class="st31"/>
        <path d="M93.2 429.5l.1-.3-12.4-3.3-.1.2z" class="st31"/>
        <path d="M80.4 429.2h12.8v.3H80.4z" class="st31"/>
        <path d="M93.3 429.5l-.1-.3-12.4 3.4.1.3z" class="st31"/>
        <path d="M93.3 429.5l-.1-.2-11.2 6.4.2.3z" class="st31"/>
        <path d="M93.3 429.5l-.2-.2-9.1 9.2.3.2z" class="st31"/>
        <path d="M93.4 429.5l-.3-.1-6.4 11.2.2.1z" class="st31"/>
        <path d="M89.74388 441.92688l3.42882-12.4356.2892.07974-3.42882 12.4356z" class="st31"/>
        <path d="M93.3 416.2c7.2 0 13.1 5.9 13.1 13.2 0 7.3-5.9 13.2-13.1 13.2-7.2 0-13.1-5.9-13.1-13.2 0-7.3 5.9-13.2 13.1-13.2zm0 .8c6.8 0 12.3 5.5 12.3 12.4 0 6.8-5.5 12.4-12.3 12.4-6.8 0-12.3-5.5-12.3-12.4 0-6.8 5.5-12.4 12.3-12.4z" class="st32"/>
        <path d="M93.3 415.6c7.6 0 13.8 6.2 13.8 13.8 0 7.6-6.2 13.8-13.8 13.8-7.6 0-13.8-6.2-13.8-13.8.1-7.6 6.2-13.8 13.8-13.8zm0 .8c7.1 0 12.9 5.8 12.9 13s-5.8 13-12.9 13c-7.1 0-12.9-5.8-12.9-13s5.8-13 12.9-13z" class="st33"/>
        <path d="M135.3 415.2c8.1 0 14.6 6.6 14.6 14.7s-6.5 14.7-14.6 14.7-14.6-6.6-14.6-14.7 6.5-14.7 14.6-14.7zm0 .8c7.6 0 13.7 6.2 13.7 13.8s-6.1 13.8-13.7 13.8-13.7-6.2-13.7-13.8 6.1-13.8 13.7-13.8z" class="st30"/>
        <path d="M135.1 429.9h.3v12.9h-.3z" class="st31"/>
        <path d="M135.16216 429.95092l.28992-.07716 3.31788 12.46656-.28992.07716z" class="st31"/>
        <path d="M135.10153 430.05911l.25986-.14991 6.44613 11.17398-.25986.14991z" class="st31"/>
        <path d="M135.4 429.8l-.2.2 9.1 9.2.2-.2z" class="st31"/>
        <path d="M135.4 429.8l-.2.2 11.2 6.5.1-.2z" class="st31"/>
        <path d="M135.4 429.8l-.1.2 12.4 3.4.1-.3z" class="st31"/>
        <path d="M135.3 429.7h12.8v.3h-12.8z" class="st31"/>
        <path d="M135.3 429.7l.1.3 12.4-3.3-.1-.3z" class="st31"/>
        <path d="M135.3 429.7l.1.3 11.1-6.5-.1-.2z" class="st31"/>
        <path d="M135.2 429.7l.2.2 9.1-9.1-.2-.2z" class="st31"/>
        <path d="M135.2 429.7l.3.2 6.4-11.2-.3-.2z" class="st31"/>
        <path d="M135.17862 429.75241l3.32046-12.46527.28989.07722-3.32046 12.46527z" class="st31"/>
        <path d="M135.2 416.8h.3v12.9h-.3z" class="st31"/>
        <path d="M131.83359 417.35803l.28989-.07722 3.32046 12.46527-.28989.07722z" class="st31"/>
        <path d="M135.1 429.8l.3-.1-6.4-11.2-.3.1z" class="st31"/>
        <path d="M135.1 429.9l.2-.2-9-9.2-.2.2z" class="st31"/>
        <path d="M135.1 429.9l.2-.3-11.1-6.4-.2.2z" class="st31"/>
        <path d="M135.2 429.9v-.3l-12.4-3.3v.3z" class="st31"/>
        <path d="M122.3 429.6h12.8v.3h-12.8z" class="st31"/>
        <path d="M135.2 430l-.1-.3-12.4 3.3.1.3z" class="st31"/>
        <path d="M135.2 430l-.1-.3-11.1 6.5.1.2z" class="st31"/>
        <path d="M135.3 430l-.2-.2-9.1 9.1.2.2z" class="st31"/>
        <path d="M135.3 430l-.2-.2-6.5 11.2.3.1z" class="st31"/>
        <path d="M131.75315 442.34097l3.32175-12.46527.28989.07725-3.32175 12.46527z" class="st31"/>
        <path d="M104.7 406s-.3.4-1 .5l-.1-.4-1.9.3-1.4.1v.5s-.2.4.7.2c.9-.1 1.4-.3 1.5-.1 0 .1.1.2.1.2h-.1l1.9 7.2 1.4-.4-1.8-7.1h-.1l-.1-.3s1.1.1 1.3-.7l-.2-.2-.2.2zm20.1.6s-.3-.3 0-.4c.3-.2 1.3-.6 1.5-.4.1.2.1.4.4.3.3-.1 1.3-.2 1.2-.4-.1-.2-.3-.3-.6-.3s-.4-.2.3-.5 3.2-.9 2.9-.3c-.4.6-.6.8.2.8h3.1s1.2-.9 1.3-1.3c.1-.5 0-.7 0-.7s1-.4 1.2-.1c.2.3.4-.2.7 0 .3.2.1.8.2 1.6.1.7.6 1.5.7 2.9 0 0 .1.8.9 1.2 0 0 .4.4-.1.3-.5-.1-1.1-.5-1.2-1.4-.1-.9-.4-2.3-.9-2.3 0 0-1.2.7-1.1 1.3.1.6.6 1.5.3 2.1-.3.7-1.7 2.9-3.7 3.6l-.8-1.1s3.1-1.4 3.1-2.6c0-1.2-.9-2-1.4-2-.4 0-2.7.1-2.7.1s.2.4-.5.5c-.7.1-2.3.1-2.6.3-.3.2-.8.7-.8.7s-1-.5-1.1-.6c-.2-.4-.5-1.3-.5-1.3z" class="st34"/>
        <path d="M136.5 403.3c.1-.1.2-.2.4-.1.3.2.1.8.2 1.6.1.7.6 1.5.7 2.9 0 0 .1.8.9 1.2 0 0 .4.4-.1.3-.5-.1-1.1-.5-1.2-1.4-.1-.9-.4-2.3-.9-2.3.1-.1.1-.3.2-.4.3-.5 0-1.4-.2-1.8z" class="st35"/>
        <path d="M135.3 416.7c7.2 0 13.1 5.9 13.1 13.2 0 7.3-5.9 13.2-13.1 13.2-7.2 0-13.1-5.9-13.1-13.2 0-7.3 5.8-13.2 13.1-13.2zm0 .8c6.8 0 12.3 5.5 12.3 12.4 0 6.8-5.5 12.4-12.3 12.4-6.8 0-12.3-5.5-12.3-12.4-.1-6.9 5.5-12.4 12.3-12.4z" class="st32"/>
        <path d="M124.5 406.5l1.6-.5 1.3 3.8-1.6.5z" class="st36"/>
        <path d="M135.3 416c7.6 0 13.8 6.2 13.8 13.8 0 7.6-6.2 13.8-13.8 13.8-7.6 0-13.8-6.2-13.8-13.8 0-7.6 6.2-13.8 13.8-13.8zm0 .8c7.1 0 12.9 5.8 12.9 13s-5.8 13-12.9 13c-7.1 0-12.9-5.8-12.9-13-.1-7.1 5.7-13 12.9-13z" class="st33"/>
        <path d="M128.7 413.6l-1.3-4.2-1.9.6.1.2-20 2.9-.4-1.5c-.2.1-.4.2-.7.2-.3.1-.5.1-.7.1l.5 2-10.7 15.8.6.4 15.2 3.5 1.5 1.3 16.3-19.5.2.6 1.9-.6-.6-1.8zm-2.3-.7l-.3-.9-20.1 2.9 4.5 16.6 15.9-18.6zm-21.5 2.1l4.9 17.3-.3.3-14.5-3.5 9.9-14.1z" class="st37"/>
        <path d="M110.5 429.7c1.6 0 2.9 1.3 2.9 2.9 0 1.6-1.3 2.9-2.9 2.9-1.6 0-2.9-1.3-2.9-2.9 0-1.6 1.3-2.9 2.9-2.9zm0 .7c1.2 0 2.2 1 2.2 2.2 0 1.2-1 2.2-2.2 2.2-1.2 0-2.2-1-2.2-2.2 0-1.2 1-2.2 2.2-2.2z" class="st38"/>
        <path d="M127.4 416l1.9-.6c1.5 5.3 3.4 9.8 5.8 15l-.9.2-6.8-14.6z" class="st39"/>
        <path d="M97.2 405.1s.3-.5 1.2-.5c1-.1 1.8.3 3.6.4 1.8.1 2.5.2 3.7 0 1.2-.2 2.6-.1 2.9.7 0 0 .5.7-2.3.3 0 0-1.8-.2-2.8.1-1 .3-2.7 1.1-3.9.7-1-.4-2.2-.6-2.4-1.7z" class="st40"/>
        <path d="M95.8 429l15.7.3c2 0 3.4 1.9 3.2 3.7-.2 1.9-2 3.5-3.9 3l-15.4-3.9c-1.9-.5-2.1-.9-2-1.3-.1-.6-.6-1.8 2.4-1.8zm-.2.4l14.4.2c2 0 3.6.4 4.1 1.9.2.4 0 1.3 0 1.9 0 1.2-1.4 2.9-3 2.5l-14.3-3.7c-1.6-.4-3.4-.8-3.3-1.2l.1-.4c.1-.6-.5-1.2 2-1.2z" class="st41"/>
        <path d="M110.5 430.6c1.1 0 2 .9 2 2s-.9 2-2 2-2-.9-2-2 .9-2 2-2zm0 .5c.8 0 1.5.7 1.5 1.5s-.7 1.5-1.5 1.5-1.5-.7-1.5-1.5.7-1.5 1.5-1.5z" class="st38"/>
        <path d="M110.5 428.5c2.3 0 4.1 1.9 4.1 4.2 0 2.3-1.9 4.2-4.1 4.2-2.3 0-4.1-1.9-4.1-4.2 0-2.4 1.8-4.2 4.1-4.2zm0 1c1.7 0 3.1 1.4 3.1 3.1 0 1.7-1.4 3.1-3.1 3.1-1.7 0-3.1-1.4-3.1-3.1 0-1.7 1.4-3.1 3.1-3.1z" class="st42"/>
        <path d="M110.9 432.1c.4 0 1-.1 1.2-.4.4-.5.8.2 1.5.4-.6.4-.7 1.2-1.3.8-.3-.2-.8-.1-1.1 0 .2.4.4.8.8.9.6.2.1.8.2 1.5-.6-.4-1.4-.3-1.2-.9.1-.3-.1-.8-.4-1.1-.3.3-.6.7-.6 1.1 0 .6-.7.3-1.3.7.2-.7-.2-1.4.4-1.5.3 0 .7-.4.9-.7-.4-.2-.9-.3-1.2-.2-.6.2-.6-.6-1.1-1 .7 0 1.2-.7 1.5-.1.2.3.6.5 1 .6 0-.4 0-.9-.2-1.2-.4-.5.3-.7.6-1.4.3.7 1 .9.6 1.4-.4.2-.4.7-.3 1.1z" class="st43"/>
        <path d="M110.6 432l6.7 4.6c.2.1.2.4.1.5l-.4.5c-.1.2-.4.2-.5.1l-6.7-4.6c-.2-.1-.2-.4-.1-.5l.4-.6c.1-.1.4-.1.5 0z" class="st30"/>
        <path d="M115 436.7h3.4c.1 0 .2.1.2.2v.6c0 .1-.1.2-.2.2H115c-.1 0-.2-.1-.2-.2v-.6c0-.2.1-.2.2-.2zm-4.5-3.5c.3 0 .5-.2.5-.5s-.2-.5-.5-.5-.5.2-.5.5.2.5.5.5z" class="st6"/>
        <path d="M115.3 436.8h2.7c.1 0 .2.1.2.2v.5c0 .1-.1.2-.2.2h-2.7c-.1 0-.2-.1-.2-.2v-.5c.1-.2.2-.2.2-.2z" class="st38"/>
        <path d="M116.7 437.6c.3 0 .5-.2.5-.5s-.2-.5-.5-.5-.5.2-.5.5.2.5.5.5z" class="st6"/>
        <path d="M116.7 437.4c.1 0 .2-.1.2-.2s-.1-.2-.2-.2-.2.1-.2.2.1.2.2.2z" class="st31"/>
        <path d="M93.7 428.4c1.1 0 2 .9 2 2s-.9 2-2 2-2-.9-2-2 .9-2 2-2zm0 .5c.8 0 1.5.7 1.5 1.5s-.7 1.5-1.5 1.5-1.5-.7-1.5-1.5c0-.9.7-1.5 1.5-1.5z" class="st32"/>
        <path d="M93.7 429.1c.7 0 1.3.6 1.3 1.3 0 .7-.6 1.3-1.3 1.3-.7 0-1.3-.6-1.3-1.3.1-.7.6-1.3 1.3-1.3zm0 .3c.5 0 .9.4.9 1 0 .5-.4 1-.9 1s-1-.4-1-1c.1-.6.5-1 1-1z" class="st44"/>
        <path d="M93.7 429.5c.5 0 .9.4.9.9s-.4.9-.9.9-.9-.4-.9-.9.4-.9.9-.9zm0 .2c.4 0 .7.3.7.7 0 .4-.3.7-.7.7-.4 0-.7-.3-.7-.7.1-.4.4-.7.7-.7z" class="st35"/>
        <ellipse cx="135" cy="429.9" class="st45" rx="1.7" ry="1.7"/>
        <path d="M93.7 431.8c.8 0 1.4-.6 1.4-1.4 0-.8-.6-1.4-1.4-1.4-.8 0-1.4.6-1.4 1.4 0 .7.7 1.4 1.4 1.4z" class="st46"/>
      </g>
    </g>
  </g>
  <g id="Tennis">
    <g id="Background_25_">
      <circle id="Background_2_25_" cx="1173" cy="111.5" r="69.3" class="st15"/>
    </g>
    <g id="Tennis_2_">
      <g id="Racket_1_1_">
        <path d="M1204.8 79.7c3.9 1.7 6.6 5.1 7.8 9.2 1.2 4.1 1 8.8-1 13.3-.6 1.3-1.2 2.5-2 3.7l.3-.2-.4.5c-1.2 1.7-2.7 3.2-4.3 4.4l-19.4 19.8-3.5-1.5v-27.8c-.3-1.8-.3-3.6 0-5.5v-.8.4c.3-1.7.8-3.3 1.5-4.9 1.9-4.5 5.3-7.9 9-9.8 3.7-2.1 8.1-2.5 12-.8zm-8.8 34.1c-3.1 1-8.3-1.4-9.9-4.2l-1.1 17 11-12.8zm14.4-24.3c-1-3.5-3.3-6.3-6.6-7.8-3.2-1.4-6.9-1.1-10.1.5-3.3 1.7-6.2 4.7-8 8.7-1.7 4-2 8.2-.9 11.8 1 3.5 3.3 6.4 6.5 7.8 3.3 1.4 6.9 1.1 10.2-.6 3.3-1.7 6.3-4.7 8-8.7 1.8-3.9 2-8.1.9-11.7z" class="st47"/>
        <path d="M1205.5 80c3.5 1.8 6 5 7.1 8.9 1.2 4.1 1 8.8-1 13.3-.6 1.3-1.2 2.5-2 3.7l.3-.2-.4.5c-1.2 1.7-2.7 3.2-4.3 4.4l-18.7 19.1h-2.4l1.7-3.9 10.3-11.9c-1.4.5-3.2.2-4.9-.4l1.1-2.5c3.1 1.1 6.4.7 9.4-.8 3.3-1.7 6.3-4.7 8-8.7 1.7-4 2-8.2.9-11.8-.9-3.2-3-5.9-5.9-7.4l.8-2.3z" class="st48"/>
        <path d="M1172.02435 152.28327l10.16064-23.49824 3.57981 1.54791-10.16064 23.49824z" class="st49"/>
        <path d="M1171.8 152.3l3.9 1.7c.5.2.7.8.5 1.3-.2.5-.8.8-1.3.5l-3.9-1.7c-.5-.2-.8-.8-.5-1.3.2-.5.8-.7 1.3-.5z" class="st50"/>
        <path d="M1185.1 103.7l15.8 6.8c-.4.1-.8.3-1.1.4l-14.2-6.1c-.2-.4-.3-.8-.5-1.1zm-.5-2l18.2 7.9c-.3.2-.6.4-.9.5l-17-7.4c-.2-.3-.3-.7-.3-1zm-.3-1.9l20 8.7c-.3.2-.5.4-.8.6l-19.1-8.3c-.1-.3-.1-.7-.1-1zm-.1-1.8l21.4 9.3c-.2.2-.4.4-.7.6l-20.7-9V98zm.1-1.7l22.5 9.7c-.2.2-.4.5-.6.6l-22-9.5c.1-.2.1-.5.1-.8zm.3-1.6l23.2 10c-.2.2-.3.5-.5.7l-22.9-9.9c.1-.2.1-.5.2-.8zm.4-1.6l23.7 10.2c-.1.3-.3.5-.4.7l-23.5-10.2c0-.1.1-.4.2-.7zm.5-1.5l23.9 10.3c-.1.3-.2.5-.4.8l-23.8-10.3c.1-.2.2-.5.3-.8zm.7-1.4l23.9 10.3c-.1.3-.2.5-.3.8L1185.9 91c0-.4.1-.6.3-.8zm.7-1.5l23.6 10.2c-.1.3-.2.5-.2.8l-23.8-10.3c.2-.2.3-.4.4-.7zm.9-1.3l23.1 10c-.1.3-.1.6-.2.8l-23.4-10.1c.2-.3.4-.5.5-.7zm1.1-1.3l22.3 9.6c0 .3 0 .6-.1.9l-22.7-9.8c.1-.3.3-.5.5-.7zm1.2-1.2l21.1 9.1v.9l-21.8-9.4c.3-.2.5-.4.7-.6zm1.4-1.2l19.6 8.5c0 .3.1.6.1 1l-20.5-8.8c.3-.3.5-.5.8-.7zm1.6-1l17.6 7.6c.1.3.2.7.2 1l-18.8-8.1c.4-.2.7-.4 1-.5zm1.9-.9l15.1 6.5c.1.3.3.7.4 1.1l-16.5-7.1c.3-.2.7-.4 1-.5z" class="st13"/>
        <path d="M1191 84.1l-6.7 15.6c-.1-.7-.1-1.4 0-2.1l5.2-12.1c.5-.5 1-1 1.5-1.4zm2.4-1.6l-8.7 20c-.1-.5-.2-.9-.3-1.4l7.7-17.9c.5-.2.9-.5 1.3-.7zm2.2-.9l-10 23.1c-.2-.3-.3-.7-.5-1.1l9.3-21.6c.4-.2.8-.3 1.2-.4zm1.9-.5l-11 25.4-.6-.9 10.5-24.3c.5-.1.8-.2 1.1-.2zm1.9-.2l-11.7 27c-.2-.2-.4-.5-.6-.8l11.3-26.2h1zm1.7.1l-12.1 28.1c-.2-.2-.5-.4-.7-.6l11.9-27.6c.3 0 .6.1.9.1zm1.6.3l-12.4 28.7c-.3-.1-.5-.3-.7-.5l12.3-28.4c.2.1.5.2.8.2zm1.5.6l-12.5 28.8c-.1 0-.1-.1-.2-.1l-.6-.3 12.5-28.8.6.3s.1.1.2.1zm1.4.8l-12.4 28.6c-.3-.1-.6-.1-.8-.3l12.4-28.8c.3.2.5.3.8.5zm1.3 1l-12 27.8c-.3-.1-.6-.1-.9-.1l12.2-28.3c.2.2.5.4.7.6zm1.2 1.2l-11.5 26.6h-.9l11.8-27.3c.2.2.4.5.6.7zm1.1 1.6l-10.7 24.8c-.3.1-.7.1-1 .2l11.2-25.8c.1.2.3.5.5.8zm.9 1.8l-9.7 22.4c-.4.1-.7.2-1.1.4l10.3-23.8c.2.3.4.6.5 1zm-3.4 17.9l4.4-10.3c-.2 1.8-.6 3.7-1.4 5.5-.8 1.8-1.8 3.4-3 4.8z" class="st13"/>
        <path d="M1180.09196 133.7791l2.14326-4.95666 3.57981 1.54791-2.14326 4.95666z" class="st51"/>
        <path d="M1183.7 129.5l.6.3c.3.1.4.5.3.8l-1.7 3.9c-.1.3-.5.5-.8.3l-.6-.3c-.3-.1-.5-.5-.3-.8l1.7-3.9c.1-.2.5-.4.8-.3z" class="st44"/>
        <path d="M1180.6 134.6c.1.1.2.2.2.4l-3.2 7.3c-.1.2-.3.2-.4.2-.2-.1-.2-.2-.2-.4l3.2-7.3c0-.2.2-.3.4-.2zm-4.3 9.8c.1.1.2.3.2.4l-1.1 2.6c-.1.2-.3.2-.4.2-.2-.1-.2-.2-.2-.4l1.1-2.6c.1-.2.3-.3.4-.2z" class="st52"/>
        <path d="M1239.5 115c.7 3.2.1 6.5-1.4 9.5-1.9 3.8-5.4 7.1-9.9 9-1.3.6-2.6 1-4 1.3h.3-.6c-2.1.4-4.2.5-6.2.2l-27.1 1-1.2-1.3 5.5-2.2 13.9-1.5c-1.1-.5-2.1-1.6-2.9-2.9l2.5-1c1.6 2.5 4.1 4.2 7 5.1 3.6 1.1 7.8.9 11.8-.9 4-1.7 7.1-4.7 8.8-8 1.2-2.4 1.7-5.1 1.3-7.7l2.2-.6z" class="st53"/>
        <path d="M1188.4 132.6l1.6 3.6-23.5 10.1-1.6-3.6z" class="st54"/>
        <path d="M1164.9 142.6l1.7 3.9c.2.5 0 1.1-.5 1.3-.5.2-1.1 0-1.3-.5l-1.7-3.9c-.2-.5 0-1.1.5-1.3.4-.3 1 0 1.3.5z" class="st50"/>
        <path d="M1207.9 116.4l6.8 15.8c-.4-.1-.8-.3-1.1-.5l-6.1-14.2c.1-.4.3-.7.4-1.1zm1-1.8l7.8 18.2c-.3-.1-.7-.2-1-.3l-7.3-17c.1-.3.3-.6.5-.9zm1.1-1.6l8.6 20.1c-.3 0-.7-.1-1-.1l-8.2-19.1c.2-.4.4-.6.6-.9zm1.2-1.3l9.2 21.5h-.9l-8.9-20.8c.1-.3.3-.5.6-.7zm1.2-1.2l9.7 22.5c-.3 0-.6 0-.9.1l-9.4-22c.1-.2.4-.4.6-.6zm1.3-1l10 23.3c-.3.1-.6.1-.8.2l-9.9-23c.2-.2.5-.3.7-.5zm1.4-.9l10.2 23.7c-.3.1-.6.2-.8.2l-10.1-23.5c.2-.1.4-.2.7-.4zm1.4-.7l10.3 24c-.3.1-.5.2-.8.3l-10.2-23.9c.2-.2.5-.3.7-.4zm1.5-.6l10.3 23.9c-.2.1-.5.2-.8.4l-10.3-24c.3-.1.5-.2.8-.3zm1.5-.5l10.1 23.6c-.2.1-.5.3-.7.4l-10.2-23.8c.3-.1.5-.1.8-.2zm1.6-.4l9.9 23.1c-.2.2-.5.3-.7.5l-10-23.4c.2-.1.5-.1.8-.2zm1.6-.2l9.6 22.3c-.2.2-.4.4-.7.6l-9.8-22.7c.3-.1.6-.2.9-.2zm1.8-.1l9.1 21.1-.7.7-9.3-21.8c.2 0 .5.1.9 0zm1.8.2l8.4 19.6c-.2.3-.4.5-.6.8l-8.8-20.5c.3 0 .6 0 1 .1zm1.8.3l7.6 17.7-.6.9-8-18.8c.4 0 .7.1 1 .2zm2.1.7l6.5 15c-.2.4-.3.7-.5 1.1l-7.1-16.5c.4.1.7.2 1.1.4z" class="st13"/>
        <path d="M1225.6 106.2l-15.6 6.7c.4-.5.9-1 1.4-1.5l12.1-5.2c.8-.1 1.5-.1 2.1 0zm2.9.5l-20.1 8.6c.2-.4.5-.8.7-1.2l17.9-7.7c.6.1 1 .2 1.5.3zm2.2.8l-23.2 9.9c.1-.4.3-.8.4-1.1l21.7-9.3c.4.2.7.3 1.1.5zm1.8 1l-25.4 10.9c0-.3.1-.7.2-1l24.3-10.4c.3.1.6.3.9.5zm1.4 1.1l-27.1 11.6c0-.3 0-.6.1-1l26.3-11.3c.2.3.5.5.7.7zm1.2 1.3L1207 123c0-.3-.1-.6-.1-.9l27.6-11.8c.2.1.4.3.6.6zm.9 1.3l-28.7 12.3c-.1-.3-.1-.6-.2-.8l28.4-12.2c.2.2.3.4.5.7zm.7 1.4l-28.9 12.4c0-.1-.1-.1-.1-.2-.1-.2-.2-.4-.2-.6l28.8-12.4.3.6c.1.1.1.2.1.2zm.5 1.6l-28.6 12.3c-.2-.2-.3-.5-.4-.7l28.8-12.4c.1.2.1.5.2.8zm.3 1.6l-27.9 12c-.2-.2-.4-.4-.5-.7l28.3-12.1c0 .2 0 .5.1.8zm0 1.8l-26.6 11.4c-.2-.2-.5-.4-.7-.6l27.4-11.7c-.1.2-.1.5-.1.9zm-.3 1.8l-24.9 10.7c-.3-.2-.6-.4-.8-.6l25.9-11.1c0 .3-.1.6-.2 1zm-.6 2l-22.4 9.6c-.4-.2-.7-.3-1-.5l23.8-10.2c-.1.4-.2.7-.4 1.1zm-1.1 2.2l-18.9 8.1c-.4-.1-.9-.2-1.3-.4l20.9-9c-.2.5-.4.9-.7 1.3zm-1.9 2.6l-13.9 5.9c-.6 0-1.2 0-1.8-.1l16.9-7.2c-.3.4-.8.9-1.2 1.4zm-11.7 5.8l10.3-4.4c-1.4 1.2-3 2.2-4.8 3-1.9.8-3.7 1.2-5.5 1.4z" class="st13"/>
        <path d="M1236.7 113.4c1.4 3.3 1.1 7.1-.6 10.4-1.7 3.3-4.7 6.2-8.8 7.9-4 1.7-8.2 1.9-11.8.9-3.6-1.1-6.5-3.4-7.9-6.7-1.4-3.3-1.1-7.1.6-10.4 1.7-3.3 4.8-6.2 8.8-8 4-1.7 8.2-1.9 11.8-.9 3.6 1.1 6.5 3.4 7.9 6.8zm-.8 10.3c1.7-3.3 2-6.9.6-10.2-1.4-3.3-4.3-5.5-7.8-6.6-3.5-1.1-7.7-.8-11.6.9-4 1.7-7 4.6-8.6 7.8-1.7 3.3-2 6.9-.6 10.2 1.4 3.3 4.3 5.6 7.8 6.6s7.7.8 11.6-.9c3.9-1.7 7-4.6 8.6-7.8z" class="st55"/>
        <path d="M1183.37485 134.74375l4.9599-2.13462 1.54167 3.58215-4.9599 2.13462z" class="st56"/>
        <path d="M1189.1 134.2l.3.6c.1.3 0 .7-.3.8l-3.9 1.6c-.3.1-.7 0-.8-.3l-.3-.6c-.1-.3 0-.7.3-.8l3.9-1.7c.3-.1.7.1.8.4z" class="st44"/>
        <path d="M1183.3 135.7c.1.2 0 .4-.1.4l-7.4 3.2c-.2.1-.4 0-.4-.2s0-.3.2-.4l7.4-3.2c.1 0 .3.1.3.2zm-9.7 4.2c.1.2 0 .3-.2.4l-2.6 1.1c-.2.1-.3 0-.4-.2-.1-.1 0-.3.1-.4l2.6-1.1c.2 0 .4.1.5.2z" class="st52"/>
      </g>
      <g id="Ball_8_">
        <circle cx="1126.6" cy="95.1" r="11.5" class="st57"/>
        <path d="M1128 99.8c-4-3.4-11-2.6-12.6-2.4.1.3.1.6.2.8 1.6-.2 8.2-.9 11.9 2.2 1.6 1.3 2.4 3.3 2.4 5.7.3-.1.6-.2.8-.3-.1-2.5-1-4.5-2.7-6zm9.4-8.9c-.1-.3-.2-.5-.3-.8-1.2.3-2.4.4-3.5.1-3.5-.9-6.1-4.3-7.6-6.7-.3 0-.6.1-.9.1 1.4 2.4 4.4 6.4 8.3 7.4 1.3.4 2.6.3 4-.1z" class="st58"/>
        <path d="M1134.6 86.8c1.1 4.2 2.8 16.2-13 18.7 1.5.7 3.2 1.1 5 1.1 6.4 0 11.5-5.2 11.5-11.5.1-3.3-1.3-6.2-3.5-8.3z" class="st59"/>
        <circle cx="1154.3" cy="87.4" r="8.5" class="st57"/>
        <path d="M1155.3 90.9c-3-2.6-8.2-1.9-9.3-1.8 0 .2.1.4.2.6 1.2-.2 6.1-.7 8.8 1.6 1.2 1 1.8 2.4 1.8 4.2.2-.1.4-.1.6-.2-.2-1.8-.8-3.3-2.1-4.4zm7-6.6c-.1-.2-.2-.4-.2-.6-.9.3-1.8.3-2.6.1-2.6-.6-4.6-3.2-5.6-4.9-.2 0-.5 0-.7.1 1.1 1.8 3.2 4.7 6.2 5.5.9.2 1.9.2 2.9-.2z" class="st58"/>
        <path d="M1160.3 81.3c.8 3.1 2.1 12-9.6 13.9 1.1.5 2.4.8 3.7.8 4.7 0 8.5-3.8 8.5-8.5 0-2.5-1-4.7-2.6-6.2z" class="st59"/>
        <circle cx="1145.8" cy="108.2" r="8.5" class="st57"/>
        <path d="M1146.8 111.7c-3-2.6-8.2-1.9-9.3-1.8 0 .2.1.4.2.6 1.2-.2 6.1-.7 8.8 1.6 1.2 1 1.8 2.4 1.8 4.2.2-.1.4-.1.6-.2-.2-1.8-.9-3.3-2.1-4.4zm7-6.6c-.1-.2-.2-.4-.2-.6-.9.3-1.8.3-2.6.1-2.6-.6-4.6-3.2-5.6-4.9-.2 0-.5 0-.7.1 1.1 1.8 3.2 4.7 6.2 5.5.8.2 1.9.1 2.9-.2z" class="st58"/>
        <path d="M1151.7 102c.8 3.1 2.1 12-9.6 13.9 1.1.5 2.4.8 3.7.8 4.7 0 8.5-3.8 8.5-8.5 0-2.4-1-4.6-2.6-6.2z" class="st59"/>
      </g>
    </g>
  </g>
  <g id="Background_10_">
    <circle id="Background_2_10_" cx="120.8" cy="99.8" r="65.8" class="st60"/>
  </g>
  <g id="ART">
    <g id="Background_8_">
      <circle id="Background_2_8_" cx="1173" cy="425.6" r="70.4" class="st60"/>
    </g>
  </g>
  <g id="Race_Time">
    <g id="Background_15_">
      <circle id="Background_2_15_" cx="954" cy="573.4" r="63.5" class="st61"/>
    </g>
  </g>
  <circle cx="361.8" cy="295.1" r="63" class="st62"/>
  <path d="M330.4 334.5c-2.7 0-4.8-1.9-4.8-4.3v-9.3c0-2.4 2.2-4.3 4.8-4.3h68.1c2.7 0 4.8 1.9 4.8 4.3v9.3c0 2.4-2.2 4.3-4.8 4.3h-68.1z" class="st63"/>
  <path d="M403.4 320.9c0-2.4-2.2-4.3-4.8-4.3h-68.1c-2.7 0-4.8 1.9-4.8 4.3v4.7h77.8v-4.7z" class="st64"/>
  <path d="M345.3713 316.7023v17.9h-10.8v-17.9z" class="st65"/>
  <path d="M345.3905 316.6214v8.9h-10.8v-8.9z" class="st66"/>
  <path d="M390.2486 316.6249v17.9h-4.6v-17.9z" class="st65"/>
  <path d="M390.2678 316.644v8.9h-4.6v-8.9z" class="st66"/>
  <path d="M329.8 302h68.6v14.7h-68.6z" class="st67"/>
  <path d="M329.8 302h68.6v7.3h-68.6z" class="st68"/>
  <path d="M390.7 302h3.1v14.7h-3.1z" class="st65"/>
  <path d="M390.7 302h3.1v7.3h-3.1z" class="st66"/>
  <path d="M384.3 302h3.1v14.7h-3.1z" class="st65"/>
  <path d="M384.3 302h3.1v7.3h-3.1z" class="st66"/>
  <path d="M335.7 302h3.1v14.7h-3.1z" class="st65"/>
  <path d="M335.7 302h3.1v7.3h-3.1z" class="st66"/>
  <path d="M425.7 343.2l-63.5 1.3-63.2-1.2 1.5-1.4 50.2-1.8 11.8 1.8 13.1-2.2 50.1 2.3z" class="st69"/>
  <path d="M375.1 332.3s-3.9 5.2-6 6.1c0 0-.5 1.2 2 2.3 0 0 3.9 2.2 8.8 0 0 0 1.7-.2 2.6-2.3 0 0-1.7-.7-2.8-1.6 0 0-2.9-2.7-4.1-4.3 0 .1-.2-.5-.5-.2z" class="st69"/>
  <path d="M299 343.3l55.7-2.6s1.7 3.4 8 3.4c0 0 6.2.3 7.3-3.4l55.8 2.5s1.3.2.5-2.1l-57.2-2.6s-1.6 3.1-6.3 3c0 0-4.8.4-6.5-3l-57.2 2.8c-.1-.1-1.1.6-.1 2z" class="st70"/>
  <path d="M304.3 332.8l2.9-2.1s22.2-1.1 36.3.6l8.9.7s-8.4.2-8.8.2c0 0-5.3.2-10.3.9-.4 0-7.1.2-7.5.2-2.8.1-14.8 0-21.5-.5z" class="st71"/>
  <path d="M304.5 330.8s37.7-2 57.7 3.4v-.3s-6.1-2.1-10.7-4.2c-.3-.1-.6-.3-.9-.4-2.2-1.1-18.4-4.2-38.6-4.1l-7.5 5.6z" class="st72"/>
  <path d="M304.9 326s44.9.3 57.2 8.6v-1s-5.5-3.1-10.1-5.3c-.3-.1-3.2-1.1-3.5-1.2-2.2-1.1-16-6.9-36.2-6.8l-7.4 5.7z" class="st73"/>
  <path d="M420.1 332.8l-2.9-2.1s-22.2-1.1-36.3.6l-8.9.7s8.4.2 8.8.2c0 0 5.3.2 10.3.9.4 0 7.1.2 7.5.2 2.8.1 14.8 0 21.5-.5z" class="st71"/>
  <path d="M420 330.8s-37.8-2-57.7 3.4v-.3s6.1-2.1 10.7-4.2c.3-.1.6-.3.9-.4 2.2-1.1 18.4-4.2 38.6-4.1l7.5 5.6z" class="st72"/>
  <path d="M419.6 326s-44.9.3-57.2 8.6v-1s5.5-3.1 10.1-5.3c.3-.1 3.2-1.1 3.5-1.2 2.2-1.1 16-6.9 36.2-6.8l7.4 5.7z" class="st73"/>
  <path d="M404.3 313.7c-20.2-.1-30.7 4.6-33 5.8-.3.2-.6.3-.9.4-4.7 2.1-8.2 9.6-8.2 9.6s-3.5-7.5-8.2-9.6c-.3-.1-.6-.3-.9-.4-2.2-1.1-12.8-5.8-33-5.8l-13 7.3s31.5-2.1 55.1 13.5c23.6-15.6 55.1-13.5 55.1-13.5l-13-7.3z" class="st74"/>
  <path d="M420.1 332.8s-18.7.6-20.8.4c0 0-15-1-18.5-1.4 0 0-15-1.3-17.8 2l-.9.1-.9-.1c-2.8-3.4-17.8-2-17.8-2-3.4.4-18.5 1.4-18.5 1.4-2.1.2-20.8-.4-20.8-.4-2.2 2.4-4.7 10.8-4.7 10.8l56.8-2.6c.9-.3 3.5-3.4 3.7-3.7s1.9-2.5 1.9-2.5l.2-.2.2.2s1.8 2.2 2 2.4c.2.3 3.5 3.5 4.4 3.8l56 2.3c.2.1-2.2-8.1-4.5-10.5z" class="st75"/>
  <path d="M333.5 291.2h59.6V302h-59.6z" class="st76"/>
  <path d="M333.5 291.2h59.6v5.4h-59.6z" class="st77"/>
  <path d="M341.9 291.2h9.3V302h-9.3z" class="st65"/>
  <path d="M341.9 291.2h9.3v5.4h-9.3z" class="st66"/>
  <path d="M383.1 272.5h-46.9v17.1h46.9c5.7 0 10.4-3.8 10.4-8.5s-4.7-8.6-10.4-8.6z" class="st75"/>
  <path d="M394.2 277.1c-.6-1.2-1.4-2.3-2.5-3.2-2.2-1.9-5.1-2.9-8.2-2.9h-48.8v2.1H383c2.6 0 5.1.8 7 2.4 1.8 1.5 2.8 3.5 2.8 5.6 0 2.1-1 4.1-2.8 5.6-1.9 1.5-4.3 2.4-7 2.4h-48.3v2.1h48.8c3.1 0 6-1 8.2-2.9 1.1-.9 1.9-2 2.5-3.2.6-1.3.9-2.6.9-4 .1-1.4-.2-2.7-.9-4z" class="st78"/>
  <path d="M374.7 287.8l-3.3-2.8-3.2 2.8v-5.7h6.5z" class="st79"/>
  <path d="M338.3 260.1h45.9V271h-45.9z" class="st80"/>
  <path d="M338.3 260.1h45.9v5.5h-45.9z" class="st81"/>
  <path d="M341.9 260.1h2.5V271h-2.5zm4.8 0h2.5V271h-2.5zm31.4 0h2.5V271h-2.5z" class="st65"/>
  <path d="M341.9 260.1h2.5v5.5h-2.5zm4.8 0h2.5v5.5h-2.5zm31.4 0h2.5v5.5h-2.5z" class="st66"/>
  <path d="M332.1 250.8H383v9.3h-50.9z" class="st82"/>
  <path d="M332.1 255.4H383v4.7h-50.9z" class="st83"/>
  <circle cx="377.9" cy="255.4" r="3" class="st65"/>
  <path d="M377.9 252.4c-1.7 0-3 1.3-3 3h6c0-1.7-1.4-3-3-3z" class="st66"/>
  <path d="M348.3 250.8h13.6v9.3h-13.6z" class="st65"/>
  <path d="M348.3 250.8h13.6v4.7h-13.6z" class="st66"/>
  <path d="M325.8 283.9v-.5c-.2-1-1.1-1.8-2.1-1.8h-.4l-.8-2.2h-3.6s-.7.9-2.5 1.2c-.3.1-.7.1-1.1.1H310l-.3.9h-.5c-1 0-1.9.7-2.1 1.8l-.1.5h.9l1 5.6 1 5.5 1.2 6.7h10.6l1.8-9.9.4-2.4 1-5.6h.9z" class="st21"/>
  <path d="M314.3 280.1H309l-.9 2.3h7.4V280c-.3 0-.7.1-1.2.1z" class="st84"/>
  <path d="M321.6 278.7H318s-.7.9-2.5 1.2v2.4h7.4l-1.3-3.6z" class="st85"/>
  <path d="M315.5 283.1V301h5.4l3.2-17.9z" class="st86"/>
  <path d="M315.5 283.1h-8.6l3.2 17.9h5.4v-17.9z" class="st87"/>
  <path d="M307.9 288.8l1.1 6.3h12.9l1.2-6.3z" class="st12"/>
  <path d="M314.8 290.5c0-.3.1-.5.2-.7-1 .2-1.7 1.1-1.7 2.3 0 1.1.7 2.1 1.6 2.3.3-.2.5-.5.6-.9.1-.5-.1-1-.3-1.4-.2-.5-.4-1.1-.4-1.6zm1-.7c-.5.2-.5.7-.4 1.2.1.5.5 1 .6 1.6.2.7.1 1.4-.3 1.9 1-.2 1.7-1.1 1.7-2.3 0-1.3-.7-2.2-1.6-2.4zm-7.7-8.9c-1 0-1.9.7-2.1 1.8l-.1.5h9.6V281h-7.4z" class="st88"/>
  <path d="M325 282.7c-.2-1-1.1-1.8-2.1-1.8h-7.4v2.2h9.6l-.1-.4z" class="st89"/>
  <path d="M314.3 280.1H309l-.9 2.3h7.4V280c-.4 0-.8.1-1.2.1z" class="st84"/>
  <path d="M321.6 278.7H318s-.7.9-2.5 1.2v2.4h7.4l-1.3-3.6z" class="st85"/>
  <path d="M315.5 283.1V301h5.3l3.3-17.9z" class="st86"/>
  <path d="M315.4 283.1h-8.6l3.3 17.9h5.4v-17.9z" class="st87"/>
  <path d="M307.9 288.8l1.1 6.3h12.9l1.2-6.3z" class="st12"/>
  <path d="M314.8 290.5c0-.3.1-.5.2-.7-1 .2-1.7 1.1-1.7 2.3 0 1.1.7 2.1 1.6 2.3.3-.2.5-.5.6-.9.1-.5-.1-1-.3-1.4-.2-.5-.5-1.1-.4-1.6z" class="st88"/>
  <path d="M315.7 289.8c-.5.2-.5.7-.4 1.2.1.5.5 1 .6 1.6.2.7.1 1.4-.3 1.9 1-.2 1.7-1.1 1.7-2.3 0-1.3-.6-2.2-1.6-2.4zm-7.7-8.9c-1 0-1.9.7-2.1 1.8l-.1.5h9.6V281H308z" class="st88"/>
  <path d="M325 282.7c-.2-1-1.1-1.8-2.1-1.8h-7.4v2.2h9.6l-.1-.4z" class="st89"/>
  <path d="M314.3 280.1h-5.4l-.9 2.3h7.4V280c-.3 0-.7.1-1.1.1z" class="st84"/>
  <path d="M321.5 278.7h-3.6s-.7.9-2.5 1.2v2.4h7.4l-1.3-3.6z" class="st85"/>
  <path d="M315.4 283.1V301h5.4l3.2-17.9z" class="st86"/>
  <path d="M315.4 283.1h-8.6l3.3 17.9h5.3v-17.9z" class="st87"/>
  <path d="M307.8 288.8l1.2 6.3h12.9l1.1-6.3z" class="st12"/>
  <path d="M314.7 290.5c0-.3.1-.5.2-.7-1 .2-1.7 1.1-1.7 2.3 0 1.1.7 2.1 1.6 2.3.3-.2.5-.5.6-.9.1-.5-.1-1-.3-1.4-.1-.5-.4-1.1-.4-1.6zm1-.7c-.5.2-.5.7-.4 1.2.1.5.5 1 .6 1.6.2.7.1 1.4-.3 1.9 1-.2 1.7-1.1 1.7-2.3 0-1.3-.7-2.2-1.6-2.4zm-7.7-8.9c-1 0-1.9.7-2.1 1.8l-.1.5h9.6V281H308z" class="st88"/>
  <path d="M324.9 282.7c-.2-1-1.1-1.8-2.1-1.8h-7.4v2.2h9.6l-.1-.4z" class="st89"/>
  <defs>
    <path id="SVGID_3_" d="M921.8 535.7h72.3v83h-72.3z"/>
  </defs>
  <clipPath id="SVGID_4_">
    <use xlink:href="#SVGID_3_" overflow="visible"/>
  </clipPath>
  <path d="M976.7 561.3l4.4.5 1.3-6.9-4.4-.5-1.3 6.9zm0 0" class="st90"/>
  <path d="M949.1 566.9c2-.5 6.2-2.2 7.7-3.5l.9 1.5c-1.3 1.7-5.5 3.9-7.4 5l-1.2-3zm0 0" class="st91"/>
  <path d="M943.1 565.2c2.2.6 4.9 1.1 7.8 1.4l-.3 3.2c-2.7.2-5.1.1-6.8-.2-4.5-.7-5.5-5.7-.7-4.4zm12.6-2.3c.3-.6.6-.6.9-.3.3-.9 1.2-1.3 1.6-1 .8.4 1.1 1.7.5 2.8-.6 1.1-1.7 1.7-2.6 1.3-.7-.4-1-1.7-.4-2.8zm0 0" class="st91"/>
  <path d="M944.2 567.6l-4.8 1.3-1.8-6.8 4.8-1.3 1.8 6.8zm0 0" class="st92"/>
  <path d="M943.4 581.1l-4-8.5-.8-6.5c1.6-.1 3.3-.6 4.8-1.3 1.3.3 3.1 2.9 3.5 5.5l1.4 9.5-4.9 1.3zm0 0" class="st91"/>
  <path d="M947 579.2c10.7 0 19.5 13.2 20.2 29.8-5.5 4.4-12.6 7-20.2 7s-12.6-3.5-18.2-7.9c.7-16.7 7.5-28.9 18.2-28.9zm0 0" class="st93"/>
  <path d="M939.4 572.6c.6-.1 4-5.1 6.8-4.8.4.8.7 1.6.8 2.5l1.4 9.4v.1l-5 1.3-4-8.5zm0 0" class="st94"/>
  <path d="M943.7 568.4c4 3.4 10.6 7.5 16.9 9.3l-.5 1.7c-6.1-.9-14.3-4.1-17.6-6.4-4.1-2.7-2.8-8 1.2-4.6zm0 0" class="st91"/>
  <path d="M948.6 618.2c2 0 3.6-.8 3.6-1.8s-1.6-1.8-3.6-1.8-3.6.8-3.6 1.8 1.6 1.8 3.6 1.8zm0 0" class="st94"/>
  <path d="M971.2 615.9l-1.1-23.6V585h6.3c-.5 10.3-.9 20.7-1.4 31h-3.8zm-1.1-31v1.8-1.8zm0 0" class="st95"/>
  <path d="M971.1 618.2c2.2 0 3.9-.9 3.9-2s-1.8-2-3.9-2c-2.2 0-3.9.9-3.9 2-.1 1.1 1.7 2 3.9 2zm-1.3-52.8c-2.4-.2-7.2-1.8-9.2-3l-.7 1.9c1.8 1.7 6.8 4 9.1 4.8l.8-3.7zm0 0" class="st56"/>
  <path d="M976.7 562.8c-2.5 1-5.6 1.9-8.9 2.6l.8 3.6c3.1-.2 5.9-.6 7.8-1.1 5.2-1.3 5.7-7.3.3-5.1zm0 0" class="st56"/>
  <path d="M960.7 561.7c-.6-.4-1-.3-1.1.2-.8-.8-1.9-.7-2.2-.3-.7.9-.3 2.3.9 3.2 1.2.9 2.7 1 3.3.1.7-.9.3-2.3-.9-3.2zm1.6 15.6c.6.3.6.7.3 1 .9.3 1.3 1.3 1.1 1.8-.5.9-1.8 1.1-3 .4-1.2-.6-1.8-1.9-1.3-2.7.3-1 1.7-1.2 2.9-.5zm0 0" class="st91"/>
  <path d="M977 558.9l4.5.6-.3 2.4-5 1.2.8-4.2zm0 0" class="st94"/>
  <path d="M969.1 584l10.5 1.5-.2 2.1-10.7-1.5.4-2.1zm0 0" class="st56"/>
  <path d="M979.6 587l1.9-26.5-3.5.3-6.9 12.3-2.1 12.3 10.6 1.6zm0 0" class="st95"/>
  <path d="M977.4 559.5c-1.7 8.1-2.1 12.1-6.2 14.5l.5-3.5 4.5-8.4.8-3.1.4.5zm0 0" class="st94"/>
  <path d="M977.4 558.5l-.7 5.3-.4.8-3.5 7.4-2.4 3.9 1.3-5.7 4.6-8.2.6-2.7c.1-.4.1-2 .1-2l.4 1.2zm0 0" class="st95"/>
  <path d="M976.5 563.6c-3.1 4.9-8.7 11.3-14.7 15.1l1.1 1.6c6.1-2.9 13.6-8.9 16.4-12.4 3.3-4.1.3-9.3-2.8-4.3zm0 0" class="st56"/>
  <path d="M961.5 577.3c-.6.4-.6.8-.1 1.1-.9.5-1.2 1.6-.9 2.1.6.9 2.1.9 3.3.1 1.2-.9 1.7-2.3 1.1-3.2-.7-1-2.2-1-3.4-.1zm0 0" class="st91"/>
  <path d="M983 615.2l-8.8-22-1.8-5.2-.6-1.7 6-2.1c2.9 9.9 5.9 19.8 8.8 29.7-1.2.5-2.4.9-3.6 1.3zm-11.2-28.9l.6 1.7-.6-1.7zm0 0" class="st95"/>
  <path d="M982.3 613.7c2.1-.7 4-.5 4.4.6.4 1-1 2.4-3.1 3.2-2.1.7-4 .5-4.4-.6-.3-1.1 1.1-2.5 3.1-3.2zm0 0" class="st56"/>
  <defs>
    <path id="SVGID_5_" d="M921.8 535.7h72.3v83h-72.3z"/>
  </defs>
  <clipPath id="SVGID_6_">
    <use xlink:href="#SVGID_5_" overflow="visible"/>
  </clipPath>
  <path d="M937.5 612.9c1.9.7 3.1 2 2.7 2.9-.3.9-2.1 1.1-4 .4-1.9-.7-3.1-2-2.7-2.9.3-.9 2.1-1.1 4-.4zm0 0" class="st96"/>
  <path d="M993.3 549.8c.8.4 1 1.7.4 2.9-.6 1.3-1.7 2-2.5 1.6-.8-.4-1-1.7-.4-2.9s1.7-1.9 2.5-1.6zm0 0" class="st97"/>
  <path d="M969.6 544.2c.9 0 1.6 1.1 1.7 2.4.1 1.4-.6 2.5-1.5 2.5s-1.6-1.1-1.7-2.4c0-1.3.7-2.5 1.5-2.5zm0 0" class="st91"/>
  <path d="M982.3 541.6c6.3 1.2 10.6 6.1 9.7 11-.9 4.8-6.8 7.8-13.1 6.6-6.3-1.2-10.6-6.1-9.7-11 1-4.8 6.8-7.8 13.1-6.6zm0 0" class="st91"/>
  <path d="M977.5 547.8c.3.1.5.6.4 1.2-.1.6-.5 1.1-.8 1-.3-.1-.5-.6-.4-1.2.1-.6.5-1.1.8-1zm6.9 1.3c.3.1.5.6.4 1.2-.1.6-.5 1-.8 1-.3-.1-.5-.6-.4-1.2.1-.6.5-1 .8-1zm0 0" class="st95"/>
  <path d="M990.8 543.9c-5.6-1.3-16.4 5.9-21.7 2.4 2.4-6.7 10.3-9.2 16.2-7 2.2.8 4.1 1.9 5.5 4.6zm0 0" class="st98"/>
  <path d="M987 540.8c-2.1 4.6 1.6 10.8 5.2 11.4 1.4-3.9-1.1-9.9-5.2-11.4zm0 0" class="st98"/>
  <path d="M983.7 554.4c-1.7 0-5.7-.8-7.5-1.5 1.5 2.7 5.5 3.6 7.5 1.5zm0 0" class="st92"/>
  <path d="M990.8 544.2c-7.6-3.3-20.2 4.7-21.6-5 3.6 2.2 4.4.9 8.5-.4 4.2-1.4 9.9-.7 13.1 5.4zm0 0" class="st98"/>
  <path d="M991.4 546.3c-6.4-5.2-20.7-.8-19.5-10.5 2.9 3.1 4 2 8.3 1.9 4.4-.2 9.7 1.9 11.2 8.6zm-56.4-2.7c3.5-1 7.2 1.1 8.2 4.6 1 3.5-1.1 7.1-4.7 8.1-3.5 1-7.2-1.1-8.2-4.6-.9-3.5 1.2-7.2 4.7-8.1zm0 0" class="st98"/>
  <path d="M935.8 546.4c4-1.1 7.9.2 8.6 3 .8 2.7-1.9 5.8-5.9 6.9-4 1.1-7.9-.2-8.6-3-.7-2.7 1.9-5.8 5.9-6.9zm0 0" class="st94"/>
  <path d="M936 547.3c4.5-1.2 8.6-.2 9.3 2.3.7 2.5-2.4 5.5-6.8 6.7-4.5 1.2-8.6.2-9.3-2.3-.7-2.5 2.4-5.5 6.8-6.7zm0 0" class="st98"/>
  <path d="M936.4 548.6c5-1.4 10.1 1.1 11.3 5.6 1.2 4.5-1.9 9.2-6.9 10.6-5 1.4-10.1-1.1-11.3-5.6-1.3-4.5 1.8-9.2 6.9-10.6zm0 0" class="st91"/>
  <path d="M941.4 554.6c.3-.1.7.3.9.9.2.6 0 1.1-.3 1.2-.3.1-.7-.3-.9-.9-.1-.6 0-1.2.3-1.2zm-6.4 1.7c.3-.1.7.3.9.9.2.6 0 1.1-.3 1.2-.3.1-.7-.3-.9-.9-.1-.6 0-1.1.3-1.2zm0 0" class="st95"/>
  <path d="M943.1 558.7c-1.5.7-5.4 1.8-7.3 2 2.5 1.8 6.4.8 7.3-2zm0 0" class="st92"/>
  <path d="M928.1 557.1c.8-.4 1.9.2 2.6 1.4.6 1.2.6 2.5-.2 2.9-.8.4-1.9-.2-2.6-1.4-.6-1.2-.5-2.5.2-2.9zm19.6-5.3c.9 0 1.6 1 1.7 2.4.1 1.4-.6 2.5-1.5 2.5s-1.6-1-1.7-2.4c0-1.3.6-2.5 1.5-2.5zm0 0" class="st91"/>
  <path d="M938.3 547.7c5.1 1.4 8.6 7.6 11.1 6.1-1.8-5.3-7.6-7.9-11.1-6.1zm0 0" class="st98"/>
  <path d="M943.3 547.6c-7.4 1.6-9.2 12.7-15.7 11.9-1.6-8.2 6.5-14.2 15.7-11.9zm0 0" class="st98"/>
  <defs>
    <path id="SVGID_7_" d="M913 544.7h10.9V557H913z"/>
  </defs>
  <clipPath id="SVGID_8_">
    <use xlink:href="#SVGID_7_" overflow="visible"/>
  </clipPath>
  <path d="M923.9 544.7s-.1-.1-.2-.1l-6.8.9c-.1 0-.2.1-.2.2v8c-.4-.4-1-.7-1.6-.7-1.2 0-2.1.8-2.1 1.9 0 1 .9 1.9 2.1 1.9 1.2 0 2.1-.8 2.1-1.9v-6.7l6.4-.8v4.2c-.4-.4-1-.7-1.6-.7-1.2 0-2.1.8-2.1 1.9 0 1 .9 1.9 2.1 1.9 1.2 0 2.1-.8 2.1-1.9V545c-.1-.2-.1-.2-.2-.3zm0 0" class="st99"/>
  <defs>
    <path id="SVGID_9_" d="M925.3 523.1h10.9v12.3h-10.9z"/>
  </defs>
  <clipPath id="SVGID_10_">
    <use xlink:href="#SVGID_9_" overflow="visible"/>
  </clipPath>
  <path d="M936.2 523.2s-.1-.1-.2-.1l-6.8.9c-.1 0-.2.1-.2.2v8c-.4-.4-1-.7-1.6-.7-1.2 0-2.1.8-2.1 1.9 0 1 .9 1.9 2.1 1.9 1.2 0 2.1-.8 2.1-1.9v-6.7l6.4-.8v4.2c-.4-.4-1-.7-1.6-.7-1.2 0-2.1.8-2.1 1.9 0 1 .9 1.9 2.1 1.9 1.2 0 2.1-.8 2.1-1.9v-7.8c-.1-.2-.2-.3-.2-.3zm0 0" class="st100"/>
  <path d="M1195.1 444.8l-12.9-30.9-3.6 1.6 12.2 29.3zm-30.5 0l12.1-29.3-3.5-1.6-12.9 30.9z" class="st101"/>
  <path d="M1168.4 428h18.5v2.4h-18.5z" class="st101"/>
  <path d="M1145.6 419.8h68.5v3.3h-68.5z" class="st102"/>
  <path d="M1150.1 380.8h59.2v40.1h-59.2z" class="st12"/>
  <path d="M1150.1 410.1h59.2V421h-59.2z" class="st103"/>
  <path d="M1175.2 408.9l-5.2 5.2h10.4zm23.5-2.8l-8 8h16z" class="st102"/>
  <path d="M1166.2 401.8l-12.3 12.3h24.6z" class="st101"/>
  <circle cx="1202.3" cy="388.5" r="3.6" class="st104"/>
  <path d="M1181.3 390.2h-.2c0-1-.8-1.8-1.8-1.8-.8 0-1.5.6-1.7 1.4h-.3c-.7 0-1.3.6-1.3 1.3 0 .7.6 1.3 1.3 1.3h4.1c.6 0 1.1-.5 1.1-1.1-.1-.6-.6-1.1-1.2-1.1zm-18.6 5.4c0-1.8 1.4-3.2 3.1-3.2 1.4 0 2.6.9 2.9 2.2.2-.1.5-.2.8-.2 1 0 1.8.8 1.8 1.8 0 .2 0 .4-.1.6h.1c.6 0 1.1.5 1.1 1.1 0 .6-.5 1.1-1.1 1.1h-8.5c-1 0-1.8-.8-1.8-1.8-.1-.8.7-1.6 1.7-1.6z" class="st105"/>
  <path d="M1145.2 428.5c4.7 4.7 4.7 12.3 0 17-5.3 5.3-5.5-2.1-10.2-6.8-4.7-4.7-12.2-4.8-6.8-10.2 4.7-4.7 12.3-4.7 17 0z" class="st106"/>
  <path d="M1145.5 429c4.7 4.7 4.7 12.3 0 17-5.3 5.3-5.5-2.1-10.2-6.8-4.7-4.7-12.2-4.8-6.8-10.2 4.7-4.7 12.3-4.7 17 0z" class="st107"/>
  <circle cx="1137.7" cy="428.1" r="1.9" class="st108"/>
  <circle cx="1131.9" cy="429.1" r="1.9" class="st12"/>
  <circle cx="1142.8" cy="430.9" r="1.9" class="st109"/>
  <circle cx="1145.2" cy="436.3" r="1.9" class="st110"/>
  <circle cx="1145.2" cy="441.9" r="1.9" class="st111"/>
  <circle cx="1142.5" cy="446.1" r="1.9" class="st112"/>
  <path d="M1132.2 431.9l-5.5 16.2c-.1.2 0 .4.2.5s.4 0 .5-.2l6.4-15.8-1.6-.7z" class="st108"/>
  <path d="M1132.33856 431.13127l.52155-1.4064 1.59392.59109-.52155 1.4064z" class="st113"/>
  <path d="M1133.7 431.6c-.1-.1-.2-.3-.4-.3-.1 0-.2.1-.2.1-.2 0-.3-.1-.4-.2v-.2c-.4.3-.7.6-.8.9-.1.2-.1.4 0 .5l1.5.6c.1-.1.3-.3.3-.4 0-.3.1-.6 0-1 .1.1.1 0 0 0z" class="st111"/>
  <path d="M1133.3 429.9c0 .2.2.3.4.2.1 0 .2-.1.2-.1.2 0 .3.1.4.3 0 0 .1 0 .1.1.1-.9.1-2.3-.1-2-.4.6-.7.9-1 1.2-.1.2-.1.3 0 .3z" class="st109"/>
  <path d="M662.7 34.5c33.1 0 59.9 26.8 59.9 59.9 0 33.1-26.8 59.9-59.9 59.9-33.1 0-59.9-26.8-59.9-59.9 0-33 26.8-59.9 59.9-59.9z" class="st114"/>
  <path d="M641.7 53.5c1 0 2 .2 2.9.7.9-.9 2.2-1.5 3.6-1.5 2.4 0 4.5 1.7 5.1 4 1.2.4 2.2 1.3 2.7 2.5h.4c2.3 0 4.1 1.8 4.1 4.1s-1.8 4.1-4.1 4.1c-.7 0-1.4-.2-1.9-.5-.5 1.7-2.1 2.9-3.9 2.9-1.1 0-2.2-.5-2.9-1.2-.7.8-1.8 1.2-2.9 1.2-1.1 0-2.1-.4-2.8-1.1-.7.8-1.8 1.3-3 1.3-1.1 0-2.1-.4-2.9-1.2-.3.1-.7.1-1.1.1-2.7 0-4.9-2.2-4.9-4.9s2.2-4.9 4.9-4.9h.4c.3-3.1 3-5.6 6.3-5.6z" class="st12"/>
  <path d="M671.4 68.4c6.5 0 11.8 5.3 11.8 11.8 0 6.5-5.3 11.8-11.8 11.8-6.5 0-11.8-5.3-11.8-11.8-.1-6.5 5.2-11.8 11.8-11.8z" class="st115"/>
  <path d="M602.8 95.6c6-4.6 36.7-27.8 40.3-29.2 3.9-1.5 21.4 19.6 26.6 20.7 5.2 1.2 23.6-16 23.6-16s6.4 4.5 18.4 14.1c3.6 2.9 7.3 3.8 10.8 3.8.2 1.8.3 3.6.3 5.5v1.6l-119.5 4.7c-.4-1.7-.5-3.5-.5-5.2z" class="st116"/>
  <path d="M693.2 71.1s6.4 4.5 18.4 14.1c3.6 2.9 7.3 3.8 10.8 3.8.2 1.8.3 3.6.3 5.5v1.6l-37.4 1.5c-.2-.9-.1-1.7.5-2.1 2-1 7.4-.5 5.2-8.1-2.3-7.5 2.2-16.3 2.2-16.3zm-50.1-4.7c3.6-1.3 18.1 15.6 24.7 19.8l9 11.6-39.7 1.7c-1.7-3.3-1.7-6.6 2.6-8.7 11.4-5.7 3.4-24.4 3.4-24.4z" class="st117"/>
  <path d="M656 119.5c-.2-1.5.5-3.7 1.8-6.1l.1-.1-.7-1.5h.8l-.2-1.3 2.5.5-.2-1.3-1.3.8-.4.3h-.1l-.1.1-.4.3h-.2l.7 1.5-.4.6-.8-1.7.9.3-.2-1.6 2.6 1.9-.2-1.6-1 .2-.7.1h-.3l-.4.1h-.2l.7 1.5-.9-.7.5-.2.3-1 .1-.4.2-1.2 2.3.6.1-.9-.6-1.3 2.8-.4-.4-.8-.7-1.6 2.5.8V104l2.7 1v-2.1l.4-.1-.4-1.7 1.8.7-.5-1.4 1.3.2.1-1.6 2.9 1.6v-.2l-.3-1.6 2.9 1.2-.3-1.6 1.4-.6h.3l.7.9 1-1h.6l.2.1.6-1.5.6-.6.1-.1.3-.6 2.1 3.1.7-1.7.9-.2.5-.3 1.1-.9v.1l2 1.6.5-1.6 2.5 2.4.5-1.6.3-.1h.5l1-1.3 1.2 3 1-1.3 3.1.2h.1l.5.2.1.3 1.1-.8.5.1h.1l.2.3.7-1.8h1l.6-.1.2-1.3 2.6.7.2-1.3.1-.1.3-.2.2-.1.2-.2v.1h1.6l-1 .9.3 1.3 1.6-.5.7-.2 2.4-.3.9-.4.3-.2 1.4-1.2.2 1.9v.1l1.1.1.6-1.2 1.6 2.3.6-1.2.6-.3.2-.1.4-.2.7-.3-.3 3.4 1-.4c-.2 10-2.8 19.4-7.3 27.6-13.6-3.7-35.4-9.2-59.1-3.8z" class="st118"/>
  <path d="M605.3 111.9c3.6-.2 7.1 0 10.4.5 21 3.2 34.6 1.6 50.7-1s26.7 1.5 40.1 7.7c4.3 2 7.2 2.3 9.8 2.2-9.8 19.7-30.2 33.2-53.6 33.2-27-.1-49.9-18-57.4-42.6z" class="st119"/>
  <path d="M604.3 80.9l1.1 3.3.2-.2.7-.9.9-1.5.5 3.6.9-1.5 1.3-.4.8-.2 1.2 1.5.9-1h.4l.7.1h.3l.2-.2.1.3.1.1 1.4-.5-.2.9 1.7-.6-1.7 3.2.8-.3 1.7-1.1.5-.5 1.5-.8-.7 3.4.3-.2h.7l.8-1.4.2.3 1-.9.9 2.7.1-.1.1-.8-1.6.1h-1.5l.8-1.4.2.3 1.1-.9.8 2.8.1-.1.4-1.5 2.5 1.9.1-.2.3-1.3.6.4 1.2-.2.1.9 1.4.1-.2.7 1.1-.1-.2.8 1.2.5 1.1.4.9-.9.8 3.4 1.2-1.2.8-.1h.3l1.7.2.3-1.1h-.1l-.2.1-1.8 1.2v-.5l1.8 2 .5-1.5.1.2.6.8.4.6.1.2 1-1.1h.7l.4-.5 1.8-1.8c1.5-1.9-.5-.3-2.5 1l-.2.1-.6 1.4.6.4.6.4.5-.5.1-.1.5-.4.2-.2.8 3.1 1-1.2.3.6.5 1.1.1.1.2.7 1.3-1.2.5.8.1.2.1 1.7 1.4-.4.7.2.3.1c2.5 1.9-.6 1.4-.6 1.4s-32.9 2-47.7 1.4c-.3-2.2-.4-4.5-.4-6.8.5-4.5 1-9 2-13.4z" class="st120"/>
  <path d="M616.3 86.4l-.2.4.8-.3.7-.5-1.6 3.1.8-.3 1.7-1.1.5-.5 1-.5-.2.9.3-.2h.2l-.5 2.5.3-.2h.7l.8-1.4.2.3 1-.9.9 2.7.1-.1.1-.8-1.6.1h-1.5l.8-1.4.2.3 1.1-.9.8 2.8.1-.1.4-1.5 2.5 1.9.1-.2.3-1.3.6.4 1.2-.2.1.9 1.4.1-.2.7 1.1-.1-.2.8 1.2.5 1.1.4.9-.9.8 3.4 1.2-1.2.8-.1h.3l1.7.2.2-.7-.1.3-.3-.3-1.5 1v-.5l1.8 2 .5-1.5.1.2.6.8.4.6.1.2 1-1.1h.7l.4-.5 1.1-1.1-.2-.8c-.3.2-.7.5-1.1.7l-.2.2h-.1l-.3.2-.2.1-.6 1.4.6.4.6.4.5-.5.1-.1.5-.4.2-.2.8 3.1 1-1.2.3.6.5 1.1.1.1.2.7 1.3-1.2.5.8.1.2v.7c-7 .4-33.2 1.8-46 1.3-.3-2.2-.4-4.5-.4-6.8 0-3.8.3-7.4 1-11l.5-.5 1.1 3.5.2-.2.7-.9.9-1.5.5 3.6.9-1.5 1.3-.4.8-.2 1.2 1.5.9-1h.4l.7.1h.3l.2-.2.1.3.1.1 1.4-.5-.2.9h1z" class="st121"/>
  <path d="M708.4 96c-.1.3-1.6 11.6-1.6 11.6l3.3.3V96.5l-1.7-.5z" class="st122"/>
  <path d="M705.5 79.8s3.5-.7 3.1.2c-.4.9-4.9 3.2-4.9 3.2s3.6-.5 3 .7c-.5 1.2-5 3.3-5 3.3s5.8-.9 4.2.7c-1.6 1.6-7.3 4.4-7.3 4.4s7.3-1.5 7 .3c-.2 1.8-3.2 2.3-3.8 3.5-1.5.5 5.9-.9 7.9-.3l.9-22-.1-.1c-.7 1.4-1.9 3.8-5 6.1z" class="st123"/>
  <path d="M663.3 113.1c.8 0 2.1 0 3-.2 1-.2 1.6-.8 1.6-1.3s-.7-.9-1.5-1.1c-.7-.3-1.5-.4-2.3-.1-.8.2-1.5.8-1.8 1.4-.3.6-.3 1.1-.2 1.3.2.2.5.1 1.2 0z" class="st124"/>
  <path d="M662.9 111.5c.1-.3.5-.7 1.1-.8.6-.2 1.3-.1 1.8 0s.7.4.8.5c0 .2-.2.3-.6.4-.4.1-1 .1-1.6.1-.5.1-.9.2-1.2.2-.2 0-.4-.2-.3-.4z" class="st125"/>
  <path d="M657.3 113.6c.6 0 1.5 0 2.3-.2.7-.2 1.2-.6 1.2-.9 0-.4-.5-.7-1.1-.9-.6-.2-1.1-.3-1.7-.1-.6.2-1.1.6-1.4 1-.3.4-.2.8-.1 1 0 .2.2.1.8.1z" class="st124"/>
  <path d="M657 112.4c.1-.2.4-.5.8-.6.4-.1 1-.1 1.4 0 .4.1.6.3.6.4 0 .1-.1.3-.5.3-.3.1-.8.1-1.2.1-.4 0-.7.1-.9.1-.2 0-.3-.1-.2-.3zm41.5-6.4c.2-.3.7-.8 1.4-1.1.7-.2 1.7-.2 2.3 0 .6.2.9.4 1 .7 0 .2-.2.4-.8.5-.5.1-1.3.1-2 .2s-1.2.2-1.5.2c-.3 0-.5-.1-.4-.5z" class="st125"/>
  <path d="M664.6 105.4l-2.5-.8.7 1.6.4.8-2.8.4.6 1.3-.1.9-2.3-.6-.2 1.2-.1.3.4.1.2-.2 1.3-.8.2 1.3h-.2l.2 1.1.3.3h.3l.1-.4-.6-1.3 2.8-.4-.4-.8-.7-1.6 2.5.8v-1.4l2.7 1v-2.1l.4-.1-.4-1.7 1.8.7-.5-1.4 1.3.2.1-1.6 2.9 1.6v-.2l-.3-1.6 2.1.9c.2-.2.5-.3.7-.5l-.1-.8 1.4-.6c.2-1.2-4.8-.2-4.8-.2.2-.2.5-.3.7-.5l-2.5-1.4-.1 1.6-1.3-.2.5 1.4-1.8-.7.4 1.7-.4.1v2.1l-2.7-1-.2 1.5zm18.8-7.8c.4.6.9 1.1 1.5 1.7l.3-.2 1.1-.9v.1l2 1.6.5-1.6 2.5 2.4.5-1.6.3-.1h.5l1-1.3 1.2 3 1-1.3 3.1.2h.1l.5.2.1.3 1.1-.8.5.1h.1l.2.3.7-1.8h1l.6-.1.2-.9.1-.4 1.3.3 1.3.3.1-.4.2-.9.1-.1.3-.2.2-.1.2-.2v.1h1.6l-1 .9.1.4.2.9 1.6-.5.7-.2 2.4-.3h.1l.8-.4.3-.2 1.4-1.2.1 1.7v.3l1.1.1.3-.6.3-.7.4.6 1.1 1.6.6-1.2.6-.3.2-.1.3-.1.1-.1.4-.2.3-3.3-.7.3-.4.2-.2.1-.6.3-.6 1.2-1.6-2.3-.6 1.2-1.1-.1v-.1l-.2-1.9-1.4 1.2-.3.2-.9.4-2.4.3-.7.2-1.6.5-.3-1.3 1-.9h-1.6v-.1l-.2.2-.2.1-.3.2-.1.1-.2 1.3-2.6-.7-.2 1.3-.6.1h-1l-.7 1.8-.2-.3h-.1l-.5-.1-1.1.8-.1-.3-.5-.2h-.1l-3.1-.2-.8 1-.2.2-.1-.2-1.2-2.8-1 1.3h-.5l-.3.1-.4 1.4-.1.2-.2-.2-2.3-2.2-.5 1.6-1.9-1.6-.1-.1v-.1l-.5.5-.4.3-.2.1-.5.3-.9.2-.3 1.7z" class="st126"/>
  <path d="M666.8 99.2c3.4 0 6.1.2 6.1.4s-2.7.4-6.1.4-6.1-.2-6.1-.4 2.8-.4 6.1-.4zm-62.2 10.3c.4-.2 5.3-.3 11.3-.3 6.2 0 11.3.1 11.3.3 0 .2-5.1.3-11.3.3-5.9 0-10.7-.2-11.3-.3zm35.7 1.3c8 0 14.5.1 14.5.3 0 .2-6.5.3-14.5.3s-14.5-.1-14.5-.3c-.1-.1 6.5-.3 14.5-.3zm-7.9-4.8c10.6 0 19.1.2 19.1.5s-8.6.5-19.1.5c-10.6 0-19.1-.2-19.1-.5s8.5-.5 19.1-.5zm-15-3.6c7.5 0 13.6.1 13.6.3s-6.1.3-13.6.3-13.6-.1-13.6-.3 6.1-.3 13.6-.3zm35.7-.9c6.3 0 11.4.3 11.4.6s-5.1.6-11.4.6c-6.3 0-11.4-.3-11.4-.6 0-.4 5.1-.6 11.4-.6z" class="st127"/>
  <path d="M680.3 56.9s1.4-.3 2.5-.1c1.1.2 2.3 1.2 3.6 1.2 1.3.1 1-.4 1-.4s-.8.1-1-.6c-.2-.7.7-1.3 2-2.2 1.4-1 1.6-1.9 1.4-2.5 0 0-.2.4-1.4 1-1.1.6-2 1.7-2.8 2.5-.9.8-.9.8-1.8.7-.9-.1-2.7-.4-3.5.4zm-6.4 8.7s1.4-.3 2.5-.1c1.1.2 2.3 1.2 3.6 1.2 1.3.1 1-.4 1-.4s-.8.1-1-.6c-.2-.7.7-1.3 2-2.2 1.4-1 1.6-1.9 1.4-2.5 0 0-.2.4-1.4 1-1.1.6-2 1.7-2.8 2.5-.9.8-.9.8-1.8.7-.9-.2-2.7-.5-3.5.4zm17.4-8.3s1.4-.3 2.5-.1c1.1.2 2.3 1.2 3.6 1.2 1.3.1 1-.4 1-.4s-.8.1-1-.6c-.2-.7.7-1.3 2-2.2 1.4-1 1.6-1.9 1.4-2.5 0 0-.2.4-1.4 1-1.1.6-2 1.7-2.8 2.5-.9.8-.9.8-1.8.7-.9-.1-2.7-.4-3.5.4zm-3.7 7.5s1.4-.3 2.5-.1c1.1.2 2.3 1.2 3.6 1.2 1.3.1 1-.4 1-.4s-.8.1-1-.6c-.2-.7.7-1.3 2-2.2 1.4-1 1.6-1.9 1.4-2.5 0 0-.2.4-1.4 1-1.1.6-2 1.7-2.8 2.5-.9.8-.9.8-1.8.7-.9-.2-2.7-.5-3.5.4z"/>
  <g id="Jogging">
    <g id="Jogging_1_">
      <g id="Man">
        <path d="M648.4 117.9s4.6 3.4 7.7 4.8c0 0-.2 4.5 1 6.8s3 6.3 3 6.3l.5 1.1 1.9-1s-1-6.3-1-7.1c0-.8-1.2-7-1.4-7.4-.2-.4-6.7-7.6-6.7-7.6l-3.3 1.3-1.7 2.8z" class="st128"/>
        <path d="M644.8 113.5s-2.3 5.2-3.1 8.6c0 0-4.5.7-6.4 2.4-2 1.7-5.6 4.3-5.6 4.3l-.9.7 1.3 1.6s5.9-2.3 6.7-2.5c.8-.2 6.6-2.6 6.9-2.9.3-.3 6-8.1 6-8.1l-2-2.9-2.9-1.2z" class="st128"/>
        <path d="M660 136.6s2-.3 2.4-1.3c.4-1 .8-.2 1.2.4.4.6 2.4 1 2.7 1.3.3.3 2.6-.1 2.8.6.2.7-1.2 1.4-2.1 1.5-.9.1-4.8-.2-5.4-.2-.6.1-1 .4-1.4 0-.4-.4-.9-1.5-.2-2.3z" class="st129"/>
        <path d="M654.2 89.6s.2 1.3 0 1.9c0 0 .4.9.5 1.3 0 .3-.6.3-.6.3s-.3.5-.3.9c.1.4.5 2.3-1.7 1.6h-.1s-.4-.1-.5 0c-.1.1-.2 1-.2 1l-.1.7-1.5.4s-1 0-1.2-.2c-.2-.1-.5-.9-.5-.9l.1-.8.2-2.1v-2.2l.7-1.9s1.1-1 1.2-1c.1 0 1.5-.3 1.5-.3l1.2.2 1.3 1.1z" class="st128"/>
        <path d="M629.7 128.7s0 2 1 2.5c.9.6.1.8-.5 1.2-.6.3-1.3 2.2-1.7 2.5-.3.3-.3 2.6-.9 2.6-.7.1-1.2-1.4-1.2-2.3 0-.9.9-4.7.9-5.3 0-.6-.3-1 .2-1.4.3-.2 1.5-.6 2.2.2z" class="st129"/>
        <path d="M644.6 110.4s-1.3 6 4.2 7.7c0 0 2.5-3.7 4.7-3.8 0 0-.6-1.3-1.7-2.8-1-1.7-7.2-1.1-7.2-1.1z" class="st130"/>
        <path d="M648.3 95.6s-.8-.1-1.4.3c-.6.4-7.3 4.1-7.6 4.7-.3.6-1.8 1.4-1.2 2.8.7 1.4 4.7 7.1 4.7 7.1s1.1-.5 1.3-.8c0 0-1.9-5.1-2.9-6.7 0 0 3.9-2 4.1-2.5l.6 4.7s-1.9 3.8-1.3 5.2c0 0 6.1-.1 7.3 1 0 0 1.1-5.2 1.3-6.3v-.1c.2-.7.8 2 2.1 2.7 1.3.7 2 .8 3.3-.9 1.3-1.7 4.4-6 4.4-6l-1.6-1.4s-4.6 5.3-4.8 5.3c-.2 0-2.7-3.8-2.7-4.4s0-2-.5-2.4c-.5-.5-2.1-1.4-2.1-1.4s-.2.9-1.3.8c-1.1 0-1.9-.4-2-1 .1-.6.3-.7.3-.7z" class="st60"/>
        <path d="M644.2 109.6s.9.7 1.7 1.2c.8.5.9.5.7.7-.1.2-1.1-.4-1.1-.4s1.1 2.2 1.3 2.3c.1.1-.3.2-1.2.3-.9 0-1.7-.5-2.1-1.3-.4-.8-.8-2.1-.8-2.1l1.5-.7z" class="st128"/>
        <path d="M654.3 89.7s-2.1-1.1-2.7-.5c-.6.6-1 2.8-2.2 3-.5.1-.9 1.4-.9 1.4s-1-.9-1.3-2.1c-.3-1.2-.4-2 .2-3.1.6-1.1 1.3-2.4 3.7-2.3 2.4 0 2.8 1.2 3 1.9.1.6.2 1.7.2 1.7z" class="st131"/>
        <path d="M661.6 99.5s.3-1.2.4-2.1c.1-.9.1-1.1.3-1 .2 0 .1 1.2.1 1.2s1.7-2.1 1.7-2.2c0-.2.4.2.8 1 .4.9.2 1.8-.4 2.6s-1.7 1.7-1.7 1.7l-1.2-1.2z" class="st128"/>
        <path d="M630.7 131.3c-.1 0-.2-.1-.2-.2-.1.2-.2.6-.6.9-.8.8-2.3 2.5-2.3 3 0 .4.2 2 .2 2.4.5-.4.5-2.3.7-2.5.3-.3 1.1-2.1 1.7-2.5.5-.3 1.4-.6.5-1.1z" class="st59"/>
        <path d="M669 137.5c-.2-.6-2.4-.3-2.7-.5-.3-.3-2.3-.7-2.7-1.3-.4-.6-.8-1.4-1.2-.4 0 .1 0 .1-.1.1.4.5 1.4 1.3 2.9 1.6 1.5.4 3.1.6 3.8.5z" class="st53"/>
      </g>
    </g>
  </g>
  <path d="M705.6 82.7s3.5-.7 3.1.2c-.4.9-4.9 3.2-4.9 3.2s3.6-.5 3 .7c-.5 1.2-5 3.3-5 3.3s5.8-.9 4.2.7c-1.6 1.6-7.3 4.4-7.3 4.4s7.3-1.5 7 .3c-.2 1.8-3.2 2.3-3.8 3.5 0 0 7.2-1.3 7.9-.3.8 0 8 1.3 8 .9-.5-1.2-3.6-2.1-3.7-3.9s7 .1 7 .1-5.5-3.1-6.9-4.8c-1.4-1.7 4.2-.5 4.2-.5s-4.3-2.3-4.7-3.6c-.4-1.3 3.1-.5 3.1-.5s-4.3-2.6-4.6-3.5c-.3-.9 3.1 0 3.1 0-2.9-2.4-4-5-4.7-6.3-.7 1.3-1.9 3.8-5 6.1z" class="st132"/>
  <g id="ART_1_">
    <path id="Background_2_" d="M995.3 341.7c1-.9 2-1.8 3.1-2.7 12-11.6 19.5-27.9 19.5-45.9 0-35.3-28.6-64-64-64-35.3 0-64 28.6-64 64 0 35.3 28.6 64 64 64 15.7 0 30.1-5.7 41.2-15 .1-.2.1-.3.2-.4z" class="st133"/>
  </g>
  <path d="M995.3 341.7c2.2-2 4.5-4 6.8-5.9 2.6-3.4 5-7 7.5-10.5-21.6-32.4-75.8-55.1-86.2-65.3-9.3-9-4.6-16.1-4.6-16.1s-10.8 1.2-14.2 9.8c-14.1 35.6 61.8 60.9 61.8 88.5h28.5c.2-.2.3-.3.4-.5z" class="st134"/>
  <path d="M911.2 260.1l-1.9-.1s-2.2 4 .9 9.7l2-1.1s-2.7-3.9-1-8.5zm52.6 44.6l2.3-2.1s-4.8-4.6-9.1-7.6l-1.9 1.9c-.1-.1 7 5.9 8.7 7.8zm-16.1-12.8l2.1-2.3s-4.8-3.5-9.6-6.8l-1.8 2s6.8 5.6 9.3 7.1zm-15.6-10.7l2-2.2s-4.8-3.2-9-6.3l-1.7 1.9c.1-.1 6 4.6 8.7 6.6zm-12.2-1.8l1.7-1.8s-3.9-2.8-7.5-5.7l-1.4 1.6c-.1 0 3.7 3.7 7.2 5.9zM962 142.6s-.7-7.2-2.6-10.1l2.6-1.2s3.3 4.6 4.1 11.3H962zm-52.3 113.7s.8-4 5.1-5.7l-.1.8s-2.4 1.6-3.3 4.9h-1.7zm46.9-128.5l2.6-1.7s-3.6-5.9-7.8-9.1l-2.2 1.5s6.1 6.6 7.4 9.3z" class="st12"/>
  <path d="M962.2 260.5v.6c-.3 3-.7 6-.7 6-.5 1-1.4 2.1-2.4 3.2 1.8-.7 3.9-1.3 5.8-1.4 0 0 0-.1.1-.2-.4-.1-.6-.2-.6-.2.5-.7.6-1.4.5-1.6-.4-.6-.2-.9-.2-.9-.5-.7-1.6-3.3-2.5-5.5zm3.6 17.1c-.3-.1-3-.4-4.9-.3 0 .2-.6.3-.6.3l2.3 10.9h.1l.3 1.5.1.1v.1c1.3 1 2.7 2 4.1 3.1v-.7l.1-.7v-.6s.1 0 .1.1l-2.5-11.8c0-.1.1-.3.2-.7-.4-.2-.2-.7 0-.8.2-.1.2-.2.4-.2.2-.2.2-.3.3-.3zm-15.2 9.1c.7.3 1.2.1 1.8-.2-.3-.1-.7-.4-1-.8-.3.2-.7.5-1.1.8.1.1.2.2.3.2z" class="st135"/>
  <path d="M959 270.3c1-1.1 1.9-2.2 2.4-3.2 0 0 .5-3 .7-6l-.3-.8c-2 .8-3.3-.2-3.3-.2v-.3c.1 1.7.2 4.6.1 6.5 0 0-2 3.6-3.6 5.7h.3c.9-.5 2.2-1.1 3.7-1.7zm3.2-9.8zm-.1.6v-.6.6zm-8.8 13.7h.1c0-.1-.1-.2-.1-.3 0 .1-.1.2 0 .3z" class="st136"/>
  <path d="M953.3 274.8h.1c0-.1-.1-.2-.1-.3 0 .1-.1.2 0 .3z" class="st137"/>
  <path d="M966 248.7zm-4.9 1.8l.2-.2.1-.1s0-.1-.1-.3c-.1 0-.2.1-.3.2.1-.1 0 .1.1.4zm4.3-1.2c.1-.3.1-.5.2-.5h.4-.9l.3.5z" class="st138"/>
  <path d="M950.8 282.5c.5-.2 1.4.5 2 1.6.4.7.6 1.4.6 1.8l.6-.3c.1-.5-.1-1.2-.4-1.9-.6-1.2-1.5-1.9-2.5-1.5-.2.1-.3.2-.4.4 0 0 .1 0 .1-.1zm-.3.9z" class="st12"/>
  <path d="M952.1 285.2s-.1.1-.3.2c.2.2.4.2.5.2.2-.1.2-.6-.1-1.2-.3-.5-.7-.9-.9-.8-.1.1-.2.3-.2.7l.3-.3c.1.1.8.5.7 1.2z" class="st12"/>
  <path d="M951.4 285.7c.1-.1.3-.2.4-.3.2-.2.3-.2.3-.2.1-.7-.6-1.1-.6-1.1l-.3.3c-.1.1-.3.2-.4.3l-1.5 1.2c.3.2.6.5 1 .7.4-.4.8-.7 1.1-.9z" class="st139"/>
  <path d="M942.6 289zm0 .2zm2.6-.4c-.6-.7-1.3-1-2-.7-.2.1-.3.2-.4.4 0-.1.1-.1.2-.2.5-.2 1.4.5 2 1.6.6 1.1.8 2.2.3 2.4h-.1.2c1.1-.4 1-1.4.5-2.5 0-.1-.1-.2-.1-.3-.3-.2-.4-.5-.6-.7z" class="st12"/>
  <path d="M944.9 289.9c-.6-1.1-1.5-1.8-2-1.6-.1 0-.1.1-.2.2s-.1.3-.1.5v.2c0 .5.2 1.2.5 1.8.6 1.1 1.5 1.6 2 1.4h.1c.5-.3.3-1.4-.3-2.5zm-1.6-.5c.2-.1.6.3.9.8.3.5.3 1.1.1 1.2-.2.1-.7-.2-.9-.7-.4-.6-.4-1.2-.1-1.3z" class="st140"/>
  <path d="M944.2 291.4c.2-.1.2-.6-.1-1.2-.3-.5-.7-.9-.9-.8-.2.1-.2.7 0 1.2.3.6.8.9 1 .8z" class="st12"/>
  <path d="M978.7 307.4c.1.1.2.2.3.4-1.5-1.8 3.7-2.4.4-5.1 2.6 2.4-2.2 3-.7 4.7zm2.7 4.5c-1.7 1.5-3.8-1.3-5.6-2.4-1.9-1.1-4.1 4.1-7.4 1.2-1.5-1.3-22.4-15.1-22.7-17v-.2.8c.5 1.8 21.2 15.6 22.7 17 3.3 2.9 5.6-2.3 7.4-1.2.4.2.8.5 1.3.8-1.2.8-2.2 1.5-2.6 1.8.2.2.3.5.4.7.1.2.2.3.2.5.5-.5 1.7-1.4 2.9-2.3 1.3.9 2.6 1.6 3.4.8 1.3-1.2.7-2-.3-2.9.8.9 1.2 1.6.3 2.4zm-34.2-23.5c-1.4-1.2-2.6-2.4-1.6-3.4-.8.9-.5 2 .5 3.1-.4.3-.7.5-1 .7.2.2.3.5.5.8 0 .1.1.2.1.3.4-.3.8-.6 1.3-1 .5.5.7.9.7 1.2.3-.6.2-1.1-.5-1.7z" class="st139"/>
  <path d="M982.1 308.7c-.1-.1-.2-.3-.3-.5l-.3-.6c-.4.4-.9.7-1.4 1.1.3.3.6.5.9.8.4-.3.8-.6 1.1-.8z" class="st139"/>
  <path d="M981.2 306.5zm.4-.9c.5-.2 1.4.5 2 1.6.6 1.1.8 2.2.3 2.4h-.1.2c1.1-.4.9-1.6.4-2.8-.6-1.2-1.5-1.9-2.5-1.5-.2.1-.3.2-.4.4-.1 0 0-.1.1-.1z" class="st12"/>
  <path d="M982.1 308.7c.6.8 1.3 1.1 1.7 1h.1c.5-.2.3-1.3-.3-2.4-.6-1.1-1.5-1.8-2-1.6-.1 0-.1.1-.2.2-.1.2-.2.4-.1.7 0 .3.1.8.3 1.2l.3.6s.1.2.2.3zm-.1-2c.2-.1.6.3.9.8.3.5.3 1.1.1 1.2-.2.1-.7-.2-.9-.7-.3-.6-.3-1.2-.1-1.3z" class="st140"/>
  <path d="M982 307.9c.3.5.7.8.9.7.2-.1.2-.6-.1-1.2-.3-.5-.7-.9-.9-.8-.1.2-.1.8.1 1.3zm-10.2 5.2zm0-.2zm2.6-.2c-.6-.8-1.3-1.1-2.1-.7-.2.1-.3.2-.4.4 0-.1.1-.1.2-.2.5-.2 1.4.5 2 1.6.6 1.1.8 2.2.3 2.4h-.1.2c1-.4 1-1.3.6-2.3-.1-.2-.1-.3-.2-.5-.2-.2-.3-.4-.5-.7z" class="st12"/>
  <path d="M974.1 313.9c-.6-1.1-1.5-1.8-2-1.6-.1 0-.1.1-.2.2s-.1.3-.1.5v.2c0 .5.2 1.2.5 1.8.6 1.1 1.5 1.6 2 1.4h.1c.5-.3.3-1.4-.3-2.5zm-1.6-.6c.2-.1.6.3.9.8.3.5.3 1.1.1 1.2-.2.1-.7-.2-.9-.7-.4-.6-.4-1.2-.1-1.3z" class="st140"/>
  <path d="M973.4 315.3c.2-.1.2-.6-.1-1.2-.3-.5-.7-.9-.9-.8-.2.1-.2.7 0 1.2.3.6.8.9 1 .8z" class="st12"/>
  <path d="M963.1 290.1l-.1-.1v.1h.1z" class="st140"/>
  <path d="M971 296.4c.8.9-1.3 2.3-1.7 2.8-3.4 3.8-6.5 4.3-7.1 4.2-1.6-.2-.7-2-.7-2 .5-1.5 2-3.7 4.6-5.6 0 0 .2-.2.4-.5 0-.1 0-.2.1-.2.1-.2.3-.5.4-.8-.1-.1-.1-.2.1-.3h.1c.1-.2.1-.4.1-.7-1.4-1.1-2.8-2.1-4.1-3.1.1.4.8 2.4.4 3.8-.2 1.1-1.8 1.7-2.7 2-.1 0-.1.1-.2.1-3.7 1.5-6.7 1.7-8.5 1.5-.7 0-1.2-.1-1.6-.3-1-.4-.4-1.5-.4-1.5.6-1.2 2.9-2.9 8.1-4.3 0-.2.3-.3.5-.1.1 0 .1 0 .2-.1-.1-.1 0-.3.1-.3h.2l-.1-.5h.1l-.2-.6-.1-.5-.1-.4h.1c-.2-.5-.6-1.4-1-2.4-.9-.6-1.6-.9-2-1-.8-.1-1.4-.1-1.9.1l-.6.3c0-.5-.2-1.1-.6-1.8-.6-1.1-1.5-1.8-2-1.6-.1 0-.1.1-.2.2-.1.2-.2.4-.2.7 0 .4.1.8.3 1.3.1-.1.3-.2.4-.3 0-.3 0-.6.2-.7.2-.1.6.3.9.8.3.5.3 1.1.1 1.2-.1.1-.3 0-.5-.2-.1.1-.2.2-.4.3.3.4.7.7 1 .8-.6.3-1.1.6-1.8.2-.1-.1-.3-.1-.4-.2-.3-.2-.6-.4-1-.7-1.3-.9-2.6-1.9-3.6-.8-1 1 .2 2.2 1.6 3.4.7.6.7 1.1.5 1.6-.4 1.1-2.2 2.2-2.2 3.4v.2c.3 1.8 21.2 15.6 22.7 17 3.3 2.9 5.6-2.3 7.4-1.2 1.9 1.1 3.9 3.8 5.6 2.4.9-.8.5-1.5-.3-2.3l-.1-.1c-.3-.2-.6-.5-.9-.8-.4-.3-.7-.6-1.1-1-.1-.1-.2-.2-.3-.4-1.5-1.7 3.3-2.3.7-4.7l-.3-.3c-1-.8-4.2-3.4-8-6.3v.3z" class="st140"/>
  <path d="M954.1 273.2zm4.9 15.7h2c.7-.1 1.4-.3 1.7-.4l-2.3-10.9c-1.7.1-3.3-.9-4.6-1.9 0-.1-.1-.1-.2-.2 0 0-.1 0-.1-.1l-.1.1h-.3s-1.2.3-1.9-.2c0 0 .8.4 1.9.2 0 0 .2 0 .3-.1.1-.1.1-.1.1-.2s-.2-.1-.5-.1c-.9-.8-1.4-1.6-1.3-1.7-.1 0-.1.1-.2.1l-.3.3v.3c-.1.1-.2.1-.4.3l-.1.1c-.1.1-.4.4 0 .7 0 0-.4.3.1.6 0 0-.3.4.2.6 0 0-.2.5.4.6.2 0 .4.1.6.1.6 0 1.4 0 1.5-.4 0 .7-1.5.5-1.5.5 1 2.8 2.6 6.6 3.8 9.3.6 1 .9 1.9 1.2 2.4zm-5.6-14h-.1v-.3c0 .1.1.2.1.3zm1.7 1.1s.6 0 .6-.3c0 .1-.1.3-.2.3h-.4s-1.1.4-1.9-.2c0 0 .7.4 1.9.2zm.4.6h-.5c-.1 0-1 .3-1.7-.1.1.1.8.4 1.8.1.1 0 .8-.1.8-.4v-.1c-.1.3-.2.5-.4.5zm10.4.9s-.1 0 0 0c-.1.1-.1.1 0 0-.1.1-.1.1 0 0zm-.8 1.4v-.1c-.1.3-.2.6-.2.7l2.5 11.8c1.6.9 2.9.6 3.3.4.2-1.3 1.1-7 1.6-9.9-2.2-3-7.2-2.9-7.2-2.9zm1.4 1.3c1 .9 3.6 1.2 3.6 1.2-2.4.5-3.6-1.2-3.6-1.2zm-5.2-29.9s.3 1.2 2.3.3c1-.4 1.4-.7 1.6-1 .1-.1.1-.3.2-.4h-.1l-.3-.5-1-2.1s.2-2.8-.9-5.7l-.1-.3c.6-.2 1-1 .7-1.7-.1-.1-.1-.2-.2-.3-.6-.6-1.2-.2-1.5.1.4.9.6 2.7.6 2.7-1.3.2-1.7-.6-1.7-.6.6-1.6-.4-3.5-1.1-4.6-.7 1.7-2.6 4.5-7.4 4.1.9 4.6 4 7.8 8.3 7.5.1 0 .5 1.2.7 1.8.1.2.1.3.1.3l-.2.4zm-2.7-10.5c.5.6.5 1 .5 1s-.6-1.1-1.1-1c0 0-.2 0-1.2.8.1 0 1.1-1.7 1.8-.8zm-4.9 1.3s-.2.1-.7 1.3c0 0 0-2 1.1-1.6.7.3 1 .6 1 .6s-1-.6-1.4-.3zm3.2 4.2c-1.5.9-1.8-.6-1.8-.6 1.1-1.6.9-3.2.9-3.2 1.1 2.1.9 3.8.9 3.8zm1.7 1.8c-.6.1-.8-.4-.8-.4 1.3-.1 1.4-1.7 1.4-1.7.2 1.2.1 2-.6 2.1z" class="st136"/>
  <path d="M955.6 276.7c-.1.4-.9.4-1.5.4v.1c.1 0 1.6.2 1.5-.5z" class="st136"/>
  <path d="M955.6 276.7c-.1.4-.9.4-1.5.4v.1c.1 0 1.6.2 1.5-.5z" class="st137"/>
  <path d="M955.8 276.3c0 .2-.7.3-.8.4h.5c.2-.1.3-.3.3-.4 0-.1 0 0 0 0z" class="st136"/>
  <path d="M955.8 276.3c0 .2-.7.3-.8.4h.5c.2-.1.3-.3.3-.4 0-.1 0 0 0 0z" class="st137"/>
  <path d="M955.7 275.7c0 .3-.6.3-.6.3h.5c.1 0 .1-.1.1-.3z" class="st136"/>
  <path d="M955.7 275.7c0 .3-.6.3-.6.3h.5c.1 0 .1-.1.1-.3z" class="st137"/>
  <path d="M955.1 275.6h.3l.1-.1c-.2 0-.4.1-.4.1z" class="st136"/>
  <path d="M955.1 275.6h.3l.1-.1c-.2 0-.4.1-.4.1z" class="st137"/>
  <path d="M955.1 244.7s.3 1.5 1.8.6c0 0 .1-1.7-.9-3.8 0 0 .2 1.6-.9 3.2z" class="st141"/>
  <path d="M957.8 246.7s.2.5.8.4c.6-.1.8-.9.6-2.2 0 .1-.1 1.7-1.4 1.8z" class="st142"/>
  <path d="M963.7 239c.3.6-.1 1.5-.7 1.7l.1.3c.1 0 1.3-.6.6-2z" class="st143"/>
  <path d="M970.9 292.8s-1 .7-2.7.3c-.6-.1-.8-.3-.9-.5v.5c.1.1.6.7 1.6.8.5.1 1.2 0 2-.4l.1-1.3-.1.6z" class="st12"/>
  <path d="M967.5 291.3s-.1 0-.1-.1v.6s.5.7 2.3.7c.9 0 1.2-.1 1.3-.2v-.7s-.1 0-.2.1c-.4.2-1.7.5-3.3-.4z" class="st12"/>
  <path d="M968.9 294c-.9-.2-1.5-.8-1.6-.8v.1c0 .2-.1.5-.1.7.5-.1 1.6.4 1.8.7.1.2 0 .3-.1.4-.1 0-1.4-.4-1.7-.7-.1.3-.3.6-.4.8.4-.2 1.6.4 1.8.7.1.2 0 .3-.1.3s-1.5-.5-1.8-.8v-.1c-.2.3-.4.5-.4.5-2.6 1.9-4.1 4.1-4.6 5.6-.2.9.5 1.2 1 1.2 3 .1 8.5-6.2 8.5-6.2v-.4c.1-1.2-.1-2.5-.1-2.5h-.1c-.9.5-1.6.6-2.1.5z" class="st144"/>
  <path d="M962.2 303.3c.6.1 3.7-.4 7.1-4.2.4-.5 2.5-1.9 1.7-2.8 0 0-5.5 6.3-8.5 6.2-.5 0-1.2-.3-1-1.2 0 .1-.9 1.8.7 2zm4.8-9.1s.1 0 0 0c.4.3 1.7.8 1.8.7.1 0 .2-.2.1-.4-.2-.3-1.3-.8-1.8-.7h-.1v.4zm-.5 1.1c.3.4 1.6.9 1.8.9.1 0 .2-.1.1-.3-.2-.3-1.3-.9-1.8-.7-.1-.1-.1 0-.1.1z" class="st12"/>
  <path d="M960.3 277.6zm-6.2-4.4s-.2.1-.3.3c0-.2.1-.3.3-.3z" class="st137"/>
  <path d="M955 275.1c.3 0 .4.1.5.1 0 .1 0 .2-.1.2 0 0 .1 0 .1.1.1 0 .2.1.2.2 1.2 1 2.9 2 4.6 1.9-3.2-.3-5.5-3.4-6.2-4.5l-.3.3c-.1.1.4.8 1.2 1.7z" class="st136"/>
  <path d="M955 275.1c.3 0 .4.1.5.1 0 .1 0 .2-.1.2 0 0 .1 0 .1.1.1 0 .2.1.2.2 1.2 1 2.9 2 4.6 1.9-3.2-.3-5.5-3.4-6.2-4.5l-.3.3c-.1.1.4.8 1.2 1.7z" class="st137"/>
  <path d="M955.5 275.2c0 .1 0 .2-.1.2.1 0 .1-.1.1-.2z" class="st136"/>
  <path d="M955.5 275.2c0 .1 0 .2-.1.2.1 0 .1-.1.1-.2z" class="st137"/>
  <path d="M955.5 275.2c0 .1 0 .2-.1.2.1 0 .1-.1.1-.2z" class="st137"/>
  <path d="M963 290.1v-.1l-.3-1.5h-.1c-.3.1-1 .3-1.7.4-1.1.1-1.8.1-2 0h-.1l.1.4c3 .1 3.7-.5 3.7-.5l.1.5c-1 .6-3.4.5-3.7.5l.2.6c.6.1 2.2.5 3.8-.3z" class="st12"/>
  <path d="M963.1 290.1s-.1 0-.1.1c-1.6.8-3.1.4-3.6.3h-.1l.1.5c.4 0 1.2.3 1.4.4.2.2 0 .5-.1.4-.4-.2-1.4-.3-1.5-.4 0 0-.1 0-.1-.1-.1 0-.1 0-.2.1.3.1 1 .4 1.1.8.1.2-.3.4-.6.3-.3-.1-1-.7-1.1-1-5.2 1.4-7.5 3.1-8.1 4.3-.5 3.2 13.4-2 13.4-2v.1c.4-1.4-.3-3.4-.5-3.8 0 0 0-.1 0 0 0-.1 0-.1 0 0zm-2.2 5.7c-.1 0-.2.1-.2.1s.1 0 .2-.1z" class="st144"/>
  <path d="M950.6 297.2c.4.2.9.2 1.6.3-.6 0-1.1-.1-1.4-.2-.1-.1-.1-.1-.2-.1z" class="st144"/>
  <path d="M950.2 295.7s-.6 1.1.4 1.5c.1 0 .1 0 .2.1.3.1.8.2 1.4.2 1.8.1 4.8-.1 8.5-1.5.1 0 .1-.1.2-.1.9-.3 2.4-.8 2.7-2v-.1c0-.1-13.8 5.1-13.4 1.9zm9-4.4c.1.1 1.1.2 1.5.4.2.1.4-.2.1-.4-.2-.1-1-.4-1.4-.4h-.2c-.1 0-.2.2 0 .4-.1-.1-.1 0 0 0zm.2 1.1c.3.1.7-.1.6-.3-.1-.4-.9-.7-1.1-.8-.2-.1-.6-.1-.5.1 0 .2.7.9 1 1z" class="st12"/>
  <path d="M965.2 278.7c0 .1 0 .1 0 0zm7.3 3.1v-.1.1z" class="st137"/>
  <path d="M965.2 278.7c0 .1 0 .1 0 0l-.1.1s4.9-.1 7.3 2.9v-.1c-2.3-3.4-7.2-2.9-7.2-2.9z" class="st136"/>
  <path d="M965.2 278.7c0 .1 0 .1 0 0l-.1.1s4.9-.1 7.3 2.9v-.1c-2.3-3.4-7.2-2.9-7.2-2.9z" class="st137"/>
  <path d="M988.1 274.4c0 .1.1.2.1.3.4 1 .5 1.7.5 2.3.1-.5.1-1.4-.6-2.6 0-.1 0-.1 0 0z" class="st136"/>
  <path d="M988.1 274.4c0 .1.1.2.1.3.4 1 .5 1.7.5 2.3.1-.5.1-1.4-.6-2.6 0-.1 0-.1 0 0z" class="st137"/>
  <path d="M987.6 274.7s0-.1 0 0c.1.4.8 1.8.5 2.6-.1.2-.2.4-.3.5 1-.8-.2-3.1-.2-3.1z" class="st136"/>
  <path d="M987.6 274.7s0-.1 0 0c.1.4.8 1.8.5 2.6-.1.2-.2.4-.3.5 1-.8-.2-3.1-.2-3.1z" class="st137"/>
  <path d="M989.9 274.4c-.2-.7-1.1-1.4-2-2-.5-.4-.7-.9-.8-1.2-.4-4.2-1.4-10.6-1.4-10.6-2.5-3.4-5.3-6-7.8-7.9 0 0 .7 1.6-1.8 4.2 3 2 6.4 4.4 6.6 4.6.5.6 2 8 2.5 10 0 .2-.1.3-.1.3s-.9 1.8 0 3.1c.9 1.4 1 1.6 1.1 2 .2.4.9-.1.3-.7-.6-.6-.7-1.4-.7-1.6.1-.2.7-.3 1.4 1.1.2.4.4 1.1.3 1.5-.2.4-.4.5-.4.7 0 .1.3.2.6-.1.1-.1.2-.3.3-.5.3-.8-.3-2.2-.5-2.6h.1s1.2 2.3.2 3.1v.4c0 .5.4.5.6 0 .1-.2.2-.5.3-.9 0 .2.1.6.3.5.3-.1.7-1.8-.4-4.1.1 0 .2.1.3.2.5.3 1.2 1.2 1 .5zm-1.2 2.5c0-.5 0-1.3-.5-2.3 0-.1-.1-.2-.1-.3.7 1.3.7 2.2.6 2.6z" class="st136"/>
  <path d="M965.3 268.9c-.1 0-.3-.1-.4-.1-.1.1-.1.2-.1.2.2-.1.4-.1.5-.1z" class="st145"/>
  <path d="M964.8 268.9c-2 .1-4.1.7-5.8 1.4-1.5.6-2.8 1.2-3.7 1.6.7 1.9 5.4 5.1 5.4 5.1.1.1.1.1.1.2 1.9-.1 4.6.2 5 .2 1.4-3.2 4-5.6 4.5-6-.5-.5-.8-1.3-1-2.1-.6 0-1.2-.1-1.7-.2.5.3.8.6.8.6-.3-.3-.7-.5-1.1-.6-.7-.1-1.2-.2-1.7-.4-.5.2-.8.2-.8.2zm13-1.5c.4 1 .7 2.2.9 3.8.2 3.3-5 7.7-5.9 8.4.2.3.4.6.5.8.2.4.2.6.2.8 3.6-3.1 4.6-4.3 5.8-6.2 1.6-2.7.4-6-.7-8.1-.3.3-.5.4-.8.5z" class="st145"/>
  <path d="M970.6 271.8c-2.6 2.3-4.7 5.8-4.7 5.8s-.1 0-.1.1l-.1.1c3.5-1.1 5.7.3 6.8 1.5 2.8-2 5.6-5.7 5.7-7.9v-.4c-2.9-2.4-6.2-.9-6.4-.8 3.5-1.8 5.7-.1 6.4.7-.1-1-.4-2.2-.8-3.2-2.7 1.4-5.3 1.8-7.5 1.8.2 1.2.7 2.3.7 2.3z" class="st145"/>
  <path d="M960.3 277.6s.5-.1.6-.3c0-.1 0-.1-.1-.2 0 0-4.7-3.2-5.4-5.1h-.3c-.4.1-1 .2-1.2.8 0 0 .1.1.2.4.7 1 3 4.1 6.2 4.4zm13 2.8c-.1-.2-.3-.5-.5-.8.9-.7 6.2-5.1 5.9-8.4-.1-1.6-.5-2.8-.9-3.8-.2.1-.3.2-.5.3.4 1 .7 2.1.8 3.2l.3.3-.3-.3v.4c0 2.2-2.8 5.9-5.7 7.9-1.1-1.3-3.3-2.7-6.8-1.5-.2 0-.3.1-.4.2-.2.2-.5.7 0 .8 0 0 4.9-.5 7.3 2.9.1.1.1.2.2.3 0 0 .7-.1.8-.7 0-.1-.1-.4-.2-.8z" class="st146"/>
  <path d="M970.6 271.8c-.1-.1-.2-.1-.3-.2-.4.4-3 2.7-4.5 6 .1-.1 2.1-3.5 4.8-5.8z" class="st145"/>
  <path d="M970.6 271.8c-.1-.1-.2-.1-.3-.2-.4.4-3 2.7-4.5 6 .1-.1 2.1-3.5 4.8-5.8z" class="st147"/>
  <path d="M965.6 268.9c-.1 0-.2-.1-.3-.1h-.5c0 .1.3.1.8.1z" class="st145"/>
  <path d="M965.6 268.9c-.1 0-.2-.1-.3-.1h-.5c0 .1.3.1.8.1z" class="st147"/>
  <path d="M967.6 269.4c-.1 0-.2 0-.3-.1.4.1.8.4 1.1.6 0 0-.3-.3-.8-.5z" class="st145"/>
  <path d="M967.6 269.4c-.1 0-.2 0-.3-.1.4.1.8.4 1.1.6 0 0-.3-.3-.8-.5z" class="st147"/>
  <path d="M971.7 270.2c.2-.1 3.5-1.7 6.4.8v-.1c-.7-.8-2.9-2.4-6.4-.7z" class="st145"/>
  <path d="M971.7 270.2c.2-.1 3.5-1.7 6.4.8v-.1c-.7-.8-2.9-2.4-6.4-.7z" class="st147"/>
  <path d="M978.4 271.2l-.3-.3v.1c.1.1.2.1.3.2z" class="st146"/>
  <path d="M978.4 271.2l-.3-.3v.1c.1.1.2.1.3.2z" class="st147"/>
  <path d="M970.3 271.6c.1.1.2.1.3.2 0 0-.5-1.1-.7-2.3h-.5c.1.8.4 1.6.9 2.1z" class="st146"/>
  <path d="M977.9 252.8l-.3-.2c.2 0 .2.1.3.2zm-2 4l.2.2c0-.1-.1-.1-.2-.2z" class="st137"/>
  <path d="M977.9 252.8c-.1-.1-.2-.1-.3-.2.1 2-1.3 3.7-1.8 4.3.1.1.2.1.2.2 2.6-2.7 1.9-4.3 1.9-4.3z" class="st136"/>
  <path d="M977.9 252.8c-.1-.1-.2-.1-.3-.2.1 2-1.3 3.7-1.8 4.3.1.1.2.1.2.2 2.6-2.7 1.9-4.3 1.9-4.3zm-15.8 8.3zm.1-.6z" class="st137"/>
  <path d="M961.8 260.3l.3.8v-.6c-.1-.2-.1-.4-.2-.6l-.2.1c-1.5.4-2.6.2-3.3-.2v.3c.1 0 1.4 1 3.4.2z" class="st136"/>
  <path d="M961.8 260.3l.3.8v-.6c-.1-.2-.1-.4-.2-.6l-.2.1c-1.5.4-2.6.2-3.3-.2v.3c.1 0 1.4 1 3.4.2z" class="st137"/>
  <path d="M970.2 281.4s-2.7-.4-3.6-1.2c-.1 0 1.1 1.7 3.6 1.2z" class="st136"/>
  <path d="M970.2 281.4s-2.7-.4-3.6-1.2c-.1 0 1.1 1.7 3.6 1.2z" class="st137"/>
  <path d="M961.3 250.3l-.2.2.2-.2z" class="st138"/>
  <path d="M961.3 250.3l-.2.2.2-.2z" class="st137"/>
  <path d="M963.6 250.6c-2 .8-2.3-.3-2.3-.3l-.2.2c0 .1.1.3.2.4.6.7 1.8.4 2.7-.1.6-.3 1-.8 1.2-1.2-.1.3-.6.6-1.6 1z" class="st136"/>
  <path d="M963.6 250.6c-2 .8-2.3-.3-2.3-.3l-.2.2c0 .1.1.3.2.4.6.7 1.8.4 2.7-.1.6-.3 1-.8 1.2-1.2-.1.3-.6.6-1.6 1z" class="st137"/>
  <path d="M959.7 236.4c.7 1.1 1.7 3 1.1 4.6 0 0 .4.8 1.7.6 0 0-.2-1.8-.6-2.7.3-.2.9-.6 1.5-.1.1.1.2.2.2.3.7 1.3-.6 2-.6 2 1.1 2.9.9 5.7.9 5.7 2.9-3.4 2.5-7.3 1.9-9.5-9.5-3.4-15.4.9-15.4.9-.8 1-1 1.9-1 1.9 1.1.3 2 .5 2.9.5 4.8.3 6.7-2.5 7.4-4.2z" class="st148"/>
  <path d="M977.7 252.6c0-.1 0-.1 0 0 0-.3-.1-.5-.1-.8 0 0-3.5-1.8-5.4-3.3 0 0-4-.1-6.1.2-.1.6-.7 1.9-1.7 2.5-1 .6-2.3.8-3 .3-.7-.5-.4-1.3-.4-1.3l.2-.2s-3.1 2.5-3.3 2.7c-.1.2-.1 6.1-.1 6.3 0 .1.2.5.8.8.7.3 1.7.6 3.3.2 0 0-1-2.8-1.1-3.1l.2.2 1.1 2.9c.1.2.1.4.2.6.9 2.2 2 4.9 2.4 5.5 0 0 1.6.6 4.3.3 0 0-2.4.7-4.3-.3 0 0-.2.4.2.9 0 0 1.6.1 2.9-.2 0 0-1.8.6-2.9.2.1.2 0 .9-.5 1.6 0 0 .2.1.6.2.1 0 .2.1.4.1.1 0 .2 0 .3.1.5.1 1 .3 1.7.4.1 0 .2 0 .3.1.5.1 1.1.1 1.7.2h.5c2.2 0 4.8-.4 7.5-1.8.2-.1.3-.2.5-.3.2-.1.5-.3.7-.4.1-.1.2-.1.3-.2 0 0-3.8-9.6-6.1-11.8 0 0 2.6 1.6 3.1 2l.2-.2c.3-.7 1.7-2.5 1.6-4.4zm-10.1 3.6l2.9-1.2s2.7 3.2.3 4.1c-2.4.9-3.2-2.9-3.2-2.9z" class="st12"/>
  <path d="M961.3 251.5c.7.5 2 .3 3-.3s1.6-1.9 1.7-2.5h-.4s0 .2-.2.5c0 .1-.1.2-.2.4-.2.4-.6.8-1.2 1.2-1 .5-2.2.8-2.7.1-.1-.2-.2-.3-.2-.4-.1-.3 0-.5 0-.5l-.2.2c-.1 0-.3.8.4 1.3z" class="st144"/>
  <path d="M954.2 240.7c-1.1-.4-1.1 1.6-1.1 1.6.5-1.1.7-1.3.7-1.3.4-.3 1.4.3 1.4.3s-.3-.3-1-.6zm5 .1s0-.4-.5-1c-.7-.9-1.7.8-1.7.8 1-.7 1.2-.8 1.2-.8.4 0 1 1 1 1z" class="st149"/>
  <path d="M970.8 259.1c2.4-.9-.3-4.1-.3-4.1l-2.9 1.2s.8 3.8 3.2 2.9zm-2.5-2s1.5-.4 2.5-1.1c0 .1-.9 1.1-2.5 1.1zm2.4-.3s-.6.7-1.7.7c0 0 1-.3 1.7-.7z" class="st144"/>
  <path d="M968.9 266.2c-2.7.3-4.3-.3-4.3-.3 1.9 1.1 4.3.3 4.3.3z" class="st12"/>
  <path d="M968.9 266.2c-2.7.3-4.3-.3-4.3-.3 1.9 1.1 4.3.3 4.3.3z" class="st150"/>
  <path d="M967.6 266.7c-1.2.3-2.9.2-2.9.2 1.1.4 2.9-.2 2.9-.2z" class="st12"/>
  <path d="M967.6 266.7c-1.2.3-2.9.2-2.9.2 1.1.4 2.9-.2 2.9-.2z" class="st150"/>
  <path d="M963.6 236.1c.1.1-8.6-1.9-13 2.1 0 0 5.9-4.3 15.4-.9 0 0 .2 0-.1-.4 0-.1-.9-.5-2.3-.8z" class="st143"/>
  <path d="M962 259.9c-.1 0-.1 0-.2.1.1-.1.2-.1.2-.1z" class="st136"/>
  <path d="M962 259.9c-.1 0-.1 0-.2.1.1-.1.2-.1.2-.1z" class="st137"/>
  <path d="M962 259.9c-.1 0-.1 0-.2.1.1-.1.2-.1.2-.1z" class="st150"/>
  <path d="M962 259.9l-1.1-2.9-.2-.2c.1.3 1.1 3.1 1.1 3.1 0 .1.1 0 .2 0z" class="st12"/>
  <path d="M962 259.9l-1.1-2.9-.2-.2c.1.3 1.1 3.1 1.1 3.1 0 .1.1 0 .2 0z" class="st150"/>
  <path d="M954.3 228.8c1.9-1.2 4.7.6 4 2.8 1.7 1 3.5 2.5 5.3 4.4 1.4.4 2.3.7 2.3.7.4-3.4.2-4.4-.7-5.4-2.9-3.2-5.8-4.5-10.1-4.1-2.1.2-3.2 1.8-3.8 3.7.6-.1 1.1-.2 1.7-.3 0-.5.4-1.2 1.3-1.8z" class="st146"/>
  <path d="M954.3 228.8c-.9.6-1.3 1.3-1.4 1.9 1.5-.2 3-.1 4 .3.4.2.9.4 1.4.7.7-2.3-2-4.1-4-2.9z" class="st12"/>
  <path d="M963.6 236.1c-1.8-1.9-3.6-3.5-5.3-4.4-.5-.3-.9-.5-1.4-.7-1-.4-2.5-.5-4-.3-.6.1-1.2.2-1.7.3-1.8.5-3.5 1.3-4.2 2.4-1.4 2.2 3.2 4.5 3.5 4.7 4.4-3.9 13.1-2 13.1-2zm-9-4.1s-3.4.3-5.9 2.1c0 0 1.6-2.2 5.9-2.1z" class="st145"/>
  <path d="M953.1 275.3c.8.5 1.9.2 1.9.2-1 .2-1.9-.2-1.9-.2z" class="st136"/>
  <path d="M953.1 275.3c.8.5 1.9.2 1.9.2-1 .2-1.9-.2-1.9-.2z" class="st137"/>
  <path d="M955.1 276c-1.2.2-1.9-.2-1.9-.2.8.6 1.9.2 1.9.2z" class="st136"/>
  <path d="M955.1 276c-1.2.2-1.9-.2-1.9-.2.8.6 1.9.2 1.9.2zm-.1.6zm0 0z" class="st137"/>
  <path d="M953.3 276.5c-.1 0 0 0 0 0z" class="st136"/>
  <path d="M953.3 276.5c-.1 0 0 0 0 0z" class="st137"/>
  <path d="M955 276.6c-1 .2-1.6-.1-1.7-.1.7.4 1.6.2 1.7.1z" class="st136"/>
  <path d="M955 276.6c-1 .2-1.6-.1-1.7-.1.7.4 1.6.2 1.7.1z" class="st137"/>
  <path d="M970.8 256.1c-.9.7-2.5 1.1-2.5 1.1 1.6-.1 2.5-1.1 2.5-1.1zm-.1.7c-.6.5-1.7.7-1.7.7 1 0 1.7-.7 1.7-.7z" class="st138"/>
  <path d="M954.6 232c-4.3 0-5.9 2.1-5.9 2.1 2.5-1.8 5.9-2.1 5.9-2.1z" class="st145"/>
  <path d="M954.6 232c-4.3 0-5.9 2.1-5.9 2.1 2.5-1.8 5.9-2.1 5.9-2.1z" class="st147"/>
  <path d="M967.3 292.5v.1c.1.1.3.3.9.5 1.7.4 2.7-.3 2.7-.3v-.5c-.1.1-.4.2-1.3.2-1.8 0-2.3-.7-2.3-.7v.7zm3.7-.2c.1-.1 0-.1 0-.1v.1zm-8.2-3l-.1-.5s-.7.6-3.7.5l.1.5c.3 0 2.7 0 3.7-.5z" class="st148"/>
  <path d="M932.6 252.5s-3.4 7.8 17 16.4c.1 0-16.6-7.4-17-16.4z" class="st151"/>
  <path d="M938.2 256.5s.5 3.9 13.4 10.9c0 .1-10.6-6.7-13.4-10.9z" class="st151"/>
  <g id="Archery">
    <g id="Archery_2_">
      <g id="Target_4_">
        <circle cx="662.4" cy="711.3" r="56.9" class="st152"/>
        <circle cx="662.4" cy="711.3" r="45.7" class="st153"/>
        <circle cx="662.4" cy="711.3" r="33.9" class="st152"/>
        <circle cx="662.4" cy="711.3" r="24.2" class="st153"/>
        <circle cx="662.4" cy="711.3" r="12.1" class="st152"/>
        <path d="M719.3 711.3c0-31.4-25.5-56.9-56.9-56.9v113.8c31.5 0 56.9-25.5 56.9-56.9z" class="st154"/>
      </g>
      <g id="Casw_bow">
        <path d="M641.1 707.4c0 .2-.1.3-.3.3-.2 0-.3-.1-.3-.3V668c0-.2.2-.3.3-.3.2 0 .3.1.3.3v39.4z" class="st155"/>
        <path d="M640.3 668.1l-.8-1.3v4.1l1 1v-3.6z" class="st156"/>
        <path d="M641.1 690.1V668c0-.2-.1-.3-.3-.3v22.5h.3z" class="st157"/>
        <path d="M641.1 668.1l.9-1.3v4.1l-1 1v-3.6z" class="st156"/>
        <path d="M644.7 707.2c0 .2-.1.3-.3.3-.2 0-.3-.1-.3-.3v-39.4c0-.2.2-.3.3-.3.2 0 .3.1.3.3v39.4z" class="st155"/>
        <path d="M644 667.9l-.9-1.3v4.1l1 1v-3.6z" class="st156"/>
        <path d="M644.7 689.9v-22.1c0-.2-.1-.3-.3-.3V690h.3z" class="st157"/>
        <path d="M644.7 667.9l.9-1.3v4.1l-1 1v-3.6z" class="st156"/>
        <path d="M648.4 707.3c0 .2-.1.3-.3.3-.2 0-.3-.2-.3-.3v-39.4c0-.2.2-.3.3-.3.2 0 .3.2.3.3v39.4z" class="st155"/>
        <path d="M647.7 668l-.9-1.3v4.1l1 1.1v-3.7z" class="st156"/>
        <path d="M648.4 690v-22.1c0-.2-.1-.3-.3-.3V690h.3z" class="st157"/>
        <path d="M648.4 668l.9-1.3v4.1l-1 1.1v-3.7z" class="st156"/>
        <path d="M651.2 689.1v72.3h-9s-1.3-27.4-5.5-39.9c-4.3-12.6 1.3-28.6 6-34.4 4.7-5.8 8.5-6.7 8.5-6.7v8.7z" class="st20"/>
        <path d="M635.3 707h15.8v-1.2h-15.7c0 .4 0 .8-.1 1.2z" class="st158"/>
        <path d="M651.2 707.7h-15.9c-.1 1.3-.2 2.6-.2 4h16.1v-4z" class="st159"/>
        <path d="M643.1 686.5v74.9h8v-81c.1 0-3.5.9-8 6.1z" class="st157"/>
      </g>
      <g id="Bow">
        <path d="M687.11949774 749.20238303l1.4780976-67.08658.9998.02202828-1.4780976 67.08658z" class="st160"/>
        <path d="M689.1 754.7s-2.4-2-2.5-5.5c0-2.3 1-5.3 4.5-8.7 8.8-8.7 18.1-18.6 14.6-30.4-3.5-11.8-5.9-14.7-8.9-17.8-3-3.1-8-4.9-8.4-10.2-.3-5.2 2.3-7.7 2.3-7.7s-1.6 5.5.4 8.9c2 3.3 10.4 11.2 13.8 17.4 3.4 6.2 6.7 9.9 5.3 12.1-1.3 2.2-1.8 3.1-1.5 4.3.2 1.2 3.1 1.4-1.1 7.9s-14.9 14.8-16.5 18.6c-1.6 3.8-2.3 3-2 11.1z" class="st161"/>
      </g>
    </g>
  </g>
  <g id="Surfing_1_">
    <g id="Background_22_">
      <circle id="Background_2_22_" cx="1172.7" cy="695.8" r="65.5" class="st162"/>
    </g>
    <g id="Surfing_2_">
      <g id="Sea">
        <circle cx="1172.9" cy="699.6" r="69.3" class="st163"/>
        <path d="M1103.6 699.6c0-5.1.6-10.2 1.6-15 1.2-1.4 2.5-2.5 3.5-2.7 3-.5-1.8 11.8 13.3-6.2 15.1-18 33.7-11.8 37.3-12.7 3.6-.9 8.5 2.4 3.5 4.7-5 2.4-2.4 8.9 1.8 7.1 4.1-1.8 7.4.3 8.6 3.5 1.2 3.2.6 10.9 6.5 8 5.9-3 9.7 1.8 13.7 3.3 3.9 1.5 7.3-2.9 22.1-3.2 9.1-.2 19.6 2.3 26.3 4.3.4 3 .6 6 .6 9 0 38.3-31 69.3-69.3 69.3s-69.5-31.1-69.5-69.4z" class="st164"/>
        <path d="M1151.5 764s32-10.1 43.2-42.1c11.2-32 1.4-5-1.2-1.7-2.5 3.3.3-10.9 4.7-19.1 4.4-8.2-3.7-.8-6.7 4.3s-1.6-1-1.6-4.3-5 9.5-7 10.5c-1.9.9-7.1.6-5.3-3.3 1.8-3.9-2.2 1.2-4.5 6.2-2.4 5-8.3 7.7-6 5.1 2.2-2.6-2 3.5-4.5 8-2.4 4.4-14.7 20.9-11.1 36.4z" class="st59"/>
        <path d="M1185.1 702.6s-1.9 6.8 0 3.4 3.1-5.9 2.8-4.4c-.3 1.5-2 3.3 0 2.6 2.1-.7 2.4 0 3.3 1.5.9 1.5-.2 4.7 2.3 1.8 2.6-2.9 4-3.8 2.4-.6-1.7 3.3 1.2 2.3 1.3.8.1-1.5 1.8-6.5.8-6.6-1-.1-5.4-1.5-5.7-1.6-.3-.1-3.6-1.2-3.8-1.2-.2 0-2.4 2.2-2.4 2.2l-1 2.1z" class="st59"/>
        <path d="M1184 702.2s-3.2-3.2-.4-3.5c2.9-.3 2.3-3 4.1-2.9 1.9.1 2.5 3.5 4.7 2.9 2.3-.6 3.9-5.8 6.8-2.9s.5 9.2-1.2 11.7-3.5 5.4-3.5 5.4-2.1 2.5.5-3c2.6-5.4 3.6-7.9 1.2-6.8-2.5 1.1-1.7 3.5-2.3 3.8-.6.3-1.3-.6-1.4-2.8-.1-2.2-2.1-.8-3.8 1.3-1.8 2.2-4.7 1.8-2.6-.3 2.2-2.1 4.3-8 1.7-4.4-2.7 3.5-3.8 7-4.1 7.5-.3.5-1.1-2.6-.4-4.1.6-1.4.7-1.9.7-1.9z" class="st58"/>
        <path d="M1105.2 684.6c1.2-1.4 2.5-2.5 3.5-2.7 3-.5-1.8 11.8 13.3-6.2 15.1-18 33.7-11.8 37.3-12.7 3.6-.9 8.5 2.4 3.5 4.7-5 2.4-2.4 8.9 1.8 7.1 4.1-1.8 7.4.3 8.6 3.5 1.2 3.2.6 10.9 6.5 8 5.9-3 9.7 1.8 13.7 3.3 3.9 1.5 7.3-2.9 22.1-3.2 9.1-.2 19.6 2.3 26.3 4.3.3 2.1.5 4.2.5 6.4-3 .7-6.6 1.5-8.1 1.7-2.9.5-8.7-3.4-13.9-2.9-5.3.5-7.3-2.6-12.8-2.8-5.5-.1-3.9 2.2-10 4.3-6.1 2.2-12.7-5.1-17.7-5.6-5-.6-11.2 2.7-14.3.1-3.1-2.6 0-7.4-3.4-8.8-3.4-1.4-4.4-9.4-8.5-8.2-4.1 1.2-2.4 10.4-2.4 10.4s-1.8-2-1.1-7.6 3.1-7.2 2.6-6.9c-.5.3-5.5 1.9-8.3 3-2.8 1.1 0 11.9 0 11.9-2.5-1.7-3.1-6.6-3.7-9.9-.7-3.2-2.3-3.9-5.8-2.3-3.6 1.7-2.8 11.5-2.8 11.5-2.5-3.7-1.2-7.8-1.2-7.8-3.4 2.8-1.1 13.2-1.1 13.2-2.7-3.2-1.7-10.8-2.2-9.6-.5 1.2-5 9.6-8.7 12.9-3.7 3.3-7.7 1.1-10.1 3.6-1.4 1.5-3.6 1.4-5.1 1.1 0-4.7.5-9.3 1.5-13.8z" class="st165"/>
        <path d="M1105.2 684.6c1.2-1.4 2.5-2.5 3.5-2.7 3-.5-1.8 11.8 13.3-6.2 15.1-18 33.7-11.8 37.3-12.7 3.6-.9 8.5 2.4 3.5 4.7-5 2.4-2.4 8.9 1.8 7.1 4.1-1.8 7.4.3 8.6 3.5 1.2 3.2.6 10.9 6.5 8 5.9-3 9.7 1.8 13.7 3.3 3.9 1.5 7.3-2.9 22.1-3.2 9.1-.2 19.6 2.3 26.3 4.3.2 1.5.3 3.1.4 4.6-2-1.1-5.3-2.3-8.7-.4-5.3 3-6.8 0-9.1-1.8-2.2-1.8-6-.8-10.2 0-4.2.8-5.5-.8-8.7-1.6-3.2-.8-5.6 3.7-11.1 4.4-5.5.7-7.5-2-9.7-3.5-2.2-1.4-6.7-3.4-12.4.1-5.6 3.5-6.8-3.2-8-5.8-1.2-2.6-3-5.1-5.8-5.1s-6.6-5.9-4.5-9.5c2.1-3.5 5.5-5.6 2.1-4.5-3.4 1.2-3.8-.4-5.5-.9-1.7-.5.5 5.1-6.2 5.3-6.7.1-12.6-.9-13.8 1.8-1.2 2.8-4.3 5.4-5.3 5.4-.9 0-3.8 10.7-10.8 13.7-7 2.9-5.6-1.8-6.1 1-.5 2.6-2.1 4.5-4.9 3.1.3-4.3.8-8.4 1.7-12.4z" class="st58"/>
      </g>
      <g id="Board_1_1_">
        <path d="M1150.2 756.8s2-14.8 10.1-25.2c8.1-10.5 13.9-18.6 21.8-22.2 0 0 13.9-5.9 9.7 11.9 0 0-4.4 10.9-12.8 20.9-8.4 10-18.2 16.5-21.5 17.8-3.3 1.3-8 3.1-7.3-3.2z" class="st166"/>
        <path d="M1164.9 725.7c5.8-7.5 11.2-13.6 17.2-16.3 0 0 13.9-5.9 9.7 11.9 0 0-.5 1.3-1.5 3.3-10.2-1.4-20.5.1-25.4 1.1z" class="st167"/>
        <path d="M1168.2 721.6c.6-.8 1.3-1.5 1.9-2.2 1.1.2 2.8.4 5.5.3 6-.2 8.3-10 8.3-10s0 4.8-2.1 9.5c-1.9 4.1-11.2 3-13.6 2.4z" class="st168"/>
        <path d="M1162.5 728.8c8.8-2.8 20.8-1.3 25.9-.5-2.1 4-5.3 9.1-9.4 14-1.6 1.9-3.1 3.6-4.7 5.2-22.8 3.7-21-6.8-11.8-18.7z" class="st169"/>
        <path d="M1150.2 756.8s.5-3.1 1.6-7.4c3.6 1.6 10.1 4.3 16 3.8-4.6 3.8-8.5 6.1-10.4 6.9-3.2 1.2-7.9 3-7.2-3.3z" class="st167"/>
        <path d="M1151.9 752.3s-1.6 6.9.3 7c1.9.1 7.9-1.7 10-4.1 0 0-.7.4-4-.7-3.4-1.2-6.3-2.2-6.3-2.2zm9.3-15.9s.3-7.8 11.8-7c11.5.8 15.1 1.4 9.9 4.2-5.1 2.8-20.8 7.3-21.7 2.8z" class="st170"/>
      </g>
    </g>
  </g>
  <circle cx="1201.5" cy="656.2" r="13.4" class="st2"/>
  <linearGradient id="XMLID_5_" x1="1334.6254" x2="1328.1758" y1="565.6915" y2="567.2741" gradientUnits="userSpaceOnUse" gradientTransform="matrix(-0.597 0.8022 0.8022 0.597 1519.212 -685.579)">
    <stop offset="0" stop-color="#EEB3A3"/>
    <stop offset=".5" stop-color="#ECCDC8"/>
    <stop offset="1" stop-color="#ECCDC8"/>
  </linearGradient>
  <path id="XMLID_3_" d="M1172.3 722.7c.8-.3 2.2-.7 2.9-.9.3-.1.5 0 .7.3l2.5 3.8c.2.3.6.4.9.2 1.1-.8 3.7-2.8 3.8-3.1 0-.6-2.6.1-3.6.5-.2.1-.5 0-.7-.2-.8-.9-3.1-3.6-3.3-3.6-1-.1-3.1.8-4.1 1.3-.3.2-.4.5-.3.8l.3.7c.2.2.6.3.9.2z" class="st171"/>
  <linearGradient id="XMLID_6_" x1="1353.2817" x2="1364.4623" y1="563.8347" y2="563.8347" gradientUnits="userSpaceOnUse" gradientTransform="matrix(-0.597 0.8022 0.8022 0.597 1519.212 -685.579)">
    <stop offset="0" stop-color="#EEB3A3"/>
    <stop offset=".5" stop-color="#ECCDC8"/>
    <stop offset="1" stop-color="#ECCDC8"/>
  </linearGradient>
  <path id="XMLID_2_" d="M1162.2 733.1c-.3.3-.9 3.3-.9 3.3l4.8 5.3s-4.2 4.8-4.8 4.7c-.9-.1 1.3-3.9 1.5-4.5 0 0-3.6-3.7-4-5.1-.4-1.3 1.2-4 1.2-4l2.2.3z" class="st172"/>
  <linearGradient id="SVGID_11_" x1="1221.0277" x2="1229.7828" y1="905.4793" y2="864.1786" gradientUnits="userSpaceOnUse" gradientTransform="matrix(-0.886 0.4636 0.4636 0.886 1841.7952 -623.5043)">
    <stop offset="0" stop-color="#F4DECC"/>
    <stop offset=".4022" stop-color="#F4DECB"/>
    <stop offset=".6142" stop-color="#F3DCC8"/>
    <stop offset=".7533" stop-color="#F0D6C0"/>
    <stop offset=".8715" stop-color="#EBCCB1"/>
    <stop offset=".9774" stop-color="#E3BD9C"/>
    <stop offset="1" stop-color="#E1B996"/>
  </linearGradient>
  <path d="M1142.9 734.7c0-.1.3-.3 1.6-1.6-.8.5-1.8.9-2 .6-.1-.2.7-.6 1.5-1-.5.1-.9.2-1 0-.1-.1.7-.4 1.5-.7-.2 0-.3-.1-.4-.2 0-.2 1-.4 1.7-.7l.6-.9s3.6-6.5 5.1-9.1c.1-.2.5-1.8 2.2-4-.1-.9-1.7-1.7-2-1.9 0 0 1.6-2 1.6-2.2 0 0 .8 1.5 2.5 1.5 1.9-2.4 3.3-2.3 3.5-2.4 2.8-1.3 10.3-4.7 10.3-4.7.3-.2.6-.3.9-.5.3-.7.7-1.7.8-1.7.1 0 .1.2.1.4.3-.7.7-1.5.8-1.4.2.1.1.5 0 1 .5-.7 1-1.5 1.2-1.4.3.2-.2 1.1-.8 1.9 1.4-1.1 1.7-1.4 1.8-1.4.9.4-1.2 1.9-2.4 3-.3.3-.2.8-.1.9.3.1.8.3 1.1.6 1.2 1.2-.7.6-1.3.4-1-.3-1.6-.4-1.6-.4-3.1 1.6-6.2 3.1-9.4 4.7-.3.2-.3.5-.1.8 4.8 7.1 10.4 10.4 9.4 11.6-1.3 1.6-.7 2.4-1.9 3.7-1.3 1.3-1.1.8-3.1.6-1.7-.1-5.1-5.2-8.1-6.8-.4-.2-3.1-2.1-3.4-1.7-1.7 2.7-4.2 6.5-5.8 9.1 0 0 0 .6.2 1.6.1.6.6 2.6-.5 1.3-.3-.3-.4-.9-.5-1.2 0-.1-.5-.2-.9.1-1.1 1-2.8 3-3.1 2.1z" class="st173"/>
  <linearGradient id="XMLID_7_" x1="1341.1904" x2="1344.2936" y1="546.0272" y2="567.1693" gradientUnits="userSpaceOnUse" gradientTransform="matrix(-0.597 0.8022 0.8022 0.597 1519.212 -685.579)">
    <stop offset="0" stop-color="#E3967A"/>
    <stop offset=".5281" stop-color="#DB7353"/>
    <stop offset=".7303" stop-color="#D85E43"/>
    <stop offset="1" stop-color="#D44731"/>
  </linearGradient>
  <path id="XMLID_1_" d="M1166.9 721.6c.7-.5 8.7-2.5 8.8-2.5.2 0 1.4 7.1 1.3 7.3-2.5.3-6.3 1.1-8.1 2.8-1.8 1.7-1.1 5.1-2.2 7.3-.7 0-6.3-.9-7.6-1.5-.6-.3 2.5-7.2 2.5-7.2 1.6-1.9 3.8-4.2 5.3-6.2z" class="st174"/>
  <linearGradient id="SVGID_12_" x1="1231.0286" x2="1226.2039" y1="862.8448" y2="861.457" gradientUnits="userSpaceOnUse" gradientTransform="matrix(-0.886 0.4636 0.4636 0.886 1841.7952 -623.5043)">
    <stop offset="0" stop-color="#956752"/>
    <stop offset="1" stop-color="#391E12"/>
  </linearGradient>
  <path d="M1152.5 711.7c0-.1-2-2.9-2-3.3v-2.1s.4.2.9.4l-.1-.3s1.3.4 2 1 1.5 1 1.5 1-.3.2-.8.1l-.5-.1s.4.7 1 1c.6.3 1 .3 1 .3s.1.1-.8.1c-.4 0-.6-.1-.8-.1v.1c.2.1.5.4 1 .9.7.7.9 1.3.8 1.1s-.6-.4-.6-.4.5 1.9.4 1.7c-.1-.2-.9-1.4-1-1.3 0 .2.1.6 0 1-.1.5-.2 1.3-.2 1 0-.3-.2-.4-.2-.4s-.3 1.3-.3 1.1c0-.1-1.3-2.7-1.3-2.8z" class="st175"/>
  <path d="M1145.8 715c-.2 0-.6-.3-.9.3-.3.6.5 1.3 1.3 1.6.9.4 2.6.8 1.5-.5-.5-.6-1.9-1.4-1.9-1.4z" class="st176"/>
  <radialGradient id="SVGID_13_" cx="36.8674" cy="664.2058" r="5.546" gradientTransform="matrix(0.7234 -0.6904 0.6904 0.7234 664.0004 257.2755)" gradientUnits="userSpaceOnUse">
    <stop offset="0" stop-color="#F4DECC"/>
    <stop offset=".4022" stop-color="#F4DECB"/>
    <stop offset=".6142" stop-color="#F3DCC8"/>
    <stop offset=".7533" stop-color="#F0D6C0"/>
    <stop offset=".8715" stop-color="#EBCCB1"/>
    <stop offset=".9774" stop-color="#E3BD9C"/>
    <stop offset="1" stop-color="#E1B996"/>
  </radialGradient>
  <path d="M1146.9 716.4c5.9 4.2 9.9-2.6 6.2-7.4-1.3-1.6-2.5-3.9-4.8-3.2-2.2.6-5.3 5.3-5.3 6.8-.1 1.4 1.6 2.2 3.9 3.8z" class="st177"/>
  <linearGradient id="SVGID_14_" x1="30.5702" x2="34.1299" y1="662.497" y2="662.497" gradientUnits="userSpaceOnUse" gradientTransform="matrix(0.7234 -0.6904 0.6904 0.7234 664.0004 257.2755)">
    <stop offset="0" stop-color="#956752"/>
    <stop offset="1" stop-color="#391E12"/>
  </linearGradient>
  <path d="M1143.5 710.9c.1.1 1.4.9 1.4.9-2.3 2.5-.5 3 2.2 4.9-3.3-.8-6.5-2.6-4.5-4.6.7-.9.9-1.2.9-1.2z" class="st178"/>
  <path d="M1152.1 713.5c.7 1.3-.2 2.7-1.7 2.3l1.7-2.3z" class="st179"/>
  <path d="M1151.9 713.7c.5.5-.8 2.4-1.4 1.9l1.4-1.9z" class="st52"/>
  <linearGradient id="SVGID_15_" x1="-.5261" x2="2.218" y1="435.9606" y2="435.9606" gradientUnits="userSpaceOnUse" gradientTransform="matrix(0.4944 -0.8693 0.8693 0.4944 769.8348 495.68)">
    <stop offset="0" stop-color="#956752"/>
    <stop offset="1" stop-color="#391E12"/>
  </linearGradient>
  <path d="M1149.1 711.6c0-.1 0-.7.2-1.3.3-.5.8-.9.6-1-.1-.1-.6.1-.9.6-.3.5-.5 1-.4 1.5.1.5.3.5.4.4.1-.1.1-.2.1-.2z" class="st180"/>
  <path d="M1150 714.8c-.1 0-.2 0-.1-.2s.5-.6.5-.5c0 .2-.4.7-.4.7z" class="st181"/>
  <path d="M1149.7 710.9c.2-.2.5-.2.7 0s.3.5.1.7c-.2.2-.5.2-.7 0-.2-.2-.3-.6-.1-.7z" class="st182"/>
  <path d="M1149.9 710.8c0-.1.1-.1.2 0s.1.2.1.2c0 .1-.1.1-.2 0-.1 0-.1-.1-.1-.2z" class="st52"/>
  <linearGradient id="SVGID_16_" x1="1182.5934" x2="1185.3376" y1="677.9163" y2="677.9163" gradientUnits="userSpaceOnUse" gradientTransform="matrix(-0.6926 0.7213 0.7213 0.6926 1477.5923 -609.3223)">
    <stop offset="0" stop-color="#956752"/>
    <stop offset="1" stop-color="#391E12"/>
  </linearGradient>
  <path d="M1147.5 713.7c-.1 0-.7.2-1.2.6s-.7 1-.8.9c-.1-.1 0-.6.3-1.1s.8-.8 1.3-.9.5.2.4.3c.1.2 0 .2 0 .2z" class="st183"/>
  <path d="M1146.9 714.7c.1-.2.4-.3.7-.1.3.1.4.5.3.7-.1.2-.4.3-.7.1-.3-.2-.4-.5-.3-.7z" class="st182"/>
  <path d="M1147.1 714.6c0-.1.1-.1.2-.1s.1.1.1.2-.1.1-.2.1c-.1-.1-.1-.2-.1-.2z" class="st52"/>
  <linearGradient id="SVGID_17_" x1="1239.7859" x2="1227.3973" y1="860.2603" y2="856.6969" gradientUnits="userSpaceOnUse" gradientTransform="matrix(-0.886 0.4636 0.4636 0.886 1841.7952 -623.5043)">
    <stop offset="0" stop-color="#956752"/>
    <stop offset="1" stop-color="#391E12"/>
  </linearGradient>
  <path d="M1140.8 708.1s0 .6.4 1c0-1.3 1-2.7 1-2.7l.4 1.4c.4-1.7 2.6-3.4 2.5-3.3-.1.1 0 .5 0 .8.2-.4.5-.7.9-.9.9-.6 1.6-.8 1.6-.8l-.3.6c1.7-.8 3 0 3 0l-.9.2c.3 0 .9 0 1.5.3.7.3 1.2.7 1.4 1h-.6s.9.3 1.2 1c0 0-.9 0-1.1.1.1.2.1.6.1.6s-.7-.3-.5.3c0 .1 1.7 2.7 1.5 2.3-.1-.1-1.9-1.8-2.6-2.5-.7-.7-.9-.8-1-.7-3.1.9-4 4.2-4.5 5-2.1 3.2-5.7.3-4-3.7z" class="st184"/>
  <path d="M1152.9 709.8c-.4-.4-1.9-1.8-2.5-2.4-.7-.7-.9-.8-1-.7-3.1.9-4 4.2-4.5 5-2.2 3.3-5.8.3-4.1-3.6 0 0-.3 1.7 0 2.7.3.9 1.2 1.5 2.3 1.4s1.8-1 1.8-1 1.1-2.1 1.6-2.9c.6-.8 2.1-1.8 2.6-1.8.5-.1 2.5 1.8 2.9 2.3.2.2.7.7.9 1z" class="st185"/>
  <path d="M1151.6 707.5c0-.2-.3-.6.2-1 .6-.3 1.3.5 1.6 1.2.4.9.8 2.6-.5 1.5-.5-.2-1.3-1.7-1.3-1.7z" class="st176"/>
  <linearGradient id="SVGID_18_" x1="41.7454" x2="42.908" y1="663.5857" y2="663.5857" gradientUnits="userSpaceOnUse" gradientTransform="matrix(0.7234 -0.6904 0.6904 0.7234 664.0004 257.2755)">
    <stop offset=".011236" stop-color="#EAC4B5"/>
    <stop offset=".5" stop-color="#DF9778"/>
    <stop offset="1" stop-color="#B56F5D"/>
  </linearGradient>
  <path d="M1152.5 707c.2.1.9 1.5.9 1.8s-.1.6-.4.4c-.3-.2-.2-.9-.4-1l-.4-.2c-.7-.6 0-1.2.3-1z" class="st186"/>
  <path d="M1142.6 707.8l-.4-1.4s0 .1-.1.2c-.7 1.1.3 3.2.9 3.7-.7-1.6 1.1-4.5 2.2-5.7h-.1c-.5.2-2.1 1.7-2.5 3.2zm8.3-1c-4.3-2.4-6.3 2.9-6.2 2.7 0-.2-.3-.8.7-2.1 1-1.4 2.2-1.8 2.2-1.8-.1 0 0-.2-1.2.4-1.2.6-2.1 2-2.1 2 .4-2.5 2.6-3.5 4.5-3.1 1.1.2 3.4 2.4 2.5 1.8l-1.3-.8.9.9z" class="st185"/>
  <path d="M1152.6 714.8l-.6.9c-.1.1.2 0 .3-.2.1-.2.3-.3.3-.7z" class="st181"/>
  <linearGradient id="SVGID_19_" x1="1230.6616" x2="1234.6003" y1="866.6826" y2="858.6647" gradientUnits="userSpaceOnUse" gradientTransform="matrix(-0.886 0.4636 0.4636 0.886 1841.7952 -623.5043)">
    <stop offset="0" stop-color="#956752"/>
    <stop offset=".4492" stop-color="#644030"/>
    <stop offset=".8035" stop-color="#45271A"/>
    <stop offset="1" stop-color="#391E12"/>
  </linearGradient>
  <path d="M1150 716c0-.1 1.9-2.8 2-2.8s1.4.3 1.6.4c.2.2.4-1.2.1-2-.2-.8-2.4-3.8-2.4-3.8s.8.6 1.8 1.3c3.2 4.3.4 10.1-4.4 8.3.7 0 2.3-.2 2.4-.3.1-.2-1.1-1-1.1-1.1z" class="st187"/>
  <path d="M966.5 342.1l-.5 13.5 8.6-2 6.7-2 8-5.3 5.6-4.2z" class="st134"/>
  <g id="Footbal_Champion_2_">
    <g id="Goal_Post">
      <path d="M67.8 124.1V78.6c0-1.6 1.3-2.9 2.9-2.9h93.1c1.6 0 2.9 1.3 2.9 2.9V124h3.1V78.6c0-3.3-2.7-6-6-6H70.7c-3.3 0-6 2.7-6 6V124h3.1z" class="st58"/>
      <path d="M81.4 120V86.3c0-1.2.9-2.1 2.1-2.1H151c1.1 0 2.1 1 2.1 2.1V120h2.2V86.3c0-2.4-1.9-4.4-4.3-4.4H83.5c-2.4 0-4.3 2-4.3 4.4V120h2.2z" class="st58"/>
      <path d="M80.4 86h73.5v.7H80.4zm0 5.6h73.5v.7H80.4zm0 6.4h73.5v.7H80.4zm0 6.6h73.5v.7H80.4zm.1 8.1H154v.7H80.5zm-.1 6.2h74.9v.7H80.4z" class="st58"/>
      <path d="M88.1 83.7h.8v35.9h-.8zm6.1 0h.8v35.9h-.8zm7 0h.8v35.9h-.8zm7.4 0h.8v35.9h-.8zm7 0h.8v35.9h-.8zm7.1 0h.8v35.9h-.8zm6.9 0h.8v35.9h-.8zm7.1 0h.8v35.9h-.8zm7.9.4h.8V120h-.8zm-64.93881-8.58313l.9603-.2791 2.5119 8.6427-.9603.2791zM66.18329298 87.30119484l14.16592-.9911654.06980038.9976-14.16592.9911654zm.0024873 4.9995114l14.16592-.990498.06975338.9976-14.16592.990498zm-1.40530384 6.38923374l14.1645-.99451716.07003642.9975-14.1645.99451716zm-.00135962 6.5998l14.1645-.99451716.07003642.9975-14.1645.99451716zm.00097374 8.1001794l14.1645-.9950805.0700761.9975-14.1645.99508048zm1.40453636 5.81178185l14.16592-.99050765.06975406.9976-14.16592.99050765zm88.70540584-32.5012601l14.16592-.9911654.06980038.9976-14.16592.9911654zm-.0047979 4.89971497l14.16592-.99050765.06975407.9976-14.16592.99050766zm-1.400114 6.3950957l14.16592-.99050766.06975405.9976-14.16592.99050765zm.00617874 6.70070987l14.16592-.9911654.06980038.9976-14.16592.9911654zm-.00679407 7.99991013l14.16592-.99050766.06975406.9976-14.16592.99050765zm1.40658897 5.9050843l14.16592-.99050765.06975405.9976-14.16592.99050766zM67.82578 75.76796l.609-.7932 12.05664 9.2568-.609.7932zm86.17587 9.17327l12.06424-9.24616.6083.7937-12.06424 9.24616zm-67.23344-9.91148l.9605-.2783 2.5047 8.6445-.9605.2783zm5.67891-.82291l.9604-.2786 2.5074 8.6436-.9604.2786zm6.11075-.59452l.9604-.2785 2.5065 8.6436-.9604.2785zm7.38975.58732l.9604-.2786 2.5074 8.6436-.9604.2786zm16.77593 8.4934l2.5065-8.6436.9604.2785-2.5065 8.6436zm6.68924.46226l2.5056-8.6445.9605.2784-2.5056 8.6445zm7.29962-.00085l2.5056-8.6445.9605.2784-2.5056 8.6445zm8.33069.05732l2.5065-8.6436.9604.2785-2.5065 8.6436zm7.21491.36938l2.5065-8.6436.9604.2785-2.5065 8.6436zm-36.76901285-9.67955447l1-.00248575.02237177 9-1 .00248575z" class="st58"/>
    </g>
    <g id="Player">
      <path d="M116.8 132.6c-.3.6 0 1.3.6 1.5.6.3 1.3 0 1.5-.6l1.2-2.7c.3-.6 0-1.3-.6-1.5-.6-.3-1.3 0-1.5.6l-1.2 2.7z" class="st131"/>
      <path d="M117.6 131.6c-.2.5 0 1 .4 1.2.4.2 1 0 1.2-.5l.9-2.1c.2-.5 0-1-.4-1.2-.4-.2-1 0-1.2.5l-.9 2.1z" class="st188"/>
      <path d="M117.5 130.9c-.3.5-.2 1.1.3 1.4.5.3 1.1.2 1.4-.3l3.9-6.2c.3-.5.2-1.1-.3-1.4-.5-.3-1.1-.2-1.4.3l-3.9 6.2zm1.3 14.8c-.2.5 0 1.1.4 1.3.5.2 1.1 0 1.3-.4l9.1-18.1c.2-.5 0-1.1-.4-1.3-.5-.2-1.1 0-1.3.4l-9.1 18.1zm20.3-42.2s-1-2.3-1-2.8 1.6-1.7 1-4.8c-.6-3-2.9-4.9-5.6-4.1-2.6.8-3 3.7-1.6 6.9s.3 5.6.3 5.6l3.5 3.2 3.4-4z" class="st189"/>
      <path d="M134.1 123.8l-1.2 2.3-2.2 4.4-4.8-2.6 1.1-3.2-2.7 2.6-3.8-1.9 2.4-6.5z" class="st190"/>
      <path d="M125.2 105.2s-7.5 2.2-10.7 5.4l-2.3 2.6 1.2.1s5.4-4.7 11.8-6.2v-1.9z" class="st189"/>
      <path d="M122.9 118.9l11.2 4.9-1 2.1-6.3-3.9-4.7-1z" class="st53"/>
      <path d="M142.1 102.7s1.7-5.1 5.6-4.6c3.3.4 3.6 6.1 4 7.5h-1.5s-1.7-11.9-7.5-1.9l-.6-1z" class="st189"/>
      <path d="M141.3 108.2l-6.4 15.9-12.2-4.6 4.2-11.3h-1.8l-.2-3.7 7.7-1.5 3.3 4.3 2.9-4.6 3.9-2-.1 6.8z" class="st191"/>
      <path d="M151.7 105.3s1.3.8 1 1.6c-.3.8-1.8.5-1.8.5s-.1.1-.3.1c-.2-.1-.5-1.1-.2-2 .4-.9 1.3-.2 1.3-.2zm-38.9 7.7s-1.3.5-1.7.4c-.5-.1-2.2.3-2.3.6-.1.2.3.1 1 0s-1.2.7-1.4 1.2c-.1.5 1.1-.7 1.4-.7.4 0-1.2.8-1.2 1.1 0 .3 1.1-.3 1.4-.5.3-.2-1.5.8-1.1 1 .4.2.9-.6 1.3-.7.4-.2.3.4.2.8-.1.3.3.9.5.2.2-.6 1-1.2 1.7-1.8.7-.6.9-1.1.9-1.1l-.7-.5zm25.7-16.8c.1.4.4.7.9.6.4-.1.7-.4.6-.9l-.1-.4c-.1-.4-.4-.7-.9-.6-.4.1-.7.4-.6.9l.1.4zm-7.9 1c.1.4.4.7.9.6.4-.1.7-.4.6-.9l-.1-.4c-.1-.4-.4-.7-.9-.6-.4.1-.7.4-.6.9l.1.4z" class="st189"/>
      <path d="M116.8 147.9c.1-.9.9-1.6 1.9-1.6h1.2c1 0 1.7.7 1.9 1.6h-5z" class="st131"/>
      <path d="M118.2 146.4c.2 0 .3-.1.5-.1h1.2c.2 0 .5 0 .7.1-.2.2-.5.4-.9.4h-.5c-.5 0-.8-.2-1-.4z" class="st188"/>
      <path d="M139.3 96.6s-.8-2.3-1.8-3c-1-.7-1.4-.1-2.1-.5 0 0-2 .3-2.7 1.9-.6 1.6-.4 3-.4 3l-.5-.7.3 1.1s-1.3-2.3-1.6-3c-.3-.7 0-2.4.6-3.2.6-.7-.6.4-.7 1.4 0 0 0-1.6 1.1-2.3 0 0-.3-.7.2-1.2 0 0-.1.8.1 1 0 0-.1-.6.4-1 .4-.4 1.4-.4 1.4-.4s-.9.2-1 .5c0 0 2.5-1.3 5 .1 2.6 1.4 2.9 3.3 2.9 3.3l-1.7-1.7s1.2 2.8 1.2 3.2l-1.6-2.4.9 3.9z" class="st131"/>
      <path d="M138.8 102.7l.4-.1-3.3 5.1-3.5-4.7h.2l3.2 4.2z" class="st58"/>
      <path d="M122.7 119.5l4.2-11.3h-1.8l-.2-3.7 7.7-1.5 3.1 4 .1.5-5.8 14.8z" class="st59"/>
    </g>
    <g id="Ball_2_">
      <circle cx="109.5" cy="139.2" r="5.3" class="st192"/>
      <path d="M110.1 144.5c2.7-.3 4.8-2.5 4.8-5.3 0-3-2.4-5.3-5.3-5.3-.4 0-.9.1-1.3.1 1.9 1.2 6 4.6 1.8 10.5z" class="st58"/>
      <path d="M113.3 141.2c-.5 1.3-1 2.2-1.5 2.9 1.8-.8 3.1-2.7 3.1-4.9 0-2.7-1.9-4.9-4.5-5.3 1.9 1.6 4.1 4.2 2.9 7.3z" class="st193"/>
      <path d="M106.6 137.6l-.2-1.7 1.4-1 1.5.7.2 1.7-1.4 1zm6.8 5.3l-.1-.1-1.4 1v.1c.6-.2 1.1-.6 1.5-1zm-5.3.8l-1.4-.9v-1.7l1.4-.8 1.5.8v1.7zm5.1-3.1l-1.6-.7-.1-1.7 1.4-1 1.5.8.2 1.7zm-2-6.5v.3l1.6.7.1-.1c-.5-.4-1.1-.7-1.7-.9zm-6.8 6.4l.4-.3-.1-1.7-.4-.2c0 .3-.1.6-.1.9 0 .4.1.9.2 1.3z" class="st194"/>
      <path d="M108.1 140.3c-.1-.7 0-2 0-2h.1s-.1 1.2 0 2h-.1zm1.5.9c0-.1 1-.4 2-1.3l.1.1c-1 .8-2.1 1.2-2.1 1.2zm1.8-2.9s-1-.8-1.9-.9v-.1c1 .1 2 .8 1.9 1zm1.4-1s.2-1.2-.1-2.2h.1c.3 1 .1 2.2.1 2.2h-.1zm-1.5-2.9s-1.3.5-2 1.3l-.1-.1c.7-.9 2-1.4 2-1.4l.1.2zm-6.5 5.8c.1-.1.9.6 2.2.9v.1c-1.4-.3-2.2-1-2.2-1zm1.8-2.7v.1s-1.1.3-2.1 1.1l-.1-.1c1.1-.8 2.2-1.1 2.2-1.1zm6.8 5.4h-.1s.2-1.1-.2-2.3h.1c.4 1.2.2 2.3.2 2.3zm-4-.1l.1-.1s.9.8 2.5 1.1l-.1.1c-1.5-.3-2.4-1.1-2.5-1.1zm-3.4.3c0 .1 0 .1 0 0l.8-.3v-.1l-.8.4zm7.9-5s.1 0 0 0l.8-.1v-.1l-.8.2zm.2 1.3v.1l.7.4v-.1l-.7-.4zm-8.5-3.8v.1l.8.2v-.1l-.8-.2zm2.4 8.7h.1l.1-.7h-.1l-.1.7z" class="st131"/>
    </g>
  </g>
  <path d="M759 566.1v21.1c0 15-12.2 27.2-27.2 27.2H589.1c-14.9 0-27.2-12.2-27.2-27.2v-20.9m-.5-298.9v-23.3c0-15 12.2-27.2 27.2-27.2h142.7c14.9 0 27.2 12.2 27.2 27.2l.5 23.3" class="st195"/>
  <path d="M562 570.1V260.2" class="st135"/>
  <circle cx="660.7" cy="592.7" r="14.4" class="st196"/>
  <path d="M676.1 240.1h-31.4c-.7 0-1.3-.6-1.3-1.3 0-.7.6-1.3 1.3-1.3H676c.7 0 1.3.6 1.3 1.3.2.7-.4 1.3-1.2 1.3z" class="st197"/>
  <circle cx="660.4" cy="225.6" r="1.9" class="st197"/>
  <circle cx="629.5" cy="238.8" r="3.4" class="st197"/>
  <path d="M561.5 266.7h9.5v300.2h-9.5zm197.4 300.2h-9.5V266.8l9.6.1z" class="st195"/>
  <path d="M1168.6 418h20.1v3.1h-20.1z" class="st101"/>
</svg>
