 <svg class="svg" id="header-svg" data-name="header-svg" xmlns="http://www.w3.org/2000/svg" viewBox="0 0 1925 1200">
            <defs>
                <style>
                    .cls-1 {
                        fill: #a1d8e8;
                    }
                    
                    .cls-2 {
                        fill: #c84476;
                    }
                    
                    .cls-3 {
                        fill: #65aade;
                    }
                    
                    .cls-4 {
                        fill: #669bd3;
                    }
                    
                    .cls-5 {
                        fill: #6693cd;
                    }
                    
                    .cls-6 {
                        fill: #6587c5;
                    }
                    
                    .cls-7 {
                        fill: #4bad35;
                    }
                    
                    .cls-8 {
                        fill: #44a472;
                    }
                    
                    .cls-9 {
                        fill: #ead1dd;
                    }
                    
                    .cls-10 {
                        fill: #9bced0;
                    }
                    
                    .cls-11 {
                        fill: #eaf6fa;
                    }
                    
                    .cls-12 {
                        fill: #bfe5fa;
                    }
                    
                    .cls-13 {
                        fill: #ac7cb5;
                    }
                    
                    .cls-14 {
                        fill: #f7cecd;
                    }
                    
                    .cls-15 {
                        fill: #7d4344;
                    }
                    
                    .cls-16 {
                        fill: #f4d7d7;
                    }
                    
                    .cls-17 {
                        fill: #f1898c;
                    }
                    
                    .cls-18,
                    .cls-30 {
                        fill: #fff;
                    }
                    
                    .cls-19 {
                        fill: #511011;
                    }
                    
                    .cls-20 {
                        fill: #fdfbfb;
                    }
                    
                    .cls-21 {
                        fill: #c0aaa5;
                    }
                    
                    .cls-22 {
                        fill: #d1b7b3;
                    }
                    
                    .cls-23 {
                        fill: #8da12f;
                    }
                    
                    .cls-24 {
                        fill: #8c962c;
                    }
                    
                    .cls-25 {
                        fill: #ed7029;
                    }
                    
                    .cls-26 {
                        fill: #bc978b;
                    }
                    
                    .cls-27 {
                        fill: #d1a799;
                    }
                    
                    .cls-28 {
                        fill: #fab954;
                    }
                    
                    .cls-29,
                    .cls-32,
                    .cls-38,
                    .cls-41 {
                        fill: #010101;
                    }
                    
                    .cls-29 {
                        opacity: 0.2;
                    }
                    
                    .cls-29,
                    .cls-30,
                    .cls-32,
                    .cls-41 {
                        isolation: isolate;
                    }
                    
                    .cls-30 {
                        opacity: 0.19;
                    }
                    
                    .cls-31 {
                        fill: #9b2351;
                    }
                    
                    .cls-32 {
                        opacity: 0.1;
                    }
                    
                    .cls-33 {
                        fill: #1e0809;
                    }
                    
                    .cls-34 {
                        fill: #f3d6d6;
                    }
                    
                    .cls-35 {
                        fill: #ed6b7f;
                    }
                    
                    .cls-36 {
                        fill: #3d3335;
                    }
                    
                    .cls-37 {
                        fill: #524548;
                    }
                    
                    .cls-39 {
                        fill: #30282a;
                    }
                    
                    .cls-40 {
                        fill: #504346;
                    }
                    
                    .cls-41 {
                        opacity: 0.15;
                    }
                </style>
            </defs>
            <title>Plan de travail 1</title>
            <path class="cls-1" d="M1924.9,1179.94a.52.52,0,0,1,.1-.4V1147c0-.28-.07-.55-.11-.83a.76.76,0,0,1,.11-.53v-8.28c-.07-5-.21-10.08,0-15.11a16,16,0,0,1,0-2.09v-.45c-.12-2.31-.1-4.62,0-6.93a.65.65,0,0,1-.09-.33v-6.8a.65.65,0,0,1,.09-.33.82.82,0,0,1,0-.71v0a.8.8,0,0,1,0-.69.82.82,0,0,1,0-.75v-1c-.14-1.47-.14-3-.14-4.43a.73.73,0,0,1,0-.24.65.65,0,0,1,0-.25v-7.77a.69.69,0,0,1,.14-.42V0H1.63V1062.24c.13,3.17.28,6.34.49,9.51a.62.62,0,0,1-.49.68v124.75H1925V1181C1925,1180.62,1924.95,1180.28,1924.9,1179.94Z"
            />
            <g id="Mer">
                <path class="cls-3" d="M933.5,1085.55l593.11,24.27v18.5L933.5,1106.93" />
                <path class="cls-4" d="M933.5,1099l593.11,24.27v18.5L933.5,1120.35" />
                <path class="cls-5" d="M933.5,1118.34l593.11,24.27v18.5L933.5,1139.72" />
                <path class="cls-6" d="M933.5,1131.76,1526.61,1156v18.5L933.5,1153.14" />
            </g>
            <g id="Montagnes">
                <path class="cls-7" d="M414.89,1197.19,820.13,946.71l217.48,250.48H560" />
                <path class="cls-8" d="M820.13,946.71,924,1197.19h113.19" />
                <path class="cls-9" d="M784,969.13h13.55l-3.76,13,18.06-9.69,6.77,9.69,12-10.2,11.84,8.71-2.85-11.55-19.47-22.42" />
                <path class="cls-10" d="M820.13,946.71,830.6,972l11.84,8.71-2.85-11.55" />
                <path class="cls-7" d="M131.88,1197.19l359.28-280.7,263.44,280.7H277" />
                <path class="cls-8" d="M491.16,916.49l112.68,278.22,150.32,2.48" />
                <path class="cls-9" d="M452.48,946.71l2.83,10.5,17.06-6.46,10.54,6.46,10-10.5,14.7,10.5,4.87-8.2,11.61,2.67-33-35.19" />
                <path class="cls-10" d="M507.65,957.21l4.87-8.2,11.61,2.67-33-35.19" />
                <path class="cls-7" d="M3.63,1197.19h474L146.17,872.8,3.7,1031.47c0,13.6.11,27.2,1,40.78a.68.68,0,0,1-1,.66v13.81a.66.66,0,0,1,.33.59V1108a.62.62,0,0,1-.1.34c.1,1.08,0,2.16,0,3.26a.66.66,0,0,1-.1.31.69.69,0,0,1,.1.36v32.49a.67.67,0,0,1-.17.45v8.47a.73.73,0,0,1,0,.21c0,1.16,0,2.31,0,3.46v6.89a.66.66,0,0,1,.2.51,19.61,19.61,0,0,1-.23,2.35.68.68,0,0,1,.23.53v13.69a.69.69,0,0,1-.13.4c.09,2.44-.05,4.89-.07,7.34a.71.71,0,0,1,0,.19c.17,1.75.31,3.51.34,5.27a.69.69,0,0,1,0,.11.67.67,0,0,1,0,.09v1.79A.68.68,0,0,1,3.63,1197.19Z"
                />
                <path class="cls-8" d="M146.17,872.8l117.41,324.4h213.6" />
                <path class="cls-9" d="M112.88,911l-14.44,15,23.47-6,13.82,16.4,10.44-19.85,20.09,11.8,8.34-11.8,24.55,8.22-21.43-21-31.55-30.88"
                />
                <path class="cls-10" d="M146.17,872.8l20.09,55.49,8.34-11.8,24.55,8.22" />
            </g>
            <g id="Nuage1" class="nuage">
                <path class="cls-11" d="M1579.37,996.38c14.17-9.59,27.81-10.5,43.71-6.55,7.5,1.86,35.06-1.35,27.5,10.9-11.71,19-55,4-70.19,3.36,0,0-9.05-2.27-1-7.71Z"
                />
                <path class="cls-12" d="M1582.26,1000c14.17-9.59,27.81-10.5,43.72-6.55,5.13,1.27,19.65.17,25.89,3.27-.57-7.45-22.27-5.23-28.79-6.85-15.9-4-29.54-3-43.71,6.55-5.93,4-2.54,6.3-.36,7.22.23-1,1.15-2.21,3.26-3.64Z"
                />
            </g>

            <g id="Nuage2" class="nuage">
                <path class="cls-11" d="M1187.61,1002.06c-19.35,0-18.39,2.37-37.73,2.36-18,0-40.72,2.74-58.36.92-25.37-2.62-11.77-7.58-18.35-15.81-4.76-6-23.24-7.94-20.61-16,3.06-9.29,38.48-10.59,54.54-11.39,15.8-.78,47.13-3.22,61.78-1,17.47,2.68,22.23,11.39,42.32,13.5,16.44,1.73,40.12-1.1,54.92,3.39,18,5.46,19.8,16.88-1,19.89-21.48,3.12-77.54,4.07-77.54,4.07Z"
                />
                <path class="cls-12" d="M1075.23,996.38c-.09,2.22-.38,4.07,1.8,5.58A8.8,8.8,0,0,0,1075.23,996.38Zm33.65-27.71c15.8-.78,47.13-3.22,61.78-1,17.47,2.67,22.23,11.39,42.31,13.5,16.44,1.73,40.12-1.1,54.93,3.39,5.57,1.69,9.59,4,11.87,6.37,1.88-4.41-3.1-9.66-13.65-12.86-14.81-4.49-38.48-1.66-54.93-3.39-20.08-2.11-24.85-10.83-42.32-13.5-14.65-2.24-46,.19-61.78,1-16.06.79-51.48,2.09-54.54,11.39-.76,2.31.24,4.12,2.15,5.67,4.83-8.54,38.6-9.79,54.17-10.56Z"
                />
            </g>
            <g id="Terre">
                <path class="cls-7" d="M1925.1,1188.3a55.23,55.23,0,0,0-.2-8.36.55.55,0,0,1,.42-.61v-38.07a.28.28,0,0,0,0-.22v-16.4a15.45,15.45,0,0,1-.3-4.66c-.26-4.45,0-8.89.07-13.34v-31.77l-135.14,31.78-124.25-37.27-106.33,37.9-66.18-24.7L1301,1160.95l-215.83,40.25h840.17V1188.7A.44.44,0,0,1,1925.1,1188.3Z"
                />
                <path class="cls-8" d="M1493.18,1082.59l141,118.61H1820m-154.26-131.81,228.11,131.81-103.86-94.54" />
                <path class="cls-23" d="M1925.1,1188.3a55.23,55.23,0,0,0-.2-8.36.55.55,0,0,1,.42-.61v-38.07a.28.28,0,0,0,0-.22v-7.3l-105.36-13-180.64,40.25H1301l-170.45-26.83-153.38-36.41L882.27,1152,641,1120.7l-368.29,80.49H1925.32V1188.7A.44.44,0,0,1,1925.1,1188.3Z"
                />
                <polygon class="cls-24" points="813.27 1167.91 882.12 1152 640.66 1120.7 813.27 1167.91" />
                <path class="cls-24" d="M1925.32,1141.26a.28.28,0,0,0,0-.22v-7.3l-105.36-13,105.36,50.3Z" />
                <polygon class="cls-24" points="977.09 1097.71 1120.46 1153.92 1300.98 1160.94 1130.5 1134.12 977.09 1097.71" />
            </g>
            <g id="Nuage2-2" class="nuage" data-name="Nuage2">
                <path class="cls-11" d="M153.26,157.3c-19.35,0-18.39,2.37-37.73,2.36-18,0-40.72,2.74-58.36.92C31.79,158,45.4,153,38.82,144.77c-4.76-6-23.24-7.94-20.61-16,3.06-9.29,38.48-10.59,54.54-11.39,15.8-.78,47.13-3.22,61.78-1,17.47,2.68,22.23,11.39,42.32,13.5,16.44,1.73,40.12-1.1,54.92,3.39,18,5.46,19.8,16.88-1,19.89-21.48,3.12-77.54,4.07-77.54,4.07Z"
                />
                <path class="cls-12" d="M40.87,151.62c-.09,2.22-.38,4.07,1.8,5.58A8.8,8.8,0,0,0,40.87,151.62Zm33.65-27.71c15.8-.78,47.13-3.22,61.78-1,17.47,2.67,22.23,11.39,42.31,13.5,16.44,1.73,40.12-1.1,54.93,3.39,5.57,1.69,9.59,4,11.87,6.37,1.88-4.41-3.1-9.66-13.65-12.86-14.81-4.49-38.48-1.66-54.93-3.39-20.08-2.11-24.85-10.83-42.32-13.5-14.65-2.24-46,.19-61.78,1-16.06.79-51.48,2.09-54.54,11.39-.76,2.31.24,4.12,2.15,5.67,4.83-8.54,38.6-9.79,54.17-10.56Z"
                />
            </g>
            <g id="Nuage1-2" class="nuage" data-name="Nuage1">
                <path class="cls-11" d="M487.72,270.8C510.31,251,532,249.1,557.39,257.26c11.95,3.84,55.88-2.8,43.83,22.52-18.67,39.24-87.71,8.28-111.86,6.95,0,0-14.43-4.7-1.64-15.93Z"
                />
                <path class="cls-12" d="M492.33,278.21c22.59-19.83,44.33-21.71,69.67-13.55,8.17,2.63,31.32.35,41.27,6.76-.91-15.4-35.49-10.81-45.88-14.17C532,249.09,510.3,251,487.72,270.79c-9.45,8.29-4,13-.58,14.93.36-2.08,1.83-4.57,5.19-7.52Z"
                />
            </g>
            <g id="Nuage2-3" class="nuage" data-name="Nuage2">
                <path class="cls-11" d="M1728,125c-19.35,0-18.39,2.37-37.73,2.36-18,0-40.72,2.74-58.36.92-25.37-2.62-11.77-7.58-18.35-15.81-4.76-6-23.24-7.94-20.61-16,3.06-9.29,38.48-10.59,54.54-11.39,15.8-.78,47.13-3.22,61.78-1,17.47,2.68,22.23,11.39,42.32,13.5,16.44,1.73,40.12-1.1,54.92,3.39,18,5.46,19.8,16.88-1,19.89C1784,124.06,1728,125,1728,125Z"
                />
                <path class="cls-12" d="M1615.57,119.33c-.09,2.22-.38,4.07,1.8,5.58A8.8,8.8,0,0,0,1615.57,119.33Zm33.65-27.71c15.8-.78,47.13-3.22,61.78-1,17.47,2.67,22.23,11.39,42.31,13.5,16.44,1.73,40.12-1.1,54.93,3.39,5.57,1.69,9.59,4,11.87,6.37,1.88-4.41-3.1-9.66-13.65-12.86-14.81-4.49-38.48-1.66-54.93-3.39-20.08-2.11-24.85-10.83-42.32-13.5-14.65-2.24-46,.19-61.78,1-16.06.79-51.48,2.09-54.54,11.39-.76,2.31.24,4.12,2.15,5.67,4.83-8.54,38.6-9.79,54.17-10.56Z"
                />
            </g>
            <g id="Nuage3" class="nuage">
                <path class="cls-11" d="M312.93,792c65.27-6,73.54-16.66,139.55-16.77,35.84-.06,38.71,26.47,74.54,26.84,10.4.11,31.32-1.78,40.57,2.47,2.4,1.1,2.51,3.54,5,4.85,5.24,2.78,14.2,3.14,20.67,3.53,20.68,1.24,44.9-1.56,64.26,4.25,23.15,6.95,4.13,20.18-11.21,25.29-44.8,14.92-109.63,9-157.92,7.48-29.39-.91-58.77-2-88.16-3-19.41-.68-40.14-.47-59.15-3.35-7.39-1.12-13.38-2.24-16.28-6.79-2.21-3.49.85-4.85-4.59-7.61-8.74-4.44-29-4.16-39.53-5.74-12.89-1.93-31.71-4.75-40.48-11.72-20.13-16,51.78-18.19,63-19.68Z"
                />
                <path class="cls-12" d="M240.47,812.49C247.56,803.18,297,801,306.13,801h9.75c65.27-7.45,73.54-17.25,139.55-17.35,35.84-.06,38.71,26.17,74.54,26.54,10.4.1,31.32-1.93,40.57,2.32,2.4,1.1,2.51,3.46,5,4.78,5.24,2.78,14.21,3.1,20.67,3.49,20.68,1.24,44.9-1.57,64.26,4.23a26.83,26.83,0,0,1,7.31,3.2c1.73-4.05-.56-8.07-10.26-11-19.36-5.81-43.57-3-64.26-4.25-6.47-.39-15.43-.73-20.67-3.51-2.47-1.31-2.58-3.71-5-4.81-9.25-4.25-30.17-2.29-40.57-2.4-35.83-.37-38.7-27-74.54-27-66,.1-74.29,10.8-139.55,16.76h-9.75c-11.19,1.49-83.11,3.84-63,19.83.09.07.18.56.27.63Z"
                />
            </g>
            <g id="Nuage1-3" data-name="Nuage1">
                <path class="cls-11" d="M1688.17,982c8.79-5.95,17.25-6.51,27.11-4.06,4.65,1.15,21.75-.84,17.06,6.76-7.26,11.78-34.13,2.48-43.53,2.08,0,0-5.61-1.41-.64-4.78Z"
                />
                <path class="cls-12" d="M1690,984.25c8.79-5.95,17.25-6.51,27.11-4.06,3.18.79,12.19.11,16.06,2-.35-4.62-13.81-3.24-17.85-4.25-9.86-2.45-18.32-1.89-27.11,4.06-3.68,2.49-1.57,3.91-.22,4.48.14-.62.71-1.37,2-2.26Z"
                />
            </g>
            <g id="MongolFiere1" class="mongolfiere">
                <path class="cls-25" d="M393.7,340.19a40,40,0,0,0-40.37-40V145.72s-.15,0,0,0c93.87,0,169.74,75.35,169.74,168.3S431.34,504.75,353.45,534.68c-.16-.06-.12-.13-.12-.19V380.17a40,40,0,0,0,40.37-40Z"
                />
                <path class="cls-26" d="M434.12,458.43l-21,130.32-2.82-.45,21-130.32Z" />
                <path class="cls-27" d="M283.88,586.63l-2.76.75L246.11,460l2.75-.75Z" />
                <path class="cls-25" d="M174.22,312.52c0,93,89.89,189,170,220.66,77.89-29.92,170-127.71,170-220.66s-76.1-168.3-170-168.3-170,75.35-170,168.3ZM303.35,338.7a40.38,40.38,0,1,1,40.37,40,40.17,40.17,0,0,1-40.37-40Z"
                />
                <path class="cls-28" d="M385,338.7a40,40,0,0,0-40.37-40V144.23s-.15,0,0,0c93.87,0,169.74,75.35,169.74,168.3S422.66,503.26,344.77,533.18c-.16-.06-.12-.13-.12-.19V378.68a40,40,0,0,0,40.37-40Z"
                />

                <g id="Perso-2" data-name="Perso">
                    <path class="cls-14" d="M399.43,617.86v3.87l5.3.53.62-4" />
                    <path class="cls-18" d="M401.89,580.87l-7.9-4H362.66l-7.57,4-1.83,18.8V618h6.92l.55-18.87,3.64-10.24V618H394l0-30.21L396.17,598l1.77,19.71,7.7.64v-19.8"
                    />
                    <path class="cls-14" d="M372,576.51c.12,3.39,3.4,6.11,7.44,6.11s7.33-2.72,7.44-6.11H372Z" />
                    <path class="cls-29" d="M362.66,576.83l30.09,3.5,4,.68,3.1,3.5,6,14.13L402,580.9l-8-4.06M358,618h2.16l.61-18.87,3.74-10.54-6.89,11.14"
                    />
                    <path class="cls-29" d="M399.43,617.86,398,598.17l-.14-.06L394,589.36l2.11,8.94,2,19.53" />
                    <path class="cls-30" d="M364.37,588.86l3,30.51h-3" />
                    <path class="cls-31" d="M364.37,618h30.15v4.75H364.37Z" />
                    <path class="cls-32" d="M392.75,579.35l-1.4,63.95h2.7l-.1-54.55" />
                    <path class="cls-14" d="M355.14,618h5.7v3.82h-5.7Zm25.21-47.39H365.78l-8-6.5L354,520.77l13.13-10.21H389l13.14,10.21-3.84,43.3-8,6.5H375.69"
                    />
                    <path class="cls-16" d="M370.42,544.59h-5.89v1.55m19.23-1.55h5.89v1.55" />
                    <path class="cls-17" d="M380.64,550.6v-.11a2.79,2.79,0,0,0-5.57,0v.11h5.56Z" />
                    <path class="cls-33" d="M367.32,536.64v1.84h-1.55v2.89h4.65v-4.73m15.51,0v1.84h-1.55v2.89H389v-4.73" />
                    <path class="cls-34" d="M362.66,522.63,361,545.36l-3.14,18.71-2.41-27.21" />
                    <path class="cls-35" d="M371.83,558.88V559c0,3.54,3.17,6.41,7.07,6.41S386,562.5,386,559v-.09H371.83Z" />
                    <path class="cls-36" d="M355.4,536.87,354,520.77l8.68-11,16.21-2.94,13.82,1.25,8.26,5.55,1.13,7.11L400.83,535l-9.49-13.42-13.49,1.08-14.28-.77"
                    />
                    <path class="cls-36" d="M370.16,509.29l-3.86-1.9-1.5-5.57,4.66-8.95,10.76-2.26,7.19,4.76,3.15,7.77-1.16,5.46-10.7-1.13" />
                    <path class="cls-37" d="M363.58,521.86l-2.31-8.51,3.26,2.41m-5.77,13.94-1.89-5.43-2-5.3v6.5m19-2.84-2.59-8,2.59-6.84,1.23,11.05m8.55,3,3.09-8.51,6-5.24L389,515.58"
                    />
                    <path class="cls-38" d="M388.73,531.95a8.59,8.59,0,0,0-8.49,7.29,3.74,3.74,0,0,0-2.33-.74,4,4,0,0,0-2.08.73,8.55,8.55,0,1,0,.1,1.54,3.18,3.18,0,0,1,2-1,3,3,0,0,1,2.18,1,8.59,8.59,0,1,0,8.58-8.84Zm-21.38,15.88a7.31,7.31,0,1,1,7.33-7.32,7.33,7.33,0,0,1-7.33,7.32Zm21.38,0a7.31,7.31,0,1,1,7.34-7.32,7.33,7.33,0,0,1-7.34,7.32Z"
                    />
                    <path class="cls-36" d="M391.35,521.55,403.92,519l3,13-7.38-6.49-7.47-2.83" />
                    <path class="cls-39" d="M392.11,522.63l7.46,2.83,1.95,1.71L401.1,532" />
                    <path class="cls-37" d="M370.16,509.29l-2.9-12.2,2.19-4.22,2,2.76m6,11.85-2.2-15.87,3.22,4" />
                    <path class="cls-40" d="M362.66,509.8l16.21-2.94,13.82,1.25-14.84.22" />
                    <path class="cls-37" d="M356.59,550.94l4,7.94,5.28,3.25,4.5,3.25,7.26,2,.17,3.08H365.67L357.82,564" />
                    <path class="cls-37" d="M399.39,551.28,396.8,558l-4.68,4.08-4.64,3.25-9.79,2.1-.79,3.1,13.3,0,8-6.53" />
                    <path class="cls-37" d="M361.27,560.94l10-9.43h15.17l9.49,9.43-5.35,4.43L386,554.68H372l-4.48,9.4" />
                    <path class="cls-41" d="M383.57,521.88l3.26,42.5-3.78,6.12h7.23l8-6.48,3.27-36.71L407,532l-3-13-2,.39-.91-5.73-8.26-5.55-8.94.22"
                    />

                </g>
                <path class="cls-25" d="M411.78,587.15l-11.44,98.38h-34V587.15" />
                <path class="cls-25" d="M292.28,685.52h102.9l11.43-98.38H280.84" />
                <path class="cls-28" d="M406.61,587.15l-11.44,98.38h-34V587.15" />

            </g>
            <g id="MongolfiereBis" class="mongolfiere">

                <path class="cls-2" d="M1662.49,908.62h62.57l7-59.62h-76.48" />
                <path class="cls-13" d="M1732,849l-7,59.62h-20.38V849" />
                <path class="cls-21" d="M1751.8,780l-17.73,70.87-1.74-.31,17.73-70.88Z" />
                <path class="cls-22" d="M1657.45,848.55l-1.68.45-21.33-77.42,1.68-.45Z" />
                <path class="cls-2" d="M1723.21,703.2c0-13.43-9.5-24.31-24.55-24.31v-94h.1c57.08,0,103.27,45.82,103.27,102.35s-55.86,116-103.23,134.19c-.09,0-.15-.08-.15-.12V727.51c15.05,0,24.55-10.88,24.55-24.31Z"
                />
                <path class="cls-2" d="M1590.7,685.79c0,56.53,54.66,114.92,103.36,134.19,47.37-18.2,103.36-77.66,103.36-134.19s-46.27-102.35-103.36-102.35S1590.7,629.26,1590.7,685.79Zm78.53,15.92A24.55,24.55,0,1,1,1693.78,726,24.43,24.43,0,0,1,1669.23,701.71Z"
                />
                <path class="cls-13" d="M1718.7,701.71c0-13.43-9.5-24.31-24.55-24.31v-94h.1c57.08,0,103.27,45.82,103.27,102.35s-55.86,116-103.23,134.19c-.09,0-.15-.08-.15-.12V726c15.05,0,24.55-10.88,24.55-24.31Z"
                />
                <path class="cls-2" d="M1733.92,849l-7,59.62h-20.38V849" />
                <g id="Perso">
                    <path class="cls-14" d="M1669.87,829.69h-7.13l-3.9-3.16L1657,805.47l6.43-5h10.7l6.43,5-1.88,21.06-3.9,3.16h-7.15" />
                    <path class="cls-15" d="M1657.66,813.3l3.56-6.93,11.85.9,4.11-.9,2.5,8.73,1.77-13.24-5.33-3.16,1.67-2.1-18.69,2.11-3.27,3.31"
                    />
                    <path class="cls-16" d="M1665,817h-2.89v.75m9.42-.75h2.89v.75" />
                    <path class="cls-17" d="M1670,820v-.05a1.36,1.36,0,0,0-2.73,0s0,0,0,.05H1670Z" />
                    <path class="cls-18" d="M1680.35,833.48l-3.79-2.38h-15.34l-3.76,2.38-.95,8.54v8.46H1660l.51-8.29,2-4.68v13h14l0-13,1.08,4.09.79,8.14,3.69.16v-8.27"
                    />
                    <path class="cls-14" d="M1665.77,831.64c.05,1.42,1.66,2.56,3.64,2.56s3.59-1.14,3.64-2.56h-7.29Z" />
                    <path class="cls-19" d="M1663.49,810.88V813h-.76v3.31H1665v-5.42m7.6,0V813h-.76v3.31h2.28v-5.42" />
                    <path class="cls-20" d="M1676.57,837.7l2,3.84h-.92" />
                </g>
            </g>
            <g id="Nuage1-4" class="nuage" data-name="Nuage1">
                <path class="cls-11" d="M1554.59,149.6c8.79-5.95,17.25-6.51,27.11-4.06,4.65,1.15,21.75-.84,17.06,6.76-7.26,11.78-34.13,2.48-43.53,2.08,0,0-5.61-1.41-.64-4.78Z"
                />
                <path class="cls-12" d="M1556.38,151.82c8.79-5.95,17.25-6.51,27.11-4.06,3.18.79,12.19.11,16.06,2-.35-4.62-13.81-3.24-17.85-4.25-9.86-2.45-18.32-1.89-27.11,4.06-3.68,2.49-1.57,3.91-.22,4.48.14-.62.71-1.37,2-2.26Z"
                />
            </g>
        </svg>