<svg id="Calque_1" data-name="Calque 1" xmlns="http://www.w3.org/2000/svg" viewBox="0 0 600 700"><defs><style>.cls-1{fill:#43a372;}.cls-2{fill:#62b132;}.cls-19,.cls-3,.cls-41{font-size:23.41px;}.cls-3,.cls-7{fill:#fdfdfd;}.cls-19,.cls-3,.cls-43,.cls-61{font-family:Affogato-Bold, Affogato;font-weight:700;}.cls-4{letter-spacing:-0.01em;}.cls-5{letter-spacing:0em;}.cls-6{letter-spacing:0em;}.cls-23,.cls-43,.cls-7{font-size:26.54px;}.cls-23,.cls-41,.cls-7{font-family:Affogato-Medium, Affogato;}.cls-8{fill:#2291d0;}.cls-41,.cls-51,.cls-9{fill:#fff;}.cls-10{letter-spacing:-0.02em;}.cls-11{letter-spacing:0em;}.cls-12{letter-spacing:0em;}.cls-13{fill:#464756;}.cls-14{fill:#bfc9dc;}.cls-15{fill:#aebad0;}.cls-16{fill:#96a4ba;}.cls-17{fill:#e3eaf7;}.cls-18{fill:#ea646d;}.cls-19,.cls-61{fill:#fbfcfd;}.cls-20{letter-spacing:0em;}.cls-21{letter-spacing:0em;}.cls-22{letter-spacing:0em;}.cls-23,.cls-43{fill:#f8f9fa;}.cls-24{letter-spacing:0.03em;}.cls-25{letter-spacing:-0.01em;}.cls-26{letter-spacing:-0.01em;}.cls-27{fill:#1f92d1;}.cls-28,.cls-57{fill:#010101;}.cls-28{opacity:0.1;}.cls-29{fill:#473436;}.cls-30{fill:#ecf0f1;}.cls-31{fill:#304449;}.cls-32{opacity:0.5;}.cls-33{fill:#4c6169;}.cls-34{fill:#fcd5bb;}.cls-35{fill:#ba774f;}.cls-36{fill:#793a3c;}.cls-37{fill:#e6a984;}.cls-38{fill:#4a5d64;}.cls-39{fill:#3b97d3;}.cls-40{fill:#c2e6fb;}.cls-42{letter-spacing:-0.02em;}.cls-44{letter-spacing:-0.02em;}.cls-45{fill:#eda677;}.cls-46,.cls-50{fill:#1b384b;}.cls-46,.cls-47,.cls-48,.cls-57{fill-rule:evenodd;}.cls-47{fill:#dddbdb;}.cls-48{fill:#e9eaf1;}.cls-49{fill:#0e2a30;}.cls-51{opacity:0.2;}.cls-52{fill:#e3ac92;}.cls-53{fill:#f8d1a4;}.cls-54{fill:#edbda9;}.cls-55{fill:#171e22;}.cls-56{fill:#e4e1e1;}.cls-58{fill:#e84c3d;}.cls-59{fill:#5bb24d;}.cls-60{fill:#2e2e2e;}.cls-61{font-size:29px;}.cls-62{letter-spacing:-0.02em;}.cls-63{letter-spacing:-0.01em;}.cls-64{letter-spacing:0em;}.cls-65{letter-spacing:0em;}.cls-66{font-size:20.04px;}.cls-67{fill:#f298a5;}.cls-68{fill:#ec6b7c;}.cls-69{fill:#f9b70a;}.cls-70{fill:#dc0744;}.cls-71{fill:#ffd13d;}</style></defs><title>Plan de travail 1</title><rect class="cls-1" width="300" height="350"/><rect class="cls-1" x="300" y="350" width="300" height="350"/><rect class="cls-2" x="300" width="300" height="350"/><rect class="cls-2" y="350" width="300" height="350"/><text class="cls-3" transform="translate(72.85 216.39) scale(1.08 1)">In<tspan class="cls-4" x="20.22" y="0">f</tspan><tspan x="27.96" y="0">or</tspan><tspan class="cls-5" x="49.07" y="0">m</tspan><tspan class="cls-6" x="68.09" y="0">ez-vous</tspan></text><text class="cls-7" transform="translate(129.87 244.55) scale(1.1 1)">sur<tspan class="cls-8" x="36.55" y="0"> </tspan><tspan class="cls-9"><tspan x="-54.22" y="31.84">Be </tspan><tspan class="cls-10" x="-16.16" y="31.84">M</tspan><tspan class="cls-11" x="4.43" y="31.84">o</tspan><tspan x="19.12" y="31.84">ov</tspan><tspan class="cls-12" x="46.77" y="31.84">ee</tspan><tspan x="76.2" y="31.84">d</tspan></tspan></text><path class="cls-13" d="M210.63,65.42H99.88a4.22,4.22,0,0,0-4.1,4.33V139h119V69.75a4.22,4.22,0,0,0-4.1-4.33Zm-2.05,67.1H101.93V71.92H208.58Zm0,0"/><path class="cls-9" d="M142.95,99a1.05,1.05,0,0,1,1,1.08h3.08V96.81h-4.1a1.08,1.08,0,0,1,0-2.16h4.1V80.58H128.59v19.48h13.33a1.06,1.06,0,0,1,1-1.08Zm0,0"/><path class="cls-9" d="M101.93,132.53H208.58V71.92H101.93Zm45.12-5.41h-4.1a1.08,1.08,0,0,1,0-2.16h4.1a1.08,1.08,0,0,1,0,2.16Zm-4.1-10.82a1.05,1.05,0,0,1,1,1.08v4.33a1,1,0,1,1-2.05,0v-4.33a1.06,1.06,0,0,1,1-1.08Zm-1-3.25v-4.33a1,1,0,1,1,2.05,0V113a1,1,0,1,1-2.05,0Zm13.33,14.07h-4.1a1.08,1.08,0,0,1,0-2.16h4.1a1.08,1.08,0,0,1,0,2.16Zm17.43-5.41a1,1,0,1,1-2.05,0v-4.33a1,1,0,1,1,2.05,0Zm0-8.66a1,1,0,1,1-2.05,0v-4.33a1,1,0,1,1,2.05,0Zm0-8.66a1,1,0,1,1-2.05,0v-4.33a1,1,0,1,1,2.05,0Zm9.23,2.16V78.41A2.11,2.11,0,0,1,184,76.25h18.46a2.11,2.11,0,0,1,2.05,2.16V126a2.11,2.11,0,0,1-2.05,2.16H184a2.11,2.11,0,0,1-2.05-2.16Zm-14.36-11.9h4.1a1.08,1.08,0,0,1,0,2.16h-4.1a1.08,1.08,0,0,1,0-2.16Zm0,30.3h4.1a1.08,1.08,0,0,1,0,2.16h-4.1a1.08,1.08,0,0,1,0-2.16Zm-8.2-30.3h4.1a1.08,1.08,0,0,1,0,2.16h-4.1a1.08,1.08,0,0,1,0-2.16Zm0,30.3h4.1a1.08,1.08,0,0,1,0,2.16h-4.1a1.08,1.08,0,0,1,0-2.16ZM124.49,78.41a2.11,2.11,0,0,1,2.05-2.16H149.1a2.11,2.11,0,0,1,2.05,2.16V94.65h4.1a1.08,1.08,0,0,1,0,2.16h-4.1v5.41a2.25,2.25,0,0,1-.1.67l5.38,5.09a.89.89,0,0,1-.22,1.44l-2,.94,1.82,4.38a1.11,1.11,0,0,1-.53,1.43,1,1,0,0,1-.41.09,1,1,0,0,1-.94-.65l-1.82-4.38-2,.94a.83.83,0,0,1-1.15-.81l.09-7H144a1,1,0,1,1-2.05,0H126.54a2.11,2.11,0,0,1-2.05-2.16Zm-18.46,0a2.11,2.11,0,0,1,2.05-2.16h6.15a2.11,2.11,0,0,1,2.05,2.16V126a2.11,2.11,0,0,1-2.05,2.16h-6.15A2.11,2.11,0,0,1,106,126Zm0,0"/><path class="cls-14" d="M95.78,147.68a4.22,4.22,0,0,0,4.1,4.33H210.63a4.22,4.22,0,0,0,4.1-4.33V139h-119Zm59.48-5.41a3.25,3.25,0,1,1-3.08,3.25,3.17,3.17,0,0,1,3.08-3.25Zm0,0"/><path class="cls-15" d="M137.05,167.16h36.4l-1.28-10.82H138.34Zm0,0"/><path class="cls-14" d="M136.8,167.16a2.17,2.17,0,0,0,0,4.33h36.92a2.17,2.17,0,0,0,0-4.33Zm0,0"/><path class="cls-16" d="M138.34,156.34h33.84l-.51-4.33H138.85Zm0,0"/><path class="cls-16" d="M158.33,145.51a3.08,3.08,0,1,1-3.08-3.25,3.17,3.17,0,0,1,3.08,3.25Zm0,0"/><path class="cls-14" d="M108.08,128.2h6.15a2.11,2.11,0,0,0,2.05-2.16V78.41a2.11,2.11,0,0,0-2.05-2.16h-6.15A2.11,2.11,0,0,0,106,78.41V126a2.11,2.11,0,0,0,2.05,2.16Zm2.05-47.62h2.05a2.17,2.17,0,0,1,0,4.33h-2.05a2.17,2.17,0,0,1,0-4.33Zm0,6.49h2.05a2.17,2.17,0,0,1,0,4.33h-2.05a2.17,2.17,0,0,1,0-4.33Zm0,6.49h2.05a2.17,2.17,0,0,1,0,4.33h-2.05a2.17,2.17,0,0,1,0-4.33Zm0,6.49h2.05a2.17,2.17,0,0,1,0,4.33h-2.05a2.17,2.17,0,0,1,0-4.33Zm0,6.49h2.05a2.17,2.17,0,0,1,0,4.33h-2.05a2.17,2.17,0,0,1,0-4.33Zm-2.05,10.82a2.11,2.11,0,0,1,2.05-2.16h2.05a2.11,2.11,0,0,1,2.05,2.16v4.33a2.11,2.11,0,0,1-2.05,2.16h-2.05a2.11,2.11,0,0,1-2.05-2.16Zm0,0"/><path class="cls-17" d="M110.14,84.91h2.05a2.17,2.17,0,0,0,0-4.33h-2.05a2.17,2.17,0,0,0,0,4.33Zm0,0"/><path class="cls-16" d="M110.14,91.4h2.05a2.17,2.17,0,0,0,0-4.33h-2.05a2.17,2.17,0,0,0,0,4.33Zm0,0"/><path class="cls-17" d="M110.14,97.89h2.05a2.17,2.17,0,0,0,0-4.33h-2.05a2.17,2.17,0,0,0,0,4.33Zm0,0"/><path class="cls-17" d="M110.14,104.39h2.05a2.17,2.17,0,0,0,0-4.33h-2.05a2.17,2.17,0,0,0,0,4.33Zm0,0"/><path class="cls-17" d="M110.14,110.88h2.05a2.17,2.17,0,0,0,0-4.33h-2.05a2.17,2.17,0,0,0,0,4.33Zm0,0"/><path class="cls-16" d="M110.14,123.87h2.05a2.11,2.11,0,0,0,2.05-2.16v-4.33a2.11,2.11,0,0,0-2.05-2.16h-2.05a2.11,2.11,0,0,0-2.05,2.16v4.33a2.11,2.11,0,0,0,2.05,2.16Zm0,0"/><path class="cls-14" d="M204.48,78.41a2.11,2.11,0,0,0-2.05-2.16H184a2.11,2.11,0,0,0-2.05,2.16v13h22.56ZM201.4,89.23H185a1.08,1.08,0,0,1,0-2.16H201.4a1.08,1.08,0,0,1,0,2.16Zm0-4.33H185a1.08,1.08,0,0,1,0-2.16H201.4a1.08,1.08,0,0,1,0,2.16Zm0-4.33H185a1.08,1.08,0,0,1,0-2.16H201.4a1.08,1.08,0,0,1,0,2.16Zm0,0"/><path class="cls-14" d="M184,128.2h18.46a2.11,2.11,0,0,0,2.05-2.16V106.55H181.92V126A2.11,2.11,0,0,0,184,128.2Zm9.23-19.48h8.2a1.08,1.08,0,0,1,0,2.16h-8.2a1.08,1.08,0,0,1,0-2.16Zm0,4.33h8.2a1.08,1.08,0,0,1,0,2.16h-8.2a1.08,1.08,0,0,1,0-2.16Zm0,4.33h8.2a1.08,1.08,0,0,1,0,2.16h-8.2a1.08,1.08,0,0,1,0-2.16Zm0,4.33h8.2a1.08,1.08,0,0,1,0,2.16h-8.2a1.08,1.08,0,0,1,0-2.16Zm-4.1-13a1.08,1.08,0,1,1-1,1.08,1.06,1.06,0,0,1,1-1.08Zm0,4.33a1.08,1.08,0,1,1-1,1.08,1.05,1.05,0,0,1,1-1.08Zm0,4.33a1.08,1.08,0,1,1-1,1.08,1.06,1.06,0,0,1,1-1.08Zm0,4.33a1.08,1.08,0,1,1-1,1.08,1.06,1.06,0,0,1,1-1.08Zm-4.1-13a1.08,1.08,0,1,1-1,1.08,1.05,1.05,0,0,1,1-1.08Zm0,4.33a1.08,1.08,0,1,1-1,1.08,1.05,1.05,0,0,1,1-1.08Zm0,4.33a1.08,1.08,0,1,1-1,1.08,1.05,1.05,0,0,1,1-1.08Zm0,4.33a1.08,1.08,0,1,1-1,1.08,1.05,1.05,0,0,1,1-1.08Zm0,0"/><path class="cls-16" d="M204.48,91.4H181.92v15.15h22.56Zm-17.43,13H185a1.08,1.08,0,0,1,0-2.16H187a1.08,1.08,0,0,1,0,2.16Zm0-4.33H185a1.08,1.08,0,0,1,0-2.16H187a1.08,1.08,0,0,1,0,2.16Zm0-4.33H185a1.08,1.08,0,0,1,0-2.16H187a1.08,1.08,0,0,1,0,2.16Zm14.36,8.66H191.15a1.08,1.08,0,0,1,0-2.16H201.4a1.08,1.08,0,0,1,0,2.16Zm0-4.33H191.15a1.08,1.08,0,0,1,0-2.16H201.4a1.08,1.08,0,0,1,0,2.16Zm0-4.33H191.15a1.08,1.08,0,0,1,0-2.16H201.4a1.08,1.08,0,0,1,0,2.16Zm0,0"/><path class="cls-16" d="M201.4,78.41h-12.3a1.08,1.08,0,0,1,0,2.16h12.3a1.08,1.08,0,0,0,0-2.16Zm0,0"/><path class="cls-16" d="M186,79.49a1.06,1.06,0,0,1,1-1.08H185a1.08,1.08,0,0,0,0,2.16H187a1.05,1.05,0,0,1-1-1.08Zm0,0"/><path class="cls-16" d="M201.4,87.07h-8.2a1.08,1.08,0,0,1,0,2.16h8.2a1.08,1.08,0,0,0,0-2.16Zm0,0"/><path class="cls-16" d="M190.12,88.15a1.06,1.06,0,0,1,1-1.08H185a1.08,1.08,0,0,0,0,2.16h6.15a1.06,1.06,0,0,1-1-1.08Zm0,0"/><path class="cls-14" d="M201.4,93.56H191.15a1.08,1.08,0,0,0,0,2.16H201.4a1.08,1.08,0,0,0,0-2.16Zm0,0"/><path class="cls-16" d="M196.27,83.82a1.05,1.05,0,0,1,1-1.08H185a1.08,1.08,0,0,0,0,2.16H197.3a1.05,1.05,0,0,1-1-1.08Zm0,0"/><path class="cls-16" d="M201.4,82.74h-2.05a1.08,1.08,0,0,1,0,2.16h2.05a1.08,1.08,0,0,0,0-2.16Zm0,0"/><path class="cls-17" d="M190.12,79.49a1.06,1.06,0,0,0-1-1.08H187a1.08,1.08,0,0,0,0,2.16h2.05a1.05,1.05,0,0,0,1-1.08Zm0,0"/><path class="cls-17" d="M194.22,88.15a1.06,1.06,0,0,0-1-1.08h-2.05a1.08,1.08,0,0,0,0,2.16h2.05a1.06,1.06,0,0,0,1-1.08Zm0,0"/><path class="cls-17" d="M187,93.56H185a1.08,1.08,0,0,0,0,2.16H187a1.08,1.08,0,0,0,0-2.16Zm0,0"/><path class="cls-14" d="M201.4,97.89H191.15a1.08,1.08,0,0,0,0,2.16H201.4a1.08,1.08,0,0,0,0-2.16Zm0,0"/><path class="cls-17" d="M187,97.89H185a1.08,1.08,0,0,0,0,2.16H187a1.08,1.08,0,0,0,0-2.16Zm0,0"/><path class="cls-14" d="M201.4,102.22H191.15a1.08,1.08,0,0,0,0,2.16H201.4a1.08,1.08,0,0,0,0-2.16Zm0,0"/><path class="cls-17" d="M187,102.22H185a1.08,1.08,0,0,0,0,2.16H187a1.08,1.08,0,0,0,0-2.16Zm0,0"/><path class="cls-17" d="M185,115.21a1.08,1.08,0,1,0-1-1.08,1.05,1.05,0,0,0,1,1.08Zm0,0"/><path class="cls-17" d="M185,110.88a1.08,1.08,0,1,0-1-1.08,1.05,1.05,0,0,0,1,1.08Zm0,0"/><path class="cls-17" d="M185,123.87a1.08,1.08,0,1,0-1-1.08,1.05,1.05,0,0,0,1,1.08Zm0,0"/><path class="cls-17" d="M185,119.54a1.08,1.08,0,1,0-1-1.08,1.05,1.05,0,0,0,1,1.08Zm0,0"/><path class="cls-16" d="M189.09,115.21a1.08,1.08,0,1,0-1-1.08,1.06,1.06,0,0,0,1,1.08Zm0,0"/><path class="cls-16" d="M189.09,110.88a1.08,1.08,0,1,0-1-1.08,1.06,1.06,0,0,0,1,1.08Zm0,0"/><path class="cls-16" d="M189.09,123.87a1.08,1.08,0,1,0-1-1.08,1.06,1.06,0,0,0,1,1.08Zm0,0"/><path class="cls-16" d="M189.09,119.54a1.08,1.08,0,1,0-1-1.08,1.05,1.05,0,0,0,1,1.08Zm0,0"/><path class="cls-16" d="M193.2,115.21h8.2a1.08,1.08,0,0,0,0-2.16h-8.2a1.08,1.08,0,0,0,0,2.16Zm0,0"/><path class="cls-16" d="M193.2,110.88h8.2a1.08,1.08,0,0,0,0-2.16h-8.2a1.08,1.08,0,0,0,0,2.16Zm0,0"/><path class="cls-16" d="M193.2,123.87h8.2a1.08,1.08,0,0,0,0-2.16h-8.2a1.08,1.08,0,0,0,0,2.16Zm0,0"/><path class="cls-16" d="M193.2,119.54h8.2a1.08,1.08,0,0,0,0-2.16h-8.2a1.08,1.08,0,0,0,0,2.16Zm0,0"/><path class="cls-17" d="M200.37,83.82a1.05,1.05,0,0,0-1-1.08H197.3a1.08,1.08,0,0,0,0,2.16h2.05a1.05,1.05,0,0,0,1-1.08Zm0,0"/><path class="cls-18" d="M126.54,104.39h15.38v-4.33H128.59V80.58h18.46V94.65a1.08,1.08,0,0,1,0,2.16v3.25H144v4.33h5.21l0-1.3a.82.82,0,0,1,1.37-.64l.47.45a2.26,2.26,0,0,0,.1-.67V96.81a1.08,1.08,0,0,1,0-2.16V78.41a2.11,2.11,0,0,0-2.05-2.16H126.54a2.11,2.11,0,0,0-2.05,2.16v23.81a2.11,2.11,0,0,0,2.05,2.16Zm0,0"/><path class="cls-16" d="M142.95,114.13a1.05,1.05,0,0,0,1-1.08v-4.33a1,1,0,1,0-2.05,0V113a1.06,1.06,0,0,0,1,1.08Zm0,0"/><path class="cls-16" d="M167.56,127.12h4.1a1.08,1.08,0,0,0,0-2.16h-4.1a1.08,1.08,0,0,0,0,2.16Zm0,0"/><path class="cls-16" d="M171.66,116.29a1.05,1.05,0,0,0-1,1.08v4.33a1,1,0,1,0,2.05,0v-4.33a1.06,1.06,0,0,0-1-1.08Zm0,0"/><path class="cls-16" d="M167.56,96.81h4.1a1.08,1.08,0,0,0,0-2.16h-4.1a1.08,1.08,0,0,0,0,2.16Zm0,0"/><path class="cls-16" d="M171.66,99a1.05,1.05,0,0,0-1,1.08v4.33a1,1,0,1,0,2.05,0v-4.33a1.06,1.06,0,0,0-1-1.08Zm0,0"/><path class="cls-16" d="M155.26,125h-4.1a1.08,1.08,0,0,0,0,2.16h4.1a1.08,1.08,0,0,0,0-2.16Zm0,0"/><path class="cls-16" d="M142.95,99a1.05,1.05,0,0,0-1,1.08v4.33a1,1,0,1,0,2.05,0v-4.33a1.05,1.05,0,0,0-1-1.08Zm0,0"/><path class="cls-16" d="M147.05,125h-4.1a1.08,1.08,0,0,0,0,2.16h4.1a1.08,1.08,0,0,0,0-2.16Zm0,0"/><path class="cls-16" d="M141.92,121.7a1,1,0,1,0,2.05,0v-4.33a1,1,0,1,0-2.05,0Zm0,0"/><path class="cls-16" d="M171.66,107.63a1.05,1.05,0,0,0-1,1.08V113a1,1,0,1,0,2.05,0v-4.33a1.05,1.05,0,0,0-1-1.08Zm0,0"/><path class="cls-16" d="M159.36,96.81h4.1a1.08,1.08,0,0,0,0-2.16h-4.1a1.08,1.08,0,0,0,0,2.16Zm0,0"/><path class="cls-16" d="M141.92,95.73a1.05,1.05,0,0,0,1,1.08h4.1a1.08,1.08,0,0,0,0-2.16h-4.1a1.06,1.06,0,0,0-1,1.08Zm0,0"/><path class="cls-16" d="M159.36,127.12h4.1a1.08,1.08,0,0,0,0-2.16h-4.1a1.08,1.08,0,0,0,0,2.16Zm0,0"/><path class="cls-16" d="M150.13,95.73a1.05,1.05,0,0,0,1,1.08h4.1a1.08,1.08,0,0,0,0-2.16h-4.1a1.06,1.06,0,0,0-1,1.08Zm0,0"/><path class="cls-13" d="M149.2,103.08l0,1.3-.09,7a.83.83,0,0,0,1.15.81l2-.95,1.82,4.38a1,1,0,0,0,.94.65,1,1,0,0,0,.41-.09,1.11,1.11,0,0,0,.53-1.43l-1.82-4.38,2-.94a.89.89,0,0,0,.22-1.44l-5.38-5.09-.47-.45a.82.82,0,0,0-1.37.64Zm0,0"/><text class="cls-19" transform="translate(389.49 220.8) scale(1.08 1)">R<tspan class="cls-20" x="13.43" y="0">e</tspan><tspan x="26.04" y="0">c</tspan><tspan class="cls-21" x="37.69" y="0">h</tspan><tspan x="50.62" y="0">erc</tspan><tspan class="cls-22" x="83.33" y="0">h</tspan><tspan x="96.26" y="0">er </tspan></text><text class="cls-23" transform="translate(429.64 243.4) scale(1.1 1)">v<tspan class="cls-12" x="13.06" y="0">o</tspan><tspan x="27.74" y="0">s</tspan><tspan class="cls-9"><tspan x="-87.6" y="31.84">Se</tspan><tspan class="cls-24" x="-58.98" y="31.84">r</tspan><tspan x="-49.06" y="31.84">vi</tspan><tspan class="cls-25" x="-28.92" y="31.84">c</tspan><tspan class="cls-12" x="-15.71" y="31.84">e</tspan><tspan x="-0.99" y="31.84">s / B</tspan><tspan class="cls-12" x="51.5" y="31.84">es</tspan><tspan x="78.64" y="31.84">oi</tspan><tspan class="cls-26" x="100.32" y="31.84">n</tspan><tspan x="115.34" y="31.84">s</tspan></tspan></text><path class="cls-27" d="M364.66,196c8.39,3.82,33.87-29,38.39-15.65,2,5.92,1.56,13.16-1.74,25.31l11.31-4.25c2.39-17.46,3.27-28.87-3-35.39-10.45-10.92-40.8,16.32-40.8,16.32S361.28,194.49,364.66,196Z"/><path class="cls-28" d="M383.7,171.14a130.55,130.55,0,0,0-14.85,11.23s-7.57,12.12-4.19,13.66c4.21,1.92,12.71-5.37,20.71-11.44C384.67,180.13,384.06,175.65,383.7,171.14Z"/><path class="cls-28" d="M402.93,199.07c-.43,2-1,4.23-1.61,6.62l11.31-4.25c.2-1.46.39-2.86.56-4.24Q408,198,402.93,199.07Z"/><path class="cls-29" d="M421.14,205.26a4.5,4.5,0,0,1-5.37,3.94l-13.09-1.91a3.18,3.18,0,0,1-2.41-3.48h0a3.09,3.09,0,0,1,2.79-3.12l8.3-.05,4.9,0a4.63,4.63,0,0,1,4.87,4.65Z"/><path class="cls-27" d="M380.38,185.48c-4.12-7.93-4-19.79-3.54-29.95.24-5.45.43-7.3,2-12.09.86-2.58-.81-12.05-7.08-12.44l-8.08-3c-8.52,8.19-14.24,20.66-14.87,34.88-.5,11.28,3,28,8,36.41C363.47,196.82,376,189.42,380.38,185.48Z"/><path class="cls-30" d="M366.15,152.89c.92-9.43,5.28-14.19,6.35-21.8a6,6,0,0,1,3,1.51c-2.51,5.86-4.4,14.69-5.07,21.67-.35,3.66-.3,6,.32,13.38C370.74,167.64,365,164.77,366.15,152.89Z"/><path class="cls-28" d="M364.19,142.08a36.64,36.64,0,0,0,2.49,21.15c-1-12.77,1-18.13,1-18.13Z"/><path class="cls-31" d="M373.85,135.34s-12.33,19.93-4.66,37.57l4.39,5.9-1.75-7.51s-7.25-16,2.81-35.73Z"/><path class="cls-28" d="M370.37,162.74l3.37-14.37-2.3-1S369.78,156.64,370.37,162.74Z"/><g class="cls-32"><path class="cls-33" d="M365.22,181.49c.3,1,0,1.92-.59,2.16l-7.09,2.66c-.62.23-1.37-.35-1.67-1.31h0c-.3-1,0-1.92.59-2.16l7.09-2.66c.62-.23,1.37.35,1.67,1.31Z"/></g><path class="cls-27" d="M358.22,252.68c5.74-12.35,8.79-26.42,12.09-46,1.86-11,2.29-22.69-.08-31.6l-16.86,1.64a117.27,117.27,0,0,1,3.72,29.89c0,17.1-.66,34.47-6.13,45.91,0,0,.51.94,3.72,1.09S358.22,252.68,358.22,252.68Z"/><path class="cls-28" d="M371.83,191.5l-15,7.78a75.26,75.26,0,0,1,.2,10.75s7.77-9,14.38-12A39.84,39.84,0,0,0,371.83,191.5Z"/><path class="cls-29" d="M370.05,255a4.59,4.59,0,0,1-5,4.43l-13.19-.68a3.12,3.12,0,0,1-2.67-3.24h0a3.15,3.15,0,0,1,2.54-3.37l8.27-.83,4.88-.49a4.54,4.54,0,0,1,5.22,4.18Z"/><path class="cls-27" d="M423.44,117.63c-4.06,24.84-35.5,22.31-45.41,14.14l-.57,10.31a24.52,24.52,0,0,0,5.41,4.28c20.48,11.92,49.22-3.55,51.15-28.9,0,0-1.48-1.9-5.16-1.56C424.35,116.34,423.44,117.63,423.44,117.63Z"/><path class="cls-34" d="M433.9,116.52c-.41,2.55-2,3.4-5.25,3.4h0c-2.67,0-6.09-2.42-6.09-5.6h0c-.33-6.76,2.66-6.53,5.95-6.53h0c3.28,0,4.78-2.78,5.45,1.94A45.8,45.8,0,0,1,433.9,116.52Z"/><path class="cls-34" d="M424.46,111.22c.21.84,0,3.64-.76,3.86h0c-.77.23-.79,1.19-1,.35l-2.63-9.84a1.61,1.61,0,0,1,1-1.94h0a1.43,1.43,0,0,1,1.77,1.11Z"/><path class="cls-34" d="M427.43,109.35a1.6,1.6,0,0,1-1,1.94h0a1.43,1.43,0,0,1-1.77-1.11l-1.6-6.46a1.61,1.61,0,0,1,1-1.94h0a1.43,1.43,0,0,1,1.77,1.11Z"/><path class="cls-34" d="M430.33,108.78a1.56,1.56,0,0,1-1.24,1.78h0a1.47,1.47,0,0,1-1.62-1.36l-.82-6.63a1.56,1.56,0,0,1,1.24-1.78h0a1.47,1.47,0,0,1,1.62,1.36Z"/><path class="cls-34" d="M434,109.64a1.56,1.56,0,0,1-1.24,1.78h0a1.47,1.47,0,0,1-1.62-1.36l-.82-6.63a1.56,1.56,0,0,1,1.24-1.78h0a1.47,1.47,0,0,1,1.62,1.36Z"/><path class="cls-34" d="M413.21,115.86c.68.45,2.3,2.62,1.89,3.37h0c-.41.75.19,1.46-.5,1l-8.11-5.09A1.67,1.67,0,0,1,406,113h0a1.37,1.37,0,0,1,2-.55Z"/><path class="cls-34" d="M366.19,117.45a4.27,4.27,0,0,1-4.47,4.14,4.43,4.43,0,0,1-3.77-4.91,4.27,4.27,0,0,1,4.47-4.14A4.43,4.43,0,0,1,366.19,117.45Z"/><path class="cls-34" d="M388.5,121.31c1.23,7.56-3.36,14.78-10.25,16.12h0c-6.89,1.35-13.47-3.69-14.7-11.25L361.08,111c-1.23-7.56,3.36-14.78,10.25-16.13h0c6.89-1.35,13.47,3.69,14.7,11.25Z"/><path class="cls-35" d="M369.72,125.64c.51.87.9,1.68,1.29,2.44a9.87,9.87,0,0,0,1.23,2,3.69,3.69,0,0,0,.76.64,2,2,0,0,0,.86.31,4.1,4.1,0,0,0,2.34-.68A3,3,0,0,1,374,132.5a3,3,0,0,1-1.81-.14,4,4,0,0,1-1.44-1,5.26,5.26,0,0,1-1.32-2.84A5.84,5.84,0,0,1,369.72,125.64Z"/><path class="cls-36" d="M367.79,103.09s26.55,14.09,24.7-15.7c0,0-4.3,7.83-12.57,4-10-4.58-19.71,1.91-18.11,7.37,0,0-3.58,7.08.27,18.26A33.38,33.38,0,0,0,367.79,103.09Z"/><path class="cls-36" d="M383.68,114.43a1.62,1.62,0,0,1-1.3,1.83h0a1.53,1.53,0,0,1-1.67-1.43l-.31-2.83a1.62,1.62,0,0,1,1.3-1.83h0a1.53,1.53,0,0,1,1.67,1.43Z"/><path class="cls-35" d="M373.74,114a3.75,3.75,0,0,1-1.63.35,6,6,0,0,1-1.6-.22,6.2,6.2,0,0,1-1.52-.64,4.46,4.46,0,0,1-1.34-1.19,4.53,4.53,0,0,1,1.71-.34,5.4,5.4,0,0,1,1.53.21,6,6,0,0,1,1.45.63A5.74,5.74,0,0,1,373.74,114Z"/><path class="cls-35" d="M373.74,114a5.12,5.12,0,0,1-2.26.68,5.06,5.06,0,0,1-2.34-.31,5.06,5.06,0,0,1,2.26-.68A5.12,5.12,0,0,1,373.74,114Z"/><path class="cls-35" d="M373.74,114a3.91,3.91,0,0,1-.89,1.35,4.77,4.77,0,0,1-1.15.85,4.69,4.69,0,0,1-1.35.46,3.86,3.86,0,0,1-1.62,0,3.87,3.87,0,0,1,.89-1.35,4.69,4.69,0,0,1,1.16-.84,4.77,4.77,0,0,1,1.35-.46A3.91,3.91,0,0,1,373.74,114Z"/><path class="cls-37" d="M377.2,112.27c.6-.06,3.72,10,3.72,10,.29.9.59,1.93-.23,2.25h0c-.82.32-3.87.51-4.16-.39C376.54,124.12,376.35,112.37,377.2,112.27Z"/><path class="cls-38" d="M456.66,102.72c-.45-4.42-1.93-7.86-3.3-7.69l-.1,0h-.06l-70,14.81c-.86.12-1.41,1.54-1.22,3.17s1,2.85,1.9,2.73L455,111H455l.07,0C456.41,110.63,457.1,107,456.66,102.72Z"/><path class="cls-39" d="M456.18,102.72c.41,4-.15,7.34-1.25,7.47s-2.32-3-2.73-7,.15-7.34,1.25-7.47S455.77,98.73,456.18,102.72Z"/><ellipse class="cls-40" cx="453.58" cy="99.8" rx="3.52" ry="0.97" transform="translate(349.19 552.35) rotate(-89.42)"/><path class="cls-28" d="M382,113c.19,1.63,1,2.85,1.9,2.73L455,111H455l.07,0c1.3-.36,2-4,1.55-8.27Z"/><path class="cls-34" d="M420.75,116.52c-1.12,6-2.05,4.33-5.34,4.33h0c-2.17-.12-6-3.35-6-6.53h.05c-.33-6.76,2.66-6.53,5.95-6.53h0c3.28,0,4.78-2.78,5.45,1.94A38.88,38.88,0,0,1,420.75,116.52Z"/><path class="cls-34" d="M411.32,111.22c.21.84,0,3.64-.76,3.86h0c-.77.23-.79,1.19-1,.35l-2.63-9.84a1.61,1.61,0,0,1,1-1.94h0a1.43,1.43,0,0,1,1.77,1.11Z"/><path class="cls-34" d="M414.29,109.35a1.6,1.6,0,0,1-1,1.94h0a1.43,1.43,0,0,1-1.77-1.11l-1.6-6.46a1.61,1.61,0,0,1,1-1.94h0a1.43,1.43,0,0,1,1.77,1.11Z"/><path class="cls-34" d="M417.18,108.78a1.56,1.56,0,0,1-1.24,1.78h0a1.47,1.47,0,0,1-1.62-1.36l-.82-6.63a1.56,1.56,0,0,1,1.24-1.78h0a1.47,1.47,0,0,1,1.62,1.36Z"/><path class="cls-34" d="M420.86,109.64a1.56,1.56,0,0,1-1.24,1.78h0a1.47,1.47,0,0,1-1.62-1.36l-.82-6.63a1.56,1.56,0,0,1,1.24-1.78h0A1.47,1.47,0,0,1,420,103Z"/><path class="cls-27" d="M410.17,117.63c-4.06,24.84-35.5,22.31-45.41,14.14l-.57,10.31a24.52,24.52,0,0,0,5.41,4.28c20.48,11.92,49.22-3.55,51.15-28.9,0,0-1.48-1.9-5.16-1.56C411.09,116.34,410.17,117.63,410.17,117.63Z"/><path class="cls-34" d="M425.22,113.75,423.59,108a1.42,1.42,0,0,0-1.81-1,1.62,1.62,0,0,0-.95,2l1.59,5.26A4.25,4.25,0,0,1,425.22,113.75Z"/><text class="cls-41" transform="translate(100.68 603.9) scale(1.08 1)">E<tspan class="cls-42" x="12.48" y="0">n</tspan><tspan x="25.32" y="0">trez en</tspan></text><text class="cls-43" transform="translate(100.13 633.58) scale(1.1 1)">Co<tspan class="cls-44" x="30.61" y="0">n</tspan><tspan x="44.72" y="0">tact</tspan><tspan class="cls-8" x="92.48" y="0"> </tspan></text><path class="cls-45" d="M159.53,520.2c-1.9-3.24-7.21-3.94-4.4-6-.08.06,1.07-1,1.35-1.27l.27-.3.16-.29c.12-.21.57-1.35.43-.87a10.39,10.39,0,0,0,.31-1.14l.08-.42c0-.22,0-.45.06-.67,0-.6.06-1.2.07-1.81,0-1.33,0-2.65,0-4a6,6,0,0,1,1.48-4.13c-1.64-1.06-3.42-1.2-4.06-.29l-.23.32-1,1.42-.06.08-.75-.53,1-1.4,1-1.43.81-1.15c.67-1-.16-2.7-1.85-3.89s-3.62-1.39-4.29-.44l-.81,1.15-1,1.43-1,1.4-.75-.53,4.52-6.41h0l.11-.15,5.95-8.43a3.78,3.78,0,0,0-6.14-4.33l-5.95,8.43-.1.16h0L131.64,503.3l-3.46,6.77-1-18.74c.52-2.21.85-4.35-1-5.64a4,4,0,0,0-5.63,1l-1.07,15.69s-1.81,4.29-.55,11l2.95,5.93c-14.42,29.79-9.55,22.27-11.53,25l27.35,7.93c.71-2.83,9.43-21.56,9.43-21.56a40.28,40.28,0,0,0,5.29-1.93,10.18,10.18,0,0,0,3.17-2.76C158.11,522.58,160.15,521.26,159.53,520.2Z"/><path class="cls-45" d="M169.19,469.45a3.6,3.6,0,0,0-5,.62l-5.95,8.43-.1.16h0L145,497.21l-.06,0,0,.22c.44,2.74.64,5.93,1.6,8.58h0l0,0c0-.12.17,0,.26.14l.05,0,.16,0q.54.18,1.09.32l.08,0h0c.4-.55.8-1.1,1.2-1.66,2.44-3.47,4.69-7.06,6.82-10.72a6,6,0,0,1,4.36-3,7,7,0,0,1,0-1.49l-.19.27-.75-.53,1.85-2.63a6,6,0,0,1,.65-.92l2-2.86h0l.11-.15,5.95-8.43A3.6,3.6,0,0,0,169.19,469.45Z"/><path class="cls-46" d="M165.86,519.48a2.21,2.21,0,0,1-2.22,2.18H129a2.21,2.21,0,0,1-2.22-2.18V450a2.21,2.21,0,0,1,2.22-2.18h34.6a2.21,2.21,0,0,1,2.22,2.18Z"/><polygon class="cls-47" points="162.3 455.98 161.37 455.98 159.58 455.98 157.54 455.98 155.85 455.98 155.73 455.98 153.46 455.98 147.74 455.98 145.76 455.98 143.72 455.98 141.82 455.98 138.97 455.98 137.19 455.98 131.6 455.98 131.4 455.98 129.63 455.98 128.61 455.98 128.61 463.86 128.6 463.85 128.6 465.97 128.61 465.98 128.61 471.83 128.61 471.83 128.61 478.92 128.6 478.92 128.6 480.67 128.6 480.67 128.6 498.25 128.6 498.25 128.6 499.84 128.6 499.84 128.6 507.97 128.6 507.97 128.6 510.09 128.6 510.09 128.6 515.38 128.73 515.38 130.56 515.38 134.62 515.38 136.94 515.38 136.94 515.38 137.19 515.38 138.69 515.38 138.97 515.38 140.72 515.38 140.98 515.38 142.52 515.38 147.93 515.38 148.02 515.38 149.95 515.38 154.75 515.38 156.72 515.38 157.15 515.38 159.51 515.38 164.07 515.38 164.07 510.53 164.07 507.28 164.07 506.51 164.07 505.53 164.07 503.62 164.07 502.79 164.07 500.63 164.07 480.67 164.07 478.91 164.07 474.29 164.07 471.83 164.07 461.35 164.07 459.39 164.07 455.98 162.3 455.98"/><polygon class="cls-48" points="128.6 455.1 128.6 455.13 128.61 455.13 128.61 455.5 128.6 455.95 128.6 455.95 128.6 456.06 128.6 456.06 128.6 457.16 128.6 457.16 128.6 457.26 128.6 457.26 128.6 457.77 128.6 457.77 128.6 457.9 128.6 457.9 128.6 458.27 128.6 458.33 164.07 458.33 164.07 455.1 128.6 455.1"/><polygon class="cls-9" points="133.72 574.94 150.33 539.92 114.04 522.7 89.26 574.94 133.72 574.94"/><circle class="cls-49" cx="141.43" cy="540.98" r="1.83" transform="translate(-401.13 405.76) rotate(-61.35)"/><polygon class="cls-50" points="135.59 574.94 147.96 548.88 107.91 529.88 86.53 574.94 135.59 574.94"/><circle class="cls-51" cx="146.34" cy="518.63" r="1.96"/><rect class="cls-50" x="129.93" y="456" width="9.97" height="1.09"/><rect class="cls-50" x="142.8" y="456" width="4.67" height="1.09"/><path class="cls-45" d="M139.77,522.83c.14-.55.26-1.11.35-1.66-.1-.3.21-6.19-6.67-11-3.18-2.23-6.94-1.73-8.66-1.57v14.24Z"/><path d="M142.93,460.6a7.82,7.82,0,0,0-2.9,3.89c-.23.95.39,5.65.43,6.67,0,.53.55-.2.89.15-.06-.61,4.43-4.67,5.33-4.88.62-.15,5,2.93,5,3.6,0,.47.11.81.07,1.28l.1,0c.12-.32.76-.39.84-.72a22.13,22.13,0,0,0-.09-4.93c-.35-3.81-2.41-4.26-4.51-4.35C142.82,461.13,143.62,460.08,142.93,460.6Z"/><path class="cls-52" d="M141.21,480.55l9,1.93c-.62-.41,1.07-2.3.49-3.21-.32-.51.2-2.17.41-2.74a5.12,5.12,0,0,1-8.65-.12l.06.12c.35.73,1,2.22.45,3C142.83,479.66,141.55,480.13,141.21,480.55Z"/><path class="cls-53" d="M146.35,466.59a3.85,3.85,0,0,1-3.42.13c-.31-.14-.63-.26-1.05-.44l-.63,4.72a2.4,2.4,0,0,0-.34-.58,1,1,0,0,0-.6-.31c-.13,0-.34.26-.38.44a3.16,3.16,0,0,0,.42,2.6c.1.15.87.57.93.69.26.51.37,1,.62,1.5l.52,1.08a5.16,5.16,0,0,0,4.27,2.43V466.42Z"/><path class="cls-54" d="M153.44,470.64c-.07-.23-.28-.56-.47-.59s-.47.22-.63.42a4.42,4.42,0,0,0-.43.84c0-.23,0-.32,0-.42-.18-1.54-.36-3.09-.53-4.63a.69.69,0,0,0-.67-.7,9.09,9.09,0,0,0-1.54,0,6.94,6.94,0,0,0-2.46.91v12.43h.1a5.15,5.15,0,0,0,4.29-2.32,7.93,7.93,0,0,0,1-2.74c0-.11.35-.19.44-.27s.51-.35.63-.59A3,3,0,0,0,153.44,470.64Z"/><polygon class="cls-55" points="162.51 495.74 160.32 482.7 150.66 479.14 146.6 481.1 143.18 479.14 132.41 482.42 130.38 495.74 162.51 495.74"/><polygon class="cls-9" points="150.25 495.74 152.08 479.77 151.03 479.21 146.67 481.08 142.31 479.37 141.37 479.76 143.46 495.74 150.25 495.74"/><polygon class="cls-56" points="143.06 479.02 146.67 481.08 144.69 483.91 141.58 479.65 143.06 479.02"/><polygon class="cls-56" points="150.58 478.92 146.69 481.08 148.7 483.78 151.88 479.59 150.58 478.92"/><polygon class="cls-57" points="153.29 495.74 155.41 490.42 152.63 488.13 156.02 486.17 153 480.01 151.83 479.57 149.85 495.74 153.29 495.74"/><polygon class="cls-57" points="137.99 490.3 140.15 495.74 143.58 495.74 141.84 479.54 140.72 479.89 137.37 486.04 140.76 488 137.99 490.3"/><polygon class="cls-58" points="144.77 495.74 148.56 495.74 147.43 485.21 148.34 483.35 146.68 481 145.06 483.35 145.97 485.23 144.77 495.74"/><path class="cls-45" d="M169.23,504.41a3.15,3.15,0,0,1-2.17,3.89l-7.58,2a3.15,3.15,0,0,1-3.81-2.3h0a3.15,3.15,0,0,1,2.17-3.89l7.58-2a3.15,3.15,0,0,1,3.81,2.3Z"/><path class="cls-45" d="M168.63,487.22a3.24,3.24,0,0,1-1.3,4.39l-7,3.29a3.24,3.24,0,0,1-4.21-1.79h0a3.25,3.25,0,0,1,1.3-4.39l7-3.29a3.25,3.25,0,0,1,4.21,1.79Z"/><path class="cls-59" d="M156.73,501.77a4.21,4.21,0,0,1-4.21,4.21H140.37a4.21,4.21,0,0,1-4.21-4.21h0a4.21,4.21,0,0,1,4.21-4.21h12.15a4.21,4.21,0,0,1,4.21,4.21Z"/><path class="cls-45" d="M179.73,507.75c-1.77,1.09-2.7,2.77-2.1,3.76l.31.51-.78.48-.05-.09-.91-1.48-.21-.34c-.61-1-2.54-.92-4.3.17s-2.71,2.77-2.1,3.76l.21.34.91,1.48.05.09-.78.48-.9-1.46-.91-1.49-.74-1.2c-.61-1-2.54-.92-4.3.17s-2.71,2.77-2.1,3.76l.74,1.2.91,1.49.9,1.46-.78.48-4.1-6.68h0l-.09-.16-4.85-7.86a3.77,3.77,0,0,0-6.4,3.93l4.85,7.86.11.15h0l11.88,19.33-1,.63L160,533.45a4,4,0,1,0-6.88,4.23l7.21,10.18s2.08,2.08,3.55,2.12L175,553.11l4.64,7.7L202,548.56c-4-6.45-7.43-12.14-7.43-12.14a76.11,76.11,0,0,0,.31-7.62c-.16-2-3.52-9-7.19-15.12l-1-1.85-1-1.68-.3-.48-.72-1.16-.58-.95C183.43,506.58,181.5,506.66,179.73,507.75Z"/><polygon class="cls-9" points="226.41 574.94 204.46 539.21 170.27 560.23 179.31 574.94 226.41 574.94"/><circle class="cls-49" cx="200.5" cy="547.24" r="1.83" transform="translate(-235.51 160.5) rotate(-28.31)"/><polygon class="cls-50" points="228.41 574.94 210.67 546.08 172.94 569.27 176.42 574.94 228.41 574.94"/><path class="cls-9" d="M142.31,502.28l1,.06a1.51,1.51,0,0,1-.5,1,1.72,1.72,0,0,1-2.26-.13,1.93,1.93,0,0,1-.46-1.37,2.13,2.13,0,0,1,.44-1.4,1.71,1.71,0,0,1,2.34-.13,1.67,1.67,0,0,1,.44,1.07l-1.05.06a.81.81,0,0,0-.14-.53.43.43,0,0,0-.33-.16q-.53,0-.53,1.07a1.65,1.65,0,0,0,.14.82.44.44,0,0,0,.39.22Q142.26,502.89,142.31,502.28Z"/><path class="cls-9" d="M145.72,503.69l-.21-.72h-1l-.22.72h-.92l1.14-3.68h1.19l1.15,3.68Zm-1-1.53h.6l-.3-1.07Z"/><path class="cls-9" d="M149.8,502.79v.9h-2.58V500h1.13v2.78Z"/><path class="cls-9" d="M152.77,502.79v.9h-2.58V500h1.13v2.78Z"/><path class="cls-45" d="M169.07,497.14a3.21,3.21,0,0,1-2.21,4L159.25,503a3.21,3.21,0,0,1-3.79-2.48h0a3.21,3.21,0,0,1,2.2-4l7.61-1.88a3.21,3.21,0,0,1,3.79,2.48Z"/><path class="cls-60" d="M146.16,476.59a.67.67,0,0,0-.59.36c-3.78-.69-4.12-3-4.12-3.13h0a.26.26,0,0,0-.21.26c0,.08,0,2.66,4.3,3.42a.67.67,0,1,0,.62-.92Z"/><text class="cls-61" transform="translate(371.27 612.36) scale(1.08 1)"><tspan class="cls-62">E</tspan><tspan class="cls-63" x="15.22" y="0">c</tspan><tspan x="29.26" y="0">o</tspan><tspan class="cls-64" x="44.92" y="0">n</tspan><tspan x="60.93" y="0">omi</tspan><tspan class="cls-65" x="108.16" y="0">s</tspan><tspan x="121.7" y="0">ez</tspan><tspan class="cls-66" x="151.13" y="0"> </tspan></text><polygon class="cls-67" points="495.67 519.03 512.6 519.03 512.6 526.68 495.67 526.68 495.67 519.03 495.67 519.03"/><path class="cls-68" d="M402.33,511a35.18,35.18,0,0,1,15.94-17.9V478.72a14.31,14.31,0,0,1,13.89,9.94,39.19,39.19,0,0,1,4.52-.26H464.5c20.21,0,36.59,15.43,36.59,34.46,0,16.43-12.22,30.18-28.57,33.62v13H457.9V557.32H443.29v12.17H428.66v-13a36,36,0,0,1-26.34-21.74H392.24V511Z"/><path class="cls-67" d="M450.59,488.4h-13.9a39.19,39.19,0,0,0-4.52.26,14.31,14.31,0,0,0-13.89-9.94v14.35A35.18,35.18,0,0,0,402.33,511h-10.1v23.77h10.09a36,36,0,0,0,26.34,21.74v13h14.62V557.32h7.31V488.4Z"/><path class="cls-69" d="M450.59,450.55c8.26,0,15,6.31,15,14.09s-6.7,14.09-15,14.09-15-6.31-15-14.09,6.7-14.09,15-14.09Z"/><path class="cls-70" d="M418.28,507a4,4,0,1,1-4.24,4,4.12,4.12,0,0,1,4.24-4Z"/><polygon class="cls-70" points="434.59 493.97 466.6 493.97 466.6 501.2 434.59 501.2 434.59 493.97 434.59 493.97"/><polygon class="cls-68" points="434.59 493.97 450.59 493.97 450.59 501.2 434.59 501.2 434.59 493.97 434.59 493.97"/><path class="cls-71" d="M450.59,450.55c-8.26,0-15,6.31-15,14.09s6.7,14.09,15,14.09V450.55Z"/></svg>