<svg id="Calque_1" data-name="Calque 1" xmlns="http://www.w3.org/2000/svg" xmlns:xlink="http://www.w3.org/1999/xlink" viewBox="0 0 600 700"><defs><style>.cls-1,.cls-11{fill:none;}.cls-2{fill:#43a372;}.cls-3{fill:#62b132;}.cls-21,.cls-35,.cls-36,.cls-4{font-size:24.11px;}.cls-23,.cls-35,.cls-4{fill:#fdfdfd;}.cls-14,.cls-16,.cls-18,.cls-19,.cls-21,.cls-36,.cls-4,.cls-58{font-family:Affogato-Medium, Affogato;}.cls-5,.cls-55{font-size:26px;}.cls-5,.cls-58{fill:#fafafa;}.cls-23,.cls-35,.cls-5,.cls-55{font-family:Affogato-Bold, Affogato;font-weight:700;}.cls-6{letter-spacing:-0.02em;}.cls-7{letter-spacing:0em;}.cls-8{letter-spacing:-0.01em;}.cls-9{font-size:30.31px;}.cls-10{clip-path:url(#clip-path);}.cls-11{stroke:#39454f;stroke-linecap:round;stroke-miterlimit:10;stroke-width:1.6px;}.cls-12{fill:#f8ab16;}.cls-13{fill:#edba1c;}.cls-14{font-size:14.28px;text-decoration:underline;}.cls-14,.cls-18{fill:#1e1e1c;}.cls-15{letter-spacing:-0.05em;}.cls-16,.cls-18{font-size:7.93px;}.cls-16,.cls-19,.cls-21{fill:#fff;}.cls-17{letter-spacing:-0.01em;}.cls-19{font-size:24px;}.cls-20{letter-spacing:0em;}.cls-22{letter-spacing:-0.01em;}.cls-23{font-size:26.85px;}.cls-24{letter-spacing:0em;}.cls-25{letter-spacing:0em;}.cls-26{letter-spacing:-0.02em;}.cls-27{clip-path:url(#clip-path-3);}.cls-28{fill:#a25624;}.cls-29{fill:#814221;}.cls-30{fill:#e0e2e4;}.cls-31{fill:#d0d8db;}.cls-32{fill:#b9bbbe;}.cls-33{fill:#c6c9cd;}.cls-34{fill:#73381c;}.cls-36{fill:#fcfdfb;}.cls-37{letter-spacing:-0.01em;}.cls-38{letter-spacing:-0.02em;}.cls-39{letter-spacing:0em;}.cls-40{fill:#7a7b7b;}.cls-41{fill:#050506;}.cls-42{fill:#dfe4e8;}.cls-43{fill:#c5d6e2;}.cls-44{fill:#5d6067;}.cls-45{fill:#af2430;}.cls-46{fill:#9d9e9b;}.cls-47{fill:#a8a8a3;}.cls-48{fill:#323d49;}.cls-49{fill:#27262c;}.cls-50{fill:#c3bfbe;}.cls-51{fill:#f0f4f7;}.cls-52{fill:#1e1e1e;}.cls-53{fill:#bd4a26;}.cls-54{fill:#dce4f1;}.cls-55{fill:#f8f9fa;}.cls-56{letter-spacing:-0.02em;}.cls-57{letter-spacing:0em;}.cls-58{font-size:28px;}.cls-59{letter-spacing:0em;}.cls-60{letter-spacing:-0.01em;}.cls-61{fill:#5898d2;}.cls-62{fill:#326aae;}.cls-63{fill:#28548c;}.cls-64{fill:#cfcdd2;}.cls-65{fill:#b5b2b9;}.cls-66{fill:#e8e7ea;}</style><clipPath id="clip-path"><rect class="cls-1" x="109.65" y="60.99" width="80.68" height="134.49"/></clipPath><clipPath id="clip-path-3"><rect class="cls-1" x="389.9" y="102.07" width="125.83" height="99.21"/></clipPath></defs><title>Plan de travail 1</title><rect class="cls-2" width="300" height="350"/><rect class="cls-2" x="300" y="350" width="300" height="350"/><rect class="cls-3" x="300" width="300" height="350"/><rect class="cls-3" y="350" width="300" height="350"/><text></text><text class="cls-4" transform="translate(57.08 231.71) scale(1.1 1)">Explorez la ville </text><text class="cls-5" transform="translate(58.64 284.72) scale(1.1 1)">un gui<tspan class="cls-6" x="72.53" y="0">d</tspan><tspan x="86.3" y="0">e l</tspan><tspan class="cls-7" x="116.26" y="0">o</tspan><tspan class="cls-8" x="130.32" y="0">c</tspan><tspan x="142.91" y="0">al</tspan><tspan class="cls-9" x="165.86" y="0"> </tspan></text><g class="cls-10"><path class="cls-11" d="M147.79,72.48V65.9m0,127.35V151.53m0-43.92v8.78"/></g><path class="cls-12" d="M177,107.62H120.5c-1.94,0-3.52-2.36-3.52-5.26V77.74c0-2.91,1.58-5.26,3.52-5.26H177L189.74,89.7a.65.65,0,0,1,0,.7Zm0,0"/><g class="cls-10"><path class="cls-13" d="M122.53,151.53h56.94c1.94,0,3.52-2.36,3.52-5.26V121.66c0-2.91-1.58-5.26-3.52-5.26H122.53l-12.78,17.22a.61.61,0,0,0,0,.7Zm0,0"/></g><text class="cls-14" transform="translate(129.24 93.24) scale(1.1 1)"><tspan class="cls-15">P</tspan><tspan x="6.93" y="0">ARIS</tspan></text><text class="cls-14" transform="translate(134.77 136.05) scale(1.1 1)">MTP</text><text class="cls-16" transform="translate(149.02 104.45) scale(1.1 1)">44 k<tspan class="cls-17" x="14.79" y="0">m</tspan><tspan x="21.45" y="0">s</tspan></text><text class="cls-18" transform="translate(149.02 104.45) scale(1.1 1)">44 k<tspan class="cls-17" x="14.79" y="0">m</tspan><tspan x="21.45" y="0">s</tspan></text><text class="cls-19" transform="translate(124.19 257.79)">av<tspan class="cls-20" x="25.25" y="0">e</tspan><tspan x="38.56" y="0">c</tspan></text><text></text><text class="cls-21" transform="translate(402.32 231.53) scale(1.1 1)">Dor<tspan class="cls-22" x="36.41" y="0">m</tspan><tspan x="56.65" y="0">ez</tspan></text><text class="cls-23" transform="translate(342.72 258.4) scale(1.1 1)">c<tspan class="cls-24" x="13.36" y="0">h</tspan><tspan x="28.19" y="0">ez un </tspan><tspan class="cls-25" x="101.28" y="0">h</tspan><tspan x="116.11" y="0">abita</tspan><tspan class="cls-26" x="178.55" y="0">n</tspan><tspan x="192.83" y="0">t</tspan></text><g class="cls-27"><path class="cls-28" d="M511.71,159.15h-3.93V113.89a5.55,5.55,0,0,1,1-3,5.48,5.48,0,0,0,.92-3,5.91,5.91,0,0,0-11.69-1A5.48,5.48,0,0,0,499,111a4.67,4.67,0,0,1,.95,2.68V123a7.74,7.74,0,0,0-7.86-7.61H413.48a7.74,7.74,0,0,0-7.86,7.61v-9.13a5.56,5.56,0,0,1,1-3,5.48,5.48,0,0,0,.92-3,5.91,5.91,0,0,0-11.7-1,5.49,5.49,0,0,0,.93,4.19,4.68,4.68,0,0,1,.95,2.68v45.5h-3.93a3.87,3.87,0,0,0-3.93,3.8v26.63a3.87,3.87,0,0,0,3.93,3.8H511.71a3.87,3.87,0,0,0,3.93-3.8V163a3.87,3.87,0,0,0-3.93-3.8Zm-11.79,0h-94.3v-5.71a3.87,3.87,0,0,1,3.93-3.8h3.93V139.19a5.68,5.68,0,0,0-1.53-3.58,1.86,1.86,0,0,1-.43-1.19,1.94,1.94,0,0,1,2-1.9,2,2,0,0,1,1.23.42,6.07,6.07,0,0,0,3.69,1.48h17.65a6.07,6.07,0,0,0,3.7-1.48,2,2,0,0,1,1.23-.42,1.93,1.93,0,0,1,2,1.9,1.86,1.86,0,0,1-.43,1.19,5.68,5.68,0,0,0-1.53,3.58v10.45h23.57V139.19a5.68,5.68,0,0,0-1.53-3.58,1.85,1.85,0,0,1-.43-1.19,1.93,1.93,0,0,1,2-1.9,2,2,0,0,1,1.23.42,6.07,6.07,0,0,0,3.7,1.48h17.65a6.07,6.07,0,0,0,3.69-1.48,2,2,0,0,1,1.23-.42,1.93,1.93,0,0,1,2,1.9,1.86,1.86,0,0,1-.43,1.19,5.68,5.68,0,0,0-1.53,3.58v10.45H496a3.87,3.87,0,0,1,3.93,3.8v5.71Zm0,0"/><path class="cls-29" d="M400.63,102.18h0a5.75,5.75,0,0,1,5,5.61,5.47,5.47,0,0,1-.92,3,5.55,5.55,0,0,0-1,3v45.26h2V113.89a5.56,5.56,0,0,1,1-3,5.48,5.48,0,0,0,.92-3,5.84,5.84,0,0,0-7-5.62Zm0,0"/><path class="cls-29" d="M502.79,102.18h0a5.75,5.75,0,0,1,5,5.61,5.47,5.47,0,0,1-.92,3,5.55,5.55,0,0,0-1,3v45.26h2V113.89a5.55,5.55,0,0,1,1-3,5.48,5.48,0,0,0,.92-3,5.84,5.84,0,0,0-7-5.62Zm0,0"/></g><path class="cls-29" d="M511.71,166.76v19a3.87,3.87,0,0,1-3.93,3.8h-110a3.87,3.87,0,0,0-3.93,3.8H511.71a3.87,3.87,0,0,0,3.93-3.8V163a3.87,3.87,0,0,0-3.93,3.8Zm0,0"/><path class="cls-30" d="M441,132.52a2,2,0,0,0-1.23.42,6.07,6.07,0,0,1-3.7,1.48H418.41a6.07,6.07,0,0,1-3.69-1.48,2,2,0,0,0-1.23-.42,1.94,1.94,0,0,0-2,1.9,1.86,1.86,0,0,0,.43,1.19,5.68,5.68,0,0,1,1.53,3.58v10.45H441V139.19a5.68,5.68,0,0,1,1.53-3.58,1.86,1.86,0,0,0,.43-1.19,1.94,1.94,0,0,0-2-1.9Zm0,0"/><path class="cls-30" d="M492.06,132.52a2,2,0,0,0-1.23.42,6.07,6.07,0,0,1-3.69,1.48H469.49a6.07,6.07,0,0,1-3.7-1.48,2,2,0,0,0-1.23-.42,1.93,1.93,0,0,0-2,1.9,1.86,1.86,0,0,0,.43,1.19,5.68,5.68,0,0,1,1.53,3.58v10.45h27.51V139.19a5.67,5.67,0,0,1,1.53-3.58,1.86,1.86,0,0,0,.43-1.19,1.93,1.93,0,0,0-2-1.9Zm0,0"/><path class="cls-31" d="M492.06,134.42c-1.39,0-2,2.46-2,3.8v5.71a3.87,3.87,0,0,1-3.93,3.8H466.52a1.93,1.93,0,0,0-2,1.9h27.51V139.19a5.68,5.68,0,0,1,1.53-3.58c.27-.33.32-1.19-1.53-1.19Zm0,0"/><path class="cls-31" d="M441,134.42c-1.38,0-2,2.46-2,3.8v5.71a3.87,3.87,0,0,1-3.93,3.8H415.44a1.93,1.93,0,0,0-2,1.9H441V139.19a5.68,5.68,0,0,1,1.53-3.58c.27-.33.32-1.19-1.53-1.19Zm0,0"/><path class="cls-32" d="M499.92,153.44h-2a1.93,1.93,0,0,0-2,1.9H409.55a3.87,3.87,0,0,0-3.93,3.8h94.3Zm0,0"/><path class="cls-33" d="M409.55,155.35H496a1.93,1.93,0,0,1,2-1.9h2a3.87,3.87,0,0,0-3.93-3.8H409.55a3.87,3.87,0,0,0-3.93,3.8v5.71a3.87,3.87,0,0,1,3.93-3.8Zm0,0"/><path class="cls-34" d="M401.69,199.09a1.94,1.94,0,0,0,2,1.9h11.79a1.94,1.94,0,0,0,2-1.9v-5.71H401.69Zm0,0"/><path class="cls-34" d="M488.13,199.09a1.94,1.94,0,0,0,2,1.9h11.79a1.94,1.94,0,0,0,2-1.9v-5.71H488.13Zm0,0"/><text></text><text class="cls-4" transform="translate(107.13 552.3) scale(1.1 1)">Partagez </text><text class="cls-35" transform="translate(91.85 580.33) scale(1.1 1)"><tspan xml:space="preserve"> le vehicule</tspan></text><text></text><text class="cls-36" transform="translate(76.64 606.18) scale(1.1 1)"><tspan class="cls-37">d</tspan><tspan class="cls-38" x="12.96" y="0">’</tspan><tspan x="17.18" y="0">un </tspan><tspan class="cls-39" x="51.61" y="0">p</tspan><tspan x="64.87" y="0">articulier</tspan></text><path class="cls-40" d="M179.08,497.87a.25.25,0,0,0,0-.5.25.25,0,0,0,0,.5Z"/><path class="cls-40" d="M239.76,503c.1-.27,4,1.74,4.49,1.85a12.2,12.2,0,0,0,5.33.19,3.2,3.2,0,0,0,2.47-2.18c1.35-3.16,2.31-7.95,6.57-8.56.32,0,.18-.53-.13-.48-6.14.89-5.31,10.36-11.28,10.86a8.15,8.15,0,0,1-4.61-1.07c-.5-.3-1.65-1.66-2.32-1.66s-.74.25-1,.91c-.12.3.37.43.48.13Z"/><path class="cls-40" d="M239.52,508.36c2-.17,1.41,3.22,2.36,4.19,1.16,1.18,3.45.48,4.71.05a18.22,18.22,0,0,1,3.59-1c.78-.12,3,.32,3.85-.06.28-.13.45-.44.69-.62s.94-1.39,1.34-1.7c1.24-1,1.14-.87,2.49-.81.32,0,.32-.49,0-.5-1.05,0-2.81-.39-3.64.55-.19.21-.2.92-.37,1.11-1,1.11-2.12.92-3.53,1.13a10.46,10.46,0,0,0-1.92.35c-1.23.39-2.62,1.55-4,1.52l-3.24-1.07-.18-1.15c-.13-.29-.07-.68-.18-1-.4-1.11-.76-1.55-2-1.45-.32,0-.32.53,0,.5Z"/><path class="cls-40" d="M257.42,499.68c3.57,0,7.13,0,10.7,0,3.35,0,5.05,1,6.8,3.94a.25.25,0,0,0,.43-.25c-1.25-2.12-2.45-3.77-5-4.11-4.16-.56-8.74,0-12.93,0a.25.25,0,0,0,0,.5Z"/><path class="cls-40" d="M256.66,506c5.06-.19,9,3,13.8,3.6,2.88.33,4.26-1.4,5.66-3.72a.25.25,0,0,0-.43-.25c-1.24,2.06-2.63,3.75-5.22,3.43a21,21,0,0,1-4.6-1.42c-3-1.12-5.94-2.26-9.2-2.13-.32,0-.32.51,0,.5Z"/><path class="cls-41" d="M74.13,510.49l5.3,3.39s1.08-2.76,5.15-1.94S105.25,514,105.25,514s6,1.68,8.75-.27,64.06-1.85,64.06-1.85l8.82,2.22a21.38,21.38,0,0,1,4.93-1.08c2-.08,19.55-.46,19.55-.46l3.08-.54,7.29-6.44L207.09,485.7,99.7,489.6l-21.84,6.17Z"/><path class="cls-42" d="M226.56,507.57h6.27s.83,0,.69,1.54-1.44,1.37-1.44,1.37H226Z"/><path class="cls-43" d="M86.5,488.54l-2.92-.38s-4.89.77-7.64,3.13-3.9,7-3.74,7.64,9.07-2.86,9.29-3.16S86.5,488.54,86.5,488.54Z"/><path class="cls-44" d="M112.63,484.05a15.1,15.1,0,0,1,2-.95c.85-.28,3.84-.71,3.65-.47s-1.38.76-1.14,1.42S112.63,484.05,112.63,484.05Z"/><path class="cls-43" d="M115.91,484.1s19.6-11,26.25-13.32l2.55.13L129.95,479l-9.25,6.12Z"/><path class="cls-45" d="M225.4,483.38s2.36-.71,2.75.88a31.2,31.2,0,0,0,1,4.78c.66,1.65,1.1,2.64.55,3.79s-9.68-1.1-9.68-1.1S220,483.49,225.4,483.38Z"/><path class="cls-46" d="M111.08,514.76c5.16-.46,64.38-.59,74.37-.61l-.06-2.78-74.32,1.29C111.07,513.47,111.07,514.17,111.08,514.76Z"/><path class="cls-47" d="M230.76,495.52c0-.54-.77-3.7-.77-3.7l-3.89-.11c-2.89-.08-3.46-2.73-4.12-4s4.62-3.23,5.24-4.15-9-1.8-11-2-7.89-3.72-15.59-7.49-17.44-6.24-36-6.24S141,471.12,141,471.12h2.22a173.79,173.79,0,0,0-23,12.53c-1.54.46-6.31-.1-6.31-.1-22.29,2.27-30.3,4.62-30.3,4.62s2,.93,1.61,1.54-6.6,5.09-8.52,6.78a7.22,7.22,0,0,1-4.57,1.59,3.59,3.59,0,0,0-2.3,3.62c.08,1.08.89,6.24.92,6.93s-1,.62-.69,1.89,3.39,2.77,3.39,2.77l5,.48c-.3-1.48-1.16-6.42.09-9.55C80,500.52,83.8,493,94.36,493c8.53,0,16.7,5.58,16.7,17.33,0,.87,0,1.64,0,2.33l74.32-1.29,0-1.88s2.28-16.74,16.91-16c12.56.62,14.82,11.83,13.33,18.5,2.75-.24,9.56-.82,10.51-.79a1.88,1.88,0,0,0,1.69-1c6.66-1.92,4.35-4.12,4.35-4.12,1.46-2.93,1.35-4.85,1.54-7.58S230.76,495.52,230.76,495.52Z"/><path class="cls-46" d="M202.26,493.47c-14.63-.73-16.91,16-16.91,16l.09,4.66h1.43c-.23-3.12-.12-18.68,15.51-18.85,14.05-.15,12,16.78,12,16.78l1.15-.1C217.07,505.3,214.82,494.1,202.26,493.47Z"/><path class="cls-46" d="M94.36,493C83.8,493,80,500.52,78.52,504.23c-1.25,3.13-.4,8.07-.09,9.55l1,.1c-1.54-8.55,2-20.63,16.4-19.44s14.63,17.25,14.63,18.55a3.77,3.77,0,0,0,.31,1.81l.31,0c0-1.09,0-2.54,0-4.44C111.06,498.57,102.89,493,94.36,493Z"/><path class="cls-43" d="M122.77,485.7s19.14-13.21,21.94-13.7c0,0,12.62-3.53,22.91-2.55s29.3,2.54,29.85,8.51-.34,4.88-.34,4.88Z"/><polygon class="cls-48" points="162.43 470.03 159.57 484.45 165.7 484.15 166.73 470.03 162.43 470.03"/><circle class="cls-49" cx="94.33" cy="508.79" r="12.12"/><circle class="cls-50" cx="94.36" cy="508.79" r="9.15"/><path class="cls-49" d="M91.18,502.65l2.12,2.41s.37.58.87.58a1.31,1.31,0,0,0,.87-.4l2.22-2.58s.31-.37,0-.62a5.53,5.53,0,0,0-2.89-.62C92.86,501.42,90.64,501.82,91.18,502.65Z"/><path class="cls-49" d="M91.18,514.92l2.12-2.41s.37-.58.87-.58a1.31,1.31,0,0,1,.87.4l2.21,2.58s.31.37,0,.62a5.53,5.53,0,0,1-2.89.62C92.86,516.16,90.64,515.75,91.18,514.92Z"/><path class="cls-49" d="M100.57,505.73l-2.41,2.12s-.58.37-.58.87a1.31,1.31,0,0,0,.4.87l2.58,2.21s.37.31.62,0a5.54,5.54,0,0,0,.62-2.89C101.8,507.4,101.4,505.19,100.57,505.73Z"/><path class="cls-49" d="M88.3,505.73l2.41,2.12s.58.37.58.87a1.31,1.31,0,0,1-.4.87l-2.58,2.22s-.37.31-.62,0a5.54,5.54,0,0,1-.62-2.89C87.06,507.4,87.47,505.19,88.3,505.73Z"/><circle class="cls-49" cx="200.92" cy="508.79" r="12.12"/><circle class="cls-50" cx="200.95" cy="508.79" r="9.15"/><path class="cls-49" d="M197.78,502.65l2.12,2.41s.37.58.87.58a1.31,1.31,0,0,0,.87-.4l2.22-2.58s.31-.37,0-.62a5.53,5.53,0,0,0-2.89-.62C199.45,501.42,197.24,501.82,197.78,502.65Z"/><path class="cls-49" d="M197.77,514.92l2.12-2.41s.37-.58.87-.58a1.31,1.31,0,0,1,.87.4l2.21,2.58s.31.37,0,.62a5.53,5.53,0,0,1-2.89.62C199.45,516.16,197.24,515.75,197.77,514.92Z"/><path class="cls-49" d="M207.16,505.73l-2.41,2.12s-.58.37-.58.87a1.31,1.31,0,0,0,.4.87l2.58,2.21s.37.31.62,0a5.53,5.53,0,0,0,.62-2.89C208.4,507.4,208,505.19,207.16,505.73Z"/><path class="cls-49" d="M194.89,505.73l2.41,2.12s.58.37.58.87a1.31,1.31,0,0,1-.4.87l-2.58,2.22s-.37.31-.62,0a5.54,5.54,0,0,1-.62-2.89C193.66,507.4,194.06,505.19,194.89,505.73Z"/><path class="cls-51" d="M190.65,472.58s-10-3.68-26-3.25c0,0-13.47-.09-19.85,2.12,0,0-9.86,3.71-23.75,14.79h2.18l.74-.07,74.63-3a27,27,0,0,0-.1-3.51C198.09,476.58,197,474.13,190.65,472.58Zm5.74,10-33.69,1.26-39.06,1.78c3.77-2.63,17.91-12,22.12-13.58,4.91-1.83,19.9-1.94,21.52-1.86s18.71.57,26.38,4.53C193.66,474.68,198.63,476,196.39,482.56Z"/><path class="cls-52" d="M118.62,510.49v-.13c0-.14-1.26-13.95-.41-18.16s1.41-5.11,4.19-7.17l.14-.1c11.22-8.36,19.63-13.3,24.34-14.28a111.74,111.74,0,0,1,19.42-1.47c5.51,0,13.31.31,19.22,1.81,11.07,2.81,12.45,4.48,13,7.63s.39,13.29-.47,15.2l0,.06-.07,0c-.11,0-11.26,2.72-12.29,15.73v.12Zm47.66-41a111.49,111.49,0,0,0-19.36,1.46c-4.6,1-13.21,6-24.23,14.23l-.14.1c-2.7,2-3.27,3-4.08,7s.28,16.55.4,18l66.48-.73c1.06-12.57,11.47-15.58,12.43-15.83.8-2,.89-12.11.43-15s-1.85-4.64-12.76-7.41C179.56,469.76,171.77,469.45,166.28,469.45Z"/><path class="cls-53" d="M84.58,497.26l-6.86,0s-.28,1.33,1.36,1.43,3.82.14,3.82.14A14.81,14.81,0,0,1,84.58,497.26Z"/><path class="cls-46" d="M187.73,499.42c0,.47-15.1.75-33.73,1.1s-33.74.65-33.75.18,15.15-1,33.78-1.33S187.73,498.94,187.73,499.42Z"/><path class="cls-52" d="M161.4,509.91c-1.12-8.16,1.19-26.29,1.21-26.47l1.78-14.14.27,0-1.78,14.14c0,.18-2.33,18.28-1.21,26.4Z"/><path class="cls-46" d="M150.52,489.3s-.07-1.05,1.76-1.52a10.76,10.76,0,0,1,3-.51c.6,0,4.42.25,4.44,1.66s-2.83,1.87-3.94,2S150.45,491.1,150.52,489.3Z"/><path class="cls-46" d="M186.51,488.48s-.07-1.05,1.76-1.52a10.76,10.76,0,0,1,3-.51c.6,0,4.42.25,4.44,1.66s-2.83,1.87-3.94,2S186.44,490.28,186.51,488.48Z"/><rect class="cls-54" x="151.87" y="488.16" width="6.27" height="1.36" rx="0.61" ry="0.61" transform="translate(-11.37 3.75) rotate(-1.34)"/><path class="cls-54" d="M194.12,488a.61.61,0,0,1-.6.63l-5,.12a.61.61,0,0,1-.63-.6V488a.61.61,0,0,1,.6-.63l5-.12a.61.61,0,0,1,.63.6Z"/><polygon class="cls-40" points="228.14 510.7 229.31 506.04 235.75 506.04 233.59 510.7 228.14 510.7"/><text class="cls-55" transform="translate(408.01 592.38) scale(1.08 1)"><tspan class="cls-56">M</tspan><tspan x="19.97" y="0">a</tspan><tspan class="cls-57" x="34.75" y="0">n</tspan><tspan x="49.1" y="0">gez </tspan></text><text class="cls-58" transform="translate(419.5 622.03) scale(1.08 1)">l<tspan class="cls-59" x="8.5" y="0">o</tspan><tspan class="cls-60" x="23.99" y="0">c</tspan><tspan x="37.93" y="0">al</tspan></text><path class="cls-61" d="M495.14,455.11a58.37,58.37,0,0,0-78.16,0,48.66,48.66,0,0,0,0,72.48,58.37,58.37,0,0,0,78.16,0,48.66,48.66,0,0,0,0-72.48Z"/><path class="cls-62" d="M495.14,455.11a57.15,57.15,0,0,0-39-15V542.6a57.15,57.15,0,0,0,39-15,48.66,48.66,0,0,0,0-72.48Z"/><path class="cls-62" d="M456.06,455.25c21.5,0,38.93,16.16,38.93,36.1s-17.43,36.1-38.93,36.1-38.93-16.16-38.93-36.1,17.43-36.1,38.93-36.1Z"/><path class="cls-63" d="M456.12,455.25v72.2c21.47,0,38.87-16.18,38.87-36.1s-17.4-36.07-38.87-36.1Z"/><path class="cls-64" d="M442.79,532.19a4.88,4.88,0,0,1-9.73,0V475.65h9.73v56.54Z"/><path class="cls-65" d="M442.79,484.27v-9.51h-9.73v9.51a17.73,17.73,0,0,0,9.73,0Z"/><path class="cls-64" d="M478.89,532.19a4.88,4.88,0,0,1-9.73,0v-50.3h9.73v50.3Z"/><path class="cls-66" d="M475.64,448.39a1.68,1.68,0,0,1,1.85-1,1.59,1.59,0,0,1,1.4,1.53v38.35h-14a2.37,2.37,0,0,1-1.87-.89,2,2,0,0,1-.32-1.93l12.92-36Z"/><polygon class="cls-65" points="469.16 487.23 478.89 487.23 478.89 492.76 469.16 492.76 469.16 487.23 469.16 487.23"/><path class="cls-66" d="M450.79,448.07a3.48,3.48,0,0,0-3.6,3.34v12.41h-5.65V451.42a3.61,3.61,0,0,0-7.21,0v12.41h-5.65V451.42a3.61,3.61,0,0,0-7.21,0v12.69c0,8.42,7.39,15.27,16.47,15.27s16.47-6.85,16.47-15.27V451.42a3.48,3.48,0,0,0-3.6-3.34Z"/></svg>