<svg style="position: fixed; bottom: 0" xmlns="http://www.w3.org/2000/svg" id="Calque_1" data-name="Calque 1" viewBox="0 0 1280 800">
  <defs>
    <style>
      .cls-1{fill:#9fdded;}.cls-2{fill:#c74375;}.cls-3{fill:#5eacea;}.cls-4{fill:#5e9eea;}.cls-5{fill:#5e97ea;}.cls-6{fill:#5e8dea;}.cls-7{fill:#46b030;}.cls-8{fill:#44a472;}.cls-9{fill:#ead1dd;}.cls-10{fill:#9aced0;}.cls-11{fill:#e8feff;}.cls-12{fill:#bdeaff;}.cls-13{fill:#b27bc4;}.cls-14{fill:#f6cdcd;}.cls-15{fill:#7c4243;}.cls-16{fill:#f4d7d7;}.cls-17{fill:#f1888c;}.cls-18,.cls-30{fill:#fff;}.cls-19{fill:#520909;}.cls-20{fill:#fcfafa;}.cls-21{fill:#bfa9a5;}.cls-22{fill:#d1b8b3;}.cls-23{fill:#8ca02d;}.cls-24{fill:#8c962d;}.cls-25{fill:#ff6f1d;}.cls-26{fill:#bc968a;}.cls-27{fill:#d1a798;}.cls-28{fill:#ffba52;}.cls-29{opacity:0.2;}.cls-29,.cls-30,.cls-32,.cls-40{isolation:isolate;}.cls-30{opacity:0.19;}.cls-31{fill:#9a2350;}.cls-32{opacity:0.1;}.cls-33{fill:#210505;}.cls-34{fill:#f3d5d6;}.cls-35{fill:#f66a7e;}.cls-36{fill:#3d3335;}.cls-37{fill:#514447;}.cls-38{fill:#30282a;}.cls-39{fill:#4f4346;}.cls-40{opacity:0.15;}
    </style>
  </defs>
  <path d="M1280 760c0-3.5-.16-7 0-10.5v-2.43c-.07-1.09 0-2.18 0-3.28v-.15a.46.46 0 0 1-.09-.28v-4.54a.44.44 0 0 1 .06-.22.55.55 0 0 1 0-.47.54.54 0 0 1 0-.46.55.55 0 0 1 0-.5v-.67c-.1-1-.09-2-.09-3a.49.49 0 0 1 0-.16.44.44 0 0 1 0-.17V728a.46.46 0 0 1 .09-.28V0H0v709.82c.09 2.12.19 4.24.33 6.35a.42.42 0 0 1-.33.46V800h1280v-33.53c0-.18 0-.37-.07-.55a.51.51 0 0 1 .07-.35z" class="cls-1"/>
  <path d="M1145 570.43l-4.62 40h-13.54v-40" class="cls-2"/>
  <g id="Mer">
    <path d="M614 724.43l394 16.28v12.41l-394-14.34" class="cls-3"/>
    <path d="M614 733.43l394 16.28v12.41l-394-14.34" class="cls-4"/>
    <path d="M614 746.43l394 16.28v12.41l-394-14.34" class="cls-5"/>
    <path d="M614 755.43l394 16.28v12.41l-394-14.34" class="cls-6"/>
  </g>
  <g id="Montagnes">
    <path d="M272.82 800L542 632l144.48 168H369.19" class="cls-7"/>
    <path d="M542 632l69 168h75.19" class="cls-8"/>
    <path d="M518 647h9l-2.5 8.75 12-6.5 4.5 6.5 8-6.84 7.86 5.84-1.92-7.75L542 632" class="cls-9"/>
    <path d="M542 632l7 17 7.86 5.84-1.92-7.84" class="cls-10"/>
    <path d="M84.82 800l238.66-188.32 175 188.32H181.19" class="cls-7"/>
    <path d="M323.48 611.68l74.85 186.65 99.86 1.67" class="cls-8"/>
    <path d="M297.79 632l1.88 7 11.33-4.33 7 4.33 6.67-7 9.77 7 3.23-5.5 7.71 1.79-21.9-23.6" class="cls-9"/>
    <path d="M334.43 639l3.23-5.5 7.71 1.79-21.9-23.6" class="cls-10"/>
    <path d="M-.39 800h314.87L94.3 582.37-.34 688.82c0 9.12.08 18.25.67 27.36a.45.45 0 0 1-.64.44v9.26a.45.45 0 0 1 .22.4v13.91a.42.42 0 0 1-.06.22c.06.72 0 1.45 0 2.18a.45.45 0 0 1-.07.21.46.46 0 0 1 .07.24v21.8a.45.45 0 0 1-.11.3v5.68a.5.5 0 0 1 0 .14v6.94a.45.45 0 0 1 .13.34 13.28 13.28 0 0 1-.15 1.58.46.46 0 0 1 .15.35v9.18a.46.46 0 0 1-.08.27c.06 1.63 0 3.28 0 4.92a.48.48 0 0 1 0 .13c.11 1.17.2 2.35.23 3.53a.47.47 0 0 1 0 .07.45.45 0 0 1 0 .06v1.2a.45.45 0 0 1-.41.47z" class="cls-7"/>
    <path d="M94.3 582.37l78 217.63h141.89" class="cls-8"/>
    <path d="M72.19 608l-9.59 10 15.59-4 9.18 11 6.94-13.32 13.34 7.91 5.54-7.91 16.31 5.51-14.23-14.11-21-20.71" class="cls-9"/>
    <path d="M94.3 582.37l13.34 37.23 5.54-7.91 16.31 5.51" class="cls-10"/>
  </g>
  <g id="Nuage1">
    <path d="M1042.38 666.62c9.41-6.43 18.48-7 29-4.4 5 1.25 23.29-.91 18.27 7.31-7.78 12.74-36.56 2.69-46.62 2.26 0 0-6-1.53-.68-5.17z" class="cls-11"/>
    <path d="M1044.3 669c9.41-6.44 18.48-7 29-4.4 3.41.85 13.05.11 17.2 2.19-.38-5-14.79-3.51-19.12-4.6-10.56-2.65-19.62-2-29 4.4-3.94 2.69-1.68 4.23-.24 4.84.15-.67.76-1.48 2.16-2.44z" class="cls-12"/>
  </g>
  
  <g id="Perso">
    <path d="M1102.5 557.48h-4.74l-2.59-2.12-1.25-14.13 4.27-3.33h7.11l4.27 3.33-1.25 14.13-2.59 2.12H1101" class="cls-14"/>
    <path d="M1094.39 546.48l2.36-4.65 7.87.61 2.73-.61 1.66 5.85 1.18-8.88-3.54-2.12 1.11-1.41-12.41 1.41-2.17 2.22" class="cls-15"/>
    <path d="M1099.27 549h-1.92v.51m6.26-.51h1.92v.51" class="cls-16"/>
    <path d="M1102.6 551a.91.91 0 0 0-1.81 0h1.81z" class="cls-17"/>
    <path d="M1109.46 560l-2.52-1.59h-10.19l-2.49 1.59-.63 5.73v5.68h2.32l.34-5.56 1.35-3.14v8.7h9.32v-8.74l.72 2.74.53 5.46 2.45.11v-5.55" class="cls-18"/>
    <path d="M1099.78 558.79c0 1 1.1 1.72 2.42 1.72s2.38-.76 2.42-1.72h-4.84z" class="cls-14"/>
    <path d="M1098.26 544.86v1.41h-.51v2.22h1.51v-3.63m5 0v1.41h-.5v2.22h1.51v-3.63" class="cls-19"/>
    <path d="M1107 562.85l1.31 2.57h-.61" class="cls-20"/>
  </g>
  <g id="Nuage2">
    <path d="M782.81 668.42c-12.85 0-12.22 1.59-25.07 1.59-11.93 0-27 1.84-38.77.62-16.86-1.76-7.82-5.09-12.19-10.61-3.16-4-15.44-5.33-13.69-10.71 2-6.23 25.56-7.11 36.23-7.64 10.49-.52 31.31-2.16 41-.65 11.6 1.8 14.77 7.64 28.11 9.06 10.92 1.16 26.65-.74 36.49 2.27 11.94 3.66 13.15 11.33-.65 13.35-14.27 2.09-51.51 2.73-51.51 2.73z" class="cls-11"/>
    <path d="M708.15 664.61c-.06 1.49-.25 2.73 1.2 3.74a5.94 5.94 0 0 0-1.2-3.74zM730.5 646c10.49-.52 31.31-2.16 41-.65 11.6 1.79 14.77 7.64 28.11 9.06 10.92 1.16 26.65-.74 36.49 2.28 3.7 1.14 6.37 2.66 7.88 4.27 1.25-3-2.06-6.48-9.07-8.63-9.84-3-25.56-1.11-36.49-2.28-13.34-1.42-16.51-7.26-28.11-9.06-9.73-1.51-30.54.13-41 .65-10.67.53-34.2 1.41-36.23 7.64-.5 1.55.16 2.76 1.43 3.8 3.21-5.73 25.64-6.57 36-7.08z" class="cls-12"/>
  </g>
  <g id="Terre">
    <path d="M1280.28 798.28c0-.48 0-1-.07-1.45a.46.46 0 0 1 0-.23c0-.3 0-.6-.08-.91a.51.51 0 0 1 .08-.37c-.07-1.69-.17-3.37-.18-5.06a.43.43 0 0 1 .16-.36c0-3.32-.29-6.64-.21-10v-7.79a.42.42 0 0 1 .13-.32v-.1a.46.46 0 0 1-.11-.29v-3a.46.46 0 0 1 .15-.36c-.09-.73-.18-1.46-.29-2.18a.51.51 0 0 1 .15-.46c-.05-1.31-.05-2.63-.06-3.93 0-4.17-.22-8.35 0-12.51a.45.45 0 0 1 .17-.33.56.56 0 0 1 0-.24 25.39 25.39 0 0 1-.14-4.72.46.46 0 0 1-.1-.28v-4.54a.47.47 0 0 1 .06-.23.54.54 0 0 1 0-.47.55.55 0 0 1 0-.49.52.52 0 0 1 .14-.62 23.13 23.13 0 0 1-.21-3.5.5.5 0 0 1 0-.2V728a.45.45 0 0 1 .21-.39c0-1.42-.09-2.84-.1-4.26a.44.44 0 0 1 .22-.4v-3.28a23.27 23.27 0 0 1-.06-3.05v-1.51c0-.27 0-.54-.06-.81l-93.87 22.3-82.54-25-70.59 25.4-44-16.57L861.44 773l-143.38 27h562.17v-.12a.43.43 0 0 1-.09-.28 10.44 10.44 0 0 1 .14-1.32z" class="cls-7"/>
    <path d="M989.11 720.43l93.65 79.57h123.43m-102.47-88.43L1255.25 800l-69-63.42" class="cls-8"/>
    <path d="M1280.28 798.28c0-.48 0-1-.07-1.45a.46.46 0 0 1 0-.23c0-.3 0-.6-.08-.91a.51.51 0 0 1 .08-.37c-.07-1.69-.17-3.37-.18-5.06a.43.43 0 0 1 .16-.36c0-3.32-.29-6.64-.21-10v-7.79a.42.42 0 0 1 .13-.32v-.1a.46.46 0 0 1-.11-.29v-3a.46.46 0 0 1 .15-.36c-.09-.73-.18-1.46-.29-2.18a.51.51 0 0 1 .15-.46c-.05-1.31-.05-2.63-.06-3.93 0-1.51 0-3-.06-4.53l-1.77-2-72-9-120 27H861.44L748.21 755l-101.88-24.42-63 36.42L423 746l-244.66 54h1101.9v-.12a.43.43 0 0 1-.09-.28 10.44 10.44 0 0 1 .13-1.32z" class="cls-23"/>
    <path d="M537.45 777.67L583.19 767l-160.4-21 114.66 31.67zm742.61-6.22v-3a.46.46 0 0 1 .15-.36c-.09-.73-.18-1.46-.29-2.18a.51.51 0 0 1 .15-.46c-.05-1.31-.05-2.63-.06-3.93 0-1.51 0-3-.06-4.53l-1.77-2-72-9 73.82 35.6v-9.43a.42.42 0 0 1 .13-.32v-.1a.46.46 0 0 1-.07-.29zm-633.78-40.87l95.24 37.71L861.44 773l-113.25-18-101.91-24.42z" class="cls-24"/>
  </g>
  <g id="Nuage2-2" data-name="Nuage2">
    <path d="M99 102.36c-12.85 0-12.22 1.59-25.07 1.59-11.93 0-27 1.84-38.77.62C18.33 102.8 27.36 99.47 23 94c-3.17-4-15.45-5.38-13.7-10.76 2-6.23 25.56-7.11 36.23-7.64 10.49-.52 31.31-2.16 41-.65 11.6 1.8 14.77 7.64 28.11 9.06 10.92 1.16 26.65-.74 36.49 2.27 11.94 3.66 13.15 11.33-.65 13.35-14.23 2.09-51.48 2.73-51.48 2.73z" class="cls-11"/>
    <path d="M24.36 98.55c-.06 1.49-.25 2.73 1.2 3.74a5.94 5.94 0 0 0-1.2-3.74zM46.71 80c10.49-.52 31.31-2.16 41-.65 11.6 1.79 14.77 7.64 28.11 9.06 10.92 1.16 26.65-.74 36.49 2.28 3.7 1.14 6.37 2.66 7.88 4.27 1.25-3-2.06-6.48-9.07-8.63-9.84-3-25.56-1.11-36.49-2.28-13.34-1.42-16.51-7.26-28.11-9.06-9.73-1.51-30.54.13-41 .65-10.66.49-34.19 1.36-36.22 7.6-.5 1.55.16 2.76 1.43 3.8 3.21-5.73 25.64-6.57 36-7.08z" class="cls-12"/>
  </g>
  <g id="Nuage1-2" data-name="Nuage1">
    <path d="M321.19 178.5c15-13.3 29.45-14.56 46.28-9.09 7.94 2.58 37.12-1.88 29.12 15.11-12.4 26.33-58.27 5.55-74.31 4.66 0 0-9.58-3.15-1.09-10.69z" class="cls-11"/>
    <path d="M324.25 183.47c15-13.3 29.45-14.56 46.28-9.09 5.43 1.77 20.81.24 27.41 4.53-.6-10.33-23.57-7.25-30.48-9.5-16.83-5.48-31.28-4.22-46.28 9.08-6.27 5.56-2.69 8.73-.38 10 .24-1.4 1.22-3.07 3.45-5z" class="cls-12"/>
  </g>
  <g id="Nuage2-3" data-name="Nuage2">
    <path d="M1141.09 84.72c-12.85 0-12.22 1.59-25.07 1.59-11.93 0-27 1.84-38.77.62-16.86-1.76-7.82-5.09-12.19-10.61-3.16-4-15.44-5.33-13.69-10.71 2-6.23 25.56-7.11 36.23-7.64 10.49-.52 31.31-2.16 41-.65 11.6 1.8 14.77 7.64 28.11 9.06 10.92 1.16 26.65-.74 36.49 2.27 11.94 3.66 13.15 11.33-.65 13.35-14.27 2.09-51.51 2.73-51.51 2.73z" class="cls-11"/>
    <path d="M1066.43 80.91c-.06 1.49-.25 2.73 1.2 3.74a5.94 5.94 0 0 0-1.2-3.74zm22.36-18.59c10.49-.52 31.31-2.16 41-.65 11.6 1.79 14.77 7.64 28.11 9.06 10.92 1.16 26.65-.74 36.49 2.28 3.7 1.14 6.37 2.66 7.88 4.27 1.25-3-2.06-6.48-9.07-8.63-9.84-3-25.56-1.11-36.49-2.28-13.34-1.42-16.51-7.26-28.11-9.06-9.73-1.51-30.54.13-41 .65-10.67.53-34.2 1.41-36.23 7.64-.5 1.55.16 2.76 1.43 3.8 3.21-5.73 25.64-6.57 36-7.08z" class="cls-12"/>
  </g>
  <g id="Nuage3">
    <path d="M205.08 528.18c43.36-4 48.85-11.18 92.7-11.25 23.81 0 25.71 17.76 49.52 18 6.91.07 20.81-1.2 27 1.65 1.59.74 1.67 2.38 3.31 3.25 3.48 1.87 9.44 2.11 13.73 2.37 13.74.83 29.83-1 42.69 2.85 15.38 4.66 2.74 13.54-7.45 17-29.76 10-72.83 6-104.9 5-19.52-.61-39-1.35-58.56-2-12.89-.45-26.67-.31-39.3-2.25-4.91-.75-8.89-1.5-10.81-4.55-1.47-2.34.56-3.25-3-5.11-5.8-3-19.25-2.79-26.26-3.85-8.57-1.3-21.06-3.19-26.89-7.86-13.37-10.73 34.4-12.2 41.84-13.2z" class="cls-11"/>
    <path d="M156.95 541.91c4.71-6.24 37.56-7.73 43.62-7.73H207c43.36-5 48.85-11.57 92.7-11.64 23.81 0 25.71 17.56 49.52 17.81 6.91.07 20.81-1.3 27 1.55 1.59.74 1.67 2.32 3.31 3.21 3.48 1.86 9.44 2.08 13.73 2.34 13.74.83 29.83-1.06 42.69 2.84a17.73 17.73 0 0 1 4.85 2.15c1.15-2.72-.37-5.41-6.82-7.37-12.86-3.9-28.95-2-42.69-2.85-4.3-.26-10.25-.49-13.73-2.35-1.64-.88-1.71-2.49-3.31-3.23-6.14-2.85-20-1.54-27-1.61-23.8-.25-25.71-18.13-49.52-18.09-43.85.07-49.35 7.25-92.71 11.25h-6.48c-7.43 1-55.21 2.58-41.84 13.3.06 0 .12.38.18.42z" class="cls-12"/>
  </g>
  <g id="Nuage1-3" data-name="Nuage1">
    <path d="M1114.66 659.68c5.84-4 11.46-4.37 18-2.73 3.09.77 14.45-.56 11.33 4.53-4.82 7.9-22.67 1.67-28.91 1.4 0 0-3.73-.95-.42-3.21z" class="cls-11"/>
    <path d="M1115.85 661.17c5.84-4 11.46-4.37 18-2.73 2.11.53 8.1.07 10.67 1.36-.23-3.1-9.17-2.18-11.86-2.85-6.55-1.64-12.17-1.27-18 2.73-2.44 1.67-1 2.62-.15 3 .09-.42.47-.92 1.34-1.51z" class="cls-12"/>
  </g>
  
  <g id="MongolFiere1">
    <path d="M258.74 225.06a26.7 26.7 0 0 0-26.82-26.82V94.59s-.1 0 0 0A112.78 112.78 0 0 1 344.68 207.5c0 62.36-60.94 128-112.68 148-.1 0-.08-.09-.08-.13V251.88a26.7 26.7 0 0 0 26.82-26.82z" class="cls-25"/>
    <path d="M285.58 304.38l-14 87.43-1.87-.3 14-87.43z" class="cls-26"/>
    <path d="M185.78 390.39l-1.83.5-23.26-85.43 1.83-.5z" class="cls-27"/>
    <path d="M112.94 206.5c0 62.36 59.72 126.78 112.91 148 51.74-20.08 112.91-85.68 112.91-148a112.91 112.91 0 1 0-225.82 0zm85.78 17.56a26.82 26.82 0 1 1 26.82 26.82 26.82 26.82 0 0 1-26.82-26.82z" class="cls-25"/>
    <path d="M253 224.06a26.7 26.7 0 0 0-26.82-26.82V93.59s-.1 0 0 0A112.78 112.78 0 0 1 338.92 206.5c0 62.36-60.94 128-112.68 148-.1 0-.08-.09-.08-.13V250.88A26.7 26.7 0 0 0 253 224.06z" class="cls-28"/>
    <g id="Perso-2" data-name="Perso">
      <path d="M261.69 412.33v2.44l2.8.33.33-2.54" class="cls-14"/>
      <path d="M263 389l-4.17-2.55h-16.55l-4 2.55-1 11.88v11.52H241l.29-11.93 1.92-6.47v18.4h15.64v-19.09l1.15 6.49.93 12.46 4.07.4v-12.51" class="cls-18"/>
      <path d="M247.19 386.2a3.93 3.93 0 0 0 7.86 0h-7.86z" class="cls-14"/>
      <path d="M242.28 386.4l15.89 2.21 2.13.43 1.64 2.21 3.19 8.93-2.06-11.18-4.25-2.57m-19 26H241l.32-11.93 2-6.66-3.64 7" class="cls-29"/>
      <path d="M261.69 412.33l-.74-12.44h-.07l-2-5.53 1.11 5.65 1 12.34" class="cls-29"/>
      <path d="M243.18 394l1.59 19.28h-1.59" class="cls-30"/>
      <path d="M243.18 412.4h15.92v3h-15.92z" class="cls-31"/>
      <path d="M258.16 388l-.74 40.41h1.43l-.05-34.47" class="cls-32"/>
      <path d="M238.31 412.39h3v2.41h-3zm13.31-29.94h-7.69l-4.21-4.11-2-27.36 6.93-6.45h11.53l6.93 6.45-2 27.36-4.21 4.11h-7.7" class="cls-14"/>
      <path d="M246.38 366h-3.11v1m10.15-1h3.11v1" class="cls-16"/>
      <path d="M251.77 369.82v-.07a1.49 1.49 0 1 0-2.94 0v.07h2.94z" class="cls-17"/>
      <path d="M244.74 361v1.16h-.82V364h2.46v-3m8.19 0v1.16h-.82V364h2.46v-3" class="cls-33"/>
      <path d="M242.28 352.15l-.9 14.36-1.66 11.83-1.27-17.19" class="cls-34"/>
      <path d="M247.12 375.05v.05a3.75 3.75 0 1 0 7.47 0v-.05h-7.46z" class="cls-35"/>
      <path d="M238.45 361.15L237.7 351l4.58-6.93 8.56-1.86 7.3.79 4.36 3.51.6 4.49-.66 9-5-8.48-7.12.68-7.54-.49" class="cls-36"/>
      <path d="M246.24 343.72l-2-1.2-.79-3.52 2.46-5.65 5.68-1.43 3.8 3 1.66 4.91-.61 3.45-5.65-.71" class="cls-36"/>
      <path d="M242.76 351.66l-1.22-5.38 1.72 1.52m-3 8.81l-1-3.43-1.07-3.35v4.11m10-1.8l-1.37-5.07 1.37-4.32.65 7m4.51 1.92l1.63-5.38 3.17-3.31-1.94 4.72" class="cls-37"/>
      <path d="M256 358c-2.27 0-4.15 2-4.48 4.61a1.76 1.76 0 0 0-1.23-.47 1.9 1.9 0 0 0-1.1.46c-.33-2.6-2.21-4.6-4.48-4.6-2.5 0-4.54 2.43-4.54 5.41s2 5.42 4.54 5.42 4.46-2.34 4.53-5.25a1.61 1.61 0 0 1 1.08-.65 1.48 1.48 0 0 1 1.15.65c.08 2.91 2.08 5.24 4.53 5.24s4.54-2.43 4.54-5.42-2-5.41-4.54-5.41zm-11.29 10c-2.14 0-3.87-2.07-3.87-4.62s1.74-4.62 3.87-4.62 3.87 2.07 3.87 4.62-1.74 4.63-3.87 4.63zm11.29 0c-2.14 0-3.87-2.07-3.87-4.62s1.74-4.62 3.87-4.62 3.87 2.07 3.87 4.62-1.74 4.63-3.87 4.63z"/>
      <path d="M257.42 351.46l6.64-1.63 1.61 8.2-3.9-4.1-3.94-1.79" class="cls-36"/>
      <path d="M257.83 352.15l3.94 1.79 1 1.08-.22 3" class="cls-38"/>
      <path d="M246.24 343.72l-1.53-7.72 1.16-2.67 1.05 1.74m3.18 7.49l-1.16-10 1.7 2.54" class="cls-37"/>
      <path d="M242.28 344l8.56-1.86 7.3.79-7.84.14" class="cls-39"/>
      <path d="M239.08 370l2.14 5 2.79 2.05 2.37 2.05 3.83 1.3.09 1.95h-6.43l-4.15-4.1" class="cls-37"/>
      <path d="M261.67 370.25l-1.37 4.28-2.47 2.58-2.45 2.05-5.17 1.33-.42 2h7l4.23-4.13" class="cls-37"/>
      <path d="M241.54 376.36l5.27-6h8l5 6-2.82 2.8-2.43-6.76h-7.39l-2.37 5.94" class="cls-37"/>
      <path d="M253.32 351.68l1.68 26.86-2 3.87h3.82l4.21-4.1 1.73-23.2 2.87 3-1.61-8.22-1.08.25-.48-3.62-4.32-3.52-4.72.14" class="cls-40"/>
      <path d="M270.75 390.73l-7.6 66h-22.56v-66" class="cls-25"/>
      <path d="M191.36 456.73h68.35l7.6-66h-83.54" class="cls-25"/>
      <path d="M267.31 390.73l-7.6 66h-22.56v-66" class="cls-28"/>
    </g>
  </g>
  <g id="MongolFiereBis">
    <path d="M1137.94 469.93c0-9-6.31-16.31-16.31-16.31v-63h.07a68.61 68.61 0 0 1 68.6 68.66c0 37.92-37.1 77.81-68.57 90-.06 0-.1-.05-.1-.08v-63c10 0 16.31-7.3 16.31-16.31z" class="cls-2"/>
  <path d="M1049.91 458.25c0 37.92 36.31 77.1 68.66 90 31.47-12.21 68.66-52.1 68.66-90a68.66 68.66 0 0 0-137.32 0zm52.16 10.68a16.31 16.31 0 1 1 16.31 16.31 16.31 16.31 0 0 1-16.31-16.31z" class="cls-2"/>
  <path d="M1134.94 468.93c0-9-6.31-16.31-16.31-16.31v-63h.07a68.61 68.61 0 0 1 68.6 68.66c0 37.92-37.1 77.81-68.57 90-.06 0-.1-.05-.1-.08v-63c10 0 16.31-7.3 16.31-16.31z" class="cls-13"/>
    <path d="M1097.6 610.43h41.57l4.62-40H1093" class="cls-2"/>
  <path d="M1143.79 570.43l-4.62 40h-13.54v-40" class="cls-13"/>
  <path d="M1156.92 524.16l-11.78 47.55-1.15-.21 11.78-47.55z" class="cls-21"/>
  <path d="M1094.25 570.13l-1.11.3-14.14-51.94 1.11-.3z" class="cls-22"/>
  </g>
  <g id="Nuage1-4" data-name="Nuage1">
    <path d="M1025.92 101.22c5.84-4 11.46-4.37 18-2.73 3.09.77 14.45-.56 11.33 4.53-4.82 7.9-22.67 1.67-28.91 1.4 0 0-3.73-.95-.42-3.21z" class="cls-11"/>
    <path d="M1027.11 102.71c5.84-4 11.46-4.37 18-2.73 2.11.53 8.1.07 10.67 1.36-.23-3.1-9.17-2.18-11.86-2.85-6.55-1.64-12.17-1.27-18 2.73-2.44 1.67-1 2.62-.15 3 .09-.42.47-.92 1.34-1.51z" class="cls-12"/>
  </g>
</svg>
