    <svg xmlns="http://www.w3.org/2000/svg" xmlns:xlink="http://www.w3.org/1999/xlink" width="1280" height="800" viewBox="0 0 1280 800">
        <path fill="#1ACED0" d="M-8-15h1294v817H-8z"/>
        <g class="nuage nuage-1">
            <path fill="#E8FEFF" d="M312.947 532c43.357-4 48.852-11.176 92.703-11.248 23.806-.04 25.714 17.76 49.518 18.005 6.91.073 20.808-1.196 26.952 1.654 1.594.74 1.666 2.375 3.31 3.254 3.482 1.866 9.436 2.107 13.732 2.367 13.74.833 29.828-1.044 42.686 2.852 15.376 4.66 2.745 13.54-7.445 16.967-29.76 10.007-72.827 6.022-104.902 5.016-19.525-.61-39.042-1.354-58.562-2.043-12.895-.454-26.667-.313-39.295-2.25-4.91-.754-8.89-1.5-10.812-4.555-1.47-2.338.562-3.253-3.047-5.107-5.804-2.98-19.25-2.79-26.262-3.852-8.566-1.296-21.063-3.188-26.888-7.86C251.262 534.47 299.035 533 306.47 532h6.477z"/>
            <path fill="#BDEAFF" d="M264.81 545.726c4.71-6.244 37.563-7.726 43.62-7.726h6.48c43.357-5 48.852-11.57 92.703-11.64 23.806-.04 25.714 17.56 49.518 17.808 6.91.07 20.808-1.297 26.953 1.555 1.594.74 1.666 2.324 3.31 3.205 3.482 1.864 9.437 2.08 13.733 2.34 13.74.833 29.828-1.056 42.686 2.84 2.128.646 3.718 1.367 4.854 2.148 1.15-2.72-.375-5.414-6.816-7.366-12.858-3.896-28.946-2.016-42.686-2.848-4.296-.26-10.25-.49-13.733-2.355-1.642-.88-1.714-2.49-3.308-3.23-6.145-2.852-20.042-1.538-26.952-1.61-23.804-.246-25.71-18.133-49.518-18.094-43.853.07-49.348 7.247-92.705 11.247h-6.478c-7.435 1-55.21 2.578-41.838 13.305.057.046.12.376.178.42z"/>
        </g>
        <g class="nuage nuage-2">
            <path fill="#E8FEFF" d="M782.807 668.42c-12.852-.03-12.215 1.587-25.065 1.585-11.93 0-27.05 1.837-38.77.616-16.856-1.757-7.82-5.087-12.19-10.608-3.164-3.995-15.44-5.328-13.69-10.708 2.03-6.234 25.56-7.106 36.23-7.64 10.495-.523 31.306-2.158 41.04-.653 11.604 1.796 14.77 7.642 28.11 9.06 10.922 1.16 26.65-.738 36.486 2.274 11.943 3.66 13.153 11.327-.645 13.347-14.27 2.09-51.506 2.73-51.506 2.73z"/>
            <g fill="#BDEAFF">
                <path d="M708.148 664.612c-.063 1.49-.25 2.728 1.198 3.744 0-1.115-.186-2.36-1.198-3.744zM730.504 646.023c10.494-.524 31.306-2.16 41.04-.654 11.604 1.794 14.77 7.64 28.108 9.057 10.924 1.16 26.653-.737 36.487 2.275 3.703 1.136 6.37 2.655 7.883 4.272 1.247-2.956-2.06-6.483-9.066-8.63-9.835-3.014-25.564-1.114-36.487-2.276-13.34-1.417-16.505-7.263-28.11-9.058-9.733-1.505-30.544.13-41.04.653-10.668.533-34.197 1.405-36.228 7.64-.504 1.55.16 2.763 1.43 3.802 3.21-5.73 25.64-6.566 35.982-7.082z"/>
            </g>
        </g>
        <g class="nuage nuage-3">
            <path fill="#E8FEFF" d="M991.6 684.456c9.413-6.435 18.476-7.044 29.037-4.396 4.98 1.248 23.293-.908 18.27 7.31-7.78 12.738-36.56 2.686-46.624 2.255 0 0-6.014-1.525-.684-5.17z"/>
            <path fill="#BDEAFF" d="M993.52 686.86c9.415-6.436 18.477-7.045 29.04-4.397 3.406.854 13.055.115 17.2 2.194-.378-5-14.792-3.51-19.124-4.598-10.562-2.65-19.624-2.04-29.038 4.395-3.937 2.69-1.685 4.226-.24 4.845.152-.675.764-1.484 2.163-2.44z"/>
        </g>
        <path fill="#5EACEA" d="M614 722.43l394 16.28v12.412l-394-14.346"/>
        <path fill="#5E9EEA" d="M614 731.43l394 16.28v12.412l-394-14.346"/>
        <path fill="#5E97EA" d="M614 744.43l394 16.28v12.412l-394-14.346"/>
        <path fill="#5E8DEA" d="M614 753.43l394 16.28v12.412l-394-14.346"/>
        <path fill="#4DDBAE" d="M272.815 802l269.193-168.043L686.478 802H369.19"/>
        <path fill="#4DB3AE" d="M542.008 633.957L611 802h75.188"/>
        <path fill="#EAD1DD" d="M518 649h9l-2.5 8.75 12-6.5 4.5 6.5 7.968-6.84 7.864 5.84-1.89-7.75-12.934-15.043"/>
        <path fill="#9ACED0" d="M542.008 633.957l6.96 16.953 7.864 5.84-1.89-7.75"/>
        <path fill="#4DDBAE" d="M84.815 802L323.48 613.685 498.48 802H181.187"/>
        <path fill="#4DB3AE" d="M323.48 613.685l74.854 186.65L498.188 802"/>
        <path fill="#EAD1DD" d="M297.787 633.957l1.88 7.043L311 636.667l7 4.333 6.667-7.043 9.767 7.043 3.233-5.5 7.712 1.79-21.9-23.605"/>
        <path fill="#9ACED0" d="M334.434 641l3.233-5.5 7.712 1.79-21.9-23.605"/>

        <g>
            <path fill="#4DDBAE" d="M-99.185 802l193.49-217.63L314.478 802H-2.813"/>
            <path fill="#4DB3AE" d="M94.304 584.37L172.3 802H314.19"/>
            <path fill="#EAD1DD" d="M72.188 610l-9.59 10.03 15.59-4.03 9.18 11 6.936-13.315 13.343 7.915 5.54-7.915 16.307 5.512-14.234-14.114-20.956-20.714"/>
            <path fill="#9ACED0" d="M94.304 584.37l13.343 37.23 5.54-7.915 16.307 5.512"/>
        </g>
        <g class="mongol mongol-ar">
            <path fill="#D1B8B3" d="M1036.283 479.827c0 37.922 36.313 77.096 68.662 90.022 31.466-12.21 68.662-52.102 68.662-90.023 0-37.92-30.74-68.662-68.662-68.662s-68.662 30.74-68.662 68.662zm52.164 10.68c0-9.008 7.302-16.31 16.31-16.31 9.007 0 16.31 7.302 16.31 16.31 0 9.01-7.303 16.31-16.31 16.31-9.008 0-16.31-7.3-16.31-16.31z"/>
            <path fill="#BFA9A5" d="M1121.31 490.507c0-9.008-6.31-16.31-16.31-16.31v-63.03s.005-.002.067-.002c37.92 0 68.603 30.74 68.603 68.662 0 37.922-37.105 77.813-68.572 90.022-.063-.026-.098-.054-.098-.08v-62.954c10 0 16.31-7.3 16.31-16.31z"/>
            <path fill="#F6CDCD" d="M1088.876 579.05h-4.737l-2.594-2.12-1.248-14.13 4.273-3.33H1091.68l4.273 3.33-1.247 14.13-2.593 2.12h-4.748"/>
            <path fill="#7C4243" d="M1080.762 568.052l2.362-4.646 7.87.606 2.727-.606 1.66 5.854 1.178-8.882-3.544-2.12 1.11-1.412-12.413 1.413-2.17 2.22"/>
            <path fill="#F4D7D7" d="M1085.646 570.57h-1.917v.506M1089.986 570.57h1.918v.506"/>
            <path fill="#F1888C" d="M1088.972 572.533l.002-.036c0-.495-.406-.896-.906-.896s-.907.4-.907.897c0 .012.003.023.003.036h1.81z"/>
            <path fill="#E2494E" d="M1095.833 581.594l-2.517-1.594h-10.192l-2.495 1.594-.63 5.73V593h2.316l.338-5.562 1.346-3.14V593h9.316l-.012-8.742.718 2.744.525 5.46 2.453.11v-5.55"/>
            <path fill="#F6CDCD" d="M1086.153 580.36c.036.952 1.105 1.716 2.42 1.716s2.384-.764 2.42-1.716h-4.84z"/>
            <path fill="#520909" d="M1084.638 566.434v1.413h-.505v2.22h1.513v-3.633M1090.692 566.434v1.413h-.504v2.22h1.514v-3.633"/>
            <path fill="#D14650" d="M1093.324 584.427l1.305 2.573h-.608"/>
            <path fill="#BFA9A5" d="M1083.973 632h41.567l4.62-40h-50.806"/>
            <path fill="#AF9B98" d="M1130.16 592l-4.62 40H1112v-40"/>
            <path fill="#BFA9A5" d="M1144.11 540L1130 591.954l-1.115-.302 14.11-51.957z"/>
            <path fill="#D1B8B3" d="M1080.624 591.7l-1.113.303-14.17-51.94 1.113-.303z"/>
        </g>

        <g>
            <path fill="#8CA064" d="M718.062 802l143.377-27 127.675-52.57 43.963 16.57 70.635-25.427 82.538 25.003 119.994-28.5L1382.74 802h-86.552"/>
            <path fill="#8C8C64" d="M989.115 722.43l93.64 79.57h123.433M1103.713 713.573L1255.247 802l-68.996-63.424"/>
        </g>
        <g class="mongol mongol-av">
            <path fill="#BC968A" d="M262.036 423.74l-23.206 85.44-1.832-.498 23.206-85.438z"/>
            <path fill="#D1A798" d="M157.63 508.654l-1.833.5-23.258-85.43 1.83-.5z"/>
            <path fill="#D1A798" d="M84.787 324.763c0 62.36 59.716 126.777 112.91 148.035 51.744-20.076 112.91-85.676 112.91-148.035 0-62.358-50.55-112.91-112.91-112.91s-112.91 50.55-112.91 112.91zm85.78 17.56c0-14.812 12.007-26.818 26.82-26.818 14.812 0 26.82 12.007 26.82 26.82 0 14.812-12.008 26.82-26.82 26.82-14.812 0-26.82-12.007-26.82-26.82z"/>
            <path fill="#BC968A" d="M224.82 342.324c0-14.813-11.82-26.82-26.82-26.82V211.857s-.1-.004.004-.004c62.358 0 112.758 50.552 112.758 112.91 0 62.36-60.938 127.96-112.68 148.036-.105-.042-.082-.087-.082-.128V369.145c15 0 26.82-12.007 26.82-26.82z"/>
            <path fill="#F6CDCD" d="M232.088 530.926v2.443l3.34.332.39-2.54"/>
            <path fill="#FFF" d="M233.64 507.55l-4.975-2.55h-19.74l-4.77 2.55L203 519.43V531h4.36l.344-11.926 2.296-6.47V531h18.665l-.024-19.092 1.393 6.49 1.115 12.457 4.852.402v-12.51"/>
            <path fill="#F6CDCD" d="M214.79 504.796c.073 2.145 2.142 3.864 4.69 3.864 2.546 0 4.616-1.72 4.687-3.864h-9.376z"/>
            <path opacity=".2" d="M208.924 505l18.96 2.21 2.548.43 1.953 2.214 3.803 8.93-2.453-11.216-5.07-2.568M206 531h1.36l.382-11.926 2.356-6.66-4.342 7.037"/>
            <path opacity=".2" d="M232.088 530.926l-.882-12.44-.088-.036-2.438-5.535 1.327 5.65 1.236 12.342"/>
            <path opacity=".19" fill="#FFF" d="M210 512.604l1.902 19.28-1.902.006"/>
            <path fill="#9A2350" d="M210 531h19v3h-19z"/>
            <path opacity=".1" d="M227.883 506.59l-.885 40.41h1.704l-.06-34.47"/>
            <path fill="#F6CDCD" d="M204.183 530.988h3.592v2.413h-3.592zM220.066 501.043h-9.175l-5.02-4.105-2.418-27.364 8.276-6.45H225.49l8.277 6.45-2.418 27.364-5.022 4.105h-9.194"/>
            <path fill="#F4D7D7" d="M213.812 484.624h-3.714v.978M222.215 484.624h3.713v.978"/>
            <path fill="#F1888C" d="M220.25 488.423l.003-.07c0-.956-.786-1.733-1.756-1.733s-1.755.777-1.755 1.734l.003.07h3.505z"/>
            <path fill="#210505" d="M211.857 479.603v1.16h-.978v1.827h2.932v-2.987M223.583 479.603v1.16h-.977v1.827h2.932v-2.987"/>
            <path fill="#F3D5D6" d="M208.924 470.748l-1.073 14.365-1.98 11.825-1.52-17.193"/>
            <path fill="#F66A7E" d="M214.7 493.653l-.002.054c0 2.237 1.995 4.05 4.455 4.05s4.455-1.812 4.455-4.05v-.054h-8.91z"/>
            <path fill="#3D3335" d="M204.35 479.745l-.898-10.17 5.472-6.935 10.215-1.86 8.71.79 5.204 3.51.713 4.494-.792 8.97-5.977-8.48-8.5.684-8.998-.486"/>
            <path fill="#3D3335" d="M213.647 462.318l-2.43-1.2-.947-3.52 2.935-5.655 6.783-1.427 4.533 3.01 1.984 4.913-.73 3.45-6.742-.714"/>
            <path fill="#514447" d="M209.5 470.262l-1.455-5.378 2.053 1.525M206.462 475.22l-1.19-3.433-1.272-3.352v4.11M215.97 470.748l-1.635-5.07 1.635-4.322.773 6.985M222.128 470.262l1.944-5.378 3.778-3.313-2.312 4.72"/>
            <path d="M225.346 476.637c-2.71 0-4.955 2.003-5.347 4.606-.472-.33-.964-.488-1.467-.466-.53.02-.976.234-1.31.462-.393-2.602-2.637-4.604-5.347-4.604-2.985 0-5.414 2.428-5.414 5.414s2.43 5.415 5.414 5.415c2.93 0 5.32-2.342 5.407-5.25.18-.188.665-.626 1.286-.647.45-.022.918.205 1.372.654.092 2.907 2.477 5.242 5.405 5.242 2.985 0 5.415-2.43 5.415-5.415s-2.43-5.413-5.416-5.413zm-13.47 10.038c-2.55 0-4.622-2.074-4.622-4.624 0-2.547 2.073-4.62 4.62-4.62 2.55 0 4.623 2.073 4.623 4.62 0 2.55-2.073 4.625-4.622 4.625zm13.47 0c-2.55 0-4.622-2.074-4.622-4.624 0-2.547 2.073-4.62 4.622-4.62s4.623 2.073 4.623 4.62c-.002 2.55-2.075 4.625-4.624 4.625z"/>
            <path fill="#3D3335" d="M226.998 470.063l7.92-1.628 1.916 8.202-4.65-4.1-4.704-1.79"/>
            <path fill="#30282A" d="M227.48 470.748l4.703 1.79 1.227 1.08-.267 3.02"/>
            <path fill="#514447" d="M213.647 462.318l-1.825-7.71 1.383-2.665 1.257 1.743M218.26 461.176l-1.385-10.027 2.03 2.536"/>
            <path fill="#4F4346" d="M208.924 462.64l10.215-1.86 8.71.79-9.352.14"/>
            <path fill="#514447" d="M205.1 488.635l2.55 5.018 3.328 2.053 2.834 2.052 4.576 1.295.11 1.947h-7.678l-4.95-4.095"/>
            <path fill="#514447" d="M232.064 488.85l-1.632 4.278-2.952 2.578-2.923 2.052-6.17 1.327-.497 1.958 8.383.023 5.05-4.128"/>
            <path fill="#514447" d="M208.045 494.958l6.29-5.958h9.558l5.982 5.958-3.37 2.8-2.898-6.758h-8.826l-2.825 5.938"/>
            <path fill="#D1A798" d="M163.21 575h68.353l7.596-66h-83.545"/><path fill="#BC968A" d="M239.16 509l-7.597 66H209v-66"/>
        </g>
        <g>
            <path fill="#8CA02D" d="M178.34 802l244.652-54 160.297 21 63.037-36.424L748.213 757l113.226 18h224.748l120-27 72 9 40 45H173"/>
            <path fill="#8C962D" d="M422.79 748l114.663 31.67L583.188 769M646.276 732.576L748.188 757l113.25 18-119.917-4.712M1206.188 748l72 9 40 45"/>
        </g>

    </svg>