<?xml version="1.0" encoding="utf-8"?>
<!-- Generator: Adobe Illustrator 19.2.1, SVG Export Plug-In . SVG Version: 6.00 Build 0)  -->
<svg version="1.1" id="Calque_1" xmlns="http://www.w3.org/2000/svg" xmlns:xlink="http://www.w3.org/1999/xlink" x="0px" y="0px"
	 viewBox="0 0 1280 800" style="enable-background:new 0 0 1280 800;" xml:space="preserve">
<style type="text/css">
	.st0{fill:#8CA064;}
	.st1{fill:#528E2B;}
	.st2{fill:#62B030;}
	.st3{fill:#1ACED0;}
	.st4{fill:#8C8C64;}
	.st5{fill:#BFA9A5;}
	.st6{fill:#AF9B98;}
	.st7{fill:#D1B8B3;}
	.st8{fill:#E2494E;}
	.st9{fill:#7C4243;}
	.st10{fill:#F6CDCD;}
	.st11{fill:#D14650;}
	.st12{fill:#F4D7D7;}
	.st13{fill:#520909;}
	.st14{fill:#F1888C;}
	.st15{fill:#E8FEFF;}
	.st16{fill:#BDEAFF;}
	.st17{fill:#5EACEA;}
	.st18{fill:#5E9EEA;}
	.st19{fill:#5E97EA;}
	.st20{fill:#5E8DEA;}
	.st21{fill:#8CA02D;}
	.st22{fill:#8C962D;}
	.st23{fill:#4DDBAE;}
	.st24{fill:#4DB3AE;}
	.st25{fill:#9ACED0;}
	.st26{fill:#EAD1DD;}
	.st27{fill:#BC968A;}
	.st28{fill:#3D3335;}
	.st29{fill:#30282A;}
	.st30{fill:#514447;}
	.st31{fill:#FFFFFF;}
	.st32{fill:#4F4346;}
	.st33{fill:#210505;}
	.st34{fill:#F66A7E;}
	.st35{fill:#D1A798;}
	.st36{fill:#F3D5D6;}
</style>
<g>
	<g id="XMLID_1_">
		<g>
			<polygon class="st0" points="1306.2,710.1 1382.7,802 1318.2,802 1286,765.8 1286,714.9 			"/>
			<polygon class="st1" points="1286,765.8 1318.2,802 1286,786.5 			"/>
			<polygon class="st2" points="1318.2,802 1286,802 1286,786.5 			"/>
			<polygon class="st2" points="1286,786.5 1286,802 1255.3,802 1198.4,749.8 1206.2,748 			"/>
			<polygon class="st1" points="1286,765.8 1286,786.5 1206.2,748 1278.2,757 			"/>
			<polygon class="st0" points="1286,714.9 1286,765.8 1278.2,757 1206.2,748 1198.4,749.8 1186.3,738.6 			"/>
			<path class="st3" d="M1286-15v729.9l-99.8,23.7l-82.5-25l-70,25.2l-44.6-16.4l-34.2,14.1l-336.7-13.9L554.9,649L542,634
				l-126.4,78.9l-92.1-99.2L297.8,634l-85.3,67.3l-97.3-96.1l-21-20.7h0v0l-0.3,0.4L62.7,620l-0.1,0.1L-8,699.4V-15H1286z
				 M1173.7,479.8c0-36.8-28.9-66.8-65.2-68.6c-1.1-0.1-2.3-0.1-3.4-0.1h0c0,0-0.1,0-0.1,0c-37.9,0-68.7,30.7-68.7,68.7
				c0,22.4,12.7,45.3,29.8,62.9l13.4,49.2h-0.2l4.6,40h28h13.5l4.6-40h-0.2v0l13.2-48.5C1160.5,525.7,1173.7,502.4,1173.7,479.8z
				 M1038.9,687.4c0.7-1.1,0.9-2,0.8-2.7c0-0.1,0-0.1,0-0.2c0-0.1,0-0.3-0.1-0.4c-0.1-0.2-0.2-0.4-0.3-0.6c0-0.1-0.1-0.1-0.1-0.2
				c0-0.1-0.1-0.1-0.2-0.2c-0.1-0.1-0.2-0.2-0.4-0.3c-0.1,0-0.1-0.1-0.2-0.2c-0.2-0.1-0.4-0.3-0.7-0.4c0,0-0.1,0-0.1,0
				c-0.1-0.1-0.3-0.1-0.4-0.2c0,0-0.1,0-0.1,0c-0.3-0.1-0.5-0.2-0.8-0.3c-0.3-0.1-0.5-0.1-0.8-0.2c-0.2,0-0.4-0.1-0.5-0.1
				c-0.1,0-0.2,0-0.3-0.1c-0.1,0-0.2,0-0.4-0.1c-0.1,0-0.2,0-0.4-0.1c-0.5-0.1-1-0.1-1.5-0.2c-0.3,0-0.5-0.1-0.8-0.1
				c-0.3,0-0.7-0.1-1-0.1c-0.3,0-0.5,0-0.8,0c-1.1-0.1-2.2-0.1-3.2-0.2c-0.2,0-0.3,0-0.5,0c-0.2,0-0.5,0-0.7,0
				c-0.8,0-1.5-0.1-2.2-0.1c-0.2,0-0.4,0-0.6,0c-0.2,0-0.4,0-0.6-0.1c-0.2,0-0.4,0-0.5-0.1c-0.4,0-0.7-0.1-0.9-0.2
				c-2.1-0.5-4.1-0.9-6-1.2c-1.2-0.2-2.3-0.3-3.4-0.3c0,0-0.1,0-0.1,0c-6.7-0.3-13,1.4-19.5,5.8c-0.5,0.3-0.9,0.7-1.2,1
				c-0.2,0.2-0.4,0.4-0.5,0.5c-0.1,0.1-0.2,0.2-0.2,0.3c0,0,0,0,0,0c-0.3,0.5-0.3,0.8-0.2,1.2c0,0.1,0,0.2,0.1,0.3
				c0,0.1,0.1,0.2,0.1,0.3c0,0,0,0,0,0c0,0.1,0.1,0.1,0.2,0.2c0.2,0.2,0.5,0.4,0.7,0.6c0.1,0.1,0.2,0.1,0.3,0.1c0,0,0,0,0,0
				c0.2,0.1,0.3,0.2,0.5,0.2c0.5,0.2,0.9,0.3,0.9,0.3C1002.3,690.1,1031.1,700.1,1038.9,687.4z M834.3,665.7c7.7-1.1,10.7-4,9.8-7
				c-0.1-0.3-0.3-0.7-0.5-1c-0.1-0.2-0.2-0.3-0.3-0.5c-0.1-0.2-0.3-0.3-0.4-0.5c-0.1-0.2-0.3-0.3-0.5-0.5c-0.1-0.1-0.2-0.2-0.3-0.3
				c-0.3-0.3-0.6-0.5-0.9-0.7c-0.4-0.3-0.9-0.6-1.5-0.9c0,0,0,0,0,0c-1.3-0.7-2.9-1.4-4.8-2c-0.4-0.1-0.7-0.2-1.1-0.3
				c-2-0.5-4.2-0.9-6.5-1.1c-0.5,0-1.1-0.1-1.7-0.2c-1.5-0.1-3.1-0.2-4.8-0.2c-0.8,0-1.5,0-2.3,0c-7-0.1-14.3,0.2-20.2-0.5
				c-9.6-1-13.9-4.3-19.9-6.8c-0.5-0.2-1-0.4-1.6-0.6c-0.8-0.3-1.7-0.6-2.6-0.8c-0.6-0.2-1.3-0.3-1.9-0.5s-1.4-0.3-2.1-0.4
				c-6.5-1-18.1-0.6-28.1-0.1c-0.7,0-1.3,0.1-1.9,0.1c-0.3,0-0.6,0-1,0c-0.6,0-1.3,0.1-1.9,0.1c-1.5,0.1-3,0.2-4.4,0.3
				c-0.5,0-1.1,0.1-1.6,0.1c-0.3,0-0.5,0-0.8,0c-0.5,0-1,0-1.4,0.1c-0.7,0-1.4,0.1-2.1,0.1c-0.8,0-1.6,0.1-2.4,0.1
				c-0.4,0-0.8,0-1.3,0.1c-1.3,0.1-2.7,0.1-4.1,0.3c-1.4,0.1-2.8,0.2-4.3,0.3c-1,0.1-1.9,0.2-2.9,0.3c-7.2,0.8-14.2,2.1-17.5,4.4
				c-0.2,0.1-0.4,0.3-0.6,0.5c-0.5,0.5-0.9,1-1.1,1.6c0,0,0,0,0,0.1c0,0.1-0.1,0.3-0.1,0.4c-0.1,0.3-0.1,0.6,0,0.9
				c0,0.1,0,0.3,0.1,0.4c0,0.1,0.1,0.3,0.1,0.4c0,0.1,0.1,0.2,0.2,0.3c0.1,0.1,0.1,0.2,0.2,0.3c0.1,0.1,0.2,0.2,0.3,0.3
				c0.1,0.1,0.2,0.2,0.3,0.3c0.1,0.1,0.2,0.2,0.4,0.3c3.1,2.6,10,4.1,12.3,6.9c1.5,1.9,1.4,3.5,1.3,4.9c0,0.1,0,0.2,0,0.3
				c0,0.5,0,0.9,0,1.3c0,0.1,0,0.2,0.1,0.3c0,0.1,0,0.1,0.1,0.2c0.2,0.5,0.5,0.9,1.1,1.4c1.4,0.9,4.1,1.7,9.6,2.3
				c11.7,1.2,26.8-0.6,38.8-0.6c12.9,0,12.2-1.6,25.1-1.6C782.8,668.4,820,667.8,834.3,665.7z M548.7,556.3c0.3-0.7,0.4-1.4,0.3-2
				c0-0.1,0-0.3-0.1-0.4c-0.2-0.7-0.5-1.3-1.1-1.9c-0.4-0.4-0.8-0.7-1.4-1.1c0,0,0,0,0,0c-1.1-0.7-2.6-1.4-4.5-1.9
				c-1.5-0.5-3-0.8-4.6-1.1c-1-0.2-2.1-0.4-3.2-0.5c-2.5-0.4-5-0.6-7.6-0.7c-1.4-0.1-2.8-0.1-4.3-0.2c-1,0-2,0-2.9-0.1
				c-1.2,0-2.5,0-3.7,0c-3.7,0-7.4,0-11,0c0,0-0.1,0-0.1,0c-1.8,0-3.6-0.1-5.4-0.2c-3.8-0.2-8.8-0.4-12.3-1.7l0,0
				c-0.5-0.2-1-0.4-1.4-0.6c-1.6-0.9-1.7-2.5-3.3-3.3c-6.1-2.8-20-1.6-26.9-1.6c-17.5-0.2-23.1-9.8-34.3-14.9c0,0,0,0,0,0
				c-1.7-0.8-3.4-1.4-5.4-1.9c-0.3-0.1-0.6-0.1-0.9-0.2c-0.6-0.1-1.2-0.3-1.8-0.4c-2.1-0.4-4.5-0.6-7.1-0.6
				c-43.9,0.1-49.3,7.3-92.7,11.3h-6.5c-0.9,0.1-2.5,0.3-4.4,0.4c-0.4,0-0.9,0.1-1.4,0.1c-12.6,1-38.6,2.9-38.4,9.2
				c0,1.1,0.7,2.2,2.4,3.6c0.1,0,0.1,0.4,0.2,0.4c0.1-0.1,0.1-0.2,0.2-0.2c6,4.5,18.1,6.3,26.5,7.6c7,1.1,20.5,0.9,26.3,3.8
				c3.6,1.9,1.6,2.8,3,5.1c1.9,3,5.9,3.8,10.8,4.5c12.6,1.9,26.4,1.8,39.3,2.3c19.5,0.7,39,1.4,58.6,2c32.1,1,75.1,5,104.9-5
				C540.3,563.9,547,560,548.7,556.3C548.7,556.3,548.7,556.3,548.7,556.3z M310.8,324.8c0-61.5-49-111.5-110.2-112.9
				c-0.9,0-1.7,0-2.6,0c0,0,0,0,0,0c0,0,0,0,0,0c-0.1,0-0.2,0-0.3,0c-62.4,0-112.9,50.5-112.9,112.9c0,36.9,20.9,74.5,49,103.5
				l22,80.8h-0.1l7.6,66H209h22.6l5-43.7l2.6-22.3h-0.3l21.6-79.4C289,400.4,310.8,362,310.8,324.8z"/>
			<polygon class="st2" points="1255.3,802 1206.2,802 1114.9,768.5 1174.8,755.1 			"/>
			<polygon class="st2" points="1255.3,802 1174.8,755.1 1198.4,749.8 			"/>
			<polygon class="st2" points="1206.2,802 1082.8,802 1051,775 1086.2,775 1114.9,768.5 			"/>
			<polygon class="st4" points="1186.3,738.6 1198.4,749.8 1174.8,755.1 1103.7,713.6 			"/>
			<polygon class="st0" points="1174.8,755.1 1114.9,768.5 1033.7,738.8 1103.7,713.6 			"/>
			<path class="st5" d="M1108.5,411.3c36.3,1.8,65.2,31.8,65.2,68.6c0,22.6-13.2,45.9-30.5,63.6l0-0.2
				c17.3-17.7,30.4-40.9,30.4-63.5C1173.6,443.1,1144.8,413.1,1108.5,411.3z"/>
			<path class="st5" d="M1108.5,411.3c36.3,1.8,65.1,31.8,65.1,68.6c0,22.5-13.1,45.8-30.4,63.5l0.9-3.3l-1.1-0.3l-1.4,5.3
				c-11.4,11.3-24.4,20.1-36.5,24.9c0,0,0,0,0,0v-63c0.2,0,0.4,0,0.7,0c9.6-0.3,15.7-7.5,15.7-16.3c0-9-6.3-16.3-16.3-16.3v-63
				c0,0,0,0,0.1,0h0C1106.2,411.2,1107.3,411.2,1108.5,411.3z"/>
			<path class="st5" d="M1144.1,540l-0.9,3.3c-0.5,0.6-1.1,1.1-1.7,1.7l1.4-5.3L1144.1,540z"/>
			<path class="st5" d="M1143.2,543.3l0,0.2c-0.6,0.6-1.1,1.1-1.7,1.7l0.1-0.2C1142.1,544.4,1142.7,543.8,1143.2,543.3z"/>
			<path class="st5" d="M1143.2,543.5L1130,592l-1.1-0.3l12.6-46.5C1142.1,544.6,1142.6,544,1143.2,543.5z"/>
			<path class="st5" d="M1141.6,545l-0.1,0.2c-11.3,11.2-24.3,20-36.4,24.7c0,0-0.1,0-0.1,0C1117.2,565.1,1130.2,556.2,1141.6,545z"
				/>
			<path class="st3" d="M1141.5,545.1l-12.6,46.5l1.1,0.3v0h-18h-15v-5l-1.2-5.4l-2.5-1.6h-1.2v-1l2.6-2.1l0.7-7.7l0-0.1l0.5-3.6
				c3,1.6,6.1,3.1,9.1,4.3c0,0,0.1,0,0.1,0c0,0,0,0,0.1,0C1117.2,565.2,1130.2,556.3,1141.5,545.1z"/>
			<polygon class="st6" points="1130.2,592 1125.5,632 1112,632 1112,592 1130,592 			"/>
			<path class="st7" d="M1121.3,490.5c0,8.8-6,16-15.7,16.3c8.6-0.5,15.4-7.6,15.4-16.3c0-8.9-7.2-16.2-16.1-16.3v0
				C1115,474.2,1121.3,481.5,1121.3,490.5z"/>
			<path class="st3" d="M1105,474.2c8.9,0.1,16.1,7.4,16.1,16.3c0,8.7-6.8,15.8-15.4,16.3c-0.2,0-0.4,0-0.7,0c-0.1,0-0.2,0-0.2,0
				c-9,0-16.3-7.3-16.3-16.3c0-9,7.3-16.3,16.3-16.3C1104.8,474.2,1104.9,474.2,1105,474.2z"/>
			<polygon class="st4" points="1114.9,768.5 1086.2,775 1051,775 1008.1,738.6 989.1,722.4 1033.1,739 1033.7,738.8 			"/>
			<polygon class="st5" points="1112,592 1112,632 1084,632 1079.3,592 1079.5,592 1080,592 1080,593 1082.3,593 1082.4,592 
				1084,592 1084,593 1093.3,593 1093.3,592 1094.5,592 1094.6,592.5 1097,592.6 1097,592 			"/>
			<path class="st7" d="M1105.1,411.2C1105,411.2,1105,411.2,1105.1,411.2l-0.1,63v0c-0.1,0-0.2,0-0.2,0c-9,0-16.3,7.3-16.3,16.3
				c0,9,7.3,16.3,16.3,16.3c0.1,0,0.2,0,0.2,0v63c0,0,0,0,0,0c0,0-0.1,0-0.1,0c-3-1.2-6-2.6-9.1-4.3l0.7-5.2l-3.5-2.1l1.1-1.4
				l-10.4,1.2c-5.6-4-11-8.6-16-13.6l-1.3-4.7l-1.1,0.3l0.7,2.7c-17.1-17.6-29.8-40.5-29.8-62.9c0-37.9,30.7-68.7,68.7-68.7
				C1105,411.2,1105,411.2,1105.1,411.2z"/>
			<polygon class="st5" points="1097,592 1097,592.6 1094.6,592.5 1094.5,592 			"/>
			<path class="st8" d="M1097,587v5h-2.5l-0.5-5h0.6l-1.3-2.5l-0.1-0.3l0,7.7h-9.3v-7.7l-1.3,3.1l-0.3,4.6h-2.4v-0.1l0.6-0.2
				l-0.6-2.3v-2.1l0.6-5.7l2.5-1.6h9h1.2l2.5,1.6L1097,587z M1091,580.4h-4.8c0,1,1.1,1.7,2.4,1.7
				C1089.9,582.1,1091,581.3,1091,580.4z"/>
			<path class="st9" d="M1096.6,560.4l-0.7,5.2c-0.1,0-0.1-0.1-0.2-0.1l0.2-2.7l-4.3-3.3h-5.9c-0.7-0.5-1.4-0.9-2.1-1.4l10.4-1.2
				l-1.1,1.4L1096.6,560.4z"/>
			<path class="st9" d="M1095.9,562.8l-0.2,2.7c-0.5-0.3-1.1-0.6-1.6-0.9l-0.3-1.2l-1.3,0.3c-2.2-1.3-4.4-2.7-6.6-4.2h5.9
				L1095.9,562.8z"/>
			<path class="st9" d="M1095.9,565.6l-0.5,3.6l0.3-3.7C1095.8,565.5,1095.8,565.6,1095.9,565.6z"/>
			<path class="st9" d="M1095.7,565.5l-0.3,3.7l0,0.1l-1.3-4.7C1094.6,564.9,1095.2,565.2,1095.7,565.5z"/>
			<path class="st10" d="M1095.4,569.3l-0.7,7.7l-2.6,2.1h-3.2h-4.7l-2.6-2.1l-0.8-8.9l2.4-4.6l7.9,0.6l1.5-0.3
				c0.5,0.3,1.1,0.6,1.6,0.9L1095.4,569.3z M1091.9,571.1v-0.5h-1.9L1091.9,571.1z M1091.7,570.1v-3.6h-1v1.4h-0.5v2.2H1091.7z
				 M1089,572.5L1089,572.5c0-0.5-0.4-0.9-0.9-0.9s-0.9,0.4-0.9,0.9c0,0,0,0,0,0H1089z M1085.7,570.1v-3.6h-1v1.4h-0.5v2.2H1085.7z
				 M1083.7,571.1l1.9-0.5h-1.9V571.1z"/>
			<polygon class="st11" points="1093.4,584.5 1094.6,587 1094,587 			"/>
			<polygon class="st3" points="1094.5,592 1093.3,592 1093.3,584.3 1093.4,584.5 1093.3,584.4 1094,587 			"/>
			<path class="st10" d="M1093.7,563.4l0.3,1.2c-0.5-0.3-1.1-0.6-1.6-0.9L1093.7,563.4z"/>
			<polygon class="st11" points="1093.4,584.5 1094,587 1093.3,584.4 			"/>
			<rect x="1084" y="592" class="st5" width="9.3" height="1"/>
			<path class="st9" d="M1092.5,563.7l-1.5,0.3l-7.9-0.6l-2.4,4.6l-0.5-5.3l4.3-3.3h1.3C1088,561,1090.2,562.4,1092.5,563.7z"/>
			<path class="st3" d="M1092.1,579v1h-9l-2.5,1.6l-0.6,5.7v2.1l-12.3-45c5.1,5,10.5,9.6,16,13.6l-2.1,0.2l-2.2,2.2l1.2,7.6l0.8,8.9
				l2.6,2.1h4.7H1092.1z"/>
			<polygon class="st12" points="1091.9,570.6 1091.9,571.1 1090,570.6 			"/>
			<polygon class="st13" points="1091.7,566.4 1091.7,570.1 1090.2,570.1 1090.2,567.8 1090.7,567.8 1090.7,566.4 			"/>
			<path class="st10" d="M1086.2,580.4h4.8c0,1-1.1,1.7-2.4,1.7C1087.3,582.1,1086.2,581.3,1086.2,580.4z"/>
			<path class="st14" d="M1089,572.5L1089,572.5l-1.8,0c0,0,0,0,0,0c0-0.5,0.4-0.9,0.9-0.9S1089,572,1089,572.5z"/>
			<path class="st9" d="M1085.8,559.5h-1.3l-4.3,3.3l0.5,5.3l-1.2-7.6l2.2-2.2l2.1-0.2C1084.4,558.5,1085.1,559,1085.8,559.5z"/>
			<polygon class="st13" points="1085.7,566.4 1085.7,570.1 1084.1,570.1 1084.1,567.8 1084.6,567.8 1084.6,566.4 			"/>
			<polygon class="st12" points="1085.7,570.6 1083.7,571.1 1083.7,570.6 			"/>
			<polygon class="st3" points="1084,584.3 1084,592 1082.4,592 1082.7,587.4 			"/>
			<polygon class="st2" points="1082.8,802 718.1,802 853.5,776.5 1008,782.1 1008,775 1051,775 			"/>
			<polygon class="st5" points="1082.4,592 1082.3,593 1080,593 1080,592 			"/>
			<polygon class="st7" points="1080,589.4 1080.6,591.7 1080,591.9 			"/>
			<polygon class="st3" points="1080,591.9 1080,592 1079.5,592 			"/>
			<path class="st7" d="M1080,589.4v2.4l-0.5,0.1l-13.4-49.2c0.5,0.6,1.1,1.1,1.6,1.7L1080,589.4z"/>
			<path class="st7" d="M1066.4,539.8l1.3,4.7c-0.5-0.5-1.1-1.1-1.6-1.7l-0.7-2.7L1066.4,539.8z"/>
			<polygon class="st0" points="1008.1,738.6 1051,775 1008,775 1008,773.1 1008,769.7 1008,760.7 906.3,756.5 906.5,756.4 
				1008,760.1 1008,751.1 1008,747.7 1008,738.7 			"/>
			<path class="st15" d="M1039.8,684.7c0.1,0.8-0.2,1.6-0.8,2.7c-7.8,12.7-36.6,2.7-46.6,2.3c0,0-0.4-0.1-0.9-0.3
				c0.2-0.7,0.8-1.5,2.2-2.4c9.4-6.4,18.5-7,29-4.4C1026,683.3,1035.6,682.6,1039.8,684.7z"/>
			<path class="st16" d="M1039.7,684.4c0,0.1,0,0.2,0,0.2c-4.2-2.1-13.8-1.3-17.2-2.2c-10.6-2.7-19.6-2-29,4.4c-1.4,1-2,1.8-2.2,2.4
				c-0.2-0.1-0.3-0.1-0.5-0.2c0,0,0,0,0,0c-0.1,0-0.2-0.1-0.3-0.1c-0.3-0.2-0.5-0.4-0.7-0.6c-0.1-0.1-0.1-0.1-0.2-0.2c0,0,0,0,0,0
				c-0.1-0.1-0.1-0.2-0.1-0.3c0-0.1-0.1-0.2-0.1-0.3c-0.1-0.4,0-0.8,0.2-1.2c0,0,0,0,0,0c0.1-0.1,0.1-0.2,0.2-0.3
				c0.1-0.2,0.3-0.3,0.5-0.5c0.3-0.3,0.7-0.6,1.2-1c6.5-4.4,12.8-6.1,19.5-5.9c0,0,0.1,0,0.1,0c1.1,0,2.3,0.2,3.4,0.3
				c2,0.2,4,0.6,6,1.2c0.3,0.1,0.6,0.1,0.9,0.2c0.2,0,0.3,0,0.5,0.1c0.2,0,0.4,0,0.6,0.1c0.2,0,0.4,0,0.6,0c0.7,0,1.4,0.1,2.2,0.1
				c0.2,0,0.4,0,0.7,0c0.2,0,0.3,0,0.5,0c1,0,2.1,0.1,3.2,0.2c0.3,0,0.5,0,0.8,0c0.3,0,0.7,0.1,1,0.1c0.3,0,0.5,0,0.8,0.1
				c0.5,0.1,1,0.1,1.5,0.2c0.1,0,0.2,0,0.4,0.1c0.1,0,0.2,0,0.4,0.1c0.1,0,0.2,0.1,0.3,0.1c0.2,0,0.4,0.1,0.5,0.1
				c0.3,0.1,0.5,0.1,0.8,0.2c0.3,0.1,0.5,0.2,0.8,0.3c0,0,0.1,0,0.1,0c0.2,0.1,0.3,0.1,0.4,0.2c0,0,0.1,0,0.1,0
				c0.2,0.1,0.5,0.3,0.7,0.4c0.1,0,0.1,0.1,0.2,0.2c0.1,0.1,0.3,0.2,0.4,0.3c0.1,0.1,0.1,0.1,0.2,0.2c0,0.1,0.1,0.1,0.1,0.2
				c0.1,0.2,0.3,0.4,0.3,0.6C1039.7,684.2,1039.7,684.3,1039.7,684.4z"/>
			<path class="st15" d="M1039.6,684c0.1,0.1,0.1,0.3,0.1,0.4C1039.7,684.3,1039.7,684.2,1039.6,684z"/>
			<path class="st15" d="M1039.3,683.4c0-0.1-0.1-0.1-0.1-0.2C1039.2,683.3,1039.3,683.4,1039.3,683.4z"/>
			<path class="st15" d="M1039.2,683.2c-0.1-0.1-0.1-0.1-0.2-0.2C1039.1,683.1,1039.1,683.2,1039.2,683.2z"/>
			<path class="st15" d="M1039,683.1c-0.1-0.1-0.2-0.2-0.4-0.3C1038.8,682.8,1038.9,683,1039,683.1z"/>
			<path class="st15" d="M1038.4,682.6c-0.2-0.1-0.4-0.3-0.7-0.4C1038,682.3,1038.2,682.5,1038.4,682.6z"/>
			<path class="st15" d="M1037.7,682.2c-0.1-0.1-0.3-0.1-0.4-0.2C1037.4,682,1037.5,682.1,1037.7,682.2z"/>
			<path class="st15" d="M1037.1,681.9c-0.3-0.1-0.5-0.2-0.8-0.3C1036.6,681.8,1036.9,681.8,1037.1,681.9z"/>
			<path class="st15" d="M1035.6,681.5c0.3,0.1,0.5,0.1,0.8,0.2C1036.1,681.6,1035.8,681.5,1035.6,681.5z"/>
			<path class="st15" d="M1035,681.4c-0.1,0-0.2,0-0.3-0.1C1034.8,681.3,1034.9,681.3,1035,681.4z"/>
			<path class="st15" d="M1034.3,681.2c-0.1,0-0.2,0-0.4-0.1C1034.1,681.2,1034.2,681.2,1034.3,681.2z"/>
			<polygon class="st4" points="989.1,722.4 1033.7,738.8 1033.1,739 			"/>
			<path class="st15" d="M1032.5,681c-0.3,0-0.5-0.1-0.8-0.1C1031.9,680.9,1032.2,680.9,1032.5,681z"/>
			<path class="st15" d="M1029.8,680.8c0.3,0,0.5,0,0.8,0C1030.4,680.8,1030.1,680.8,1029.8,680.8z"/>
			<path class="st15" d="M1026.6,680.6c1,0,2.1,0.1,3.2,0.2C1028.8,680.7,1027.7,680.6,1026.6,680.6z"/>
			<path class="st15" d="M1026.2,680.6c-0.2,0-0.5,0-0.7,0C1025.7,680.5,1025.9,680.6,1026.2,680.6z"/>
			<path class="st15" d="M1023.3,680.4c-0.2,0-0.4,0-0.6,0C1022.9,680.4,1023.1,680.4,1023.3,680.4z"/>
			<path class="st15" d="M1022.1,680.3c-0.2,0-0.3,0-0.5-0.1C1021.7,680.3,1021.9,680.3,1022.1,680.3z"/>
			<path class="st16" d="M1011.2,678.6c1.1,0,2.3,0.1,3.4,0.3C1013.5,678.8,1012.3,678.7,1011.2,678.6z"/>
			<path class="st16" d="M1011.1,678.6c-6.7-0.3-13,1.4-19.5,5.9c-0.5,0.3-0.9,0.7-1.2,1c0.3-0.3,0.7-0.7,1.2-1
				C998.1,680,1004.4,678.4,1011.1,678.6z"/>
			<polygon class="st0" points="989.1,722.4 1008.1,738.6 1008,738.7 954.9,736.5 			"/>
			<polygon class="st2" points="1008,775 1008,782.1 853.5,776.5 861.4,775 			"/>
			<polygon class="st0" points="1008,773.1 1008,775 861.4,775 877.5,768.4 			"/>
			<polygon class="st0" points="1008,769.7 1008,773.1 877.5,768.4 886.5,764.7 			"/>
			<polygon class="st0" points="1008,760.7 1008,769.7 886.5,764.7 906.3,756.5 			"/>
			<polygon class="st0" points="1008,751.1 1008,760.1 906.5,756.4 926.6,748.2 			"/>
			<polygon class="st0" points="1008,747.7 1008,751.1 926.6,748.2 935,744.7 			"/>
			<polygon class="st0" points="1008,738.7 1008,747.7 935,744.7 954.9,736.5 			"/>
			<path class="st16" d="M990.9,689.1c0.2,0.1,0.3,0.2,0.5,0.2C991.2,689.2,991,689.2,990.9,689.1z"/>
			<path class="st16" d="M990.6,688.9c0.1,0,0.2,0.1,0.3,0.1C990.7,689,990.7,689,990.6,688.9z"/>
			<path class="st16" d="M989.7,688.1c0,0.1,0.1,0.1,0.2,0.2C989.8,688.2,989.7,688.2,989.7,688.1z"/>
			<path class="st16" d="M989.9,686c-0.1,0.1-0.2,0.2-0.2,0.3C989.7,686.2,989.8,686.1,989.9,686z"/>
			<path class="st16" d="M989.5,687.8c0,0.1,0.1,0.2,0.1,0.3C989.6,688,989.6,687.9,989.5,687.8z"/>
			<path class="st16" d="M989.4,687.5c0,0.1,0,0.2,0.1,0.3C989.5,687.7,989.4,687.6,989.4,687.5z"/>
			<path class="st16" d="M989.7,686.3c-0.3,0.5-0.3,0.8-0.2,1.2C989.3,687.2,989.4,686.8,989.7,686.3z"/>
			<polygon class="st17" points="646.3,732.6 646,732.8 626.2,731.9 618.2,722.6 954.9,736.5 935,744.7 647.3,732.8 646.3,732.6 
				646.3,732.6 			"/>
			<polygon class="st18" points="935,744.7 926.6,748.2 672.8,738.9 647.3,732.8 			"/>
			<polygon class="st18" points="926.6,748.2 906.5,756.4 888.2,755.8 712.8,748.5 672.8,738.9 			"/>
			<polygon class="st3" points="906.5,756.4 906.3,756.5 888.2,755.8 			"/>
			<polygon class="st19" points="906.3,756.5 886.5,764.7 765,759.7 765,759.7 748.2,757 717,749.5 888.2,755.8 			"/>
			<polygon class="st19" points="888.2,755.8 717,749.5 712.8,748.5 			"/>
			<polygon class="st20" points="886.5,764.7 877.5,768.4 802.6,765.6 802.6,765.6 765,759.7 			"/>
			<polygon class="st20" points="877.5,768.4 861.4,775 802.6,765.6 			"/>
			<polygon class="st2" points="861.4,775 853.5,776.5 658.5,769.4 650.5,760.1 722.4,762.7 741.5,770.3 			"/>
			<polygon class="st1" points="861.4,775 741.5,770.3 722.4,762.7 802.6,765.6 802.6,765.6 			"/>
			<polygon class="st2" points="853.5,776.5 718.1,802 686.5,802 658.5,769.4 			"/>
			<path class="st15" d="M844,661c0.3-0.7,0.3-1.5,0.1-2.3c0.9,3-2.1,5.8-9.8,7c-14.3,2.1-51.5,2.7-51.5,2.7
				c-12.8,0-12.2,1.6-25.1,1.6c-11.9,0-27,1.8-38.8,0.6c-5.5-0.6-8.3-1.3-9.6-2.3c0-1.1-0.2-2.4-1.2-3.8c0,0.1,0,0.2,0,0.3
				c0.1-1.4,0.1-3-1.3-4.9c-2.3-2.8-9.1-4.3-12.3-6.9c3.2-5.7,25.6-6.6,36-7.1c10.5-0.5,31.3-2.2,41-0.7c11.6,1.8,14.8,7.6,28.1,9.1
				c10.9,1.2,26.6-0.7,36.5,2.3C839.8,657.8,842.5,659.4,844,661z"/>
			<path class="st16" d="M844.1,658.7c0.2,0.8,0.2,1.5-0.1,2.3c-1.5-1.6-4.2-3.1-7.9-4.3c-9.8-3-25.6-1.1-36.5-2.3
				c-13.3-1.4-16.5-7.3-28.1-9.1c-9.7-1.5-30.5,0.1-41,0.7c-10.3,0.5-32.8,1.3-36,7.1c-0.1-0.1-0.2-0.2-0.4-0.3
				c-0.1-0.1-0.2-0.2-0.3-0.3c-0.1-0.1-0.2-0.2-0.3-0.3c-0.1-0.1-0.2-0.2-0.2-0.3c-0.1-0.1-0.1-0.2-0.2-0.3
				c-0.1-0.1-0.1-0.2-0.1-0.4c0-0.1-0.1-0.3-0.1-0.4c0-0.3,0-0.6,0-0.9c0-0.1,0.1-0.3,0.1-0.4c0,0,0,0,0-0.1
				c0.2-0.6,0.6-1.1,1.1-1.6c0.2-0.2,0.4-0.3,0.6-0.5c3.2-2.3,10.2-3.6,17.5-4.4c1-0.1,1.9-0.2,2.9-0.3c1.4-0.1,2.9-0.2,4.3-0.3
				c1.4-0.1,2.8-0.2,4.1-0.3c0.4,0,0.8-0.1,1.3-0.1c0.8,0,1.6-0.1,2.4-0.1c0.8,0,1.5-0.1,2.1-0.1c0.5,0,0.9,0,1.4-0.1
				c0.3,0,0.5,0,0.8,0c0.5,0,1-0.1,1.6-0.1c1.4-0.1,2.8-0.2,4.4-0.3c0.6,0,1.2-0.1,1.9-0.1c0.3,0,0.6,0,1,0c0.6,0,1.3-0.1,1.9-0.1
				c10.1-0.5,21.6-1,28.1,0.1c0.7,0.1,1.4,0.2,2.1,0.4s1.3,0.3,1.9,0.5c0.9,0.3,1.8,0.5,2.6,0.8c0.5,0.2,1.1,0.4,1.6,0.6
				c6,2.5,10.3,5.8,19.9,6.8c5.9,0.6,13.2,0.4,20.2,0.5c0.8,0,1.5,0,2.3,0c1.6,0,3.2,0.1,4.8,0.2c0.6,0,1.1,0.1,1.7,0.2
				c2.3,0.2,4.5,0.6,6.5,1.1c0.4,0.1,0.7,0.2,1.1,0.3c1.9,0.6,3.5,1.3,4.8,2c0,0,0,0,0,0c0.5,0.3,1,0.6,1.5,0.9
				c0.3,0.2,0.6,0.5,0.9,0.7c0.1,0.1,0.2,0.2,0.3,0.3c0.2,0.2,0.3,0.3,0.5,0.5c0.2,0.2,0.3,0.3,0.4,0.5c0.1,0.2,0.2,0.3,0.3,0.5
				C843.9,658,844,658.4,844.1,658.7z"/>
			<path class="st15" d="M843.7,657.7c0.2,0.3,0.4,0.7,0.5,1C844,658.4,843.9,658,843.7,657.7z"/>
			<path class="st15" d="M843.3,657.2c-0.1-0.2-0.3-0.3-0.4-0.5C843.1,656.9,843.2,657,843.3,657.2z"/>
			<path class="st16" d="M842.1,656c0.1,0.1,0.2,0.2,0.3,0.3C842.3,656.1,842.2,656,842.1,656z"/>
			<path class="st16" d="M839.8,654.3c0.5,0.3,1,0.6,1.5,0.9C840.8,654.9,840.3,654.6,839.8,654.3z"/>
			<path class="st16" d="M835,652.3c1.9,0.6,3.5,1.3,4.8,2C838.5,653.6,836.8,652.9,835,652.3c-0.4-0.1-0.7-0.2-1.1-0.3
				C834.3,652.1,834.6,652.2,835,652.3z"/>
			<path class="st15" d="M827.4,651c-0.5-0.1-1.1-0.1-1.7-0.2C826.3,650.8,826.8,650.9,827.4,651z"/>
			<path class="st15" d="M821,650.6c-0.8,0-1.5,0-2.3,0C819.4,650.5,820.2,650.5,821,650.6z"/>
			<polygon class="st1" points="802.6,765.6 722.4,762.7 708.8,757.3 765,759.7 765,759.7 			"/>
			<path class="st16" d="M777,642.7c0.5,0.2,1.1,0.4,1.6,0.6C778,643.1,777.5,642.9,777,642.7z"/>
			<path class="st16" d="M772.4,641.4c0.7,0.1,1.3,0.3,1.9,0.5C773.7,641.7,773.1,641.5,772.4,641.4z"/>
			<polygon class="st1" points="765,759.7 708.8,757.3 686.3,748.4 717,749.5 748.2,757 			"/>
			<polygon class="st21" points="717,749.5 748.2,757 717,749.5 			"/>
			<path class="st16" d="M742.2,640.9c-0.7,0-1.3,0.1-1.9,0.1C740.9,641,741.5,641,742.2,640.9z"/>
			<path class="st16" d="M737.5,641.2c0.6,0,1.2-0.1,1.9-0.1C738.7,641.1,738.1,641.2,737.5,641.2z"/>
			<path class="st16" d="M731.5,641.5c0.5,0,1-0.1,1.6-0.1C732.6,641.5,732,641.5,731.5,641.5z"/>
			<path class="st16" d="M729.3,641.7c0.5,0,0.9,0,1.4-0.1C730.3,641.6,729.8,641.7,729.3,641.7c-0.7,0-1.4,0.1-2.1,0.1
				C727.9,641.7,728.7,641.7,729.3,641.7z"/>
			<path class="st16" d="M724.8,641.9c0.8,0,1.6-0.1,2.4-0.1C726.4,641.8,725.6,641.8,724.8,641.9z"/>
			<polygon class="st2" points="722.4,762.7 650.5,760.1 645.8,754.8 708.8,757.3 			"/>
			<path class="st16" d="M719.4,642.2c1.4-0.1,2.8-0.2,4.1-0.3C722.2,642,720.8,642.1,719.4,642.2z"/>
			<polygon class="st21" points="717,749.5 717,749.5 712.8,748.5 712.8,748.5 			"/>
			<polygon class="st1" points="717,749.5 686.3,748.4 683.5,747.3 712.8,748.5 			"/>
			<path class="st16" d="M712.3,642.8c1-0.1,1.9-0.2,2.9-0.3C714.2,642.6,713.2,642.7,712.3,642.8z"/>
			<polygon class="st21" points="712.8,748.5 712.8,748.5 672.7,738.9 672.8,738.9 			"/>
			<polygon class="st1" points="712.8,748.5 683.5,747.3 661.2,738.5 672.7,738.9 			"/>
			<path class="st16" d="M709.3,668.4c-0.6-0.4-0.9-0.9-1.1-1.4c0-0.1,0-0.1-0.1-0.2c0-0.1,0-0.2-0.1-0.3c-0.1-0.4-0.1-0.8,0-1.3
				c0-0.1,0-0.2,0-0.3c0-0.1,0-0.2,0-0.3C709.2,666,709.3,667.2,709.3,668.4z"/>
			<polygon class="st2" points="708.8,757.3 645.8,754.8 638.9,746.7 686.3,748.4 			"/>
			<path class="st15" d="M708.2,666.8c0,0.1,0,0.1,0.1,0.2C708.3,666.9,708.2,666.9,708.2,666.8z"/>
			<path class="st15" d="M708.1,665.2c0,0.5,0,0.9,0,1.3C708.1,666.1,708.1,665.7,708.1,665.2z"/>
			<path class="st15" d="M694.2,652.8c0.1,0.1,0.2,0.2,0.4,0.3C694.4,653,694.3,652.9,694.2,652.8z"/>
			<path class="st16" d="M694.2,647.7c0.2-0.2,0.4-0.3,0.6-0.5C694.6,647.4,694.4,647.5,694.2,647.7z"/>
			<path class="st15" d="M693.9,652.5c0.1,0.1,0.2,0.2,0.3,0.3C694,652.7,694,652.6,693.9,652.5z"/>
			<path class="st15" d="M693.6,652.2c0.1,0.1,0.2,0.2,0.3,0.3C693.8,652.4,693.7,652.3,693.6,652.2z"/>
			<path class="st15" d="M693.3,651.8c0.1,0.1,0.2,0.2,0.2,0.3C693.5,652,693.4,651.9,693.3,651.8z"/>
			<path class="st15" d="M693.2,651.5c0,0.1,0.1,0.2,0.2,0.3C693.3,651.7,693.2,651.6,693.2,651.5z"/>
			<path class="st15" d="M693,651.1c0,0.1,0.1,0.3,0.1,0.4C693.1,651.3,693.1,651.2,693,651.1z"/>
			<path class="st15" d="M693,650.7c0,0.1,0,0.3,0.1,0.4C693,651,693,650.8,693,650.7z"/>
			<path class="st15" d="M693.1,649.4c0,0.1-0.1,0.3-0.1,0.4C693,649.6,693,649.5,693.1,649.4z"/>
			<polygon class="st21" points="658.5,769.4 686.5,802 686.2,802 658.2,769.4 			"/>
			<polygon class="st2" points="686.3,748.4 638.9,746.7 637.8,745.4 683.5,747.3 			"/>
			<polygon class="st2" points="658.2,769.4 686.2,802 611,802 594.7,762.4 614,751.3 614,753.4 614,758.8 614,767.8 			"/>
			<polygon class="st2" points="683.5,747.3 637.8,745.4 633.3,740.1 637.6,737.6 661.2,738.5 			"/>
			<polygon class="st21" points="672.8,738.9 672.7,738.9 647.2,732.8 647.3,732.8 			"/>
			<polygon class="st1" points="672.7,738.9 661.2,738.5 646.8,732.8 647.2,732.8 			"/>
			<polygon class="st2" points="661.2,738.5 637.6,737.6 646,732.8 646.8,732.8 			"/>
			<polygon class="st21" points="650.5,760.1 658.5,769.4 658.2,769.4 650.2,760.1 			"/>
			<polygon class="st2" points="650.2,760.1 658.2,769.4 614,767.8 614,758.8 			"/>
			<polygon class="st21" points="645.8,754.8 650.5,760.1 650.2,760.1 645.6,754.7 			"/>
			<polygon class="st2" points="645.6,754.7 650.2,760.1 614,758.8 614,753.4 			"/>
			<polygon class="st21" points="647.3,732.8 647.2,732.8 646.3,732.6 646.3,732.6 			"/>
			<polygon class="st22" points="647.2,732.8 646.8,732.8 646.3,732.6 			"/>
			<polygon class="st21" points="646.3,732.6 646.8,732.8 646,732.8 646.3,732.6 			"/>
			<polygon class="st18" points="646,732.8 637.6,737.6 630.9,737.4 626.2,731.9 			"/>
			<polygon class="st21" points="638.9,746.7 645.8,754.8 645.6,754.7 638.7,746.7 			"/>
			<polygon class="st2" points="638.7,746.7 645.6,754.7 614,753.4 614,751.3 622.9,746.1 			"/>
			<polygon class="st21" points="638.9,746.7 638.7,746.7 637.6,745.4 637.8,745.4 			"/>
			<polygon class="st2" points="637.6,745.4 638.7,746.7 622.9,746.1 625,744.9 			"/>
			<polygon class="st21" points="637.8,745.4 637.6,745.4 633.2,740.2 633.3,740.1 			"/>
			<polygon class="st2" points="633.2,740.2 637.6,745.4 625,744.9 			"/>
			<polygon class="st18" points="637.6,737.6 633.3,740.1 630.9,737.4 			"/>
			<polygon class="st23" points="630.9,737.4 633.3,740.1 633.2,740.2 630.8,737.4 			"/>
			<polygon class="st24" points="633.2,740.2 625,744.9 614,744.4 614,736.8 630.8,737.4 			"/>
			<polygon class="st23" points="626.2,731.9 630.9,737.4 630.8,737.4 626.1,731.9 			"/>
			<polygon class="st24" points="626.1,731.9 630.8,737.4 614,736.8 614,731.4 			"/>
			<polygon class="st23" points="618.2,722.6 626.2,731.9 626.1,731.9 618.1,722.6 			"/>
			<polygon class="st24" points="626.1,731.9 614,731.4 614,722.4 618.1,722.6 			"/>
			<polygon class="st24" points="625,744.9 622.9,746.1 614,745.8 614,744.4 			"/>
			<polygon class="st24" points="622.9,746.1 614,751.3 614,745.8 			"/>
			<polygon class="st23" points="618.2,722.6 618.1,722.6 555,649 554.9,649 			"/>
			<polygon class="st24" points="555,649 618.1,722.6 614,722.4 614,731.4 614,736.8 614,744.4 614,745.8 614,751.3 594.7,762.4 
				549,650.9 556.8,656.8 			"/>
			<polygon class="st2" points="594.7,762.4 611,802 498.5,802 457.1,757.5 537.5,779.7 583.2,769 451.8,751.8 451.8,751.8 
				583.3,769 			"/>
			<polygon class="st23" points="549,650.9 594.7,762.4 583.3,769 451.8,751.8 415.6,712.8 542,634 518,649 527,649 524.5,657.8 
				536.5,651.3 541,657.8 			"/>
			<polygon class="st1" points="583.2,769 537.5,779.7 457.1,757.5 451.8,751.8 			"/>
			<polygon class="st25" points="555,649 556.8,656.8 549,650.9 542,634 			"/>
			<polygon class="st25" points="554.9,649 555,649 542,634 			"/>
			<path class="st16" d="M548.7,556.3c0.3-0.7,0.4-1.3,0.3-2C549.1,554.9,549,555.6,548.7,556.3
				C548.7,556.3,548.7,556.3,548.7,556.3z"/>
			<path class="st16" d="M549,554.2c0.1,0.7,0,1.3-0.3,2c-1.1-0.8-2.7-1.5-4.8-2.1c-12.8-3.9-28.9-2-42.7-2.8
				c-4.3-0.3-10.3-0.5-13.7-2.3c-1.6-0.9-1.7-2.5-3.3-3.2c-0.4-0.2-0.8-0.3-1.3-0.5l2.3-1.7c0.1,0.1,0.2,0.1,0.3,0.2
				c0.4,0.2,0.9,0.4,1.4,0.6l0,0c3.5,1.3,8.6,1.5,12.3,1.7c1.8,0.1,3.5,0.2,5.4,0.2c0,0,0.1,0,0.1,0c3.6,0.1,7.3,0,11,0
				c1.2,0,2.5,0,3.7,0c1,0,1.9,0,2.9,0.1c1.4,0,2.8,0.1,4.3,0.2c2.6,0.1,5.1,0.4,7.6,0.7c1.1,0.2,2.1,0.3,3.2,0.5
				c1.6,0.3,3.1,0.7,4.6,1.1c1.9,0.6,3.4,1.2,4.5,1.9c0,0,0,0,0,0c0.5,0.3,1,0.7,1.4,1.1c0.6,0.6,1,1.3,1.1,1.9
				C549,554,549,554.1,549,554.2z"/>
			<path class="st16" d="M549,554.2c0-0.1,0-0.3-0.1-0.4C549,554,549,554.1,549,554.2z"/>
			<polygon class="st26" points="542,634 549,650.9 541,657.8 536.5,651.3 524.5,657.8 527,649 518,649 			"/>
			<path class="st15" d="M546.4,550.8c0.6,0.3,1,0.7,1.4,1.1C547.4,551.5,546.9,551.2,546.4,550.8z"/>
			<path class="st15" d="M543.8,554.1c2.1,0.6,3.7,1.4,4.8,2.1c-1.6,3.8-8.3,7.6-14.3,9.6c-29.8,10-72.8,6-104.9,5
				c-19.5-0.6-39-1.4-58.6-2c-12.9-0.5-26.7-0.3-39.3-2.3c-4.9-0.8-8.9-1.5-10.8-4.5c-1.5-2.3,0.6-3.3-3-5.1
				c-5.8-3-19.3-2.8-26.3-3.8c-8.4-1.3-20.5-3.1-26.5-7.6c5.4-6,37.4-7.5,43.4-7.5h6.5c43.4-5,48.9-11.6,92.7-11.6
				c23.8,0,25.7,17.6,49.5,17.8c6.5,0.1,19-1.1,25.7,1c0.5,0.2,0.9,0.3,1.3,0.5c1.6,0.7,1.7,2.3,3.3,3.2c3.5,1.9,9.4,2.1,13.7,2.3
				C514.9,552.1,531,550.2,543.8,554.1z"/>
			<path class="st15" d="M541.8,548.9c1.9,0.6,3.4,1.2,4.5,1.9C545.3,550.1,543.8,549.5,541.8,548.9c-1.5-0.4-3-0.8-4.6-1.1
				C538.8,548.1,540.4,548.4,541.8,548.9z"/>
			<path class="st15" d="M537.3,547.8c-1-0.2-2.1-0.4-3.2-0.5C535.2,547.4,536.2,547.5,537.3,547.8z"/>
			<path class="st15" d="M534.1,547.2c-2.5-0.3-5-0.6-7.6-0.7C529.1,546.6,531.6,546.9,534.1,547.2z"/>
			<path class="st15" d="M522.2,546.3c-1,0-2,0-2.9-0.1C520.3,546.3,521.2,546.3,522.2,546.3z"/>
			<path class="st15" d="M515.6,546.3c-3.7,0-7.4,0-11,0C508.2,546.3,511.9,546.3,515.6,546.3z"/>
			<path class="st15" d="M499.2,546c1.8,0.1,3.5,0.2,5.4,0.2C502.7,546.2,500.9,546.2,499.2,546c-3.8-0.2-8.8-0.4-12.3-1.7
				C490.4,545.6,495.4,545.8,499.2,546z"/>
			<polygon class="st21" points="457.1,757.5 498.5,802 498.2,802 456.8,757.4 			"/>
			<polygon class="st2" points="456.8,757.4 498.2,802 398.3,800.3 381.1,757.3 422.9,748 			"/>
			<polygon class="st2" points="498.2,802 314.5,802 298.4,786.1 324.5,769.7 381.1,757.3 398.3,800.3 			"/>
			<path class="st15" d="M485.4,543.7c0.4,0.2,0.9,0.4,1.4,0.6C486.3,544.1,485.9,543.9,485.4,543.7c-0.1,0-0.2-0.1-0.3-0.1
				c-1.4-0.9-1.5-2.4-3-3.1c-6.1-2.9-20-1.5-26.9-1.6c-17.5-0.2-23.1-9.9-34.3-15c11.2,5.1,16.9,14.7,34.3,14.9
				c6.9,0.1,20.8-1.2,26.9,1.6C483.7,541.2,483.8,542.8,485.4,543.7z"/>
			<path class="st16" d="M485.1,543.5l-2.3,1.7c-6.6-2.2-19.2-1-25.7-1c-23.8-0.3-25.7-17.8-49.5-17.8c-43.8,0.1-49.3,6.6-92.7,11.6
				h-6.5c-6,0-38.1,1.4-43.4,7.5c-0.1-0.1-0.3-0.2-0.4-0.3c-1.6-1.3-2.3-2.4-2.4-3.5c0.1-6.3,25.9-8.2,38.4-9.2
				c0.5,0,0.9-0.1,1.4-0.1c2-0.1,3.5-0.3,4.4-0.4h6.5c43.4-4,48.8-11.2,92.7-11.3c2.6,0,5,0.2,7.1,0.6c0.6,0.1,1.2,0.2,1.8,0.4
				c0.3,0.1,0.6,0.1,0.9,0.2c2,0.5,3.8,1.2,5.4,1.9c0,0,0,0,0,0c11.2,5.1,16.9,14.8,34.3,15c6.9,0.1,20.8-1.2,26.9,1.6
				C483.6,541.2,483.8,542.6,485.1,543.5z"/>
			<polygon class="st22" points="457.1,757.5 456.8,757.4 451.6,751.8 451.8,751.8 			"/>
			<polygon class="st1" points="451.6,751.8 456.8,757.4 422.9,748 422.9,748 			"/>
			<polygon class="st21" points="451.8,751.8 451.8,751.8 451.6,751.8 451.6,751.7 			"/>
			<polygon class="st23" points="451.8,751.8 451.6,751.7 415.5,712.9 415.6,712.8 			"/>
			<polygon class="st21" points="451.6,751.7 451.6,751.8 422.9,748 423,748 			"/>
			<polygon class="st24" points="451.6,751.7 423,748 422.9,748 422.8,748 422.9,748 381.1,757.3 373.7,739 415.5,712.9 			"/>
			<polygon class="st22" points="422.9,748 422.9,748 422.8,748 			"/>
			<path class="st15" d="M415.4,521.9c2,0.5,3.8,1.2,5.4,1.9C419.2,523.1,417.4,522.4,415.4,521.9z"/>
			<polygon class="st23" points="323.5,613.7 415.6,712.8 415.5,712.9 345.4,637.3 			"/>
			<polygon class="st24" points="415.5,712.9 373.7,739 334.4,641 334.4,641 337.7,635.5 345.4,637.3 			"/>
			<path class="st15" d="M412.8,521.3c0.6,0.1,1.2,0.2,1.8,0.4C414,521.6,413.4,521.5,412.8,521.3z"/>
			<polygon class="st23" points="373.7,739 381.1,757.3 324.5,769.7 			"/>
			<polygon class="st23" points="373.7,739 324.5,769.7 289.6,777.4 212.5,701.2 297.8,634 299.7,641 311,636.7 318,641 324.7,634 
				334.4,641 			"/>
			<polygon class="st25" points="323.5,613.7 345.4,637.3 337.7,635.5 334.4,641 			"/>
			<polygon class="st26" points="334.4,641 334.4,641 324.7,634 318,641 311,636.7 299.7,641 297.8,634 323.5,613.7 			"/>
			<polygon class="st2" points="324.5,769.7 298.4,786.1 289.6,777.4 			"/>
			<polygon class="st21" points="314.5,802 314.2,802 298.2,786.2 298.4,786.1 			"/>
			<polygon class="st2" points="314.2,802 272.8,802 298.2,786.2 			"/>
			<path class="st15" d="M300.7,532.5c0.5,0,0.9-0.1,1.4-0.1C301.6,532.5,301.2,532.5,300.7,532.5z"/>
			<polygon class="st21" points="289.6,777.4 298.4,786.1 298.2,786.2 289.4,777.5 			"/>
			<polygon class="st2" points="298.2,786.2 272.8,802 178.3,802 289.4,777.5 			"/>
			<polygon class="st23" points="212.5,701.2 289.6,777.4 289.4,777.5 212.4,701.3 			"/>
			<polygon class="st24" points="289.4,777.5 178.3,802 173,802 172.3,802 153,748.2 212.4,701.3 			"/>
			<path class="st27" d="M200.6,211.9c61.2,1.4,110.2,51.4,110.2,112.9c0,37.3-21.8,75.7-50.3,104.8l0.1-0.4
				c28.4-29.1,50-67.4,50-104.4C310.6,263.4,261.6,213.4,200.6,211.9z"/>
			<path class="st27" d="M200.6,211.9c61,1.5,110,51.5,110,112.9c0,37.1-21.6,75.3-50,104.4l1.5-5.5l-1.8-0.5l-2.4,8.7
				c-10,9.9-20.7,18.6-31.6,25.8l-1.7-4.2l-4.5-3l-3.1,0.7l0,0v0l-3.7,0.8l-1.4,2.7l-1.6,3l0.9,3.5l1.6,0.8l-3.9,0.7l-4.8,6.1
				l-0.1-0.3v0.4l-0.6,0.7l0.1,0.8c-1.9,0.8-3.7,1.6-5.5,2.3c0,0,0,0,0,0V369.1c0.3,0,0.5,0,0.8,0c14.6-0.4,26.1-12.2,26.1-26.8
				c0-14.8-11.8-26.8-26.8-26.8V211.9c0,0,0,0,0,0c0,0,0,0,0,0C198.9,211.9,199.8,211.9,200.6,211.9z"/>
			<path class="st16" d="M265,545.5c-0.1,0.1-0.1,0.2-0.2,0.2c-0.1,0-0.1-0.4-0.2-0.4c-1.6-1.3-2.4-2.5-2.4-3.6c0,1,0.8,2.2,2.4,3.5
				C264.8,545.3,264.9,545.4,265,545.5z"/>
			<path class="st15" d="M262.3,541.8c-0.2-6.3,25.8-8.3,38.4-9.2C288.1,533.5,262.4,535.5,262.3,541.8z"/>
			<path class="st27" d="M262,423.7l-1.5,5.5c-0.9,0.9-1.8,1.8-2.7,2.7l2.4-8.7L262,423.7z"/>
			<path class="st27" d="M260.6,429.2l-0.1,0.4c-0.9,0.9-1.8,1.8-2.7,2.7l0.1-0.4C258.8,431,259.6,430.1,260.6,429.2z"/>
			<path class="st27" d="M260.4,429.6L238.9,509h-0.7l-1.2-0.3l20.7-76.3C258.6,431.4,259.5,430.5,260.4,429.6z"/>
			<path class="st27" d="M257.8,431.9l-0.1,0.4c-9.9,9.8-20.6,18.5-31.4,25.6l-0.1-0.2C237.1,450.6,247.9,441.8,257.8,431.9z"/>
			<path class="st3" d="M257.7,432.3L237,508.7l1.2,0.3h-4.1l-0.3-1.4l-5.1-2.6l0,0h-4.5c0-0.1,0-0.1,0-0.2h-9.4c0,0.1,0,0.1,0,0.2
				h-5.9l-4.8,2.5L204,509h-47.7l1.3-0.4L136.5,431c18.8,18.7,40.5,33.5,61.2,41.8c0.1,0,0.2-0.1,0.3-0.1c0,0,0,0.1,0.1,0.1
				c1.8-0.7,3.6-1.5,5.4-2.3l0.8,9.2l0.8,9l0-0.1l0.7,7.7l0,0.6v0l3.2,2.6l1.8,1.5h0l0.1,0h7l8.4,0l0,0h0l5-4.1l0.7-8.1l1.1-12.2
				l0.3-3l3.4,3l-1.9-8.2l-1.3,0.3l-0.6-3.6l-5.2-3.5l-2-0.2l0.6-3l-0.2-0.5C237.1,450.8,247.8,442.1,257.7,432.3z"/>
			<polygon class="st27" points="239.2,509 236.6,531.3 236,531.3 236,518.8 235.8,517.9 236.2,518.8 234.1,509 238.2,509 
				238.8,509.2 238.9,509 			"/>
			<polygon class="st27" points="238.9,509 238.8,509.2 238.2,509 			"/>
			<polygon class="st28" points="234.9,468.4 236.8,476.6 233.4,473.6 233.4,473.6 233.8,469.6 233.6,468.7 			"/>
			<polygon class="st27" points="236.6,531.3 231.6,575 209,575 209,515.5 210,512.7 210,531 210,531.9 210,534 227.3,534 227,547 
				228.7,547 228.7,534 229,534 229,531 228.7,531 228.6,512.5 228.6,511.9 229,513.7 228.7,512.9 230,518.6 230.4,522.2 
				231.1,530.8 231.2,530.9 231.2,530.9 232.1,530.9 232.1,533.4 235.4,533.7 235.8,531.2 236,531.3 			"/>
			<polygon class="st27" points="234.1,509 236.2,518.8 235.8,517.9 233.9,509 			"/>
			<polygon class="st27" points="236,518.8 236,531.3 235.8,531.2 235.8,531.2 232.1,530.9 232.1,530.9 231.2,518.5 231.1,518.5 
				229,513.7 228.6,511.9 228.6,512.5 228.2,509 231.6,509 232.4,509.9 235.8,517.9 			"/>
			<polygon class="st27" points="235.8,517.9 232.4,509.9 231.6,509 233.9,509 			"/>
			<polygon class="st27" points="235.8,531.2 235.8,531.2 232.1,530.9 			"/>
			<polygon class="st27" points="235.8,531.2 235.4,533.7 232.1,533.4 232.1,530.9 232.1,530.9 			"/>
			<polygon points="233.7,507.6 234.1,509 233.9,509 233.6,507.5 228.7,505 			"/>
			<path d="M233.9,509h-2.3l-1.2-1.4l-2.5-0.4l-0.1-0.6l0,0.6l-4.3-0.5c0.4-0.5,0.6-1.1,0.6-1.7h4.5l0,0l4.9,2.5L233.9,509z"/>
			<polygon class="st28" points="233.6,468.7 233.8,469.6 232.9,468.9 			"/>
			<polygon class="st28" points="233.8,469.6 233.4,473.6 232.2,472.5 227.5,470.8 227.5,470.8 227,470.1 232.9,468.9 			"/>
			<polygon class="st28" points="233.1,465.1 233.6,468.7 232.9,468.9 226.6,464 227.9,461.6 			"/>
			<polygon class="st29" points="233.4,473.6 233.4,473.6 233.1,476.6 227.5,470.8 227.5,470.8 232.2,472.5 			"/>
			<path class="st10" d="M233.1,476.6l-1.1,12.2l-1.6,4.3l-1.3,1.1l-5.3-5.3h-9.6l-5.6,5.3l-1.1-0.7l-0.9-1.8l1-6.3
				c1,1.2,2.5,1.9,4.1,1.9c2.9,0,5.3-2.3,5.4-5.3c0.2-0.2,0.7-0.6,1.3-0.6c0.4,0,0.9,0.2,1.4,0.6c0.1,2.9,2.5,5.2,5.4,5.2
				c3,0,5.4-2.4,5.4-5.4c0-3-2.4-5.4-5.4-5.4l0,0c-2.7,0-5,2-5.4,4.6c-0.5-0.3-1-0.5-1.5-0.5c-0.5,0-1,0.2-1.3,0.5
				c-0.4-2.6-2.6-4.6-5.3-4.6c-1.3,0-2.6,0.5-3.5,1.3l0.5-6.5l0.6-1.2l6.4,0.3l0.1,0.1l0-0.1l2.5,0.1l3.6-0.3l4.9-0.4l0.5,0.7l0,0
				l5.5,7.8L233.1,476.6z M220.3,488.4L220.3,488.4c0-1-0.8-1.8-1.8-1.8s-1.8,0.8-1.8,1.7l0,0.1H220.3z"/>
			<polygon class="st28" points="227.5,470.8 233.1,476.6 233,478.5 			"/>
			<polygon class="st28" points="226.6,464 232.9,468.9 227,470.1 222.1,470.5 222.1,470.3 225.5,466.3 			"/>
			<polygon class="st27" points="231.2,518.5 232.1,530.9 231.2,530.9 230.4,522.2 230,518.4 229,513.7 231.1,518.5 			"/>
			<polygon class="st27" points="232.1,530.9 231.2,530.9 231.2,530.9 			"/>
			<polygon class="st10" points="232.1,488.9 231.4,496.9 226.3,501 226.3,501 231.3,496.9 			"/>
			<polygon class="st30" points="232.1,488.9 231.3,496.9 226.3,501 220.1,501 217.9,501 217.9,501 218.5,501 218.4,499.1 
				224.6,497.8 226.1,496.7 226.5,497.8 229.9,495 229.1,494.3 230.4,493.1 			"/>
			<polygon class="st31" points="231.6,509 228.2,509 228,507.2 230.4,507.6 			"/>
			<polygon class="st27" points="230.4,522.2 231.2,530.9 231.1,530.8 			"/>
			<polygon class="st27" points="230.4,522.2 230,518.6 228.7,512.9 229,513.7 230,518.4 			"/>
			<polygon class="st30" points="229.9,495 226.5,497.8 226.1,496.7 227.5,495.7 229.1,494.3 			"/>
			<path d="M225.3,476.6c3,0,5.4,2.4,5.4,5.4c0,3-2.4,5.4-5.4,5.4c-2.9,0-5.3-2.3-5.4-5.2c-0.4-0.5-0.9-0.7-1.4-0.6
				c-0.6,0-1.1,0.5-1.3,0.6c-0.1,2.9-2.5,5.3-5.4,5.3c-1.6,0-3.1-0.7-4.1-1.9l0.1-0.5l0-0.7c0.8,1.4,2.3,2.3,4,2.3v0
				c2.5,0,4.6-2.1,4.6-4.6c0-2.5-2.1-4.6-4.6-4.6c-1.4,0-2.7,0.7-3.6,1.7l0.1-1.2c0.9-0.8,2.2-1.3,3.5-1.3c2.7,0,4.9,2,5.3,4.6
				c0.3-0.2,0.8-0.4,1.3-0.5c0.5,0,1,0.1,1.5,0.5C220.4,478.6,222.6,476.6,225.3,476.6L225.3,476.6z M230,482c0-2.5-2.1-4.6-4.6-4.6
				c-2.6,0-4.6,2.1-4.6,4.6c0,2.6,2.1,4.6,4.6,4.6v0C227.9,486.7,230,484.6,230,482z"/>
			<polygon class="st30" points="223.9,489 229.1,494.3 227.5,495.7 226.1,496.7 223.6,491 214.8,491 212.1,496.5 211,495.7 
				208.7,494.3 214.3,489 			"/>
			<polygon class="st27" points="229,531 229,534 228.7,534 228.7,531 			"/>
			<path class="st10" d="M225.4,477.4c2.5,0,4.6,2.1,4.6,4.6c0,2.6-2.1,4.6-4.6,4.6v0c-2.6,0-4.6-2.1-4.6-4.6
				C220.7,479.5,222.8,477.4,225.4,477.4z M225.9,485.6v-1h-3.7L225.9,485.6z M225.5,482.6v-3h-2v1.2h-1v1.8H225.5z"/>
			<polygon class="st27" points="228.7,534 228.7,547 227,547 227.3,534 			"/>
			<polygon class="st27" points="228.7,531 228.7,534 227.3,534 227.4,531 			"/>
			<polygon class="st27" points="228.6,512.5 228.7,531 227.4,531 227.8,509 228.2,509 			"/>
			<polygon points="228,507.2 228.2,509 227.8,509 227.9,507.2 227.9,507.2 			"/>
			<polygon points="227.9,506.6 228,507.2 227.9,507.2 227.9,507.2 			"/>
			<path class="st31" d="M227.9,507.2l0,1.8H209h-5l0.1-1.5l4.8-2.5l6,0.7c0.5,1.7,2.4,3,4.5,3c1.7,0,3.2-0.8,4-2L227.9,507.2z"/>
			<polygon class="st30" points="227.9,461.6 226.6,464 225.8,463.4 			"/>
			<path class="st28" d="M227.9,461.6l-2.1,1.8l-0.3-0.2H218c0.8-0.5,1.6-0.9,2.4-1.4l3,0l2.4,0.3l0.1-0.3L227.9,461.6z"/>
			<polygon class="st32" points="227.9,461.6 225.8,461.6 225.9,461.4 			"/>
			<polygon class="st27" points="227.8,509 227.4,531 211.8,531 210,512.7 210.1,512.4 209,514.2 209,509 			"/>
			<polygon class="st29" points="227.5,470.8 227.5,470.8 227.5,470.8 			"/>
			<polygon class="st27" points="227.4,531 227.3,534 210,534 210,531.9 211.9,531.9 211.8,531 			"/>
			<polygon class="st30" points="226.6,464 225.5,466.3 222.1,470.3 224.1,464.9 225.8,463.4 			"/>
			<path class="st28" d="M226.3,457.9l0.2,0.5l-0.6,3l-4.4-0.4C223.1,460,224.7,459,226.3,457.9z"/>
			<path class="st28" d="M226.2,457.8l0.1,0.2c-1.6,1.1-3.2,2.1-4.8,3l-0.3,0C222.9,459.9,224.6,458.9,226.2,457.8z"/>
			<polygon class="st30" points="226.3,501 226.3,501.1 217.9,501 220.1,501 			"/>
			<path class="st28" d="M224.5,453.5l1.7,4.2c-1.7,1.1-3.4,2.2-5,3.2l-2.1-0.2l-0.9,0.2l0.6-7.3l-2-2.5l3.1-0.7L224.5,453.5z"/>
			<path class="st10" d="M223.6,491l2.4,5.7l-1.5,1.1l-6.2,1.3v0l-4.6-1.3l-1.7-1.2l2.6-5.5H223.6z M223.6,493.7L223.6,493.7
				l-8.9-0.1v0.1c0,2.2,2,4.1,4.4,4.1C221.6,497.8,223.6,495.9,223.6,493.7z"/>
			<polygon class="st12" points="225.9,484.6 225.9,485.6 222.2,484.6 			"/>
			<path class="st32" d="M225.9,461.4l-0.1,0.2l-2.5,0l-2.5-0.3c0.2-0.1,0.4-0.3,0.6-0.4L225.9,461.4z"/>
			<polygon class="st28" points="225.8,461.6 225.8,461.9 223.4,461.6 			"/>
			<path class="st28" d="M225.8,463.4l-1.7,1.5l-1.9,5.4l0,0.2l-3.6,0.3l-2.5-0.1l0.7-2.3l-0.5-4.3c0.6-0.3,1.1-0.6,1.7-1h7.5
				L225.8,463.4z"/>
			<polygon class="st33" points="225.5,479.6 225.5,482.6 222.6,482.6 222.6,480.8 223.6,480.8 223.6,479.6 			"/>
			<path class="st10" d="M224.2,504.8c0,0.1,0,0.1,0,0.2h-9.4c0-0.1,0-0.1,0-0.2H224.2z"/>
			<path d="M214.8,505h9.4c-0.1,0.6-0.3,1.2-0.6,1.7l-8.6-1C214.9,505.5,214.8,505.2,214.8,505z"/>
			<path class="st34" d="M223.6,493.6L223.6,493.6c0,2.3-2,4.1-4.5,4.1c-2.5,0-4.4-1.8-4.4-4.1v-0.1H223.6z"/>
			<path class="st10" d="M214.9,505.7l8.6,1c-0.8,1.2-2.3,2-4,2C217.3,508.7,215.5,507.4,214.9,505.7z"/>
			<path class="st32" d="M223.4,461.6l-3,0c0.2-0.1,0.3-0.2,0.5-0.3L223.4,461.6z"/>
			<path class="st32" d="M221.5,461c-0.2,0.1-0.4,0.3-0.6,0.4l-0.3,0c0.2-0.1,0.4-0.2,0.6-0.4L221.5,461z"/>
			<path class="st32" d="M221.2,461c-0.2,0.1-0.4,0.3-0.6,0.4l-1.5-0.2l-3,0.6l-0.1-0.5l2.3-0.4l0,0.2l0-0.2l0.9-0.2L221.2,461z"/>
			<path class="st32" d="M220.9,461.4c-0.2,0.1-0.3,0.2-0.5,0.3l-0.4,0c0.2-0.1,0.4-0.2,0.6-0.4L220.9,461.4z"/>
			<path class="st32" d="M220.6,461.3c-0.2,0.1-0.4,0.2-0.6,0.4l-1.5,0L216,462l0-0.1l3-0.6L220.6,461.3z"/>
			<path class="st28" d="M220,461.7l0.4,0c-0.8,0.5-1.6,1-2.4,1.4h-0.4C218.4,462.6,219.2,462.2,220,461.7z"/>
			<path class="st14" d="M220.3,488.4L220.3,488.4l-3.5,0.1l0-0.1c0-1,0.8-1.7,1.8-1.7S220.3,487.4,220.3,488.4z"/>
			<path class="st28" d="M218.5,461.7l1.5,0c-0.8,0.5-1.6,1-2.4,1.4h-1.4L216,462L218.5,461.7z"/>
			<polygon class="st30" points="216.9,451.2 218.9,453.7 218.3,460.9 218.2,461 216.9,451.2 			"/>
			<polygon class="st30" points="218.4,499.1 218.5,501 217.9,501 			"/>
			<polygon class="st30" points="218.4,499 218.4,499.1 217.9,501 210.8,501 209,499.5 205.9,496.9 206.7,491.8 207.6,493.6 
				208.7,494.3 208,495 212,496.9 212.1,496.5 213.8,497.8 			"/>
			<polygon class="st32" points="218.3,460.9 218.3,461.2 218.2,461 			"/>
			<polygon class="st28" points="216.9,451.2 218.2,461 216,461.4 213.7,461.8 214.5,453.7 213.2,451.9 			"/>
			<path class="st28" d="M217.6,463.1h0.4c-0.6,0.3-1.1,0.7-1.7,1l0-0.2C216.7,463.6,217.1,463.4,217.6,463.1z"/>
			<path class="st35" d="M198,315.5c15,0,26.8,12,26.8,26.8c0,14.6-11.4,26.4-26.1,26.8c14.2-0.7,25.4-12.4,25.4-26.8
				C224.2,327.7,212.5,315.8,198,315.5L198,315.5z"/>
			<polygon class="st10" points="217.9,501 217.9,501 210.9,501 210.8,501 			"/>
			<path class="st28" d="M216.2,463.1h1.4c-0.5,0.3-0.9,0.5-1.4,0.8L216.2,463.1z"/>
			<path class="st3" d="M198,315.5c14.5,0.3,26.2,12.2,26.2,26.8c0,14.4-11.3,26.1-25.4,26.8c-0.3,0-0.5,0-0.8,0c-0.2,0-0.4,0-0.6,0
				c-14.8,0-26.8-12-26.8-26.8c0-14.8,12-26.8,26.8-26.8C197.6,315.5,197.8,315.5,198,315.5z"/>
			<polygon class="st30" points="216.9,451.1 216.9,451.2 216.9,451.2 			"/>
			<path class="st30" d="M216.3,464.1l0.5,4.3l-0.7,2.3h-0.1l-1.6-4.9l0.3-0.6C215.1,464.7,215.7,464.4,216.3,464.1z"/>
			<path class="st30" d="M216.3,463.9l0,0.2c-0.6,0.3-1.1,0.6-1.7,0.9l0.1-0.3C215.2,464.5,215.7,464.2,216.3,463.9z"/>
			<path class="st30" d="M216.2,463.1l0.1,0.8c-0.5,0.3-1,0.6-1.6,0.9l0.6-1.6H216.2z"/>
			<polygon class="st30" points="216,462 216.2,463.1 215.3,463.1 215.7,462 			"/>
			<polygon class="st32" points="216,462 215.7,462 215.8,461.9 216,461.8 			"/>
			<polygon class="st32" points="216,461.4 216,461.8 215.8,461.9 			"/>
			<polygon class="st30" points="216,470.6 216,470.8 215.9,470.6 			"/>
			<polygon class="st32" points="216,461.4 215.8,461.9 214.9,462.1 213.7,462.2 213.7,461.8 			"/>
			<path class="st28" d="M214.3,465.7l1.6,4.9l-6.4-0.3l0.4-2.8c1.6-0.8,3.1-1.6,4.7-2.5L214.3,465.7z"/>
			<polygon class="st32" points="215.8,461.9 215.7,462 214.9,462.1 			"/>
			<polygon class="st28" points="215.7,462 215.3,463.1 211.7,463.1 208.8,465.4 208,464.9 208.3,465.8 204.2,469 204.1,468.7 
				208.9,462.6 213.4,462.2 213.6,462.3 214.9,462.1 			"/>
			<path class="st10" d="M211.9,477.4c2.6,0,4.6,2.1,4.6,4.6c0,2.6-2.1,4.6-4.6,4.6v0c-1.7,0-3.2-0.9-4-2.3l0.4-5.3
				C209.1,478.1,210.4,477.4,211.9,477.4z M213.8,482.6v-3h-1.9v1.2h-1v1.8H213.8z M210.1,485.6l3.7-1h-3.7V485.6z"/>
			<path class="st28" d="M215.3,463.1l-0.6,1.6c-1.6,0.9-3.1,1.7-4.7,2.5l0.1-0.9l-1.3-1l3-2.3H215.3z"/>
			<path d="M214.9,505.7l-6-0.7h5.9C214.8,505.2,214.9,505.5,214.9,505.7z"/>
			<polygon class="st28" points="214.9,462.1 213.6,462.3 213.7,462.2 			"/>
			<path class="st28" d="M214.7,464.8l-0.1,0.3c-1.6,0.9-3.1,1.7-4.7,2.5l0-0.2h0C211.5,466.5,213.1,465.6,214.7,464.8z"/>
			<polygon class="st30" points="213.2,451.9 214.5,453.7 213.7,461.8 213.5,461.8 211.8,454.6 			"/>
			<polygon class="st33" points="213.8,479.6 213.8,482.6 210.9,482.6 210.9,480.8 211.9,480.8 211.9,479.6 			"/>
			<polygon class="st12" points="213.8,484.6 210.1,485.6 210.1,484.6 			"/>
			<polygon class="st32" points="213.7,461.8 213.7,462.2 213.6,462.2 213.5,461.8 			"/>
			<polygon class="st30" points="213.7,462.2 213.6,462.3 213.6,462.2 			"/>
			<polygon class="st28" points="213.6,462.2 213.6,462.3 213.4,462.2 			"/>
			<polygon class="st32" points="213.5,461.8 213.6,462.2 213.4,462.2 212.9,461.9 			"/>
			<polygon class="st28" points="211.8,454.6 213.5,461.8 212.9,461.9 211.2,461.1 210.3,457.6 			"/>
			<polygon class="st32" points="213.4,462.2 208.9,462.6 212.9,461.9 			"/>
			<polygon class="st23" points="115.3,605.1 212.5,701.2 212.4,701.3 129.5,619.2 128.8,618.5 			"/>
			<polygon class="st24" points="129.5,619.2 212.4,701.3 153,748.2 107.7,621.6 113.2,613.7 			"/>
			<polygon class="st30" points="212.1,496.5 212,496.9 208,495 208.7,494.3 211,495.7 			"/>
			<polygon class="st27" points="211.8,531 211.9,531.9 210,531.9 210,531 			"/>
			<polygon class="st27" points="210,512.7 211.8,531 210,531 210,512.7 			"/>
			<polygon class="st30" points="210.8,501 210.8,501 209,499.5 			"/>
			<path class="st30" d="M210.1,466.4l-0.1,0.9h0c-0.4,0.2-0.8,0.4-1.1,0.6l-0.6-2l0.5-0.4L210.1,466.4z"/>
			<polygon class="st27" points="210.1,512.4 210,512.7 210,512.6 209,515.4 209,514.2 			"/>
			<polygon class="st27" points="210,512.6 210,512.7 210,512.7 			"/>
			<polygon class="st27" points="210,512.6 210,512.7 209,515.5 209,515.4 			"/>
			<path class="st30" d="M210,467.3l0,0.2c-0.3,0.2-0.7,0.4-1,0.5l-0.1-0.2C209.2,467.7,209.6,467.5,210,467.3z"/>
			<path class="st30" d="M209.9,467.5l-0.4,2.8l-0.6-2.3C209.2,467.8,209.6,467.7,209.9,467.5z"/>
			<path class="st28" d="M208.9,468l0.6,2.3l-0.6,1.2l0.1-0.7l-2.3,4.5l-0.1-0.1l-1.2-3.4l-0.7-1.8C206,469.4,207.5,468.7,208.9,468
				z"/>
			<polygon class="st10" points="209,499.5 205.9,496.9 205.9,496.9 			"/>
			<polygon class="st35" points="209,515.5 209,575 163.2,575 155.6,509 155.8,509 155.8,509.1 156.4,509 204,509 203,519.4 
				203,531 204.2,531 204.2,533.4 207.8,533.4 207.8,531 207.4,531 207.7,519.1 			"/>
			<polygon class="st35" points="209,515.4 209,515.5 207.7,519.1 207.4,531 207.7,519.1 			"/>
			<polygon class="st35" points="209,514.2 209,515.4 207.7,519.1 207.4,531 206,531 205.8,519.5 			"/>
			<polygon class="st35" points="209,509 209,514.2 205.8,519.5 206,531 204.2,531 204.2,531 203,531 203,519.4 204,509 			"/>
			<polygon class="st28" points="208.9,470.8 208.9,471.4 204.4,479.7 206.6,475.3 			"/>
			<path class="st28" d="M208.8,467.8l0.1,0.2c-1.4,0.7-2.9,1.4-4.3,2l-0.1-0.1C206,469.3,207.4,468.6,208.8,467.8z"/>
			<path class="st36" d="M208.9,471.4l-0.5,6.5c-1.2,1-1.9,2.5-1.9,4.1c0,1.3,0.5,2.6,1.3,3.5l-1,6.3l-1.6-3.1l-0.8-9L208.9,471.4z"
				/>
			<path class="st28" d="M208.3,465.8l0.6,2c-1.4,0.7-2.9,1.4-4.3,2.1l-0.3-0.9L208.3,465.8z"/>
			<polygon class="st30" points="208.8,465.4 208.3,465.8 208,464.9 			"/>
			<path d="M208.4,477.9l-0.1,1.2c-0.7,0.8-1.1,1.8-1.1,2.9c0,0.9,0.2,1.7,0.6,2.4l0,0.7l-0.1,0.5c-0.8-1-1.3-2.2-1.3-3.5
				C206.5,480.4,207.2,478.9,208.4,477.9z"/>
			<path class="st36" d="M208.3,479.1l-0.4,5.3c-0.4-0.7-0.6-1.5-0.6-2.4C207.3,480.9,207.6,479.9,208.3,479.1z"/>
			<polygon class="st35" points="207.8,531 207.8,533.4 204.2,533.4 204.2,531 206,531 207.4,531 207.4,531 			"/>
			<rect x="206" y="531" class="st35" width="1.4" height="0"/>
			<polygon class="st30" points="206.7,491.8 205.9,496.9 205.8,496.3 205.1,488.7 			"/>
			<path class="st28" d="M206.6,475.3l-2.3,4.4l-0.8-9.2c0.1-0.1,0.3-0.1,0.5-0.2v2.2l2.5,2.7L206.6,475.3z"/>
			<path class="st30" d="M205.3,471.8l1.2,3.4l-2.5-2.7v-2.2c0.2-0.1,0.4-0.2,0.6-0.3L205.3,471.8z"/>
			<rect x="204.2" y="531" class="st35" width="1.8" height="0"/>
			<polygon class="st30" points="205.8,496.3 205.1,488.6 205.1,488.7 			"/>
			<path class="st30" d="M204.6,469.9l0.1,0.1c-0.2,0.1-0.4,0.2-0.6,0.3v-0.2C204.2,470.1,204.4,470,204.6,469.9z"/>
			<path class="st30" d="M204.2,469l0.3,0.9c-0.2,0.1-0.4,0.2-0.6,0.3v-1L204.2,469z"/>
			<polygon class="st30" points="204.1,468.7 204.2,469 204,469.1 204,468.9 			"/>
			<polygon class="st30" points="204,468.4 204.1,468.7 204,468.9 			"/>
			<path class="st28" d="M204,470.1v0.2c-0.2,0.1-0.3,0.1-0.5,0.2l0-0.2C203.7,470.3,203.8,470.2,204,470.1z"/>
			<path class="st28" d="M204,469.1v1c-0.2,0.1-0.3,0.1-0.5,0.2l-0.1-0.8L204,469.1z"/>
			<polygon class="st28" points="204,468.9 204,469.1 203.4,469.6 			"/>
			<path class="st27" d="M203.5,470.4l0,0.2c-1.8,0.8-3.6,1.6-5.4,2.3c-0.1,0-0.1-0.1-0.1-0.1C199.8,472,201.7,471.2,203.5,470.4z"
				/>
			<path class="st35" d="M198,472.7C198,472.7,198,472.7,198,472.7c-0.1,0-0.2,0.1-0.3,0.1c-20.7-8.3-42.4-23.1-61.2-41.8l-2.1-7.8
				l-1.8,0.5l1.2,4.5c-28.1-29-49-66.6-49-103.5c0-62.4,50.5-112.9,112.9-112.9c0.1,0,0.2,0,0.3,0c0,0,0,0,0,0c0,0,0,0,0,0v103.6v0
				c-0.2,0-0.4,0-0.6,0c-14.8,0-26.8,12-26.8,26.8c0,14.8,12,26.8,26.8,26.8c0.2,0,0.4,0,0.6,0V472.7z"/>
			<polygon class="st23" points="153,748.2 172.3,802 84.8,802 			"/>
			<path class="st35" d="M136.5,431l21.2,77.7l-1.3,0.4h-0.6l-22-80.8C134.7,429.1,135.6,430.1,136.5,431z"/>
			<polygon class="st35" points="156.4,509 155.8,509.1 155.8,509 			"/>
			<polygon class="st23" points="107.7,621.6 153,748.2 84.8,802 -2.8,802 -8,802 -8,699.4 62.6,620 62.6,620 78.2,616 87.4,627 
				94.3,613.7 107.6,621.6 			"/>
			<path class="st35" d="M134.4,423.2l2.1,7.8c-0.9-0.9-1.8-1.8-2.7-2.8l-1.2-4.5L134.4,423.2z"/>
			<polygon class="st25" points="128.8,618.5 129.5,619.2 113.2,613.7 107.7,621.6 94.3,584.4 			"/>
			<polygon class="st26" points="115.3,605.1 128.8,618.5 94.3,584.4 			"/>
			<polygon class="st23" points="94.3,584.4 115.3,605.1 94.3,584.4 			"/>
			<polygon class="st26" points="94.3,584.4 107.7,621.6 107.6,621.6 			"/>
			<polygon class="st26" points="107.6,621.6 94.3,613.7 87.4,627 78.2,616 62.6,620 62.7,620 72.2,610 94,584.8 94.3,584.4 
				94.3,584.4 			"/>
			<rect x="94.3" y="584.4" class="st25" width="0" height="0"/>
			<polygon class="st23" points="94,584.8 72.2,610 62.7,620 			"/>
			<polygon class="st26" points="62.7,620 62.6,620 62.6,620 			"/>
			<polygon class="st23" points="-8,699.4 -8,802 -99.2,802 			"/>
		</g>
		<g>
		</g>
	</g>
</g>
</svg>
