<svg xmlns="http://www.w3.org/2000/svg" xmlns:xlink="http://www.w3.org/1999/xlink" viewBox="0 0 109.588 271.765">
    <path fill="#F6CDCD" d="M86.414 214.306v5.206l8.43.71.985-5.413M65.492 248.894h8.02v10.616h-8.02zM58.533 150.092h-24.27l-13.285-10.174-6.398-67.835 21.896-15.99h36.411l21.895 15.99-6.393 67.835L75.1 150.092H50.778"/>
    <path fill="#4F4243" d="M16.96 97.296l12.1-22.305 40.332 2.907 13.96-2.906 8.503 28.102 6.036-42.638-18.157-10.176 5.69-6.782-63.603 6.782-11.117 10.66"/>
    <path fill="#5B4D4F" d="M29.06 74.99l29.99-14.536 6.19 17.144"/>
    <path fill="#473C3D" d="M59.05 60.454l-7.215 16.18 13.405.964"/>
    <path fill="#3D3335" d="M85.422 43.496l-74.72 17.442 11.118-10.66"/>
    <path fill="#F4D7D7" d="M41.988 109.39h-9.825v2.423M64.22 109.39h9.825v2.423"/>
    <path fill="#F1888C" d="M59.02 118.808c.003-.057.01-.115.01-.173 0-2.373-2.078-4.298-4.644-4.298-2.564 0-4.644 1.925-4.644 4.298 0 .058.005.116.01.173h9.27z"/>
    <path fill="#FFF" d="M91.824 163.68l-11.778-6.268h-49.83l-12.17 6.268L15 189.82v26.592h11.27l.898-26.38L33 175.285v41.128h47.046l-.062-41.638 3.515 13.338 2.033 26.29 11.467.61v-26.647"/>
    <path fill="#F6CDCD" d="M45.026 156.73c.18 4.573 5.406 8.236 11.83 8.236 6.43 0 11.655-3.663 11.835-8.236H45.027z"/>
    <path fill="#3A0909" d="M36.817 94.32v4.917H34.23v7.73h7.758V94.32M67.84 94.32v4.917h-2.585v7.73h7.756V94.32"/>
    <path fill="#F3D5D6" d="M29.06 74.99l-2.843 35.613-5.24 29.315-4.018-42.622"/>
    <path fill="#3D3335" d="M79.733 50.278l5.69 3.19-14.606 24.13"/>
    <path opacity=".1" d="M70.817 77.598l-1.69 59.797-4.906 12.017h10.86l13.307-9.836 9.504-79.29-18.157-10.09"/>
    <path opacity=".2" d="M30.217 157.412l47.855 5.546 6.433 1.337 4.93 4.918 7.44 19.192-5.113-24.704-11.716-6.288M22.818 190.412H23v26h3.27l.495-26.05 6.414-15"/>
    <path opacity=".2" d="M88.927 214.648l-2.468-26.836-.222-.076-6.155-11.79 3.35 12.033 2.038 26.416"/>
    <path opacity=".19" fill="#FFF" d="M33 175.284l4.803 41.065-4.803.01"/>
    <path fill="#F66A7E" d="M44.336 131.775c0 .043-.004.087-.004.13 0 5.546 5.277 10.044 11.785 10.044 6.51 0 11.786-4.5 11.786-10.044 0-.044-.003-.088-.004-.13H44.335z"/>
    <path fill="#6F9AC7" d="M33.05 216.608l2.1 32.804h21.624l2.04-16.273 1.963 16.272h19.36l-.09-32.664"/>
    <path fill="#9A2350" d="M33 215.412h47v7H33z"/>
    <path fill="#97C7C7" d="M35.14 248.983l-.36-5.57h22.693l-.7 5.735M60.777 249.412l-.703-6H80v6"/>
    <path opacity=".19" fill="#FFF" d="M37.865 215.412l-2.725 33.822-2.077-33.822"/>
    <path opacity=".1" d="M78.072 162.897l-2.234 86.515h4.3l-.154-73.64"/>
    <path fill="#F6CDCD" d="M41.083 248.894h8.02v10.616h-8.02z"/>
    <path opacity=".1" d="M48 249.412h1v10h-1zM73 249.412h1v10h-1z"/>
    <path fill="#F6CDCD" d="M15.977 216.36h9.066v5.138h-9.066z"/>
    <path fill="#4DDBAE" d="M38 259.412h16v9H38z"/>
    <path fill="#DEF1EA" d="M38 265.412h16v3H38z"/>
    <path fill="#4DDBAE" d="M62 259.412h16v9H62z"/>
    <path fill="#DEF1EA" d="M62 265.412h16v3H62z"/>
</svg>