<svg xmlns="http://www.w3.org/2000/svg" xmlns:xlink="http://www.w3.org/1999/xlink" viewBox="0 0 109.588 271.765">
    <path fill="#4DDBAE" d="M35 259.412h16v10H35z"/>
    <path fill="#DEF1EA" d="M35 266.412h16v3H35z"/>
    <path fill="#F6CDCD" d="M38.083 246.357h8.02v12.58h-8.02z"/>
    <path opacity=".1" d="M45 247.412h1v12h-1z"/>
    <path fill="#F6CDCD" d="M83.414 205.368v6.17l8.43.842.985-6.416"/>
    <path fill="#4DDBAE" d="M59 259.412h16v10H59z"/>
    <path fill="#DEF1EA" d="M59 266.412h16v3H59z"/>
    <path fill="#F6CDCD" d="M62.492 246.357h8.02v12.58h-8.02z"/>
    <path fill="#FFF" d="M88.824 145.108l-11.778-7.696h-49.83l-12.17 7.696L12 176.35v31.062h11.27l.898-31.036L30 159.126v48.286h47.046l-.062-49.12 3.515 15.92 2.033 31.214 11.467.78v-31.58"/>
    <path fill="#F6CDCD" d="M42.026 137.14c.18 5.418 5.406 9.758 11.83 9.758 6.43 0 11.655-4.34 11.835-9.76H42.027z"/>
    <path opacity=".2" d="M27.217 137.412l47.855 6.838 6.433 1.718 4.93 5.897 7.44 22.775-5.113-29.525-11.716-7.703M19.818 177.412H20v30h3.27l.495-30.647 6.414-17.48"/>
    <path opacity=".2" d="M85.927 205.774L83.46 173.97l-.222-.088-6.155-13.972 3.35 14.26 2.038 31.307"/>
    <path opacity=".19" fill="#FFF" d="M30 159.125l4.803 48.664-4.803.013"/>
    <path fill="#6F9AC7" d="M30.05 208.316l2.1 39.096h21.624l2.04-19.285 1.963 19.285h19.36l-.09-38.817"/>
    <path fill="#9A2350" d="M30 206.412h47v8H30z"/>
    <path fill="#97C7C7" d="M32.14 246.738l-.36-6.326h22.693l-.7 6.66M57.777 247.412l-.703-7H77v7"/>
    <path opacity=".19" fill="#FFF" d="M34.865 206.412l-2.725 40.082-2.077-40.082"/>
    <path opacity=".1" d="M75.072 144.667l-2.234 102.745h4.3l-.154-87.38M70 247.412h1v12h-1z"/>
    <path fill="#F6CDCD" d="M12.977 207.803h9.066v6.09h-9.066zM55.34 129.94H32.18l-12.676-10.36-6.104-69.07 20.89-16.28h34.74l20.892 16.28-6.102 69.07-12.676 10.36H47.938"/>
    <path fill="#F4D7D7" d="M39.553 88.496H30.18v2.468M60.766 88.496h9.373v2.468"/>
    <path fill="#F1888C" d="M55.805 98.086c.002-.058.01-.117.01-.176 0-2.416-1.984-4.376-4.432-4.376s-4.43 1.96-4.43 4.376c0 .06.004.118.007.176h8.845z"/>
    <path fill="#210505" d="M34.62 75.82v2.932h-2.47v4.61h7.403V75.82M64.22 75.82v2.932H61.75v4.61h7.4V75.82"/>
    <path fill="#F3D5D6" d="M27.217 53.47l-2.712 36.26-5 29.85-3.833-43.398"/>
    <path fill="#F66A7E" d="M45.306 112.908l-.003.092c0 3.883 3.462 7.03 7.73 7.03s7.732-3.147 7.732-7.03l-.003-.092H45.306z"/>
    <path fill="#3D3335" d="M15.672 76.182l-2.27-25.673 13.815-17.507L53 28.307l21.988 2L88.12 39.16l1.804 11.35-2 22.642-15.086-21.41-21.455 1.73-22.716-1.228"/>
    <path fill="#3D3335" d="M39.14 32.192L33 29.16l-2.387-8.88L38.02 6.003 55.146 2.4l11.44 7.603L71.593 22.4l-1.845 8.71-17.017-1.803"/>
    <path fill="#514447" d="M28.667 52.244l-3.67-13.576 5.182 3.85M21.608 64.764l-2.695-8.67L16 47.633V58M45 53.47l-4.127-12.8L45 29.764l1.952 17.632M60.546 52.244l4.906-13.576 9.536-8.36-5.836 11.907"/>
    <path d="M68.667 68.335c-6.84 0-12.507 5.057-13.497 11.626-1.188-.825-2.432-1.23-3.7-1.173-1.343.05-2.466.592-3.307 1.164-.995-6.563-6.66-11.615-13.496-11.615C27.13 68.335 21 74.465 21 82.002S27.13 95.67 34.667 95.67c7.397 0 13.427-5.912 13.646-13.258.454-.47 1.68-1.573 3.247-1.627 1.135-.06 2.318.518 3.462 1.652.232 7.334 6.255 13.23 13.645 13.23 7.536 0 13.667-6.13 13.667-13.666s-6.13-13.665-13.667-13.665zm-34 25.334C28.233 93.67 23 88.435 23 82s5.233-11.667 11.667-11.667 11.667 5.233 11.667 11.667S41.1 93.67 34.667 93.67zm34 0C62.233 93.67 57 88.435 57 82s5.233-11.667 11.667-11.667 11.667 5.233 11.667 11.667S75.1 93.67 68.667 93.67z"/>
    <path fill="#3D3335" d="M72.838 51.742l19.99-4.11 4.84 20.703-11.74-10.35-11.872-4.514"/>
    <path fill="#30282A" d="M74.056 53.47l11.87 4.514 3.096 2.73-.672 7.62"/>
    <path fill="#514447" d="M39.14 32.192l-4.612-19.458 3.493-6.73 3.175 4.396M50.78 29.307L47.29 4l5.115 6.4"/>
    <path fill="#4F4346" d="M27.217 33.003L53 28.307l21.988 2-23.605.347"/>
    <path fill="#514447" d="M17.56 98.62L24 111.29l8.4 5.18 7.153 5.18 11.55 3.556.28 5.206H32l-12.494-10.625"/>
    <path fill="#514447" d="M85.626 99.162l-4.12 10.802-7.45 6.506-7.38 5.18L51.103 125l-1.255 4.94 21.16.06 12.744-10.42"/>
    <path opacity=".15" d="M60.473 52.273l5.18 68.09-6.005 10.05h11.498l12.676-10.626 5.2-58.705 8.645 7.437-4.838-20.795-3.257.607-1.452-9.157-13.132-8.86-14.222.343"/>
    <path fill="#514447" d="M27.467 114.65l13.406-11.238H65l12.138 11.072-7 7.984-5.86-13.056H42l-7.197 10.478"/>
</svg>