<svg xmlns="http://www.w3.org/2000/svg" xmlns:xlink="http://www.w3.org/1999/xlink" viewBox="0 0 129.587 271.765">
    <path fill="#F6CDCD" d="M95.414 214.326v5.3l8.43.725.985-5.512M74.492 249.545h8.02v10.81h-8.02zM67.34 148.94H44.18l-12.676-10.36-6.104-69.07 20.89-16.28h34.74l20.892 16.28-6.102 69.07-12.676 10.36H59.938"/>
    <path fill="#F4D7D7" d="M51.553 107.496H42.18v2.468M72.766 107.496h9.373v2.468"/>
    <path fill="#F1888C" d="M67.805 117.086c.002-.058.01-.117.01-.176 0-2.416-1.984-4.376-4.432-4.376s-4.43 1.96-4.43 4.376c0 .06.004.118.007.176h8.845z"/>
    <path fill="#FFF" d="M100.824 162.787l-11.778-6.375h-49.83l-12.17 6.375L24 189.394v27.018h11.27l.898-26.83L42 174.59v41.82h47.046l-.062-42.37L92.5 187.64l2.033 26.777 11.467.63V187.91"/><path fill="#F6CDCD" d="M54.026 155.7c.18 4.657 5.406 8.387 11.83 8.387 6.43 0 11.655-3.73 11.835-8.386H54.027z"/><path fill="#8B9FC4" d="M46.62 92.152v5.007h-2.47v7.87h7.403V92.15M76.22 92.152v5.007H73.75v7.87h7.4V92.15"/><path fill="#F3D5D6" d="M39.217 72.47l-2.712 36.26-5 29.85-3.833-43.398"/><path opacity=".2" d="M39.217 156.412l47.855 5.638 6.433 1.358 4.93 5.006 7.44 19.54-5.113-25.146-11.716-6.396M31.818 190.412H32v26h3.27l.495-26.497 6.414-15.05"/><path opacity=".2" d="M97.927 214.675L95.46 187.35l-.222-.078-6.155-12.004 3.35 12.252 2.038 26.9"/><path opacity=".19" fill="#FFF" d="M42 174.593l4.803 41.813-4.803.012"/><path fill="#6F9AC7" d="M42.05 216.84l2.1 33.572h21.624l2.04-16.57 1.963 16.57h19.36l-.09-33.344"/><path fill="#9A2350" d="M42 215.412h47v7H42z"/><path fill="#97C7C7" d="M44.14 249.86l-.36-5.448h22.693l-.7 5.73M69.777 250.412l-.703-6H89v6"/><path opacity=".19" fill="#FFF" d="M46.865 215.412l-2.725 34.44-2.077-34.44"/><path opacity=".1" d="M87.072 162.15l-2.234 88.262h4.3l-.154-75.068"/><path fill="#F6CDCD" d="M50.083 249.545h8.02v10.81h-8.02z"/><path opacity=".1" d="M57 250.412h1v10h-1zM82 250.412h1v10h-1z"/><path fill="#F6CDCD" d="M24.977 216.418h9.066v5.23h-9.066z"/><path fill="#4DDBAE" d="M47 260.412h16v9H47z"/><path fill="#DEF1EA" d="M47 266.412h16v3H47z"/><path fill="#4DDBAE" d="M71 260.412h16v9H71z"/><path fill="#DEF1EA" d="M71 266.412h16v3H71z"/>
    <g class="head-jb">
        <path fill="#FFD56D" d="M66.025 72.605l-18.09-6.14-10.067 8.66-3.825 11.4-2.225 7.01-2.303 23.555-1.38 5.66L18 133.25l-2.174-11.75L.75 127.335l8.917-19.84 6.16-6.41 3.84-32.75 8.005-19.055 25.2-7.663 14.942 7.663"/><path fill="#FFD56D" d="M63.383 49.28l17.852-8.005 16.734 4.002 6.165 14.556 5.827 15.986L111 89.73l7 12.682-.833 8.878-.843 14.96-5.842-4L107 135.47l-9.53-16.034-2.056-35.204-6.28-14.6-10.46-4.886-12.65 7.85M56.763 57.67L35.46 76.766l2.49 18.312 2.51-12.31L51.65 70.37"/><path fill="#FFEA9A" d="M65.86 48.277l.164 24.328 4.108-2.545M42.18 52.244L27.67 60.902l-6.922 31.25 6.922-19.954M25.402 93.534l-3.256 13.734-6.32 8.732-9.576 5 6.975-6.19 5.025-4.846M48.75 58.16l-11.752 8.236-5.533 8.728 8.642-6.79"/><path opacity=".1" d="M51.65 70.372L40.46 82.767l-1.243 6.098 4.933-6.78M82.14 57.67l10.36 8.726 7.62 20.13 1.804 13.724-.835-21.29-9.808-17.745M97.927 50.5l9.573 10.715 2 10.983-2.25 16.667 2.25 13.547-5.787-13.916L106 72.198l-2.287-11.757M106.45 105.116l-1.808 11.95 11.682 2.02-5.51-4.338"/><path opacity=".1" d="M71.5 70.742l7.174-5.978 10.46 4.904 2.897 6.788-9.89-5.847-4.45-2.275"/><path fill="#FFED3F" d="M34.043 49.28L17.25 61.215l-1.424 9.527-5.576 8.218 7.5-3.836 8.5-13.91"/><path fill-rule="evenodd" clip-rule="evenodd" d="M63.247 79.875c-15.484.788-30.972 1.54-46.452 2.41-1.893.105-2.29-.425-2.354-2.095-.316-7.972-.732-15.94-1.193-23.905-.217-3.747 1.24-6.777 4.39-8.862 11.983-7.917 24-15.79 36.11-23.52 3.73-2.382 7.944-2.462 11.982-.585 12.452 5.78 24.873 11.62 37.286 17.48 3.968 1.873 5.99 5.043 6.233 9.233.254 4.362.49 8.727.65 13.092.04 1.146.42 1.468 1.642 1.46 5.116-.037 10.248-.165 15.317.662 1.405.23 3.19.258 3.636 1.847.46 1.63-1.078 2.536-2.276 3.246-6.428 3.826-13.136 6.934-20.908 7.308-14.69.708-29.376 1.483-44.065 2.23zM28.605 67.383c.166 3.29.39 6.574.472 9.864.032 1.29.487 1.447 1.677 1.122 6.516-1.78 13.048-3.51 19.572-5.25 10.115-2.703 20.196-5.494 30.708-6.515 7.086-.688 14.16-1.398 21.276-1.66 1.364-.05 1.838-.383 1.72-1.75-.262-2.964-.264-5.947-.515-8.91-.32-3.81-2.247-6.78-5.85-8.46-9.586-4.477-19.194-8.91-28.884-13.174-4.104-1.81-8.363-1.48-12.17.972-8 5.15-15.934 10.4-23.843 15.678-3.23 2.154-4.785 5.208-4.622 8.98.132 3.035.306 6.07.46 9.103z"/><path fill-rule="evenodd" clip-rule="evenodd" fill="#9FA49F" d="M28.605 67.383c-.154-3.032-.328-6.067-.46-9.103-.162-3.772 1.395-6.826 4.623-8.98 7.91-5.277 15.844-10.528 23.844-15.678 3.806-2.45 8.064-2.78 12.17-.97 9.69 4.264 19.298 8.696 28.884 13.172 3.603 1.68 5.53 4.65 5.85 8.46.25 2.964.253 5.947.515 8.91.12 1.368-.354 1.7-1.72 1.75-7.114.263-14.19.973-21.275 1.66-10.512 1.022-20.593 3.813-30.708 6.515-6.524 1.74-13.057 3.47-19.572 5.25-1.19.324-1.645.168-1.677-1.123-.082-3.29-.307-6.575-.473-9.864z"/><path fill-rule="evenodd" clip-rule="evenodd" fill="#DCD7DC" d="M74.065 47.754c2.872.967 5.75 1.96 8.647 2.897 1.378.447.996 1.564 1.067 2.458.068.852.354 1.81-.89 2.34-2.517 1.075-5 2.225-7.46 3.41-.91.437-1.094.1-1.206-.665-.234-1.6-.243-2.99 1.848-3.584.937-.268 1.927-.64 2.737-1.436-2.396-1.17-6.447-.983-4.745-5.42zM59.086 49.52c-2.76 1.254-5.52 2.533-8.31 3.76-1.325.584-.83 1.658-.812 2.554.02.854-.17 1.836 1.123 2.238 2.612.813 5.2 1.705 7.768 2.634.95.344 1.098-.01 1.132-.782.07-1.615-.06-3-2.203-3.38-.957-.17-1.98-.438-2.868-1.148 2.265-1.408 6.313-1.634 4.17-5.875zM65.893 55.575c-.875-1.45-1.692-2.942-2.647-4.342-.86-1.262.087-1.58.874-2.083.858-.55 1.468-.66 2.096.438 1.683 2.94 3.437 5.845 5.26 8.704.716 1.12.14 1.517-.69 1.993-.864.492-1.603.942-2.28-.346-.793-1.495-1.736-2.915-2.613-4.365z"/><path opacity=".1" fill-rule="evenodd" clip-rule="evenodd" d="M94.27 78.14l-42.643 2.593-6.193.04L95 83"/><path fill="#F66A7E" d="M52.25 131.25s2.957 4.22 4.25 5.33c1.203 1.035 3.914 3.13 5.5 3.17 3.44.084 12.25-6.28 12.25-6.28l-22-2.22z"/><path opacity=".1" d="M60 22.334L77.416 72.62l1.067 54.723.545 11.425-5.276 10.644h9.395l12.676-10.625 1.647-18.838 9.53 15.57 3.482-13.244 5.842 3.987L118 102.418l-7-12.685-.75-12.232s18.262-3.818 19.766-10.408C127.19 63.784 109 64.764 109 64.764V58.16s2.25-16.543-12.25-20.91c-11.185-5.256-20.498-9.676-27.703-12.332C63.537 21.89 60 22.334 60 22.334z"/>
    </g>
</svg>