<svg xmlns="http://www.w3.org/2000/svg" xmlns:xlink="http://www.w3.org/1999/xlink" viewBox="0 0 109.588 271.765">
    <path fill="#F6CDCD" d="M85.488 211.74v5.516l8.43.753.985-5.74M64.566 248.396h8.02v11.25h-8.02zM57.413 143.682H34.256L21.58 132.9l-6.103-71.894 20.89-16.945h34.74l20.89 16.946-6.1 71.894-12.676 10.782H50.014"/>
    <path fill="#1E1A1B" d="M17.746 87.728l11.545-23.64 38.483 3.08 13.32-3.08 8.114 29.783 5.758-45.19L77.64 37.898l5.428-7.19-60.683 7.19-10.608 11.297"/>
    <path fill="#2B2627" d="M29.29 64.09l28.616-15.41 5.907 18.17"/>
    <path fill="#161314" d="M57.906 48.68l-6.884 17.15 12.79 1.02"/>
    <path fill="#110F10" d="M83.068 30.708l-71.29 18.486 10.607-11.297"/>
    <path fill="#F4D7D7" d="M41.627 100.545h-9.374v2.57M62.84 100.545h9.373v2.57"/>
    <path fill="#F1888C" d="M57.88 110.527c0-.06.01-.122.01-.184 0-2.514-1.985-4.555-4.433-4.555s-4.43 2.04-4.43 4.555c0 .062.004.123.007.184h8.845z"/>
    <path fill="#FFF" d="M90.86 157.57l-11.74-7.158H29.29l-12.208 7.16L14 185.787v27.624h11.346l.86-27.678L32 170.382v43.03h47.12l-.06-43.85 3.513 14.275 1.997 27.935 11.43.716v-28.242"/>
    <path fill="#F6CDCD" d="M44.1 150.72c.18 4.846 5.407 8.728 11.832 8.728 6.428 0 11.654-3.882 11.834-8.73H44.1z"/>
    <path fill="#3A0909" d="M36.693 86.167v3.973h-2.468v6.246h7.402v-10.22M66.293 86.167v3.973h-2.467v6.246h7.4v-10.22"/>
    <path fill="#F3D5D6" d="M29.29 64.09l-2.71 37.742-5 31.068-3.834-45.172"/>
    <path fill="#020202" d="M77.64 37.897l5.428 3.38L69.134 66.85"/>
    <path opacity=".1" d="M69.134 66.85l-1.613 63.1-4.68 12.462H73.2l12.696-10.15 9.07-83.897L77.64 37.742"/>
    <path opacity=".2" d="M29.29 150.412l47.856 6.392 6.433 1.674 4.93 5.343 7.44 20.403-5.114-26.663-11.716-7.148M21.893 186.412H22v27h3.346l.493-27.33 6.413-15.758"/>
    <path opacity=".2" d="M88 212.102l-2.467-28.442-.22-.08-6.156-12.495 3.35 12.752 2.038 27.998"/>
    <path opacity=".19" fill="#FFF" d="M32 170.382l4.803 43.522-4.803.012"/>
    <path fill="#FFF" d="M43.867 124.27c0 .046-.004.093-.004.14 0 5.877 5.035 10.643 11.245 10.643s11.245-4.766 11.245-10.643c0-.047-.003-.094-.004-.14H43.866z"/>
    <path fill="#6F9AC7" d="M32.123 213.912l2.102 34.5H55.85l2.04-17.246 1.962 17.246h19.36l-.092-34.484"/>
    <path fill="#9A2350" d="M32 212.412h47v7H32z"/>
    <path fill="#97C7C7" d="M34.214 248.404l-.36-5.992h22.693l-.698 6.123M59.852 248.412l-.704-6H79v6"/>
    <path opacity=".19" fill="#FFF" d="M36.94 212.412l-2.726 35.846-2.077-35.846"/>
    <path opacity=".1" d="M77.146 156.988l-2.234 91.424h4.3L79.06 170.5"/>
    <path fill="#F6CDCD" d="M40.157 248.396h8.02v11.25h-8.02z"/>
    <path opacity=".1" d="M47 248.412h1v11h-1zM72 248.412h1v11h-1z"/>
    <path fill="#F6CDCD" d="M15.05 213.916h9.067v5.445H15.05z"/>
    <path fill="#4DDBAE" d="M37 259.412h16v9H37z"/>
    <path fill="#DEF1EA" d="M37 265.412h16v3H37z"/>
    <path fill="#4DDBAE" d="M61 259.412h16v9H61z"/>
    <path fill="#DEF1EA" d="M61 265.412h16v3H61z"/>
    <path fill="#1E1A1B" d="M83.58 122.89l-4.646 4.106-11.86-11.585H42.947l-12.714 11.413-4.16-2.61-6.438-13.16 1.945 21.666 12.494 10.69h19.383l-.003.11 19.627.14 12.746-10.802 1.874-21.232-4.12 11.264zm-14.83 12.162l-15.573 3.488-11.55-3.488-6.46-5.105 8.907-8.535h22.28l8.575 8.89-6.18 4.75z"/>
    <path fill="#F66A7E" d="M44.573 128.13h21.07s-1.382 3.124-3.98 4.923c-2.127-.604-13.54-.305-13.54-.305s-2.174-1.428-3.55-4.617z"/>
</svg>